<svg id="Capa_1" enable-background="new 0 0 497 497" height="512" viewBox="0 0 497 497" width="512" xmlns="http://www.w3.org/2000/svg"><g><path d="m248.5 340-27.3 54.84-47.192 34.183-47.022 5.339-41.926-35.452c-1.16-8.83-.36-17.95 2.54-26.72l4.3-13.03c5.05-15.26 15.98-27.87 30.38-35.04l59.39-29.56 14.28-7.11z" fill="#b2529f"/><path d="m248.5 340-27.3 54.84-15.724 11.389-10.536-.739c10.73-19 19.41-40.97 27.11-56.29 2.86-5.66 1.75-12.51-2.74-16.99l-37.64-37.65 14.28-7.11z" fill="#9a4588"/><path d="m411.84 399.61-27.508 33.062-69.264-4.786-37.688-29.866-28.88-58.02 52.55-52.55 73.67 36.67c14.39 7.17 25.33 19.78 30.38 35.04l4.3 13.03c2.98 9 3.74 18.38 2.44 27.42z" fill="#b2529f"/><g><path d="m166.52 376.93c-1.919 0-3.839-.732-5.303-2.197-2.929-2.929-2.929-7.678 0-10.606l50.41-50.41c2.929-2.929 7.678-2.929 10.606 0 2.929 2.929 2.929 7.678 0 10.606l-50.41 50.41c-1.464 1.465-3.384 2.197-5.303 2.197z" fill="#9a4588"/></g><path d="m411.84 399.61-12.636 15.188-13.154.402c5.83-13.38 6.71-28.67 1.97-43.01l-4.31-13.03c-5.05-15.26-15.98-27.87-30.37-35.04l-59.4-29.56 7.11-7.11 73.67 36.67c14.39 7.17 25.33 19.78 30.38 35.04l4.3 13.03c2.98 9 3.74 18.38 2.44 27.42z" fill="#9a4588"/><g><path d="m330.48 376.93c-1.919 0-3.839-.732-5.303-2.197l-52.976-52.976c-2.929-2.929-2.929-7.678 0-10.606 2.929-2.929 7.678-2.929 10.606 0l52.976 52.976c2.929 2.929 2.929 7.678 0 10.606-1.464 1.465-3.384 2.197-5.303 2.197z" fill="#9a4588"/></g><path d="m221.2 394.84v.01l-9.37 18.83c-7.17 14.39-19.78 25.32-35.04 30.37l-13.03 4.31c-6.2 2.05-12.59 3.05-18.92 3.05-3.78 0-7.55-.36-11.24-1.06-11.68-2.21-22.67-7.87-31.4-16.6-9.58-9.58-15.46-21.89-17.14-34.84 21.35 19.45 51.61 26 79.21 16.87l17.34-5.73c3.79-1.25 8.35-2.78 13.33-4.56 8.16-2.91 17.44-6.49 26.26-10.65z" fill="#ffceec"/><path d="m155.399 444.046c-6.971 3.078-14.352 5.236-21.798 6.295 9.878 1.874 20.248 1.293 30.16-1.985l13.025-4.307c15.262-5.047 27.877-15.981 35.04-30.372l9.377-18.838c-8.824 4.165-18.105 7.748-26.266 10.657-10.749 19.041-23.562 35.113-39.538 38.55z" fill="#ffbee6"/><path d="m411.84 399.61c-1.8 12.7-7.64 24.73-17.05 34.14-11.49 11.49-26.9 17.66-42.63 17.66-3.57 0-7.15-.32-10.71-.96-2.76-.5-5.5-1.2-8.21-2.09l-13.03-4.31c-15.26-5.05-27.87-15.98-35.04-30.37l-7.79-15.66c13.57 5.29 28.15 9.16 37.94 12.4l17.4 5.76c17.7 5.85 36.48 5.29 53.33-.98 9.37-3.47 18.14-8.71 25.79-15.59z" fill="#ffceec"/><path d="m386.173 415.151c-2.823 6.78-7.017 13.092-12.767 18.596-9.12 9.524-20.461 14.781-32.477 16.599 19.423 3.688 39.642-2.375 53.861-16.595 4.71-4.71 8.52-10.07 11.38-15.84 2.87-5.77 4.77-11.96 5.68-18.31-7.619 6.849-16.351 12.067-25.677 15.55z" fill="#ffbee6"/><g fill="#c365af"><path d="m217.55 256.94-18.32 51.58c-27.56 0-49.11 15.25-62.86 28.86-12.1 11.97-29.46 16.85-46.01 13.3-.75-.15-1.49-.33-2.23-.52l-9.33-2.44c-33.75-15-57.96-51.27-57.96-86.69v-13.8c0-35.26 27.59-74.63 57.54-86.41h.01l9.77-2.47c.9-.23 1.8-.43 2.7-.6 16.32-3.2 33.31 1.77 45.13 13.63 3.52 3.52 7.56 7.16 12.12 10.61 13.03 9.88 30.24 18.25 51.12 18.25z"/><path d="m297.77 308.514v-108.288c28.183 0 49.669-15.247 63.237-28.86 12.471-12.512 30.71-17.358 47.836-13.024l22.434 5.676c38.65 9.779 65.723 44.555 65.723 84.423v11.436c0 39.63-26.758 74.262-65.104 84.264l-23.03 6.007c-17.205 4.488-35.595-.266-48.231-12.775-13.752-13.613-35.305-28.859-62.865-28.859z"/><path d="m480.907 247.23v13.8c0 35.16-27.6 74.357-61.077 86.26l-10.96 2.86c-17.21 4.49-35.6-.27-48.24-12.78-13.75-13.61-35.3-28.86-62.86-28.86l-17.172-50.45 17.172-57.83c28.18 0 49.67-15.25 63.24-28.86 12.47-12.52 30.71-17.36 47.83-13.03l11.33 2.87c32.557 11.393 60.737 50.99 60.737 86.02z"/></g><path d="m497 248.44v11.44c0 39.63-26.76 74.26-65.1 84.26l-12.07 3.15c27.63-19.22 45.1-51.1 45.1-86.26v-13.8c0-35.03-17.34-66.78-44.76-86.02l11.11 2.81c38.65 9.78 65.72 44.55 65.72 84.42z" fill="#ffceec"/><g><path d="m391.71 261.81h-94.016c-4.142 0-7.5-3.358-7.5-7.5s3.358-7.5 7.5-7.5h94.016c4.142 0 7.5 3.358 7.5 7.5s-3.358 7.5-7.5 7.5z" fill="#b2529f"/></g><path d="m431.277 164.019-11.108-2.811c5.213 3.657 10.059 7.769 14.494 12.267 25.994 15.363 42.777 43.583 42.777 74.966v11.436c0 31.42-16.829 59.684-42.909 75.037-4.495 4.544-9.411 8.694-14.704 12.375l12.069-3.148c38.346-10.002 65.104-44.634 65.104-84.264v-11.436c0-39.867-27.073-74.643-65.723-84.422z" fill="#ffbee6"/><path d="m217.55 256.94-18.32 51.58c-27.56 0-49.11 15.25-62.86 28.86-12.1 11.97-29.46 16.85-46.01 13.3-.01-.01-.02-.01-.02-.02 9.17-1.98 17.76-6.47 24.64-13.28 11.9-11.78 29.65-24.79 52.08-28.07 6.17-.9 10.78-6.12 10.78-12.35v-26.32l-20.83-62.12c-2.46-7.32-7.72-13.36-14.64-16.79-11.32-5.6-20.64-13.2-27.76-20.35-6.86-6.88-15.46-11.43-24.66-13.42.3-.06.61-.13.91-.21 16.32-3.2 33.31 1.77 45.13 13.63 3.52 3.52 7.56 7.16 12.12 10.61 13.03 9.88 30.24 18.25 51.12 18.25z" fill="#b2529f"/><g><path d="m199.232 261.81h-93.942c-4.142 0-7.5-3.358-7.5-7.5s3.358-7.5 7.5-7.5h93.942c4.142 0 7.5 3.358 7.5 7.5s-3.358 7.5-7.5 7.5z" fill="#b2529f"/></g><path d="m78.8 347.72-13.7-3.57c-38.34-10-65.1-44.63-65.1-84.26v-11.44c0-39.87 27.07-74.64 65.72-84.42l12.66-3.21c-27.73 19.21-45.31 51.15-45.31 86.41v13.8c0 35.42 17.73 67.52 45.73 86.69z" fill="#ffceec"/><path d="m239.22 45.6c-.01 0-.02 0-.03-.01h.15c-.04.01-.08.01-.12.01z" fill="#d691c6"/><path d="m335.06 159.43-37.29 116.67-49.27 12.695-49.27-12.695-37.29-116.67c-3.86-11.52-4.13-23.85-.9-35.39l.7-1.4c6.74-13.38 18.18-34.17 18.18-34.17l52.65-32.06h31.86l27.74 18.3v.01l26.86 17.72s7.9 13.65 16.22 30.2l.71 1.4c3.23 11.54 2.96 23.87-.9 35.39z" fill="#d691c6"/><g><path d="m248.5 258.06c-4.142 0-7.5-3.358-7.5-7.5v-83.082c0-4.142 3.358-7.5 7.5-7.5s7.5 3.358 7.5 7.5v83.082c0 4.142-3.358 7.5-7.5 7.5z" fill="#cd7cbb"/></g><g><path d="m239.34 45.59c-.04.01-.08.01-.12.01-.01 0-.02 0-.03-.01z" fill="#d691c6"/><path d="m335.06 159.43-37.29 116.67h-14.818l-6.572-5.46 37.29-111.21c5.11-15.24 3.93-31.89-3.3-46.25-4.14-8.86-8.43-18.29-13.39-27.21l-4.81-11.25 26.86 17.72s7.9 13.65 16.22 30.2l.71 1.4c3.23 11.54 2.96 23.87-.9 35.39z" fill="#cd7cbb"/></g><path d="m335.96 124.04-.71-1.4c-8.32-16.55-21.97-29.32-38.26-36.67h-.01c-10.06-4.53-21.12-6.99-32.55-6.99h-31.86c-29.96 0-57.36 16.89-70.83 43.66l-.7 1.4c1.03-3.73 2.44-7.37 4.2-10.87l17.29-34.38c10.24-20.35 31.08-33.2 53.86-33.2h2.8c.01.01.02.01.03.01.04 0 .08 0 .12-.01h21.27c22.78 0 43.62 12.85 53.86 33.2l17.29 34.38c1.76 3.5 3.17 7.14 4.2 10.87z" fill="#ffceec"/><g><path d="m239.193 45.594c.01.001.02.001.031.002.04-.001.079-.001.118-.002z" fill="#d691c6"/><path d="m335.96 124.04-.71-1.4c-8.32-16.55-21.97-29.32-38.26-36.67h-.01c-11.79-21.23-27.39-39.56-53.95-40.38h17.58c22.78 0 43.62 12.85 53.86 33.2l17.29 34.38c1.76 3.5 3.17 7.14 4.2 10.87z" fill="#ffbee6"/></g><path d="m239.34 45.59c-.04.01-.08.01-.12.01-.01 0-.02 0-.03-.01z" fill="#ffceec"/><path d="m297.767 275.535v32.986s-22.788 11.462-42.921 31.298c-3.504 3.453-9.146 3.436-12.616-.051-20.37-20.438-42.997-31.247-42.997-31.247v-32.986c0-7.48 4.795-14.118 11.896-16.47l21.26-7.04h32.223l21.26 7.04c7.1 2.352 11.895 8.99 11.895 16.47z" fill="#8379c1"/><path d="m285.871 259.065-21.26-7.04h-21.387l21.26 7.04c7.101 2.351 11.896 8.989 11.896 16.47v21.14c0 7.114-3.708 13.698-9.763 17.432-7.446 4.592-18.182 11.901-28.707 21.501 1.445 1.341 2.888 2.724 4.32 4.161 3.47 3.487 9.112 3.504 12.616.051 20.133-19.836 42.921-31.298 42.921-31.298v-32.986c0-7.481-4.795-14.119-11.896-16.471z" fill="#6e61b6"/><path d="m264.611 252.026v33.147c0 8.9-7.211 16.12-16.111 16.12s-16.111-7.22-16.111-16.12v-33.147l9.061-3.003c4.581-1.519 9.528-1.519 14.101 0z" fill="#6fd7a3"/><path d="m255.55 249.022c-4.573-1.519-9.519-1.519-14.101 0l-1.005.333 2.828.937c3.121 1.034 5.228 3.952 5.228 7.24v27.64c0 5.962-3.244 11.157-8.056 13.946 2.716 1.575 5.924 2.395 9.35 2.123 8.452-.671 14.817-8.031 14.817-16.509v-32.706z" fill="#3ec3a4"/></g></svg>