<svg id="Capa_1" enable-background="new 0 0 497 497" height="512" viewBox="0 0 497 497" width="512" xmlns="http://www.w3.org/2000/svg"><g><path d="m80.898 408.204 97.583 5.848c16.956 1.016 33.468 5.827 48.317 14.078l57.746 32.087c4.05 2.25 1.905 8.439-2.669 7.7l-83.679-13.516-163.844-20.353 21.174-18.926z" fill="#bbf49b"/><path d="m284.544 460.217-57.746-32.087c-14.849-8.25-31.36-13.062-48.317-14.078l-97.583-5.848-3.712 1.012 80.611 4.836c16.956 1.016 33.468 5.827 48.317 14.078l57.746 32.087c2.072 1.151 2.515 3.331 1.848 5.089l16.167 2.611c4.574.739 6.719-5.45 2.669-7.7z" fill="#9be69d"/><path d="m77.179 374.76 43.082-56.981c8.794-11.631 14.474-25.314 16.503-39.754l13.677-97.34c.659-4.69-5.802-6.628-7.834-2.35l-103.238 217.419 18.785-4.47z" fill="#bbf49b"/><path d="m142.607 178.336-25.256 53.189c1.922.432 3.562 2.128 3.214 4.604l-4.485 41.897c-2.029 14.44-7.709 28.122-16.503 39.754l-39.373 52.075c-2.446 3.235-5.541 5.923-9.086 7.891l-4.343 2.412-7.406 15.596 18.785-4.471 19.026-16.523 43.082-56.981c8.794-11.631 14.474-25.314 16.503-39.754l13.677-97.34c.658-4.689-5.803-6.627-7.835-2.349z" fill="#9be69d"/><path d="m226.962 304.056 49.086 9.416c14.889 2.861 20.522 21.21 9.804 31.929-2.663 2.663-5.992 4.412-9.519 5.143-3.541.732-7.287.454-10.792-.929l-61.48-23.434 7.169-14.016z" fill="#aca6d6"/><path d="m276.048 313.472-49.086-9.416-3.849 1.984.423 1.326 31.828 6.106c14.889 2.861 20.522 21.21 9.804 31.929-1.065 1.065-2.24 1.976-3.488 2.742l3.862 1.472c3.505 1.383 7.251 1.661 10.792.929 3.526-.732 6.855-2.48 9.519-5.143 10.717-10.719 5.084-29.068-9.805-31.929z" fill="#978ecb"/><path d="m278.365 252.658 49.083 9.42c14.89 2.858 20.522 21.203 9.802 31.924-5.325 5.325-13.302 6.98-20.306 4.214l-60.315-23.822 7.064-15.632z" fill="#978ecb"/><path d="m327.448 262.078-49.083-9.42-4.061 1.689.731 1.641 31.729 6.089c14.89 2.858 20.523 21.204 9.802 31.924-1.049 1.049-2.205 1.95-3.432 2.709l3.811 1.505c7.004 2.766 14.981 1.111 20.306-4.214 10.719-10.72 5.086-29.065-9.803-31.923z" fill="#8379c1"/><path d="m329.764 201.259 49.083 9.42c14.89 2.858 20.522 21.203 9.802 31.924-5.325 5.325-13.302 6.98-20.306 4.214l-60.315-23.822 7.096-15.852z" fill="#8379c1"/><path d="m378.847 210.678-49.083-9.42-3.33 1.339v1.992l31.729 6.089c14.89 2.857 20.522 21.203 9.802 31.924-1.049 1.049-2.205 1.95-3.432 2.709l3.811 1.505c7.004 2.766 14.982 1.111 20.306-4.214 10.72-10.72 5.087-29.066-9.803-31.924z" fill="#6e61b6"/><path d="m381.164 149.859 49.083 9.42c14.89 2.858 20.522 21.204 9.802 31.924-5.325 5.325-13.302 6.98-20.306 4.214l-60.315-23.822 6.001-14.711z" fill="#aca6d6"/><path d="m430.247 159.279-49.083-9.42-3.331 1.487v1.844l31.729 6.089c14.89 2.858 20.522 21.203 9.802 31.924-1.049 1.05-2.205 1.951-3.433 2.709l3.811 1.505c7.004 2.766 14.982 1.111 20.306-4.214 10.721-10.721 5.088-29.067-9.801-31.924z" fill="#978ecb"/><path d="m432.563 98.46 49.083 9.42c14.89 2.858 20.522 21.204 9.802 31.924-5.325 5.325-13.302 6.98-20.306 4.214l-60.315-23.822 9.835-14.978z" fill="#978ecb"/><path d="m481.646 107.879-49.083-9.42-3.33 3.33 31.729 6.089c14.89 2.858 20.522 21.204 9.802 31.924-1.049 1.049-2.205 1.95-3.432 2.709l3.811 1.505c7.004 2.766 14.981 1.111 20.306-4.214 10.72-10.719 5.087-29.065-9.803-31.923z" fill="#8379c1"/><path d="m212.332 274.792-23.219-60.915c-1.383-3.505-1.661-7.251-.929-10.792.732-3.527 2.48-6.855 5.143-9.519 10.719-10.719 29.068-5.085 31.929 9.804l9.416 49.086-8.146 17.717z" fill="#8379c1"/><path d="m225.256 203.371c-2.607-13.569-18.076-19.444-28.912-12.268 4.059 2.622 7.181 6.822 8.228 12.268l8.222 42.86c.747 3.894-.485 7.904-3.289 10.708l-2.88 2.88 5.708 14.974 14.194-4.619 8.146-17.717z" fill="#6e61b6"/><path d="m286.069 201.054-9.42-49.083c-2.858-14.89-21.204-20.522-31.924-9.802-5.325 5.325-6.98 13.302-4.214 20.306l23.822 60.315 14.188-5.324z" fill="#aca6d6"/><path d="m276.65 151.971c-2.604-13.569-18.069-19.444-28.906-12.267 4.057 2.622 7.177 6.822 8.222 12.267l8.225 42.858c.747 3.894-.484 7.904-3.288 10.708l-2.426 2.426 5.856 14.828 14.188-5.324 7.549-16.413z" fill="#978ecb"/><path d="m337.469 149.655-9.42-49.083c-2.858-14.89-21.203-20.522-31.924-9.802-5.325 5.325-6.98 13.302-4.214 20.306l23.822 60.315 13.845-4.793z" fill="#8379c1"/><path d="m328.049 100.572c-2.604-13.57-18.07-19.445-28.906-12.267 4.057 2.622 7.177 6.822 8.222 12.267l8.225 42.857c.747 3.894-.484 7.904-3.288 10.708l-2.426 2.426 5.856 14.828 13.845-4.793 7.892-16.944z" fill="#6e61b6"/><path d="m388.868 98.255-9.42-49.083c-2.858-14.89-21.203-20.522-31.924-9.802-5.325 5.325-6.98 13.302-4.214 20.306l23.822 60.315 10.701-3.511z" fill="#aca6d6"/><path d="m379.449 49.172c-2.604-13.569-18.069-19.444-28.906-12.266 4.057 2.622 7.177 6.822 8.222 12.266l8.225 42.858c.747 3.894-.484 7.904-3.288 10.708l-2.426 2.426 5.856 14.828 10.701-3.511 11.035-18.226z" fill="#978ecb"/><path d="m410.827 120.196-21.949-21.949 53.397-62.856c6.833-8.044 19.078-8.541 26.542-1.078l5.945 5.945c7.463 7.463 6.966 19.708-1.078 26.542z" fill="#8379c1"/><path d="m474.76 40.258-5.945-5.945c-6.868-6.868-17.776-6.977-24.799-.684.254.227.516.44.761.684l5.945 5.945c7.463 7.463 6.966 19.708-1.078 26.542l-49.859 42.355 11.041 11.041 62.856-53.396c8.044-6.834 8.541-19.079 1.078-26.542z" fill="#6e61b6"/><g><path d="m412.543 118.481-1.718 1.718-29.665 29.665-21.729 21.729h-.01l-29.654 29.665-21.739 21.739-29.665 29.665-21.738 21.738-29.665 29.654-6.839 6.839c-5.225 5.225-10.575 10.326-16.048 15.282h-.01c-25.743 23.363-54.084 43.674-84.524 60.571l-38.636 21.46-46.551 25.836-24.216 13.45c-4.548 2.527-10.136-.762-10.136-5.964v-19.9c0-2.478 1.344-4.762 3.511-5.965l35.859-19.914 37.808-20.984v-.01l27.295-15.148c34.373-19.08 65.9-42.857 93.702-70.659l14.155-14.155 22.339-22.339 29.665-29.665 21.739-21.739 29.665-29.654v-.01l73.143-73.143 1.718-1.718c6.063-6.053 15.883-6.053 21.946 0 6.061 6.064 6.061 15.893-.002 21.956z" fill="#6fd7a3"/></g><path d="m412.543 96.525c-6.063-6.053-15.883-6.053-21.946 0l-1.303 1.303c4.677 5.53 5.904 13.903-.79 20.654-13.419 13.42-39.834 39.834-53.111 53.111h-.01c-50.638 50.084-104.063 105.265-155.349 154.583h-.01c-51.283 47.385-118.424 79.16-180.024 113.284v2.068c0 5.202 5.588 8.491 10.136 5.965l24.216-13.45 46.551-25.836 38.636-21.46c30.441-16.897 58.781-37.208 84.524-60.571h.01c5.474-4.956 10.823-10.057 16.048-15.282l6.839-6.839 29.665-29.654 21.739-21.739 29.665-29.665 21.739-21.739 29.654-29.665h.01l21.729-21.729 29.665-29.665 1.718-1.718c6.062-6.063 6.062-15.892-.001-21.956z" fill="#3ec3a4"/></g></svg>