<svg id="Capa_1" enable-background="new 0 0 497 497" height="512" viewBox="0 0 497 497" width="512" xmlns="http://www.w3.org/2000/svg"><g><path d="m266.77 216.4-35 36.81-6.59 6.93-8.28-4.87-48.95-28.79c-18.9-11.11-31.59-30.32-34.4-52.06l-4.83-37.3c-.68-5.26-.77-10.57-.26-15.85l8.33-87.32c.62-6.49 4.3-12.2 9.76-15.48 1.05-.63 2.17-1.18 3.34-1.62l10.6-3.97 1.63-.61c8.57-3.21 18.23-.29 23.59 7.12l32.68 45.18c8.87 12.25 15.38 26.05 19.22 40.67z" fill="#fea95c"/><path d="m231.77 253.21-6.59 6.93-8.28-4.87-8.11-56.38c-.59-4.1 2.25-7.9 6.35-8.49 4.11-.59 7.91 2.25 8.5 6.35z" fill="#fe9738"/><path d="m237.61 105.244c-3.837-14.629-10.353-28.421-19.217-40.675l-32.681-45.179c-5.364-7.415-15.023-10.329-23.592-7.118l-3.881 1.454c2.411 1.397 4.562 3.299 6.274 5.665l32.68 45.178c18.82 21.576 33.757 97.356 44.094 136.941 2.473 9.469-.14 19.537-6.883 26.63l-22.818 24.003 13.599 7.997 41.582-43.743z" fill="#fe9738"/><path d="m264.08 286.878v200.308c0 3.641-2.951 6.592-6.592 6.592h-17.976c-3.641 0-6.592-2.951-6.592-6.592v-200.308z" fill="#6fd7a3"/><path d="m264.08 286.878h-.001v-.002h-15.579v.002h-15.58v69.4l8.97 29.8c.692 2.296 1.493 4.543 2.398 6.737 2.758 6.689 4.212 13.842 4.212 21.077v69.697c0 4.542-2.822 8.606-7.078 10.192h16.065c3.641 0 6.592-2.951 6.592-6.592z" fill="#3ec3a4"/><path d="m245.18 326.56-5.56 40.25c-1.22 8.88-3.78 17.47-7.53 25.5s-8.71 15.49-14.73 22.13c-6.51 7.16-14.14 13.21-22.59 17.91l-88.91 49.45c-4.67 2.6-9.85 3.9-15.04 3.9-4.52 0-9.03-.99-13.23-2.98-.17-.07-.34-.16-.51-.24-4.52-2.24-8.27-5.46-11.09-9.29-5.84-7.86-7.79-18.31-4.53-28.15l7.01-21.14 11.82-62.07c3.23-16.94 10.71-32.78 21.75-46.02l25.02-30c12.75-15.3 31.51-24.32 51.42-24.72l38.14-.78 8.56-.17 16.148 28.374z" fill="#fea95c"/><path d="m225.18 260.138-21.072.429 14.173 47.069c3.78 12.555 4.825 25.765 3.134 38.768-3.192 24.548-7.934 51.375-25.258 68.034-12.135 16.891-93.667 55.661-111.497 67.362-1.438.799-2.927 1.463-4.447 2.017 3.429 1.253 7.017 1.882 10.607 1.882 5.19 0 10.37-1.3 15.04-3.9l88.91-49.45c8.45-4.7 16.08-10.75 22.59-17.91 6.02-6.64 10.98-14.1 14.73-22.13s6.31-16.62 7.53-25.5l5.56-40.25-3.852-38.045z" fill="#fe9738"/><path d="m497 330.24c0 2.33-.4 4.64-1.18 6.83-1.2 3.41-3.33 6.52-6.32 8.95-1.13.92-2.33 1.7-3.6 2.35-2.87 1.45-6.03 2.2-9.22 2.2-2.71 0-5.43-.54-8-1.64-9.17-3.93-18.94-6.27-28.9-6.94-13.34-.88-34.2-1.5-50.06-1.87-14.62-.34-28.92-4.24-41.69-11.37l-67.87-37.91-54.98-30.7 40.58-26.7 13.88-9.13 104.45-12.24 55.72 37.34c9.87 6.61 18.29 15.14 24.78 25.09l29.11 44.65c2.23 3.41 3.3 7.27 3.3 11.09z" fill="#fea95c"/><path d="m280.16 290.84-54.98-30.7 40.58-26.7-28.71 26.06z" fill="#fe9738"/><path d="m493.701 319.152-29.112-44.654c-6.484-9.946-14.911-18.479-24.774-25.088l-55.721-37.336-18.046 2.114 52.565 35.222c20.688 11.74 40.381 50.988 53.886 69.742 5.68 8.712 3.865 20.306-4.206 26.867-.844.667-1.695 1.23-2.551 1.725.985.381 1.968.769 2.94 1.186 6.94 2.971 14.955 1.849 20.813-2.912 8.071-6.56 9.886-18.154 4.206-26.866z" fill="#fe9738"/><path d="m462.47 27.25-9.66 117.16c-1.38 16.68-8.61 32.34-20.42 44.2-4.14 4.16-8.77 7.77-13.76 10.77s-10.35 5.38-15.97 7.08l-160.74 48.62-16.74 5.06 7.24-16.69 40.91-94.34c10.63-24.52 29.02-44.88 52.34-57.94l38.83-21.77c11-6.16 20.78-14.28 28.85-23.97l29.09-34.9c5.36-6.43 14.04-8.85 21.83-6.33.92.29 1.82.65 2.71 1.09l4.17 2.04c2.32 1.13 4.36 2.68 6.03 4.51 3.77 4.1 5.77 9.65 5.29 15.41z" fill="#ffd15b"/><path d="m451.145 7.326-4.169-2.039c-6.29-3.076-13.542-2.639-19.307.785 8.323 3.785 14.578 11.591 13.598 21.178 0 0-9.661 117.157-9.661 117.157-1.376 16.684-8.609 32.344-20.421 44.207-10.793 17.407-128.271 47.723-182.543 63.552l-3.458 7.975 177.477-53.682c11.232-3.397 21.446-9.529 29.725-17.845 11.811-11.864 19.045-27.523 20.421-44.207l9.661-117.157c.688-8.34-3.806-16.248-11.323-19.924z" fill="#ffc344"/><path d="m298.89 203.37-56.97 51.71-16.74 5.06 7.24-16.69 56.39-51.18c3.07-2.79 7.81-2.56 10.6.51 2.78 3.07 2.55 7.81-.52 10.59z" fill="#ffc344"/><path d="m228.27 270.4-54.22 103.37c-3.9 7.45-8.78 14.34-14.49 20.51l-81.97 88.44c-.17-.07-.34-.16-.51-.24-4.52-2.24-8.27-5.46-11.09-9.29l82.57-89.11c4.81-5.19 8.92-11 12.21-17.27l55.85-106.5 8.56-.17z" fill="#fe9738"/><path d="m419.8 460.71c-2.23 2.09-4.98 3.7-8.11 4.62l-5.96 1.76-4.71 1.39c-4.53 1.33-9.37 1.04-13.71-.81l-82.78-35.3c-19.99-8.53-35.17-25.49-41.43-46.3l-34.34-114.05-3.58-11.88 16.46 2.7 77.54 12.7c20.18 3.31 38.79 12.95 53.12 27.54 5.44 5.54 10.18 11.69 14.11 18.31 3.94 6.63 7.08 13.73 9.34 21.16l29.64 97.38c2.34 7.68-.09 15.66-5.59 20.78z" fill="#ffd15b"/><path d="m425.391 439.925-29.639-97.38c-4.521-14.854-12.566-28.394-23.449-39.468-14.335-14.586-32.941-24.231-53.123-27.537l-93.995-15.399 1.176 3.907c59.021 8.718 128.314 10.598 148.189 78.498.001-.001 29.64 97.379 29.64 97.379 3.289 10.806-2.865 22.219-13.701 25.409-1.613.433-3.333.975-5.109 1.517l1.928.823c4.339 1.85 9.186 2.134 13.71.802l10.671-3.142c10.836-3.19 16.99-14.604 13.702-25.409z" fill="#ffc344"/><path d="m284.36 303.18c-1.46 2.01-3.75 3.08-6.07 3.08-1.53 0-3.07-.46-4.4-1.43l-45.13-32.81-3.58-11.88 16.46 2.7 41.07 29.86c3.35 2.43 4.09 7.13 1.65 10.48z" fill="#ffc344"/><path d="m225.18 260.14-58.99 35.53c-13.53 8.16-29.04 12.46-44.84 12.46-8.9 0-17.69-1.37-26.09-4.01-8.39-2.64-16.38-6.55-23.68-11.65l-62.9-43.94c-5.44-3.8-8.68-10.02-8.68-16.66v-17.06c0-8.2 4.92-15.59 12.47-18.75l66.62-27.88c14.7-6.15 30.99-7.45 46.48-3.7 7.73 1.87 15.06 4.95 21.74 9.08 6.69 4.14 12.71 9.32 17.84 15.4z" fill="#ffd15b"/><path d="m165.151 188.958c-10.255-12.16-24.119-20.734-39.579-24.477-8.961-2.17-18.186-2.64-27.218-1.469 42.982 7.71 70.893 58.511 100.421 91.523 2.625 2.935 1.945 7.513-1.42 9.558-28.667 17.425-57.229 38.527-87.71 43.232 3.865.526 7.774.808 11.707.808 15.802 0 31.306-4.308 44.842-12.462l58.991-35.531z" fill="#ffc344"/><path d="m495.82 337.07c-1.2 3.41-3.33 6.52-6.32 8.95-1.13.92-2.33 1.7-3.6 2.35l-86.52-66.92c-11.05-8.54-23.55-14.45-37.15-17.58-4.04-.93-6.56-4.96-5.63-8.99.93-4.04 4.95-6.56 8.99-5.63 15.74 3.62 30.19 10.46 42.96 20.34z" fill="#fe9738"/><path d="m190.91 127.19c-.63.16-1.26.24-1.88.24-3.34 0-6.38-2.25-7.26-5.63-.91-3.53-1.97-7.07-3.16-10.51l-32.06-92.82c1.05-.63 2.17-1.18 3.34-1.62l10.6-3.97c.02.06.05.13.07.19l32.23 93.33c1.32 3.81 2.5 7.73 3.51 11.65 1.03 4.01-1.38 8.1-5.39 9.14z" fill="#fe9738"/><g fill="#ffc344"><path d="m159.71 240.41c-.97 3.24-3.95 5.34-7.17 5.34-.72 0-1.45-.11-2.17-.32l-33.3-10.04c-7.86-2.37-16.01-3.57-24.22-3.57h-92.85v-15h92.85c9.68 0 19.28 1.41 28.55 4.21l33.3 10.03c3.97 1.2 6.21 5.38 5.01 9.35z"/><path d="m419.8 460.71c-2.23 2.09-4.98 3.7-8.11 4.62l-5.96 1.76c-7.88-9.97-16.81-21.25-21.68-27.5-23.11-29.67-49.3-63.29-52-66.17-2.93-2.93-2.9-7.65.03-10.58s7.7-2.9 10.63.03c2.43 2.42 18.86 23.44 53.18 67.5 5.33 6.85 15.56 19.76 23.91 30.34z"/><path d="m457.18 11.84-58.75 96.61c-9 14.79-20.17 28.07-33.22 39.45l-8.24 7.19c-1.42 1.24-3.18 1.85-4.93 1.85-2.09 0-4.17-.87-5.65-2.57-2.72-3.12-2.4-7.86.72-10.58l8.24-7.19c11.88-10.37 22.07-22.47 30.26-35.94l58.66-96.46c.92.29 1.82.65 2.71 1.09l4.17 2.04c2.32 1.13 4.36 2.68 6.03 4.51z"/><circle cx="304.27" cy="323.326" r="7.697"/><circle cx="320.86" cy="175.049" r="7.697"/></g><circle cx="208.517" cy="162.38" fill="#fe9738" r="7.697"/></g></svg>