<svg id="Capa_1" enable-background="new 0 0 497 497" height="512" viewBox="0 0 497 497" width="512" xmlns="http://www.w3.org/2000/svg"><g><path d="m193.739 443.521 27.452 23.627c10.547 9.078 24.001 14.07 37.916 14.07h42.021c9.344 0 18.55-2.253 26.838-6.567l18.222-9.486c6.985-3.636 7.198-13.553.375-17.485l-20.522-11.827c-7.004-4.036-14.945-6.163-23.029-6.168l-53.785-.03c-4.254-.002-8.488.583-12.582 1.74z" fill="#9be69d"/><path d="m346.19 465.161-18.22 9.49c-8.29 4.31-17.5 6.57-26.84 6.57h-27.41c9.34 0 18.55-2.26 26.83-6.57l18.23-9.49c6.98-3.63 7.19-13.55.37-17.48l-20.52-12.83c-4.24-2.44-8.83-4.18-13.58-5.18l17.96.01c8.09.01 16.03 2.14 23.03 6.17l20.52 11.83c6.83 3.93 6.61 13.85-.37 17.48z" fill="#6fd7a3"/><path d="m193.74 443.52-16.57 7.5-59.01 26.71c-5.08 2.3-10.58 3.49-16.15 3.49h-33.45c-7.72 0-15.26-2.28-21.68-6.55l-35.08-23.31c-5.88-3.9-6.32-12.37-.88-16.86l29.47-24.36c8.62-7.12 19.46-11.02 30.64-11.02h28.43c7.98 0 15.85 1.99 22.87 5.79l57.54 31.11z" fill="#9be69d"/><path d="m122.331 404.912c-7.026-3.798-14.886-5.788-22.873-5.788h-27.414c7.987 0 15.848 1.989 22.873 5.788l64.615 34.935c2.786 1.506 2.643 5.552-.242 6.858l-68.544 31.027c-5.074 2.297-10.58 3.485-16.15 3.485h27.413c5.57 0 11.076-1.188 16.15-3.485l75.58-34.212z" fill="#6fd7a3"/><path d="m193.74 443.52-16.57 7.5h-72.71c-4.14 0-7.5-3.36-7.5-7.5s3.36-7.5 7.5-7.5h75.41z" fill="#6fd7a3"/><path d="m193.74 443.52-16.57 7.5h-27.4l9.52-4.31c2.89-1.31 3.03-5.36.24-6.86l-7.08-3.83h27.42z" fill="#3ec3a4"/><path d="m193.74 451.021c-2.499 0-4.902-1.252-6.312-3.448l-56.506-87.975c-8.344-12.992-13.731-27.322-16.01-42.594l-12.861-91.226c-.611-4.097 2.214-7.914 6.311-8.525 4.096-.606 7.913 2.214 8.525 6.311l12.861 91.226c1.964 13.159 6.605 25.507 13.795 36.701l39.473 61.456-11.762-112.997c-2.032-19.512 1.24-39.24 9.463-57.053l32.282-69.294c1.736-3.761 6.193-5.402 9.953-3.667 3.761 1.736 5.402 6.192 3.666 9.953l-32.282 69.294c-7.093 15.365-9.916 32.383-8.163 49.213l15.026 144.346c.36 3.455-1.7 6.704-4.977 7.854-.816.288-1.655.425-2.482.425z" fill="#3ec3a4"/><path d="m409.65 178.007c-4.142 0-7.5 3.358-7.5 7.5v43.225 12.268 69.48c0 20.812-8.481 41.151-23.266 55.8l-9.802 9.701c-9.419 9.329-21.143 16.166-33.902 19.772l-128.146 36.216 43.467-98.502c3.434-7.785 8.037-14.938 13.687-21.267l56.76-63.699c2.755-3.093 2.482-7.833-.61-10.589-3.093-2.755-7.834-2.483-10.589.61l-56.755 63.694c-6.693 7.496-12.149 15.974-16.217 25.197l-49.9 113.08c-1.173 2.658-.705 5.754 1.2 7.947 1.446 1.665 3.523 2.582 5.662 2.582.679 0 1.365-.093 2.039-.283l143.48-40.55c15.196-4.295 29.158-12.438 40.375-23.547l9.803-9.703c17.611-17.449 27.711-41.672 27.711-66.458v-69.481-12.269-43.225c.003-4.141-3.355-7.499-7.497-7.499z" fill="#6fd7a3"/><path d="m107.46 174.568-22.404-9.912c-9.752-4.314-20.777-4.772-30.853-1.281l-20.787 7.202c-7.505 2.6-15.619 2.879-23.285.799l-5.475-1.485c-3.64-.987-6.228 3.494-3.553 6.153l15.952 15.856c6.804 6.764 16.009 10.56 25.603 10.56h5.593c6.223 0 12.341-1.599 17.768-4.643z" fill="#fe646f"/><g><path d="m10.705 171.509c-.191-.049-.385-.081-.575-.133l-5.475-1.485c-2.255-.612-4.102.876-4.549 2.728 3.542.029 7.081-.394 10.599-1.11z" fill="#fe646f"/><path d="m85.056 164.656c-8.485-3.754-17.933-4.585-26.882-2.439 8.712 2.004 17.382 6.096 25.226 9.721 2.307 1.066 2.429 4.287.214 5.533-12.502 7.032-33.802 21.225-47.332 24.413 2.091.373 4.222.574 6.375.574h5.593c6.223 0 12.341-1.599 17.768-4.643l41.442-23.248z" fill="#fd4755"/></g><path d="m107.46 174.568-24.378 38.518c-1.944 3.071-3.387 6.431-4.277 9.954l-10.288 40.756c-.811 3.214 2.712 5.775 5.518 4.011l37.591-23.629c4.348-2.733 7.754-6.732 9.759-11.46 2.479-5.843 2.655-12.408.492-18.375z" fill="#fe646f"/><path d="m121.877 214.343-14.417-39.775-11.369 17.962c15.477 41.13 12.063 43.36-26.442 66.78l-1.132 4.485c-.811 3.214 2.712 5.775 5.518 4.01l37.591-23.628c4.348-2.733 7.754-6.732 9.759-11.46 2.479-5.842 2.655-12.407.492-18.374z" fill="#fd4755"/><path d="m99.576 150.036 7.884 24.532 36.833-49.168c7.718-10.302 10.509-23.479 7.632-36.026l-3.997-17.428c-.788-3.436-5.493-3.898-6.935-.682l-7.147 15.943c-2.247 5.012-5.417 9.556-9.345 13.396l-16.728 16.351c-8.78 8.583-11.954 21.392-8.197 33.082z" fill="#fe646f"/><path d="m151.924 89.374-3.997-17.428c-.788-3.436-5.493-3.898-6.935-.682l-7.147 15.943c-.144.322-.303.635-.454.953.174.758.278 1.214.278 1.214 7.18 21.285-15.081 47.566-31.702 68.105l5.492 17.088 36.833-49.168c7.719-10.301 10.51-23.478 7.632-36.025z" fill="#fd4755"/><path d="m242.815 113.874 27.637-12.227c6.389-2.827 13.612-3.127 20.213-.839l29.664 10.278c5.244 1.817 10.914 2.012 16.271.558l9.02-2.447c3.64-.987 6.228 3.494 3.553 6.153l-18.449 18.338c-5.205 5.174-12.246 8.078-19.585 8.078h-11.345c-4.76 0-9.44-1.223-13.592-3.552z" fill="#fe646f"/><g><path d="m345.62 109.196-9.02 2.447c-1.513.411-3.053.675-4.599.823.087.988-.224 2.029-1.083 2.883l-18.449 18.338c-4.397 4.905-10.463 6.959-16.827 7.753 1.37.207 2.757.325 4.152.325h11.345c7.339 0 14.38-2.904 19.585-8.078l18.449-18.338c2.675-2.659.087-7.14-3.553-6.153z" fill="#fd4755"/></g><path d="m242.815 113.874-24.378 38.518c-1.944 3.071-3.387 6.431-4.277 9.954l-10.288 40.756c-.811 3.214 2.712 5.775 5.518 4.011l37.591-23.629c4.348-2.733 7.754-6.732 9.759-11.46 2.479-5.843 2.655-12.408.491-18.375z" fill="#fe646f"/><path d="m257.232 153.648-14.417-39.775-11.607 18.34 7.77 21.435c2.163 5.967 1.987 12.532-.492 18.375-2.006 4.727-5.411 8.727-9.759 11.46l-23.656 14.869-1.199 4.749c-.811 3.214 2.712 5.775 5.518 4.01l37.591-23.629c4.348-2.733 7.754-6.732 9.759-11.46 2.48-5.842 2.655-12.407.492-18.374z" fill="#fd4755"/><path d="m315.35 243.507 22.404-9.912c9.752-4.314 20.777-4.772 30.853-1.281l20.787 7.202c7.505 2.6 15.619 2.879 23.285.799l5.475-1.485c3.64-.988 6.228 3.494 3.553 6.153l-15.952 15.856c-6.804 6.764-16.009 10.56-25.603 10.56h-5.593c-6.223 0-12.341-1.599-17.768-4.643z" fill="#fe646f"/><g><path d="m418.155 238.829-5.475 1.485c-2.698.732-5.451 1.155-8.214 1.304.25 1.122-.014 2.37-1.013 3.363l-15.951 15.856c-5.324 5.503-12.202 8.646-19.515 9.95 2.161.398 4.36.61 6.574.61h5.593c9.594 0 18.798-3.796 25.603-10.56l15.951-15.856c2.675-2.658.087-7.139-3.553-6.152z" fill="#fd4755"/></g><path d="m315.351 243.506-23.448-10.374c-5.421-2.398-11.549-2.653-17.149-.712l-25.168 8.72c-4.449 1.542-9.26 1.707-13.805.474l-7.652-2.076c-3.088-.838-5.284 2.964-3.014 5.22l15.652 15.558c4.416 4.39 10.39 6.853 16.616 6.853h9.625c4.038 0 8.009-1.038 11.531-3.013z" fill="#fe646f"/><g><path d="m232.561 240.74-4.432-1.203c-2.005-.544-3.625.87-3.9 2.545 2.832-.143 5.595-.632 8.332-1.342z" fill="#fe646f"/><path d="m291.901 233.132c-5.42-2.398-11.548-2.652-17.148-.712l-1.714.594c6.274 2.075 12.701 5.441 18.149 7.991 2.275 1.065 2.405 4.251.226 5.502-10.361 5.95-28.691 17.7-38.522 20.229 1.469.285 2.972.434 4.49.434h9.626c4.038 0 8.009-1.038 11.531-3.013l36.811-20.65z" fill="#fd4755"/></g><path d="m315.35 243.507 24.378 38.518c1.944 3.071 3.387 6.431 4.277 9.954l10.288 40.756c.811 3.214-2.712 5.775-5.518 4.011l-37.591-23.629c-4.348-2.733-7.754-6.732-9.759-11.46-2.479-5.843-2.655-12.408-.492-18.375z" fill="#fe646f"/><path d="m354.293 332.735-10.288-40.756c-.89-3.524-2.333-6.884-4.277-9.954l-24.378-38.518-6.618 18.258c7.726 11.871 16.387 25.562 17.019 30.215-.001-.001 6.376 25.261 9.089 36.006l13.935 8.759c2.806 1.764 6.329-.797 5.518-4.01z" fill="#fd4755"/><path d="m409.65 142.232 18.211-8.057c7.927-3.507 16.889-3.879 25.079-1.041l16.897 5.854c6.101 2.114 12.696 2.34 18.928.65l4.451-1.207c2.959-.803 5.062 2.84 2.888 5.001l-12.966 12.888c-5.531 5.498-13.013 8.584-20.811 8.584h-4.546c-5.058 0-10.031-1.3-14.443-3.774z" fill="#fe646f"/><g><path d="m493.216 138.43-4.451 1.207c-3.305.897-6.711 1.238-10.093 1.06.203.912-.011 1.926-.823 2.734l-12.966 12.888c-4.32 4.147-8.845 6.635-13.486 7.87 2.089.463 4.226.713 6.383.713h4.546c7.799 0 15.28-3.086 20.812-8.584l12.966-12.888c2.174-2.16.071-5.803-2.888-5z" fill="#fd4755"/></g><path d="m409.65 142.232-22.465-9.939c-5.193-2.298-11.065-2.541-16.43-.682l-24.113 8.354c-4.263 1.477-8.872 1.635-13.226.454l-7.332-1.989c-2.959-.803-5.062 2.84-2.888 5.001l14.996 14.906c4.231 4.206 9.954 6.566 15.92 6.566h9.222c3.869 0 7.673-.994 11.048-2.887z" fill="#fe646f"/><g><path d="m387.185 132.293c-5.193-2.298-11.064-2.541-16.43-.682l-2.024.701c5.803 1.967 11.719 5.043 16.779 7.419 2.275 1.068 2.401 4.249.223 5.503-9.838 5.666-26.898 16.569-36.328 19.161 1.537.328 3.112.509 4.708.509h9.222c3.869 0 7.673-.994 11.048-2.887l35.268-19.784z" fill="#fd4755"/></g><path d="m409.65 142.232 19.816 31.31c1.58 2.496 2.753 5.227 3.476 8.092l8.363 33.129c.659 2.612-2.205 4.694-4.486 3.26l-30.556-19.207c-3.534-2.221-6.303-5.472-7.933-9.315-2.015-4.75-2.158-10.086-.4-14.937z" fill="#fe646f"/><path d="m441.305 214.762-8.363-33.129c-.723-2.864-1.896-5.595-3.476-8.092l-19.816-31.31-6.605 18.223c5.626 8.735 11.189 17.832 11.643 21.179 0 0 4.312 17.085 6.744 26.716l15.388 9.672c2.281 1.435 5.145-.646 4.485-3.259z" fill="#fd4755"/><path d="m107.46 174.568 26.689-12.227c6.17-2.827 13.145-3.127 19.52-.839l28.647 10.278c5.064 1.817 10.54 2.012 15.713.558l8.71-2.447c3.515-.988 6.014 3.494 3.431 6.153l-17.816 18.338c-5.026 5.174-11.826 8.078-18.913 8.078h-10.956c-4.597 0-9.116-1.223-13.125-3.552z" fill="#fe646f"/><g><path d="m206.739 169.891-8.71 2.447c-1.663.467-3.359.745-5.061.873.07.973-.237 1.994-1.053 2.833l-17.816 18.338c-4.167 4.807-9.863 6.882-15.88 7.71 1.406.235 2.831.368 4.266.368h10.956c7.087 0 13.886-2.904 18.913-8.078l17.816-18.338c2.583-2.659.084-7.141-3.431-6.153z" fill="#fd4755"/></g><path d="m242.814 113.874-19.148-8.842c-8.335-3.849-17.757-4.257-26.369-1.143l-17.766 6.425c-6.414 2.32-13.349 2.568-19.901.713l-4.68-1.325c-3.111-.881-5.322 3.117-3.036 5.489l13.633 14.144c5.815 6.033 13.682 9.42 21.881 9.42h4.78c5.318 0 10.547-1.426 15.186-4.142z" fill="#fe646f"/><g><path d="m155.394 109.827-.443-.125c-1.372-.389-2.568.173-3.281 1.125 1.246-.298 2.487-.633 3.724-1z" fill="#fe646f"/><path d="m223.666 105.031c-8.335-3.849-17.757-4.257-26.369-1.143l-1.313.475c5.532 1.891 10.951 4.528 15.974 6.952 2.24 1.081 2.363 4.211.221 5.475-11.105 6.556-23.486 15.46-36.003 19.749 3.555 1.444 7.365 2.214 11.253 2.214h4.78c5.318 0 10.547-1.426 15.185-4.142l35.419-20.738z" fill="#fd4755"/></g><path d="m242.815 121.374c-3.281 0-6.182-2.133-7.16-5.267l-18.635-59.743c-1.233-3.954.972-8.16 4.926-9.393 3.952-1.233 8.16.972 9.393 4.926l11.424 36.624 6.651-21.633c1.217-3.958 5.414-6.183 9.373-4.965 3.959 1.217 6.182 5.414 4.965 9.373l-13.768 44.781c-.966 3.142-3.866 5.289-7.153 5.296-.005.001-.011.001-.016.001z" fill="#fd4755"/><path d="m315.352 251.007c-.156 0-.312-.005-.468-.015-2.966-.185-5.543-2.103-6.571-4.892l-13.656-37.048c-1.433-3.886.557-8.198 4.443-9.631 3.887-1.433 8.199.557 9.631 4.443l7.774 21.092 8.555-16.528c1.904-3.678 6.43-5.117 10.108-3.213 3.679 1.904 5.117 6.43 3.213 10.108l-16.371 31.63c-1.293 2.501-3.869 4.054-6.658 4.054z" fill="#fd4755"/><path d="m409.651 149.732c-.066 0-.132-.001-.198-.002-3.177-.083-5.956-2.159-6.938-5.182l-13.941-42.947c-1.279-3.94.878-8.17 4.818-9.45 3.942-1.279 8.171.878 9.449 4.818l7.396 22.785 8.498-22.155c1.483-3.868 5.818-5.799 9.688-4.316 3.867 1.483 5.8 5.821 4.316 9.688l-16.089 41.947c-1.112 2.905-3.9 4.814-6.999 4.814z" fill="#fd4755"/><g fill="#fe646f"><circle cx="385.359" cy="68.925" r="7.697"/><circle cx="266.433" cy="38.931" r="7.697"/><circle cx="435.897" cy="73.925" r="7.697"/><circle cx="213.919" cy="23.476" r="7.697"/><circle cx="290.732" cy="178.219" r="7.697"/></g></g></svg>