<svg id="Capa_1" enable-background="new 0 0 497 497" height="512" viewBox="0 0 497 497" width="512" xmlns="http://www.w3.org/2000/svg"><g><path d="m312.883 302.841h-128.837v64.245c0 26.469 10.897 51.77 30.129 69.956l5.434 5.138c5.307 5.018 8.313 11.999 8.313 19.302v28.494c0 3.879 3.145 7.024 7.024 7.024h27.037c3.879 0 7.024-3.145 7.024-7.024v-28.494c0-7.303 3.007-14.284 8.313-19.302l5.434-5.138c19.232-18.186 30.129-43.487 30.129-69.956z" fill="#6fd7a3"/><path d="m294.033 302.841v64.245c0 26.469-10.897 51.77-30.129 69.955l-5.434 5.138c-5.307 5.018-8.313 11.999-8.313 19.302v26.331c0 4.033-2.441 7.664-6.175 9.187h18.001c3.879 0 7.024-3.145 7.024-7.024v-28.494c0-7.303 3.007-14.284 8.313-19.302l5.434-5.138c19.232-18.186 30.129-43.487 30.129-69.956v-64.245h-18.85z" fill="#3ec3a4"/><path d="m216.08 149.26-41.83 31.13h-132.08c-16.64 0-27.81-17.06-21.15-32.31l7.4-16.96c9.36-21.44 28.48-37.04 51.36-41.9l11.25-2.39c11.2-2.38 22.82-2.07 33.88.91l15.31 4.12 61.51 16.54 5.06 1.36z" fill="#8379c1"/><path d="m206.79 109.76 9.29 39.5h-18.85l-57.01-57.4z" fill="#6e61b6"/><path d="m280.919 149.262 9.292-39.498 81.881-22.026c11.064-2.976 22.676-3.287 33.883-.906l11.243 2.388c22.879 4.86 42.006 20.463 51.362 41.9l7.403 16.963c6.653 15.243-4.517 32.306-21.149 32.306h-132.079z" fill="#8379c1"/><path d="m475.983 148.083-7.403-16.963c-9.356-21.437-28.483-37.041-51.362-41.9l-11.243-2.388c-8.069-1.714-16.347-2.025-24.48-.959 1.885.247 3.763.562 5.63.959l11.243 2.388c22.879 4.86 42.006 20.463 51.362 41.9l7.403 16.963c6.653 15.243-4.517 32.306-21.149 32.306h18.85c16.632 0 27.802-17.063 21.149-32.306z" fill="#6e61b6"/><path d="m227.18 48.45-11.1 100.81-25.66-25.83-37.34-37.6c-8.75-8.8-13.66-20.71-13.66-33.12 0-6.23 1.24-12.34 3.58-17.99 2.34-5.64 5.78-10.84 10.19-15.24l10.9-10.91 5.2-5.2c4.62-4.62 12.15-4.47 16.58.33z" fill="#978ecb"/><path d="m227.18 48.45-11.1 100.81-25.66-25.83-6.89-29.31c-4.21-17.5-.71-36.9 8.73-51.94 2.42-3.85 1.85-8.88-1.27-12.2l-16.76-17.85c-2.69-2.91-6.51-4.09-10.14-3.56l5.2-5.2c4.62-4.62 12.15-4.47 16.58.33z" fill="#8379c1"/><path d="m280.918 149.262 63.003-63.43c8.746-8.805 13.654-20.712 13.654-33.123 0-12.464-4.951-24.418-13.764-33.232l-16.106-16.11c-4.616-4.617-12.145-4.467-16.574.33l-41.314 44.751z" fill="#978ecb"/><path d="m343.811 19.476-16.106-16.109c-4.616-4.617-12.145-4.467-16.574.33l-.934 1.012 14.764 14.767c8.813 8.814 13.764 20.768 13.764 33.233 0 12.411-4.908 24.318-13.654 33.123l-46.034 46.346 1.881 17.084 63.003-63.43c8.746-8.805 13.654-20.712 13.654-33.123 0-12.465-4.951-24.419-13.764-33.233z" fill="#8379c1"/><path d="m216.08 149.26-22.43 127.76-60.38 14.93-20.49 5.06c-1.58.39-2.92 1.29-3.88 2.51-.94 1.22-1.5 2.74-1.5 4.37 0 6.97-2.83 13.29-7.4 17.86-4.664 4.664-11.141 7.516-18.292 7.396-13.876-.232-24.828-11.948-24.828-25.826v-6.852c0-2.846-.839-5.614-2.338-8.033-7.315-11.807-11.212-25.444-11.212-39.385v-19.15c0-19.1 7.31-37.48 20.44-51.36l29.45-31.14c14.07-14.88 35.11-20.92 54.93-15.77z" fill="#978ecb"/><path d="m216.08 149.26-22.43 127.76-60.38 14.93c-.89-5.1-1.33-10.26-1.33-15.4 0-7.7.98-15.39 2.94-22.89l20.52-78.69c3.94-15.14 17.61-25.71 33.26-25.71z" fill="#8379c1"/><path d="m174.246 174.973-19.079-4.624c-15.189-3.681-31.022 2.819-39.244 16.11l-20.085 32.469c-3.867 6.252-2.116 14.442 3.97 18.565 4.595 3.113 10.613 3.149 15.244.092l51.778-34.178 11.32-12.165z" fill="#ffd15b"/><path d="m155.167 170.349c-6.039-1.464-12.178-1.312-17.902.23l11.218 2.719c3.798.921 6.104 4.777 5.118 8.558l-3.948 15.14c-1.076 4.128-3.641 7.711-7.201 10.061l-44.208 29.181c.488.447 1.001.874 1.565 1.255 4.595 3.113 10.613 3.149 15.244.092l51.778-34.178 11.32-12.165-3.904-16.269z" fill="#ffc344"/><path d="m280.919 149.262 67.932-17.636c19.817-5.145 40.863.899 54.93 15.774l29.452 31.143c13.126 13.879 20.439 32.257 20.439 51.36v19.149c.137 13.126-4.081 27.888-11.384 39.65-1.445 2.326-2.169 5.027-2.169 7.766v7.419c0 13.95-11.309 25.259-25.259 25.259-13.95 0-25.259-11.309-25.259-25.259 0-3.257-2.221-6.094-5.383-6.875l-80.867-19.987z" fill="#978ecb"/><path d="m453.67 229.9v19.15c.14 13.13-4.08 27.89-11.38 39.65-1.45 2.33-2.17 5.03-2.17 7.77v7.42c0 13.95-11.31 25.26-25.26 25.26-3.34 0-6.53-.65-9.44-1.83 9.28-3.73 15.83-12.82 15.83-23.43v-7.42c0-2.74.73-5.44 2.17-7.77 7.31-11.76 11.52-26.52 11.39-39.65v-19.15c0-19.1-7.32-37.48-20.44-51.36l-29.45-31.14c-8.51-9-19.57-14.77-31.37-16.78 18.39-3.14 37.27 3.07 50.23 16.78l29.45 31.14c13.13 13.88 20.44 32.26 20.44 51.36z" fill="#8379c1"/><path d="m322.755 174.973 19.079-4.624c15.189-3.681 31.022 2.819 39.244 16.11l20.085 32.469c3.867 6.252 2.116 14.442-3.97 18.565-4.595 3.113-10.613 3.149-15.244.092l-51.778-34.178-11.864-13.01z" fill="#ffd15b"/><path d="m401.163 218.928-20.085-32.469c-8.222-13.291-24.055-19.791-39.244-16.11l-.948.23c8.672 2.337 16.389 7.873 21.342 15.88l20.085 32.469c3.509 5.673 2.379 12.932-2.405 17.31l2.041 1.347c4.632 3.057 10.65 3.021 15.244-.092 6.086-4.123 7.837-12.313 3.97-18.565z" fill="#ffc344"/><path d="m280.919 149.262-32.418 6.973-32.418-6.973-12.973-55.145c-4.646-19.748-.22-40.538 12.066-56.682l24.178-31.77c4.6-6.044 13.693-6.044 18.293 0l24.178 31.77c12.286 16.144 16.712 36.934 12.066 56.682z" fill="#aca6d6"/><g><path d="m248.5 156.76c-4.142 0-7.5-3.358-7.5-7.5v-64.011c0-4.142 3.358-7.5 7.5-7.5s7.5 3.358 7.5 7.5v64.011c0 4.142-3.357 7.5-7.5 7.5z" fill="#978ecb"/></g><path d="m281.825 37.435-24.178-31.77c-4.6-6.044-13.693-6.044-18.293 0l-.278.366 23.899 31.404c12.286 16.144 16.712 36.934 12.066 56.682l-12.972 55.145 4.145 3.163 14.705-3.163 12.972-55.145c4.645-19.748.22-40.538-12.066-56.682z" fill="#8379c1"/><path d="m344.442 293.097-.204 1.037c-5.062 25.777-21.047 48.094-43.824 61.181l-16.612 9.546c-1.95 1.117-3.513 2.711-4.6 4.59-1.087 1.868-1.686 4.031-1.686 6.276 0 8.022-3.26 15.293-8.52 20.553s-12.52 8.509-20.542 8.509c-8.032 0-15.293-3.249-20.553-8.509s-8.509-12.531-8.509-20.553c0-4.488-2.396-8.631-6.286-10.865l-16.792-9.649c-22.673-13.028-38.621-35.205-43.757-60.845-2.701-13.484-2.301-27.405 1.169-40.712l20.519-78.683c3.94-15.14 17.618-25.711 33.266-25.711l8.57-.019 32.418 6.992 32.426-6.975 8.531.002c15.618 0 29.275 10.53 33.256 25.63l20.438 77.625c3.492 13.255 3.933 27.129 1.292 40.58z" fill="#c2bce0"/><path d="m343.152 252.516-20.438-77.625c-3.981-15.1-17.638-25.63-33.256-25.63h-8.542l-3.322.715c12.575 2.606 22.897 12.12 26.27 24.915l20.438 77.625c3.49 13.256 3.931 27.13 1.29 40.581l-.204 1.037c-5.062 25.777-21.047 48.094-43.824 61.181l-16.612 9.546c-1.95 1.117-3.513 2.711-4.6 4.59-1.087 1.868-1.686 4.031-1.686 6.275 0 8.022-3.26 15.293-8.52 20.553-3.097 3.097-6.891 5.489-11.121 6.939 2.957 1.013 6.126 1.57 9.429 1.57 8.022 0 15.282-3.249 20.542-8.509s8.52-12.531 8.52-20.553c0-2.244.599-4.407 1.686-6.275 1.087-1.879 2.65-3.473 4.6-4.59l16.612-9.546c22.776-13.088 38.762-35.405 43.824-61.181l.204-1.037c2.642-13.451 2.2-27.325-1.29-40.581z" fill="#aca6d6"/><path d="m280.919 149.262-9.271 72.889c-1.483 11.708-11.444 20.482-23.244 20.482-5.91 0-11.363-2.204-15.516-5.869-4.163-3.676-7.017-8.804-7.748-14.673l-9.058-72.828h64.837z" fill="#ffd15b"/><path d="m262.069 149.261-9.271 72.889c-1.062 8.391-6.491 15.253-13.818 18.481 2.897 1.275 6.083 2.001 9.425 2.001 11.799 0 21.761-8.774 23.244-20.482l9.271-72.889z" fill="#ffc344"/></g></svg>