<svg id="Capa_1" enable-background="new 0 0 497 497" height="512" viewBox="0 0 497 497" width="512" xmlns="http://www.w3.org/2000/svg"><g><path d="m248.088 194.95c-4.142 0-7.5-3.358-7.5-7.5v-142.398c0-4.142 3.358-7.5 7.5-7.5s7.5 3.358 7.5 7.5v142.398c0 4.142-3.358 7.5-7.5 7.5z" fill="#eaf6ff"/><path d="m205.188 222.84h-161.169c-4.142 0-7.5 3.358-7.5 7.5s3.358 7.5 7.5 7.5h161.17c4.142 0 7.5-3.358 7.5-7.5s-3.358-7.5-7.501-7.5z" fill="#c8effe"/><path d="m443.398 237.84h-122.34c-4.143 0-7.5-3.358-7.5-7.5s3.357-7.5 7.5-7.5h122.34c4.143 0 7.5 3.358 7.5 7.5s-3.357 7.5-7.5 7.5z" fill="#c8effe"/><path d="m220.165 170.414c-2.943 0-5.735-1.743-6.932-4.632l-50.166-121.097c-1.585-3.827.232-8.214 4.059-9.8 3.827-1.585 8.214.232 9.8 4.059l50.165 121.097c1.585 3.827-.232 8.214-4.059 9.8-.938.388-1.911.573-2.867.573z" fill="#c8effe"/><path d="m326.184 426.377c-2.943 0-5.735-1.743-6.932-4.631l-50.165-121.097c-1.586-3.827.231-8.214 4.059-9.8 3.827-1.586 8.214.232 9.799 4.059l50.165 121.097c1.586 3.827-.231 8.214-4.059 9.8-.939.388-1.911.572-2.867.572z" fill="#c8effe"/><path d="m315.524 209.92c-2.943 0-5.735-1.743-6.932-4.632-1.586-3.827.231-8.214 4.059-9.799l121.098-50.165c3.826-1.586 8.214.232 9.799 4.059 1.586 3.827-.231 8.214-4.059 9.799l-121.098 50.165c-.938.389-1.911.573-2.867.573z" fill="#c8effe"/><path d="m77.129 308.817c-2.943 0-5.735-1.743-6.932-4.631-1.585-3.827.232-8.214 4.059-9.799l103.533-43.045c3.826-1.585 8.214.231 9.799 4.058s-.231 8.214-4.058 9.8l-103.534 43.044c-.938.389-1.911.573-2.867.573z" fill="#eaf6ff"/><path d="m180.653 209.92c-.957 0-1.929-.184-2.868-.573l-121.098-50.165c-3.827-1.585-5.644-5.973-4.059-9.799 1.585-3.827 5.973-5.644 9.8-4.059l121.098 50.165c3.827 1.585 5.644 5.973 4.059 9.799-1.197 2.888-3.989 4.632-6.932 4.632z" fill="#c8effe"/><path d="m439.489 301.507-121.098-50.165c-3.824-1.584-8.214.232-9.799 4.059-1.586 3.827.231 8.214 4.059 9.799l121.098 50.165c.938.389 1.911.573 2.867.573 2.943 0 5.735-1.744 6.932-4.631 1.586-3.827-.232-8.214-4.059-9.8z" fill="#c8effe"/><path d="m276.013 170.414c-.957 0-1.929-.184-2.867-.573-3.827-1.585-5.645-5.973-4.059-9.8l50.165-121.097c1.586-3.827 5.974-5.643 9.799-4.059 3.827 1.585 5.645 5.973 4.059 9.8l-50.165 121.097c-1.197 2.888-3.989 4.632-6.932 4.632z" fill="#c8effe"/><path d="m174.128 415.772c-.957 0-1.929-.184-2.867-.573-3.827-1.585-5.644-5.973-4.059-9.799l46.027-110.49c1.585-3.827 5.973-5.645 9.799-4.059 3.827 1.585 5.644 5.973 4.059 9.799l-46.027 110.49c-1.196 2.888-3.989 4.632-6.932 4.632z" fill="#eaf6ff"/><g fill="#c8effe"><path d="m348.437 87.191c-1.403 0-2.821-.393-4.085-1.215-3.471-2.259-4.453-6.905-2.194-10.377l17.664-27.138c2.261-3.472 6.906-4.453 10.378-2.194 3.471 2.259 4.453 6.905 2.194 10.377l-17.664 27.138c-1.438 2.208-3.841 3.409-6.293 3.409z"/><path d="m68.91 202.189c-.348 0-.7-.024-1.055-.074l-30.137-4.243c-4.102-.578-6.959-4.371-6.381-8.472.577-4.102 4.37-6.958 8.472-6.381l30.137 4.243c4.102.578 6.959 4.371 6.381 8.472-.527 3.747-3.738 6.455-7.417 6.455z"/><circle cx="405.595" cy="200.018" r="7.697"/><circle cx="339.883" cy="451.591" r="7.697"/><circle cx="418.157" cy="61.829" r="7.697"/><circle cx="157.423" cy="8.697" r="7.697"/><circle cx="154.74" cy="368.281" r="7.697"/><circle cx="80.84" cy="400.618" r="7.697"/><circle cx="27.585" cy="138.431" r="7.697"/><circle cx="469.415" cy="321.305" r="7.697"/></g><path d="m256.377 497h-16.576c-3.745 0-6.78-3.036-6.78-6.78v-146.857c0-8.322 6.746-15.068 15.068-15.068 8.322 0 15.068 6.746 15.068 15.068v146.857c0 3.744-3.036 6.78-6.78 6.78z" fill="#6fd7a3"/><path d="m249.301 328.343c-3.204-.255-6.205.512-8.747 1.984 4.5 2.606 7.534 7.462 7.534 13.036v142.213c0 5.2-3.345 9.81-8.288 11.424h16.576c3.745 0 6.78-3.036 6.78-6.78v-146.437c.001-7.929-5.951-14.812-13.855-15.44z" fill="#3ec3a4"/><circle cx="248.089" cy="230.345" fill="#bbf49b" r="42.899"/><path d="m248.089 187.446c-3.822 0-7.525.507-11.051 1.444 18.335 4.876 31.847 21.584 31.847 41.454s-13.512 36.578-31.847 41.454c3.527.938 7.229 1.444 11.051 1.444 23.692 0 42.899-19.206 42.899-42.899s-19.207-42.897-42.899-42.897z" fill="#9be69d"/><circle cx="248.089" cy="26.276" fill="#eaf6ff" r="26.276"/><path d="m248.089 0c-3.691 0-7.203.764-10.39 2.138 9.343 4.027 15.886 13.317 15.886 24.138s-6.542 20.11-15.886 24.138c3.187 1.374 6.699 2.138 10.39 2.138 14.512 0 26.276-11.764 26.276-26.276s-11.764-26.276-26.276-26.276z" fill="#c8effe"/><circle cx="59.558" cy="308.437" fill="#eaf6ff" r="26.276"/><path d="m59.558 282.161c-3.691 0-7.203.764-10.39 2.138 9.343 4.027 15.886 13.317 15.886 24.138s-6.542 20.11-15.886 24.138c3.187 1.374 6.699 2.138 10.39 2.138 14.512 0 26.276-11.764 26.276-26.276s-11.764-26.276-26.276-26.276z" fill="#c8effe"/><circle cx="169.997" cy="418.875" fill="#c8effe" r="16.257"/><circle cx="452.157" cy="230.345" fill="#eaf6ff" r="16.257"/><circle cx="112.492" cy="230.345" fill="#eaf6ff" r="16.257"/><path d="m237.514 209.163-122.433-122.427c-1.37-1.475-3.327-2.397-5.499-2.397-4.142 0-7.5 3.363-7.5 7.505 0 1.989.791 3.897 2.197 5.304l122.628 122.622c1.464 1.465 3.384 2.197 5.303 2.197s3.839-.732 5.303-2.197c2.93-2.93 2.93-7.678.001-10.607z" fill="#eaf6ff"/><path d="m397.692 80.748c-2.927-2.93-7.676-2.931-10.606-.002l-128.423 128.417c-2.929 2.929-2.929 7.678 0 10.606 1.465 1.464 3.385 2.197 5.304 2.197s3.839-.732 5.304-2.197l128.42-128.415c2.929-2.929 2.93-7.677.001-10.606z" fill="#eaf6ff"/><path d="m269.271 240.92c-2.93-2.929-7.678-2.929-10.607 0s-2.929 7.678 0 10.606l111.634 111.628c1.465 1.464 3.384 2.196 5.303 2.196s3.839-.732 5.304-2.197c2.929-2.929 2.929-7.678-.001-10.606z" fill="#c8effe"/><path d="m237.514 240.92c-2.929-2.929-7.678-2.929-10.606 0l-128.418 128.416c-2.929 2.929-2.929 7.678 0 10.606 1.464 1.465 3.384 2.197 5.303 2.197s3.839-.732 5.303-2.197l128.417-128.417c2.93-2.927 2.93-7.676.001-10.605z" fill="#eaf6ff"/><circle cx="392.384" cy="374.64" fill="#eaf6ff" r="26.276"/><path d="m392.384 348.364c-3.691 0-7.203.764-10.39 2.138 9.343 4.027 15.886 13.317 15.886 24.138s-6.542 20.11-15.886 24.138c3.187 1.374 6.699 2.138 10.39 2.138 14.512 0 26.276-11.764 26.276-26.276s-11.765-26.276-26.276-26.276z" fill="#c8effe"/><circle cx="348.443" cy="129.871" fill="#c8effe" r="16.257"/><circle cx="103.794" cy="86.05" fill="#c8effe" r="16.257"/></g></svg>