<svg id="Capa_1" enable-background="new 0 0 497.001 497.001" height="512" viewBox="0 0 497.001 497.001" width="512" xmlns="http://www.w3.org/2000/svg"><g><path d="m230.031 171.689-1.38-29.724c-.291-6.262.805-12.511 3.209-18.3l16.683-40.184c4.567-11.001 6.753-22.844 6.414-34.75l-1.193-41.894c-.176-6.172-8.103-8.574-11.675-3.538l-52.687 74.283-8.499 63.828 14.999 43.187h20.223z" fill="#fea95c"/><path d="m254.956 48.731-1.193-41.894c-.176-6.172-8.103-8.574-11.675-3.538l-7.466 10.526.994 34.906c.339 11.906-1.847 23.749-6.414 34.75l-16.683 40.184c-2.404 5.79-3.499 12.039-3.208 18.3l.873 18.804c.302 6.512-3.62 12.48-9.717 14.786l-6.806 2.591 2.24 6.45h20.223l13.907-12.908-1.38-29.724c-.291-6.262.805-12.511 3.208-18.3l16.683-40.184c4.567-10.999 6.753-22.843 6.414-34.749z" fill="#fe9738"/><path d="m189.403 77.581-8.5 63.83-8.38 2.83-23.81 8.02-18.63 1.49-9.7-61.22 8.28-74.49 1.37-12.31c.67-6.03 8.55-7.87 11.82-2.75z" fill="#fea95c"/><path d="m189.403 77.581-8.5 63.83-8.38 2.83-3.26-53.54c-.52-8.61-3.17-16.95-7.72-24.28l-28.19-45.46c-1.15-1.81-2.9-2.74-4.69-2.92l1.37-12.31c.67-6.03 8.55-7.87 11.82-2.75z" fill="#fe9738"/><path d="m130.083 153.74v.01l-15.59 27.33-3.9-1.05c-16.48-4.47-30.65-15.01-39.65-29.52l-39.73-63.98c-.59-.95-.89-1.95-.97-2.94-.29-3.94 3.23-7.62 7.64-6.78l82.5 15.72z" fill="#fea95c"/><path d="m130.083 153.74-25.57-53.88c-2.18-4.61-6.43-7.9-11.43-8.88l-55.851-10.88c-3.11-.59-5.78 1.07-6.98 3.49h-.01c-.29-3.94 3.23-7.62 7.64-6.78l82.5 15.72z" fill="#fe9738"/><path d="m195.903 184.6-6.5 12.734-19.951-1.364-16.756-16.835-3.984-26.874 21.861-40.12 18.83-34.56z" fill="#ffd15b"/><path d="m195.903 184.6-6.5 12.734-19.95-1.364-4.265-4.285.725-3.185c5.436-2.34 8.821-7.838 8.462-13.746l-3.802-62.614 18.83-34.56z" fill="#ffc344"/><path d="m169.455 195.971-54.96-14.888 5.883-88.55z" fill="#ffd15b"/><path d="m147.264 189.959 22.191 6.012-49.077-103.439-2.376 35.755z" fill="#ffc344"/><g><path d="m302.173 117.789c-19.199 0-30.679-6.334-31.309-6.69-3.604-2.04-4.873-6.616-2.833-10.221 2.032-3.59 6.583-4.863 10.178-2.857.74.401 16.271 8.586 42.043 2.632 4.031-.929 8.063 1.583 8.996 5.62.933 4.036-1.584 8.063-5.619 8.996-7.918 1.827-15.11 2.52-21.456 2.52z" fill="#8ac9fe"/></g><g><path d="m266.687 197.334c-1.274 0-2.566-.325-3.749-1.01-3.585-2.074-4.811-6.662-2.736-10.248l30.622-52.946c12.639-21.847 32.504-39.044 55.938-48.424l43.979-17.603c3.844-1.539 8.21.33 9.75 4.176 1.539 3.846-.33 8.211-4.176 9.75l-43.979 17.603c-20.329 8.137-37.563 23.057-48.527 42.009l-30.622 52.946c-1.391 2.405-3.91 3.747-6.5 3.747z" fill="#60b7ff"/></g><path d="m274.563 176.22-6.069 32.135-20.191 25.776-20.361 10.889-22.07-3.729-36.42-45.321 26.451-11.37 34.13-12.91 26.149 2.66 1.321.13z" fill="#ffead9"/><path d="m274.563 176.22-24.66 54.38-1.6 3.531-12.05 6.444-8.311-3.004 28.24-63.221z" fill="#fedba6"/><path d="m248.304 234.131 26.255-57.907 19.951-14.418c20.054-14.492 42.646-25.096 66.607-31.262l59.536-15.321c5.237-1.348 8.923 5.058 5.125 8.908l-37.103 37.615c-7.351 7.453-16.347 13.08-26.264 16.43l-29.682 10.027c-14.856 5.018-27.482 15.087-35.68 28.453l-6.325 10.312-21.666 9.792z" fill="#fea95c"/><path d="m420.653 115.224-13.001 3.346c.663 1.781.419 3.907-1.214 5.563l-37.103 37.615c-31.78 29.922-68.681 15.648-94.045 58.042-2.782 4.649-7.521 7.79-12.863 8.692l-12.52 2.114-1.603 3.536 20.753 2.63 21.666-9.792 6.325-10.312c8.199-13.367 20.825-23.436 35.681-28.454l29.681-10.026c9.918-3.35 18.913-8.977 26.264-16.43l37.103-37.615c3.799-3.851.114-10.257-5.124-8.909z" fill="#fe9738"/><path d="m141.303 259.291-1.2 76.77-32.79 155.69c-4.23 5.05-10.01 5.25-10.01 5.25h-36.95c-5.74 0-10.15-5.08-9.34-10.76l14.76-103.78c3.96-36.29 20.51-70.06 46.78-95.42l20.8-20.08z" fill="#6fd7a3"/><path d="m141.303 259.291-1.2 76.77-32.79 155.69c-4.23 5.05-10.01 5.25-10.01 5.25h-18.77c3.05-.42 5.83-1.75 8.04-3.71s3.85-4.56 4.64-7.54l13.23-50.06v-.01l28.91-109.39v-59.33z" fill="#3ec3a4"/><path d="m319.175 263.979-166.479 62.31-6.587-19.513 6.587-22.565 53.172-42.916 162.161-27.377z" fill="#8ac9fe"/><path d="m463.837 210.62-75.948 51.61c-16.935 11.507-35.896 19.695-55.88 24.141l-179.313 39.917 146.622-68.897 68.711-43.474 90.959-15.353c7.051-1.188 10.753 8.045 4.849 12.056z" fill="#6fd7a3"/><path d="m458.989 198.566-13.161 2.221c2.297 2.766 2.366 7.322-1.329 9.833l-75.948 51.61c-16.935 11.507-35.896 19.695-55.88 24.141l-142.564 31.736-17.41 8.181 179.313-39.917c19.984-4.446 38.946-12.634 55.88-24.141l75.948-51.61c5.903-4.011 2.201-13.244-4.849-12.054z" fill="#3ec3a4"/><path d="m152.692 264.131v62.16l-41.88 158.47c-.8 3.01-2.05 5.28-3.5 6.99l-2.87-56.06v-.01l-1.57-30.71c-1.17-22.92 2.25-45.84 10.07-67.41l20.41-56.33v-.01l7.95-21.93c4.271-4.121 11.39-1.091 11.39 4.84z" fill="#bbf49b"/><path d="m152.692 264.131v62.16l-41.88 158.47c-.8 3.01-2.05 5.28-3.5 6.99l-2.87-56.06v-.01l26.678-100.943c1.482-5.608 2.232-11.384 2.232-17.185v-36.333l7.95-21.93c4.271-4.12 11.39-1.09 11.39 4.841z" fill="#9be69d"/></g></svg>