<svg id="Capa_1" enable-background="new 0 0 497 497" height="512" viewBox="0 0 497 497" width="512" xmlns="http://www.w3.org/2000/svg"><g><g><path d="m149.51 448.03c-1.66 2.82-4.41 4.82-7.59 5.6-3.48.85-6.64 2.55-9.21 4.89s-4.56 5.32-5.73 8.71l-1.2 3.48c-.87 2.52-2.53 4.72-4.77 6.18-5.93 3.9-13.42 4.91-20.3 2.54l-3.04-1.05-26.74-9.24-10.61-10.61-10.29-29.78c-2.35-6.8-1.38-14.21 2.41-20.11 1.54-2.39 3.93-4.1 6.65-4.92l.58-.18c7.51-2.26 13.41-8.09 15.75-15.57l.32-1.01c.82-2.64 2.5-4.96 4.82-6.48 1.74-1.13 3.62-2.02 5.59-2.64 2.9-.94 5.99-1.29 9.1-1.02l43 3.78 9.75.86.86 9.76 3.78 42.99c.43 4.87-.69 9.7-3.13 13.82z" fill="#6fd7a3"/></g><path d="m149.51 448.03c-1.66 2.82-4.41 4.82-7.59 5.6-3.48.85-6.64 2.55-9.21 4.89s-4.56 5.32-5.73 8.71l-1.2 3.48c-.87 2.52-2.53 4.72-4.77 6.18-5.93 3.9-13.42 4.91-20.3 2.54l-3.04-1.05c2.31-1.11 4.45-2.6 6.32-4.47l2.3-6.68c2.34-6.78 7.97-11.9 14.94-13.6l4.02-.98c4.85-4.85 7.3-11.6 6.7-18.44l-3.95-44.85c-.4-4.57-4.02-8.19-8.59-8.59l-33.26-2.93c2.9-.94 5.99-1.29 9.1-1.02l52.75 4.64 4.64 52.75c.43 4.87-.69 9.7-3.13 13.82z" fill="#3ec3a4"/><path d="m189.55 350.53-40.69 40.69-77.93 77.92-2.36-.81c-3.49-1.2-6.24-3.95-7.44-7.44l-.81-2.36 77.93-77.93 40.69-40.68c2.93-2.93 7.68-2.93 10.61 0s2.93 7.68 0 10.61z" fill="#bbf49b"/><g><path d="m410.5 95.79c-1.54 2.39-3.93 4.11-6.65 4.92l-.58.18c-7.5 2.25-13.4 8.09-15.75 15.57l-.31 1c-.83 2.65-2.51 4.98-4.83 6.49-4.31 2.8-9.47 4.12-14.68 3.66l-11.59-1.02-31.42-2.76-9.74-.86-.86-9.75-3.79-43.01c-.43-4.86.69-9.69 3.12-13.81 1.67-2.82 4.42-4.83 7.6-5.6 3.48-.85 6.64-2.56 9.21-4.9s4.56-5.31 5.73-8.7l1.2-3.48c.88-2.53 2.54-4.72 4.77-6.18.85-.56 1.74-1.06 2.65-1.5 5.42-2.62 11.76-3.08 17.65-1.04l29.79 10.28 10.61 10.61 10.28 29.79c2.35 6.8 1.39 14.21-2.41 20.11z" fill="#6fd7a3"/></g><path d="m410.5 95.79c-1.54 2.39-3.93 4.11-6.65 4.92l-.58.18c-7.5 2.25-13.4 8.09-15.75 15.57l-.31 1c-.83 2.65-2.51 4.98-4.83 6.49-4.31 2.8-9.47 4.12-14.68 3.66l-11.59-1.02c3.48-1.11 6.69-3.04 9.33-5.68l1.39-4.45c2.34-7.48 8.24-13.32 15.75-15.57l4.12-1.24c6.28-6.28 8.42-15.58 5.52-23.97l-11.09-32.14c-1.21-3.49-3.95-6.24-7.45-7.45l-29.1-10.04v-.01c5.42-2.62 11.76-3.08 17.65-1.04l29.79 10.28 10.61 10.61 10.28 29.79c2.35 6.8 1.39 14.21-2.41 20.11z" fill="#3ec3a4"/><path d="m402.63 45.89-77.94 77.94-33.48 33.47c-1.46 1.47-3.38 2.2-5.3 2.2s-3.84-.73-5.3-2.2c-2.93-2.92-2.93-7.67 0-10.6l101.2-101.2 10.21-10.22 2.35.81c3.5 1.21 6.24 3.96 7.45 7.45z" fill="#bbf49b"/><path d="m402.63 45.89-15.38 15.38-5.44-15.77 10.21-10.22 2.35.81c3.5 1.21 6.24 3.96 7.45 7.45z" fill="#9be69d"/><path d="m253.829 36.848v19.705c0 12.075-4.445 23.722-12.464 32.722l-65.646 16.239-65.646-16.239c-8.019-9-12.464-20.647-12.464-32.722v-19.705c-.001-20.351 16.496-36.848 36.847-36.848 3.558 0 7.077.514 10.456 1.518 3.379.997 6.618 2.484 9.607 4.422 6.446 4.188 13.819 6.275 21.199 6.275 7.381 0 14.753-2.087 21.2-6.275 2.99-1.939 6.228-3.426 9.607-4.422 3.379-1.004 6.898-1.518 10.455-1.518 10.175 0 19.386 4.126 26.058 10.79 6.664 6.673 10.791 15.883 10.791 26.058z" fill="#978ecb"/><g><path d="m124.221 1.518c10.244 3.633 19.413 11.609 30.807 10.696 3.618.271 7.009-.349 10.284-1.427-3.764-1.042-7.408-2.647-10.793-4.846-2.99-1.938-6.228-3.426-9.607-4.422-3.379-1.005-6.898-1.519-10.456-1.519-3.596 0-7.068.525-10.354 1.485.04.013.08.021.119.033z" fill="#978ecb"/><path d="m243.038 10.791c-6.672-6.665-15.882-10.791-26.058-10.791-3.515 0-6.991.506-10.332 1.486 15.307 4.476 26.49 18.608 26.49 35.362.509 17.675 1 38.966-12.466 52.426l4.908 3.905 15.783-3.904c8.019-9 12.464-20.647 12.464-32.722v-19.705c.001-10.175-4.125-19.385-10.789-26.057z" fill="#8379c1"/></g><path d="m241.364 89.275c-.093.109-.187.21-.28.311l-65.366 72.139-65.366-72.139c-.093-.101-.187-.202-.28-.311 6.501-5.738 15.034-9.218 24.384-9.218 3.558 0 7.077.514 10.456 1.518 3.379.997 6.618 2.484 9.607 4.422 6.446 4.189 13.819 6.283 21.199 6.283 7.381 0 14.753-2.094 21.2-6.283 2.99-1.939 6.228-3.426 9.607-4.422 3.379-1.004 6.898-1.518 10.456-1.518 9.35 0 17.882 3.48 24.383 9.218z" fill="#8379c1"/><path d="m226.642 81.344c-1.597 2.85-3.556 5.518-5.97 7.93-.155.223-36.853 40.674-55.304 61.029l10.35 11.422 65.366-72.139c.093-.101.187-.202.28-.311-4.175-3.686-9.192-6.433-14.722-7.931z" fill="#6e61b6"/><path d="m340.246 193.341c0 6.711-1.83 13.492-5.668 19.588-1.892 3.013-4.212 5.722-6.851 8.042-2.647 2.328-5.629 4.274-8.86 5.769-13.78 6.384-22.593 20.187-22.593 35.345 0 .179.008.366.008.553v.522c0 6.937-1.954 13.741-5.652 19.619-10.837 17.221-33.586 22.398-50.807 11.561l-16.684-10.495c-10.331-6.501-17.883-16.614-21.176-28.37l-2.219-7.918 63.131-101.21 8.712-1.534c12.028-2.118 24.407.304 34.746 6.812l16.676 10.495c11.133 7.001 17.237 18.983 17.237 31.221z" fill="#978ecb"/><path d="m323.009 162.122-16.676-10.495c-10.232-6.441-22.461-8.872-34.372-6.869 4.791 1.383 9.408 4.027 13.682 6.87 16.229 9.267 34.888 20.839 33.913 41.713-.147 38.492-44.911 29.29-43.963 69.819 0 6.936-1.955 13.741-5.653 19.619-6.048 8.83-13.035 13.766-20.464 15.847 15.312 4.31 32.251-1.7 41.154-15.847 3.698-5.878 5.652-12.682 5.652-19.619v-.522c0-.187-.008-.374-.008-.553 0-15.158 8.813-28.961 22.593-35.345 3.231-1.495 6.213-3.441 8.86-5.769 2.639-2.32 4.959-5.029 6.851-8.042 3.838-6.096 5.668-12.877 5.668-19.588 0-12.238-6.104-24.22-17.237-31.219z" fill="#8379c1"/><path d="m268.675 163.811c0 5.294-1.44 10.65-4.469 15.462-1.495 2.382-3.324 4.516-5.411 6.353-2.094 1.837-4.445 3.379-6.991 4.554-10.884 5.037-17.828 15.937-17.828 27.903v.841c0 5.473-1.541 10.853-4.461 15.493-6.509 10.331-18.443 15.174-29.771 13.142l-24.026-85.833 87.157-15.376c3.792 5.059 5.8 11.218 5.8 17.461z" fill="#8379c1"/><path d="m11.19 193.341c0 6.711 1.83 13.492 5.668 19.588 1.892 3.013 4.212 5.722 6.851 8.042 2.647 2.328 5.629 4.274 8.86 5.769 13.78 6.384 22.593 20.187 22.593 35.345 0 .179-.008.366-.008.553v.522c0 6.937 1.954 13.741 5.652 19.619 10.837 17.221 33.586 22.398 50.807 11.561l16.684-10.495c10.331-6.501 17.883-16.614 21.176-28.37l2.219-7.918-63.131-101.21-8.712-1.534c-12.028-2.118-24.407.304-34.746 6.812l-16.676 10.495c-11.133 7.001-17.237 18.983-17.237 31.221z" fill="#978ecb"/><g fill="#8379c1"><path d="m91.12 150.45-23.25-4.1c-2.12-.51-4.27-.93-6.43-1.27 6.01-1.24 12.26-1.35 18.41-.26l8.71 1.53z"/><path d="m151.69 247.56-2.22 7.92c-3.29 11.75-10.84 21.87-21.17 28.37l-16.69 10.49c-9.61 6.05-20.95 7.11-30.98 3.86 9.24-2.55 18.5-7.87 26.98-14.36 10.33-6.49 17.88-16.61 21.17-28.36l2.22-7.92 6.41-22.9z"/><path d="m175.72 161.73-9.39 33.54-14.64 52.29c-11.33 2.03-23.26-2.81-29.77-13.14-2.92-4.64-4.46-10.02-4.46-15.5v-.84c0-11.96-6.94-22.86-17.83-27.9-2.54-1.18-4.9-2.72-6.99-4.55-2.09-1.84-3.92-3.97-5.41-6.36-3.03-4.81-4.47-10.16-4.47-15.46 0-6.24 2.01-12.4 5.8-17.46l30.82 5.44z"/></g><path d="m175.72 161.73-.003-.001.001-.004-87.157-15.376c-.784 1.046-1.472 2.148-2.101 3.279 7.248 1.279 16.732 2.952 26.326 4.644 3.282.579 4.062 5.043 1.105 6.581-.023.012-.047.024-.071.036-5.25 3.7-3.82 11.85 2.39 13.54 6.97.93 10.15 6.34 7.43 12.88-1.92 7.99 7.18 12.03 13.2 7.61.03-.014.059-.027.089-.04 3.997-1.785 8.237 2.075 7.058 6.291-5.482 19.583-11.126 39.749-12.012 42.913 5.927 3.424 12.927 4.693 19.718 3.475l14.636-52.287c.001 0 .001-.001.002-.001z" fill="#6e61b6"/><path d="m181.074 122.136 2.078-2.064c4.563-4.532 12.342-1.701 12.924 4.704l.265 2.917c.378 4.16 4.043 7.235 8.205 6.885l2.919-.245c6.409-.539 10.548 6.63 6.877 11.911l-1.672 2.405c-2.384 3.43-1.553 8.141 1.86 10.548l2.393 1.688c5.256 3.707 3.818 11.859-2.388 13.545l-2.826.768c-4.031 1.095-6.423 5.238-5.356 9.276l.748 2.832c1.643 6.218-4.698 11.539-10.536 8.841l-2.659-1.229c-3.792-1.752-8.287-.116-10.065 3.663l-1.247 2.65c-2.738 5.819-11.016 5.819-13.754 0l-1.247-2.65c-1.778-3.78-6.273-5.416-10.065-3.663l-2.659 1.229c-5.838 2.698-12.179-2.623-10.536-8.841l.748-2.832c1.067-4.038-1.325-8.181-5.356-9.276l-2.826-.768c-6.206-1.686-7.644-9.838-2.388-13.545l2.393-1.688c3.413-2.408 4.244-7.119 1.86-10.548l-1.672-2.405c-3.671-5.281.468-12.45 6.877-11.911l2.919.245c4.162.35 7.827-2.725 8.205-6.885l.265-2.917c.582-6.405 8.361-9.236 12.924-4.704l2.078 2.064c2.966 2.944 7.75 2.944 10.714 0z" fill="#fea95c"/><g><path d="m216.924 160.885-2.393-1.688c-3.413-2.408-4.244-7.119-1.86-10.548l1.672-2.405c3.671-5.281-.468-12.45-6.877-11.911l-2.919.245c-4.162.35-7.827-2.725-8.205-6.885l-.265-2.917c-.582-6.405-8.361-9.236-12.924-4.704l-2.078 2.064c-1.589 1.578-3.7 2.302-5.774 2.188.025.154.068.293.087.453-.271 5.077 2.839 10.337 8.471 9.801 9.435-2.222 14.803 6.976 8.123 14.071-3.305 4.614-.253 9.929 4.254 12.236 6.58 4.885 2.267 13.834-5.216 14.312-5.497 1.411-6.576 7.444-4.606 12.108 1.643 6.218-4.698 11.539-10.536 8.841-3.844-2.454-7.646-2.407-10.438-.278.89.706 1.64 1.615 2.156 2.713l1.247 2.65c2.738 5.819 11.016 5.819 13.754 0l1.247-2.65c1.778-3.78 6.273-5.416 10.065-3.663l2.659 1.229c5.838 2.698 12.179-2.623 10.536-8.841l-.748-2.832c-1.067-4.038 1.325-8.181 5.356-9.276l2.826-.768c6.204-1.685 7.641-9.838 2.386-13.545z" fill="#fe9738"/></g><path d="m475.014 296.152-13.933 13.933c-8.538 8.538-19.917 13.631-31.951 14.324l-53.13-37.486-39.708-55.351c.694-12.034 5.786-23.413 14.324-31.951l13.933-13.933c14.39-14.39 37.721-14.39 52.111 0 2.516 2.516 4.641 5.367 6.32 8.467 1.685 3.094 2.923 6.435 3.666 9.92 1.596 7.52 5.334 14.209 10.553 19.427 5.219 5.219 11.908 8.957 19.427 10.553 3.485.743 6.826 1.982 9.92 3.666 3.099 1.679 5.951 3.804 8.467 6.32 7.195 7.195 10.79 16.625 10.795 26.056-.004 9.429-3.599 18.86-10.794 26.055z" fill="#c2bce0"/><path d="m475.014 244.041c-2.516-2.516-5.367-4.641-8.467-6.32-3.094-1.685-6.435-2.923-9.92-3.666-7.52-1.596-14.209-5.334-19.427-10.553s-8.957-11.908-10.553-19.427c-.743-3.485-1.982-6.826-3.666-9.92-1.679-3.099-3.804-5.951-6.32-8.467-12.164-12.164-30.714-14.044-44.854-5.644 12.327.695 24.301 7.332 30.484 19.112 4.675 9.813 5.518 21.936 14.221 29.347 9.836 11.432 27.738 9.269 37.813 20.54 14.39 14.391 14.39 37.72 0 52.111-7.352 7.788-15.649 16.507-25.278 22.172l-.921.377 1.004.709c12.034-.694 23.413-5.786 31.951-14.324l13.933-13.933c7.195-7.195 10.79-16.625 10.795-26.055-.005-9.434-3.6-18.864-10.795-26.059z" fill="#aca6d6"/><path d="m429.129 324.409c-.143.011-.281.017-.418.022l-97.231 4.789 4.789-97.231c.005-.138.011-.275.022-.418 8.654.54 17.148 4.112 23.76 10.724 2.516 2.516 4.641 5.367 6.32 8.467 1.685 3.094 2.923 6.435 3.666 9.92 1.596 7.52 5.329 14.214 10.548 19.433s11.913 8.951 19.433 10.548c3.485.743 6.826 1.982 9.92 3.666 3.099 1.679 5.951 3.804 8.467 6.32 6.612 6.612 10.185 15.106 10.724 23.76z" fill="#8379c1"/><path d="m425.463 467.915c-4.745 4.745-10.834 8.247-17.858 9.843-3.468.793-7.024 1.068-10.531.842-3.518-.226-7.002-.958-10.344-2.186-14.258-5.23-30.25-1.701-40.969 9.017-.127.127-.253.264-.385.396l-.369.369c-4.905 4.905-11.098 8.335-17.869 9.876-19.84 4.514-39.587-7.911-44.101-27.751l-4.377-19.218c-2.709-11.902-.897-24.393 5.087-35.034l4.03-7.168 116.207-26.925 7.245 5.076c10.003 7.008 17.044 17.473 19.752 29.386l4.371 19.213c2.921 12.822-1.235 25.61-9.889 34.264z" fill="#c2bce0"/><g><path d="m324.316 486.198c-4.379 4.379-9.789 7.571-15.716 9.305 5.839 1.717 12.182 2.017 18.537.571 6.771-1.541 12.964-4.971 17.87-9.876l.369-.369c.132-.132.259-.27.385-.396 4.615-4.615 10.211-7.889 16.223-9.713-12.341-2.18-24.777-3.118-37.668 10.478z" fill="#c2bce0"/><path d="m435.35 433.652-4.371-19.213c-2.709-11.913-9.75-22.378-19.752-29.386l-7.245-5.076h-20.69c12.828 7.837 23.947 19.294 26.996 34.462 4.923 18.028 9.934 39.405-5.516 53.476-5.222 5.208-10.388 7.996-15.525 9.323 2.559.737 5.183 1.192 7.825 1.362 3.507.226 7.063-.05 10.531-.842 7.024-1.596 13.113-5.098 17.858-9.843 8.656-8.654 12.812-21.442 9.889-34.263z" fill="#aca6d6"/></g><path d="m395.736 396.427c-3.743 3.743-8.549 6.512-14.093 7.773-2.742.628-5.544.842-8.318.666-2.78-.182-5.533-.754-8.164-1.723-11.258-4.134-23.876-1.338-32.337 7.124l-.595.595c-3.87 3.87-8.764 6.584-14.109 7.801-11.908 2.703-23.771-2.312-30.344-11.759l43.705-77.682 72.502 50.757c-.898 6.258-3.832 12.032-8.247 16.448z" fill="#8379c1"/><path d="m383.292 379.977c5.734 3.503 11.12 7.736 15.603 12.694 2.651-3.736 4.426-8.081 5.087-12.694l-72.502-50.757-5.846 10.392c18.776 13.145 57.658 40.365 57.658 40.365z" fill="#6e61b6"/><path d="m192.786 235.238c-4.745 4.745-8.247 10.834-9.843 17.858-.793 3.468-1.068 7.024-.842 10.531.226 3.518.958 7.002 2.186 10.344 5.23 14.258 1.701 30.25-9.017 40.969-.127.127-.264.253-.396.385l-.369.369c-4.905 4.905-8.335 11.098-9.876 17.869-4.514 19.84 7.911 39.587 27.751 44.101l19.218 4.377c11.902 2.708 24.393.897 35.034-5.087l7.168-4.03 26.925-116.207-5.076-7.245c-7.008-10.003-17.473-17.044-29.386-19.752l-19.213-4.371c-12.822-2.921-25.61 1.235-34.264 9.889z" fill="#c2bce0"/><path d="m331.48 329.22-52.68 29.64-25 14.07c-9.45-6.58-14.46-18.44-11.76-30.35 1.22-5.34 3.93-10.24 7.8-14.11l.59-.59c8.47-8.46 11.26-21.08 7.13-32.34-.97-2.63-1.54-5.38-1.72-8.16s.03-5.58.66-8.32c1.26-5.55 4.03-10.35 7.77-14.09 4.42-4.42 10.19-7.35 16.45-8.25l19.7 28.14z" fill="#8379c1"/><path d="m331.48 329.22-52.68 29.64c-1.54-2.63-1.69-6.24.19-9.32 1.41-3.93-.61-8.27-4.53-9.71-7.38-1.13-10.96-10.42-3.95-14.71 6.54-2.7 8.12-8.78 3.85-14.36-3.9-7.21 3.79-13.5 10.77-10.77 5.58 1.04 9.11-3.97 9.3-9.03.6-3.35 3.12-5.53 5.99-6.1z" fill="#6e61b6"/><path d="m363.261 305.014 2.929.01c6.431.022 9.93 7.524 5.813 12.465l-1.875 2.25c-2.674 3.209-2.257 7.975.934 10.67l2.237 1.89c4.913 4.151 2.77 12.147-3.56 13.285l-2.883.518c-4.111.739-6.855 4.658-6.144 8.774l.499 2.886c1.095 6.337-5.686 11.085-11.266 7.889l-2.541-1.456c-3.625-2.076-8.245-.838-10.346 2.772l-1.473 2.531c-3.235 5.559-11.481 4.837-13.701-1.199l-1.011-2.749c-1.442-3.92-5.778-5.942-9.708-4.527l-2.756.992c-6.051 2.179-11.904-3.674-9.725-9.725l.992-2.756c1.415-3.93-.606-8.266-4.527-9.708l-2.749-1.011c-6.036-2.22-6.757-10.467-1.199-13.701l2.531-1.473c3.61-2.101 4.848-6.722 2.772-10.346l-1.456-2.541c-3.197-5.581 1.551-12.362 7.889-11.266l2.886.499c4.116.711 8.035-2.033 8.774-6.144l.518-2.883c1.138-6.33 9.134-8.472 13.285-3.56l1.89 2.237c2.696 3.191 7.461 3.608 10.67.934l2.25-1.875c4.941-4.117 12.443-.619 12.465 5.813l.01 2.929c.016 4.179 3.399 7.562 7.576 7.576z" fill="#fea95c"/><g><path d="m322.522 288.698c1.785-1.416 3.656-1.934 5.395-1.79-4.257-4.234-11.704-2.042-12.801 4.055l-.229 1.274c2.593.175 5.295-.991 7.635-3.539z" fill="#fea95c"/><path d="m373.298 332.3-2.237-1.89c-3.191-2.696-3.608-7.461-.934-10.67l1.875-2.25c4.117-4.941.619-12.443-5.813-12.465l-2.929-.01c-4.177-.014-7.56-3.397-7.574-7.574l-.01-2.929c-.022-6.431-7.524-9.93-12.465-5.813l-2.25 1.875c-1.856 1.547-4.232 2.053-6.428 1.593.627 1.584.838 3.4.462 5.274.015 4.177 3.398 7.559 7.575 7.574 7.324-1.46 13.861 6.041 8.741 12.476-3.781 3.398-5.302 9.317-.941 12.92 8.243 5.1 5.534 15.4-4.206 15.694-5.599.926-7.2 6.842-5.644 11.66 1.198 8.107-8.179 11.385-13.808 6.432-2.327-1.377-4.684-1.291-6.723-.328.354.514.656 1.073.881 1.685l1.011 2.749c2.22 6.036 10.467 6.757 13.701 1.199l1.473-2.531c2.101-3.61 6.722-4.848 10.346-2.772l2.541 1.456c5.581 3.197 12.362-1.551 11.266-7.889l-.499-2.886c-.711-4.116 2.033-8.035 6.144-8.774l2.883-.518c6.332-1.141 8.475-9.137 3.562-13.288z" fill="#fe9738"/></g><circle cx="331.48" cy="329.221" fill="#fe9738" r="7.697"/><circle cx="175.72" cy="161.725" fill="#fe9738" r="7.697"/></g></svg>