<svg id="Capa_1" enable-background="new 0 0 497 497" height="512" viewBox="0 0 497 497" width="512" xmlns="http://www.w3.org/2000/svg"><g><path d="m392.783 356.819-9.745 10.848c-6.178 6.878-15.676 9.736-24.624 7.41l-14.114-3.668c-15.344-3.988-27.499-15.689-32.067-30.87l-22.536-74.887 90.255-27.16 22.536 74.887c4.568 15.181.89 31.646-9.705 43.44z" fill="#eaf6ff"/><path d="m402.487 313.378-22.536-74.887-20.092 6.046 20.716 68.841c4.569 15.182.89 31.647-9.705 43.441l-9.745 10.848c-2.323 2.586-5.116 4.603-8.173 5.991l5.46 1.419c8.948 2.326 18.446-.533 24.624-7.41l9.745-10.848c10.597-11.794 14.275-28.259 9.706-43.441z" fill="#c8effe"/><g><path d="m359.167 340.474c-3.224 0-6.202-2.095-7.179-5.341l-12.847-42.692c-1.194-3.966 1.054-8.149 5.021-9.343 3.963-1.195 8.149 1.053 9.343 5.021l12.847 42.692c1.194 3.966-1.054 8.149-5.021 9.343-.721.216-1.449.32-2.164.32z" fill="#c8effe"/></g><path d="m388.53 270.45c0 9.17-5.39 17.69-13.97 21.51-.9.4-1.84.75-2.81 1.04-6.33 1.91-12.84 1.02-18.2-1.94-4.65-2.58-10.38-.8-12.86 3.92-2.96 5.63-8.19 10.07-14.9 11.84-12.35 3.24-25-4.32-28.69-16.55l-40.71-135.29 26.31-7.92 18.82-5.66 30.93-9.31 14.2-4.27 4.39 14.59 36.48 121.24c.68 2.26 1.01 4.55 1.01 6.8z" fill="#8379c1"/><path d="m388.53 270.45c0 9.17-5.39 17.69-13.97 21.51l-12.88-10.59c-6.98-5.74-12.79-12.77-17.11-20.7l-61.87-113.61 18.82-5.66 30.93-9.31 18.59 10.32 36.48 121.24c.68 2.26 1.01 4.55 1.01 6.8z" fill="#6e61b6"/><path d="m476.46 308.02-6.63 17.74c-3.71 9.94-16.1 13.26-24.3 6.53l-61.94-50.92c-6.98-5.74-12.79-12.77-17.11-20.7l-64.96-119.27 19.05-13.58h26.08l73.06 40.52c14.43 8 26.1 20.16 33.5 34.9l19.73 39.29c10.24 20.39 11.51 44.12 3.52 65.49z" fill="#eaf6ff"/><path d="m472.939 242.533-19.726-39.288c-7.401-14.741-19.078-26.906-33.503-34.906l-73.061-40.515-11.034-.004-3.17 4.278 65.354 36.241c14.425 7.999 26.102 20.165 33.503 34.906l19.726 39.288c10.237 20.388 11.514 44.12 3.524 65.49l-6.632 17.736c-.817 2.185-2.053 4.049-3.572 5.558l1.181.971c8.195 6.737 20.586 3.408 24.302-6.529l6.632-17.736c7.99-21.37 6.713-45.102-3.524-65.49z" fill="#c8effe"/><path d="m310.33 303.42-23.56 76.64c-3.11 10.14-15.28 14.2-23.86 7.97l-15.32-11.13c-18.46-13.41-30.49-33.91-33.21-56.56l-5.23-43.65c-1.96-16.38 1.06-32.97 8.68-47.6l38.56-74.11.25-.21 14.73-12.38 5.46-4.59 24.69 3.6 11.65 135.31c.78 9-.19 18.07-2.84 26.71z" fill="#eaf6ff"/><path d="m313.171 276.712-11.65-135.307-10.347-1.511-11.01 7.939 11.097 128.88c.775 9.001-.191 18.068-2.845 26.704l-23.552 76.646c-.797 2.593-2.188 4.786-3.958 6.514l2 1.453c8.583 6.236 20.753 2.174 23.869-7.967l23.552-76.646c2.654-8.637 3.619-17.704 2.844-26.705z" fill="#c8effe"/><g><path d="m266.647 268.085c-4.051 0-7.387-3.23-7.494-7.304l-.533-20.44c-.108-4.141 3.161-7.585 7.302-7.693 4.151-.101 7.585 3.161 7.693 7.302l.533 20.44c.108 4.141-3.161 7.585-7.302 7.693-.066.001-.132.002-.199.002z" fill="#c8effe"/></g><g><path d="m400.35 227.91c-1.24.77-2.61 1.14-3.97 1.14-2.5 0-4.94-1.25-6.37-3.53l-60.65-97.7h17.29l56.08 89.75c2.2 3.52 1.13 8.14-2.38 10.34z" fill="#c8effe"/></g><g><path d="m272.71 205.21c.11 4.15-3.16 7.59-7.3 7.7h-.2c-4.05 0-7.39-3.23-7.5-7.3l-1.316-50.626 14.976-12.594c.01.09.02.19.02.29z" fill="#c8effe"/></g><path d="m54.596 263.558-27.448-108.96c-9.113-36.174-12.983-73.469-11.492-110.743l1.497-37.415c.289-7.215 10.214-8.933 12.912-2.236l19.632 48.742c3.255 8.082 5.562 16.513 6.876 25.126l19.241 126.193-2.489 39.026z" fill="#bbf49b"/><path d="m56.573 78.072c-1.313-8.613-3.621-17.045-6.876-25.126l-19.632-48.742c-2.698-6.698-12.623-4.979-12.912 2.236l-1.045 26.117c2.335.153 4.604 1.464 5.693 4.168l5.985 16.221c3.255 8.082 5.562 16.513 6.876 25.126l17.654 115.783c1.042 6.832.368 13.817-1.961 20.324l-4.811 13.445 9.052 35.934 18.729-20.268 2.489-39.026z" fill="#9be69d"/><g><path d="m99.421 231.61-28.953-8.005 41.212-149.072c9.862-35.673 42.599-60.587 79.61-60.587h17.927c25.721 0 50.344 12.245 65.865 32.756l22.221 29.366-23.954 18.126-22.221-29.366c-9.876-13.051-25.544-20.843-41.91-20.843h-17.927c-23.55 0-44.381 15.853-50.657 38.552z" fill="#9be69d"/></g><g fill="#6fd7a3"><path d="m190.308 43.985h-17.928c-23.55 0-44.381 15.853-50.657 38.552l-39.87 144.215 17.567 4.857 41.213-149.072c6.224-22.514 26.769-38.284 50.082-38.54-.136-.001-.271-.012-.407-.012z"/><path d="m275.082 46.702c-15.521-20.511-40.143-32.756-65.865-32.756h-17.927c-.136 0-.271.008-.407.009 25.512.181 49.884 12.39 65.289 32.747l22.221 29.366-11.93 9.027 6.885 9.099 23.954-18.126z"/></g><path d="m346.649 127.824-90.255 27.16-5.823-40.531c-2.918-20.315 9.456-39.711 29.11-45.626 19.653-5.914 40.677 3.431 49.455 21.983z" fill="#bbf49b"/><path d="m329.136 90.811c-8.629-18.237-29.09-27.566-48.451-22.26 11.333 3.111 21.202 10.979 26.54 22.26l13.165 27.824c2.289 4.837-.263 10.576-5.387 12.118l-59.517 17.911.908 6.32 90.255-27.16z" fill="#9be69d"/><path d="m26.981 488.121 27.615-224.563 21.218-59.294h10.712c19.738 0 35.117 17.119 33.009 36.744l-26.736 248.924c-.432 4.02-3.825 7.068-7.868 7.068h-50.096c-4.753 0-8.434-4.161-7.854-8.879z" fill="#6fd7a3"/><path d="m86.526 204.264h-10.712l-.615 1.719c14.319 4.808 24.137 19.09 22.425 35.025l-26.184 242.926c-.743 6.897-6.2 12.341-13.1 13.066h26.591c4.043 0 7.436-3.048 7.868-7.068l26.737-248.924c2.107-19.625-13.272-36.744-33.01-36.744z" fill="#3ec3a4"/></g></svg>