<svg id="Capa_1" enable-background="new 0 0 497 497" height="512" viewBox="0 0 497 497" width="512" xmlns="http://www.w3.org/2000/svg"><g><path d="m256.459 497h-15.918c-4.203 0-7.61-3.407-7.61-7.61v-133.038h31.138v133.038c0 4.203-3.407 7.61-7.61 7.61z" fill="#bbf49b"/><path d="m248.499 356.352v130.448c0 4.822-3.28 9.027-7.958 10.199h15.918c4.203 0 7.61-3.407 7.61-7.61v-133.037z" fill="#9be69d"/><g><path d="m188.023 353.325-43.197 48.086c-9.147 10.182-15.3 22.695-17.779 36.155l-3.742 20.312c-1.286 6.979 7.576 11.077 12.061 5.578l30.64-37.57c1.314-1.612 2.705-3.159 4.168-4.637l54.989-55.555z" fill="#bbf49b"/><path d="m188.023 353.325-4.046 4.503 23.616 7.864c-23.769 23.108-59.194 55.064-78.317 81.609-1.258 1.542-2.86 2.329-4.486 2.51l-1.486 8.066c-1.286 6.979 7.576 11.077 12.061 5.578l30.64-37.57c1.314-1.612 2.705-3.159 4.168-4.637l54.989-55.555-5.444-27.542z" fill="#9be69d"/><path d="m112.168 330.321-29.815 17.412c-14.055 8.208-25.022 20.809-31.213 35.861l-9.879 24.019c-2.729 6.635 5.273 12.477 10.761 7.856l36.251-30.519c2.043-1.72 4.178-3.329 6.394-4.819l54.575-36.686z" fill="#bbf49b"/><path d="m112.168 330.321-6.631 3.872 26.135 9.251c-26.761 16.932-58.683 34.878-81.512 56.49-1.982 1.668-4.289 1.968-6.302 1.363l-2.597 6.314c-2.729 6.635 5.273 12.477 10.761 7.856l36.251-30.519c2.043-1.72 4.178-3.329 6.394-4.819l54.575-36.686z" fill="#9be69d"/></g><g><path d="m308.977 353.325 43.197 48.086c9.147 10.182 15.3 22.695 17.779 36.155l3.742 20.312c1.286 6.979-7.576 11.077-12.061 5.578l-30.64-37.57c-1.314-1.612-2.705-3.159-4.168-4.637l-54.989-55.555 5.414-24.451z" fill="#bbf49b"/><path d="m373.695 457.877-3.742-20.312c-2.479-13.461-8.633-25.973-17.779-36.155l-43.197-48.086-13.748 4.578c18.453 21.233 54.689 53.109 57.154 79.662 0 .001 1.342 7.731 1.342 7.731.465 2.526-.402 4.671-1.907 6.124l9.815 12.035c4.485 5.501 13.347 1.403 12.062-5.577z" fill="#9be69d"/><path d="m384.832 330.321 29.815 17.412c14.055 8.208 25.022 20.809 31.213 35.861l9.879 24.019c2.729 6.635-5.273 12.477-10.761 7.856l-36.251-30.519c-2.043-1.72-4.178-3.329-6.394-4.819l-54.575-36.686z" fill="#bbf49b"/><path d="m455.738 407.612-9.879-24.019c-6.191-15.053-17.158-27.653-31.214-35.861l-29.815-17.412-10.831 3.834c21.145 11.919 46.377 25.865 54.288 49.44.001-.001 3.762 10.269 3.762 10.269 1.444 3.511-.117 6.798-2.719 8.432l15.646 13.172c5.489 4.622 13.491-1.22 10.762-7.855z" fill="#9be69d"/></g><g><path d="m319.947 374.282-.031.013c-15.839 6.561-33.534-.475-38.812-15.432l-52.712-149.364c-.308-.872-.662-1.726-1.062-2.559l-66.782-139.217c-6.866-14.312.669-31.818 16.519-38.383 15.845-6.563 33.545.48 38.817 15.446l51.966 147.514c.307.872.661 1.726 1.06 2.56l67.563 141.053c6.855 14.31-.681 31.806-16.526 38.369z" fill="#fc8b96"/><path d="m336.473 335.912-67.563-141.053c-.399-.834-.753-1.688-1.06-2.56l-51.965-147.513c-4.962-14.086-20.932-21.149-36.004-16.46 7.913 2.541 14.452 8.327 17.317 16.46l51.965 147.514c.307.872.661 1.726 1.06 2.56l67.563 141.053c6.855 14.311-.681 31.807-16.526 38.37l-.031.013c-.932.386-1.871.721-2.813 1.014 6.648 2.135 14.266 1.982 21.5-1.014l.031-.013c15.845-6.564 23.381-24.06 16.526-38.371z" fill="#fe646f"/><path d="m76.028 273.273-.013-.031c-6.561-15.839.475-33.534 15.432-38.812l149.364-52.712c.872-.308 1.726-.662 2.559-1.062l139.216-66.782c14.312-6.866 31.818.669 38.383 16.519 6.563 15.845-.48 33.545-15.446 38.817l-147.513 51.965c-.872.307-1.726.661-2.56 1.06l-141.053 67.563c-14.31 6.855-31.806-.68-38.369-16.525z" fill="#fc8b96"/><path d="m420.969 130.393c-6.269-15.134-22.509-22.677-36.422-17.353 7.597 2.793 14.228 8.885 17.735 17.353 6.563 15.845-.48 33.545-15.446 38.817l-147.514 51.965c-.872.307-1.726.661-2.56 1.06l-141.052 67.563c-.643.308-1.293.576-1.948.827 6.619 2.434 13.972 2.365 20.635-.827l141.053-67.563c.834-.399 1.688-.753 2.56-1.06l147.514-51.965c14.965-5.272 22.008-22.972 15.445-38.817z" fill="#fe646f"/><path d="m420.969 273.242-.013.031c-6.561 15.839-24.047 23.376-38.357 16.532l-142.889-68.343c-.834-.399-1.688-.752-2.561-1.059l-145.661-51.219c-14.975-5.265-22.026-22.971-15.46-38.822 6.563-15.845 24.059-23.381 38.37-16.526l141.053 67.563c.834.399 1.688.753 2.56 1.06l147.514 51.965c14.964 5.273 22.007 22.973 15.444 38.818z" fill="#fc8b96"/><path d="m405.523 234.425-147.513-51.965c-.872-.307-1.726-.661-2.56-1.06l-141.053-67.563c-6.663-3.192-14.016-3.26-20.635-.827.654.25 1.305.519 1.948.827l141.053 67.563c.834.399 1.688.753 2.56 1.06l147.514 51.965c14.966 5.272 22.009 22.972 15.446 38.817l-.013.031c-3.507 8.467-10.138 14.559-17.736 17.352 13.915 5.325 30.154-2.22 36.423-17.352l.013-.031c6.562-15.845-.481-33.545-15.447-38.817z" fill="#fe646f"/><path d="m177.068 374.295-.031-.013c-15.839-6.561-23.376-24.047-16.532-38.357l68.343-142.889c.399-.834.752-1.688 1.059-2.561l51.218-145.663c5.265-14.975 22.971-22.026 38.822-15.46 15.845 6.563 23.381 24.059 16.526 38.37l-67.563 141.053c-.399.834-.753 1.688-1.06 2.56l-51.965 147.514c-5.272 14.966-22.972 22.009-38.817 15.446z" fill="#fc8b96"/><path d="m319.947 29.353c-7.234-2.997-14.852-3.149-21.5-1.014.942.293 1.881.628 2.813 1.014 15.845 6.563 23.381 24.059 16.526 38.37l-67.563 141.053c-.399.834-.753 1.688-1.06 2.56l-51.965 147.514c-2.865 8.133-9.404 13.919-17.317 16.46 15.072 4.689 31.042-2.374 36.004-16.46l51.965-147.514c.307-.872.661-1.726 1.06-2.56l67.563-141.053c6.855-14.311-.681-31.807-16.526-38.37z" fill="#fe646f"/></g><path d="m46.683 201.826v-.033c0-17.144 14.347-30.799 31.471-29.952l170.99 8.46c.998.049 1.998.049 2.995-.002l166.676-8.423c17.135-.866 31.502 12.794 31.502 29.951 0 17.151-14.357 30.808-31.486 29.951l-168.833-8.442c-.998-.05-1.997-.05-2.995 0l-168.833 8.442c-17.13.856-31.487-12.802-31.487-29.952z" fill="#fea95c"/><g><path d="m418.815 171.875-11.87.6c13.531 2.84 23.803 14.844 23.803 29.351 0 14.516-10.286 26.527-23.832 29.356l11.915.596c17.129.856 31.486-12.801 31.486-29.951.001-17.158-14.367-30.818-31.502-29.952z" fill="#fe9738"/></g><path d="m391.213 344.518-.024.024c-12.123 12.123-31.924 11.633-43.433-1.074l-114.926-126.891c-.671-.741-1.378-1.447-2.119-2.117l-123.814-111.901c-12.728-11.504-13.229-31.322-1.097-43.454 12.127-12.127 31.937-11.632 43.443 1.085l113.414 125.352c.67.741 1.377 1.448 2.118 2.118l125.352 113.414c12.718 11.507 13.213 31.317 1.086 43.444z" fill="#fea95c"/><path d="m390.127 301.075-125.352-113.414c-.741-.67-1.448-1.377-2.118-2.118l-113.414-125.353c-8.342-9.22-21.046-12.01-32.024-8.23 4.624 1.59 8.93 4.334 12.455 8.23l113.414 125.352c.67.741 1.377 1.448 2.118 2.118l125.352 113.414c12.718 11.507 13.213 31.316 1.085 43.443l-.024.024c-3.335 3.335-7.253 5.71-11.418 7.144 10.47 3.601 22.576 1.267 30.988-7.144l.024-.024c12.127-12.126 11.632-31.936-1.086-43.442z" fill="#fe9738"/><path d="m105.8 344.53-.024-.024c-12.123-12.123-11.633-31.924 1.074-43.433l126.89-114.926c.741-.671 1.447-1.378 2.117-2.119l111.902-123.814c11.504-12.729 31.322-13.229 43.454-1.097 12.127 12.127 11.632 31.937-1.085 43.443l-125.353 113.414c-.741.67-1.448 1.377-2.118 2.118l-113.414 125.352c-11.507 12.718-31.316 13.213-43.443 1.086z" fill="#fea95c"/><path d="m391.213 59.117c-8.412-8.412-20.519-10.745-30.989-7.144 4.165 1.434 8.083 3.809 11.419 7.144 12.127 12.127 11.632 31.937-1.085 43.443l-125.352 113.414c-.741.67-1.448 1.377-2.118 2.118l-113.414 125.352c-3.525 3.896-7.831 6.639-12.455 8.23 10.979 3.78 23.683.99 32.024-8.23l113.414-125.352c.67-.741 1.377-1.448 2.118-2.118l125.352-113.414c12.718-11.506 13.213-31.316 1.086-43.443z" fill="#fe9738"/><path d="m384.83 201.83c0 16.28-13.24 29.28-29.24 29.28-.73 0-1.46-.03-2.19-.08l-59.94-4.44-42.8-3.17c-1.44-.11-2.88-.11-4.32 0l-79.08 5.86-23.66 1.75c-16.97 1.25-31.43-12.18-31.43-29.2v-.06c0-17.01 14.44-30.43 31.4-29.2l23.82 1.74 80.93 5.91c1.44.1 2.88.1 4.32-.01l40.77-3.06 59.96-4.5c16.98-1.28 31.46 12.16 31.46 29.18z" fill="#fe646f"/><path d="m298.05 201.94c0 8.69-1.63 17-4.59 24.65l-42.8-3.17c-1.44-.11-2.88-.11-4.32 0l-79.08 5.86c-3.67-8.37-5.7-17.62-5.7-27.34 0-9.83 2.08-19.18 5.83-27.63l80.93 5.91c1.44.1 2.88.1 4.32-.01l40.77-3.06c2.99 7.68 4.64 16.05 4.64 24.79z" fill="#fd4755"/><g><path d="m353.369 172.646-9.557.718c12.79 3.058 22.449 14.564 22.449 28.47 0 13.919-9.677 25.433-22.487 28.478l9.626.712c16.97 1.256 31.431-12.174 31.431-29.191.001-17.028-14.48-30.462-31.462-29.187z" fill="#fd4755"/></g><path d="m344.91 298.21-.04.04c-12.03 12.03-31.73 11.31-42.85-1.56l-33.38-38.63-35.29-40.84c-.94-1.09-1.96-2.11-3.06-3.05l-57.61-49.57-18.96-16.31c-12.91-11.11-13.65-30.84-1.61-42.89 5.74-5.74 13.22-8.57 20.69-8.57 8.19 0 16.37 3.42 22.18 10.16l23.79 27.6 43.48 50.42c.94 1.1 1.96 2.12 3.05 3.06l31.46 27.12 46.57 40.15c12.89 11.11 13.62 30.83 1.58 42.87z" fill="#fe646f"/><path d="m343.329 255.34-78.025-67.271c-.726-.626-1.411-1.297-2.069-1.993-.332-.352-.67-.697-.985-1.066l-22.539-26.136-44.734-51.885c-8.039-9.324-20.583-12.279-31.463-8.647 4.828 1.607 9.309 4.491 12.892 8.647l21.361 24.776c2.948 3.419 2.078 8.697-1.84 10.94-9.371 5.364-17.35 12.884-23.248 21.895l57.61 49.57c1.1.94 2.12 1.96 3.06 3.05l35.29 40.84c10.751-7.445 19.254-17.905 24.295-30.157l31.853 27.462c12.884 11.108 13.6 30.828 1.556 42.842l-.048.048c-3.327 3.328-7.244 5.675-11.404 7.063 10.143 3.376 21.822 1.089 29.974-7.063l.048-.048c12.033-12.033 11.304-31.755-1.584-42.867z" fill="#fd4755"/><path d="m353.49 126.12c0 8.19-3.42 16.36-10.16 22.17l-46.61 40.19-31.42 27.09c-1.09.94-2.11 1.96-3.05 3.05l-43.65 50.63-23.62 27.4c-11.11 12.88-30.84 13.61-42.87 1.58l-.05-.05c-12.02-12.02-11.3-31.73 1.56-42.84l18.89-16.32 60.59-52.35c1.09-.94 2.11-1.97 3.05-3.06l32.51-37.78 33.37-38.79c11.1-12.91 30.84-13.65 42.88-1.61 5.74 5.74 8.58 13.22 8.58 20.69z" fill="#fe646f"/><path d="m344.914 105.428c-8.153-8.153-19.832-10.438-29.974-7.063 4.159 1.388 8.076 3.735 11.403 7.063 12.033 12.033 11.304 31.754-1.584 42.866l-31.898 27.502c-5.048-12.165-13.515-22.552-24.201-29.966l-32.51 37.78c-.94 1.09-1.96 2.12-3.05 3.06l-60.59 52.35c6.134 9.462 14.553 17.294 24.468 22.737 3.323 1.824 4.137 6.231 1.662 9.102l-22.233 25.787c-3.583 4.156-8.064 7.04-12.892 8.647 10.88 3.632 23.424.677 31.462-8.647l23.621-27.397h.002l43.65-50.63c.94-1.09 1.96-2.11 3.05-3.05l31.42-27.09 46.609-40.185c12.888-11.111 13.617-30.833 1.585-42.866z" fill="#fd4755"/><path d="m248.509 403.635h-.033c-17.144 0-30.799-14.347-29.952-31.471l8.46-170.99c.049-.998.049-1.998-.002-2.995l-8.423-166.676c-.867-17.136 12.793-31.503 29.95-31.503 17.151 0 30.808 14.357 29.951 31.486l-8.442 168.833c-.05.998-.05 1.997 0 2.995l8.442 168.833c.857 17.13-12.801 31.488-29.951 31.488z" fill="#fea95c"/><path d="m270.018 203.315c-.05-.998-.05-1.997 0-2.995l8.442-168.833c.857-17.13-12.801-31.487-29.951-31.487-3.267 0-6.406.524-9.344 1.486 12.482 4.088 21.301 16.134 20.608 30l-8.442 168.833c-.05.998-.05 1.997 0 2.995l8.442 168.833c.694 13.872-8.133 25.924-20.624 30.006 2.933.958 6.066 1.48 9.327 1.48h.034c17.151 0 30.808-14.357 29.951-31.486z" fill="#fe9738"/><path d="m248.517 338.149h-.068c-17.005 0-30.43-14.441-29.193-31.4l7.642-104.752c.105-1.439.103-2.883-.005-4.322l-7.565-100.726c-1.275-16.982 12.159-31.463 29.188-31.463 17.017 0 30.447 14.461 29.191 31.431l-7.605 102.74c-.106 1.438-.106 2.883 0 4.321l7.605 102.74c1.257 16.971-12.173 31.431-29.19 31.431z" fill="#fe646f"/><path d="m270.104 203.978c-.107-1.438-.107-2.883 0-4.321l7.604-102.74c1.256-16.97-12.174-31.431-29.191-31.431-3.253 0-6.372.532-9.285 1.505 12.327 4.118 20.922 16.199 19.906 29.926l-7.604 102.74c-.106 1.438-.106 2.883 0 4.321l7.604 102.74c1.017 13.739-7.594 25.831-19.939 29.938 2.903.966 6.011 1.493 9.251 1.493h.068c17.017 0 30.447-14.461 29.191-31.431z" fill="#fd4755"/><circle cx="248.38" cy="201.938" fill="#ffd15b" r="68.245"/><g fill="#ffc344"><path d="m248.38 133.693c-3.151 0-6.247.232-9.285.646 33.295 4.532 58.96 33.06 58.96 67.599s-25.664 63.067-58.96 67.599c3.038.414 6.134.646 9.285.646 37.69 0 68.245-30.554 68.245-68.245s-30.555-68.245-68.245-68.245z"/><circle cx="248.5" cy="201.817" r="7.697"/></g></g></svg>