<svg id="Capa_1" enable-background="new 0 0 497.001 497.001" height="512" viewBox="0 0 497.001 497.001" width="512" xmlns="http://www.w3.org/2000/svg"><g><path d="m162.812 207.562 7.561-39.723 39.723-7.561c18.877-3.593 38.308 2.389 51.896 15.977 9.639 9.639 15.578 22.364 16.776 35.943l2.265 25.678c2.049 23.232-17.392 42.673-40.624 40.624l-25.678-2.265c-13.579-1.198-26.303-7.137-35.943-16.776-13.587-13.588-19.569-33.02-15.976-51.897z" fill="#8ac9fe"/><path d="m281.033 237.875-2.265-25.678c-1.198-13.579-7.137-26.303-16.776-35.943-13.527-13.527-32.846-19.509-51.644-16.016 11.376 2.113 22.033 7.602 30.448 16.016 9.639 9.639 15.578 22.364 16.776 35.943l2.265 25.678c1.689 19.147-11.225 35.707-28.822 39.795l9.395.829c23.231 2.049 42.672-17.392 40.623-40.624z" fill="#60b7ff"/><path d="m255.021 397.528-59.36 31.23-21.55 11.33c-4.05 2.13-6.59 6.33-6.59 10.91v38.596c0 3.973-3.221 7.194-7.194 7.194h-15.612c-3.973 0-7.194-3.221-7.194-7.194v-38.006c0-9.68-1.58-19.3-4.69-28.47l-59.85-176.72 28.41-9.62 56.97 168.19c1.43 4.24 6.31 6.19 10.27 4.1l28.3-14.88 44.12-23.21z" fill="#6fd7a3"/><g fill="#3ec3a4"><path d="m140.961 404.967c1.435 4.237 6.317 6.187 10.276 4.104l7.239-3.808c-.039-.1-.085-.194-.119-.297l-56.963-168.19-15.606 5.285z"/><path d="m255.022 397.526-13.967-26.551-13.625 7.167.001.001-30.499 16.044s-.349 4.034-.768 8.919c-.907 10.589-7.146 19.988-16.552 24.936l-22.894 12.043c-4.054 2.132-6.592 6.336-6.592 10.917v38.055c0 3.457-2.162 6.546-5.41 7.73l15.612.002c3.973 0 7.194-3.22 7.194-7.193v-38.594c0-4.581 2.538-8.784 6.592-10.917l21.547-11.334c0 .002.001.004.001.006l59.36-31.23-.001-.001z"/></g><path d="m371.975 286.139-6.781 39.863 34.584 20.952c16.435 9.957 36.732 11.134 54.208 3.145 12.398-5.668 22.405-15.518 28.268-27.825l11.086-23.272c10.03-21.055-1.401-46.059-23.887-52.249l-24.853-6.842c-13.143-3.618-27.14-2.495-39.538 3.173-17.475 7.991-29.865 24.112-33.087 43.055z" fill="#8ac9fe"/><path d="m469.454 246.754-24.853-6.841c-8.524-2.346-17.405-2.686-25.978-1.097 1.603.299 3.199.662 4.782 1.097l24.853 6.841c22.485 6.19 33.917 31.194 23.886 52.249l-11.086 23.272c-5.863 12.307-15.87 22.157-28.268 27.825-4.363 1.995-8.903 3.418-13.514 4.275 11.576 2.145 23.702.757 34.71-4.275 12.398-5.668 22.405-15.518 28.268-27.825l11.086-23.272c10.03-21.055-1.401-46.059-23.886-52.249z" fill="#60b7ff"/><path d="m305.361 325.998-34.58 20.96c-2.93 1.77-5.98 3.27-9.12 4.47-14.47 5.61-30.73 5.24-45.09-1.33-6.2-2.84-11.8-6.72-16.59-11.42-4.78-4.71-8.75-10.25-11.68-16.4l-11.09-23.27c-10.03-21.06 1.4-46.06 23.89-52.25l24.85-6.85c9.96-2.73 20.4-2.76 30.27-.14 3.16.84 6.26 1.94 9.27 3.32 8.74 3.99 16.21 10.02 21.89 17.42.45.59.89 1.18 1.32 1.79 4.98 7 8.4 15.12 9.88 23.84l4.62 27.14z" fill="#8ac9fe"/><path d="m303.201 313.278-22.49-15.3c-7.95-5.4-14.29-12.59-18.66-20.84-4.36-8.24-6.74-17.54-6.74-27.15 0-3.45.31-6.87.91-10.22 3.16.84 6.26 1.94 9.27 3.32 8.74 3.99 16.21 10.02 21.89 17.42 5.69 7.39 9.59 16.16 11.2 25.63z" fill="#60b7ff"/><path d="m305.361 325.998-34.58 20.96c-2.93 1.77-5.98 3.27-9.12 4.47-1.51-.54-3.13-.87-4.85-.94l-12.62-.52c-4.8-.2-5.96-6.79-1.52-8.62l11.68-4.81c10.99-4.52 13.53-18.94 4.75-26.95l-9.33-8.51c-3.55-3.24-.2-9.04 4.38-7.58l12.03 3.82c11.33 3.6 22.55-5.81 20.97-17.59l-1.68-12.51c-.34-2.52 1.26-4.35 3.23-4.92 4.98 7 8.4 15.12 9.88 23.84l4.62 27.14z" fill="#60b7ff"/><path d="m301.905 297.982 33.435 22.742 33.435-22.742c15.889-10.807 25.399-28.777 25.399-47.993 0-13.632-4.798-26.829-13.553-37.278l-16.555-19.758c-14.978-17.876-42.472-17.876-57.45 0l-16.555 19.758c-8.755 10.449-13.553 23.646-13.553 37.278-.002 19.216 9.508 37.186 25.397 47.993z" fill="#8ac9fe"/><path d="m380.621 212.711-16.555-19.758c-10.01-11.946-25.605-15.897-39.323-11.876 6.809 1.996 13.158 5.946 18.127 11.876l16.556 19.758c8.755 10.449 13.553 23.646 13.553 37.278 0 19.216-9.51 37.186-25.399 47.993l-22.837 15.533 10.598 7.209 33.435-22.742c15.889-10.807 25.399-28.777 25.399-47.993-.001-13.632-4.799-26.829-13.554-37.278z" fill="#60b7ff"/><path d="m335.341 397.758c0 15.25-6.02 30.05-17 41.03-9.64 9.64-22.37 15.58-35.95 16.78l-25.67 2.26c-23.23 2.05-42.68-17.39-40.63-40.62l2.27-25.68c.6-6.79 2.38-13.37 5.22-19.45s6.73-11.67 11.55-16.49c2.24-2.24 4.64-4.27 7.17-6.09 12.81-9.21 28.96-12.89 44.73-9.89l39.72 7.57 6.33 33.24 1.23 6.48c.69 3.62 1.03 7.25 1.03 10.86z" fill="#8ac9fe"/><path d="m333.081 380.418c-5.62 1.43-10.45 5.83-11.86 12.24l-2.7 12.33c-1.03 4.7-7.73 4.7-8.76 0l-2.7-12.33c-2.54-11.61-16.31-16.62-25.72-9.36l-10 7.71c-3.8 2.93-8.93-1.37-6.7-5.63l5.85-11.19c5.52-10.53-1.81-23.21-13.68-23.7l-12.62-.52c-.71-.03-1.34-.2-1.89-.47 12.81-9.21 28.96-12.89 44.73-9.89l39.72 7.57z" fill="#60b7ff"/><path d="m334.315 386.896-7.561-39.723-39.723-7.561c-7.187-1.368-14.453-1.339-21.448-.04.084.016.168.024.252.04l39.723 7.561 7.561 39.723c3.593 18.877-2.389 38.308-15.977 51.896-9.639 9.639-22.364 15.578-35.943 16.776l-16.283 1.436c3.754.872 7.717 1.189 11.802.829l25.678-2.265c13.579-1.198 26.303-7.137 35.943-16.776 13.587-13.588 19.569-33.019 15.976-51.896z" fill="#60b7ff"/><path d="m336.365 386.896 7.561-39.723 39.723-7.561c18.877-3.593 38.308 2.389 51.896 15.977 9.639 9.639 15.578 22.364 16.776 35.943l2.265 25.678c2.049 23.232-17.392 42.673-40.624 40.624l-25.678-2.265c-13.579-1.198-26.303-7.137-35.943-16.776-13.587-13.589-19.57-33.02-15.976-51.897z" fill="#8ac9fe"/><path d="m454.585 417.209-2.265-25.678c-1.198-13.579-7.137-26.303-16.776-35.943-13.527-13.527-32.846-19.509-51.644-16.017 11.377 2.113 22.034 7.602 30.448 16.017 9.639 9.639 15.578 22.364 16.776 35.943l2.265 25.678c1.689 19.147-11.224 35.707-28.822 39.795l9.395.829c23.231 2.049 42.672-17.392 40.623-40.624z" fill="#60b7ff"/><path d="m198.423 106.805-6.781 39.863 34.584 20.952c16.435 9.957 36.732 11.134 54.208 3.145 12.398-5.668 22.405-15.518 28.268-27.825l11.086-23.272c10.03-21.055-1.401-46.059-23.887-52.249l-24.853-6.842c-13.143-3.618-27.14-2.495-39.538 3.173-17.476 7.991-29.865 24.112-33.087 43.055z" fill="#8ac9fe"/><path d="m295.901 67.42-24.853-6.842c-8.524-2.346-17.405-2.686-25.978-1.097 1.603.299 3.199.662 4.782 1.097l24.853 6.842c22.486 6.19 33.917 31.194 23.887 52.249l-11.086 23.272c-5.863 12.307-15.87 22.157-28.268 27.825-4.363 1.995-8.903 3.418-13.514 4.275 11.576 2.145 23.702.757 34.71-4.275 12.398-5.668 22.405-15.518 28.268-27.825l11.086-23.272c10.03-21.055-1.401-46.059-23.887-52.249z" fill="#60b7ff"/><path d="m131.811 146.668-34.59 20.95c-2.92 1.77-5.97 3.27-9.1 4.48-14.46 5.61-30.74 5.24-45.1-1.33-6.2-2.83-11.8-6.71-16.59-11.43-4.78-4.7-8.75-10.24-11.68-16.4l-11.09-23.27c-10.03-21.05 1.4-46.06 23.89-52.25l24.85-6.84c9.95-2.74 20.4-2.76 30.27-.14 3.16.83 6.26 1.94 9.27 3.31 8.74 3.99 16.2 10.02 21.88 17.42.46.59.9 1.2 1.32 1.81 4.98 7 8.41 15.12 9.89 23.83l4.62 27.14z" fill="#8ac9fe"/><path d="m131.811 146.668-34.59 20.95c-2.92 1.77-5.97 3.27-9.1 4.48-1.51-.55-3.14-.88-4.87-.95l-12.61-.52c-4.8-.19-5.97-6.79-1.52-8.62l11.67-4.8c11-4.52 13.54-18.95 4.76-26.96l-9.33-8.5c-3.55-3.24-.2-9.04 4.38-7.59l12.03 3.83c11.33 3.6 22.55-5.82 20.97-17.6l-1.68-12.51c-.34-2.52 1.26-4.34 3.22-4.9 4.98 7 8.41 15.12 9.89 23.83l4.62 27.14z" fill="#60b7ff"/><path d="m129.651 133.948-22.49-15.3c-7.94-5.41-14.3-12.6-18.66-20.85-4.36-8.24-6.74-17.54-6.74-27.14 0-3.45.31-6.86.91-10.22 3.16.83 6.26 1.94 9.27 3.31 8.74 3.99 16.2 10.02 21.88 17.42 5.69 7.4 9.6 16.17 11.21 25.64z" fill="#60b7ff"/><path d="m128.353 118.648 33.435 22.742 33.435-22.742c15.889-10.807 25.399-28.777 25.399-47.993 0-13.632-4.798-26.829-13.553-37.278l-16.555-19.758c-14.978-17.876-42.472-17.876-57.45 0l-16.555 19.758c-8.755 10.449-13.553 23.646-13.553 37.278-.002 19.216 9.508 37.186 25.397 47.993z" fill="#8ac9fe"/><path d="m207.068 33.377-16.555-19.758c-10.01-11.946-25.606-15.897-39.323-11.876 6.809 1.996 13.158 5.946 18.127 11.876l16.556 19.758c8.755 10.449 13.553 23.646 13.553 37.278 0 19.216-9.51 37.186-25.399 47.993l-22.837 15.533 10.598 7.209 33.435-22.742c15.889-10.807 25.399-28.777 25.399-47.993-.001-13.632-4.799-26.829-13.554-37.278z" fill="#60b7ff"/><path d="m161.781 218.408c0 15.25-6.01 30.06-16.99 41.05-9.64 9.64-22.37 15.58-35.95 16.78l-25.68 2.26c-23.23 2.05-42.67-17.39-40.62-40.62l2.27-25.68c.59-6.79 2.38-13.36 5.22-19.45 2.83-6.08 6.73-11.67 11.55-16.49 2.24-2.24 4.64-4.28 7.18-6.1 12.81-9.2 28.96-12.88 44.72-9.88l39.72 7.56 6.33 33.24 1.23 6.48c.69 3.61 1.02 7.24 1.02 10.85z" fill="#8ac9fe"/><path d="m159.531 201.078c-5.62 1.43-10.45 5.83-11.86 12.24l-2.7 12.34c-1.03 4.69-7.73 4.69-8.76 0l-2.7-12.34c-2.55-11.61-16.31-16.62-25.72-9.36l-10 7.71c-3.81 2.94-8.94-1.37-6.71-5.63l5.86-11.18c5.51-10.53-1.81-23.21-13.69-23.71l-12.61-.52c-.71-.03-1.34-.2-1.88-.47 12.81-9.2 28.96-12.88 44.72-9.88l39.72 7.56z" fill="#60b7ff"/><path d="m160.763 207.562-7.561-39.723-39.723-7.561c-7.187-1.368-14.453-1.339-21.448-.04.084.016.168.024.252.04l39.723 7.561 7.561 39.723c3.593 18.877-2.389 38.308-15.977 51.896-9.639 9.639-22.364 15.578-35.943 16.776l-16.283 1.436c3.754.872 7.717 1.189 11.802.829l25.678-2.265c13.579-1.198 26.303-7.137 35.943-16.776 13.587-13.587 19.569-33.019 15.976-51.896z" fill="#60b7ff"/><g><path d="m376.559 327.885c-2.846 0-5.566-1.628-6.826-4.385-1.722-3.768-.063-8.217 3.704-9.938l77.188-34.855c3.772-1.724 8.218-.062 9.938 3.704 1.722 3.768.063 8.217-3.704 9.938l-77.188 34.855c-1.011.463-2.07.681-3.112.681z" fill="#60b7ff"/></g><g><path d="m293.242 327.885c-1.043 0-2.103-.219-3.113-.681l-76.425-34.855c-3.767-1.722-5.425-6.172-3.703-9.939s6.171-5.425 9.939-3.704l76.425 34.855c3.767 1.722 5.425 6.172 3.703 9.939-1.26 2.758-3.981 4.385-6.826 4.385z" fill="#60b7ff"/></g><g><path d="m335.341 300.342c-4.143 0-7.5-3.358-7.5-7.5v-69.474c0-4.142 3.357-7.5 7.5-7.5s7.5 3.358 7.5 7.5v69.474c0 4.142-3.357 7.5-7.5 7.5z" fill="#60b7ff"/></g><g><path d="m257.912 423.518c-1.919 0-3.839-.732-5.304-2.197-2.929-2.929-2.929-7.678 0-10.606l40.314-41.371c2.93-2.929 7.678-2.929 10.607 0s2.929 7.678 0 10.606l-40.314 41.371c-1.465 1.464-3.385 2.197-5.303 2.197z" fill="#60b7ff"/></g><g><path d="m412.771 423.518c-1.919 0-3.838-.732-5.303-2.196l-44.559-43.945c-2.929-2.928-2.93-7.677-.002-10.606 2.929-2.929 7.677-2.931 10.607-.002l44.559 43.945c2.929 2.928 2.93 7.677.002 10.606-1.464 1.465-3.384 2.198-5.304 2.198z" fill="#60b7ff"/></g><g><path d="m203.007 148.551c-2.846 0-5.565-1.627-6.826-4.383-1.722-3.768-.064-8.217 3.703-9.939l77.179-34.861c3.769-1.723 8.217-.064 9.939 3.702 1.722 3.768.064 8.217-3.703 9.939l-77.179 34.861c-1.011.463-2.07.681-3.113.681z" fill="#60b7ff"/></g><g><path d="m119.935 148.552c-1.043 0-2.103-.219-3.113-.681l-76.679-34.861c-3.768-1.722-5.425-6.172-3.703-9.939 1.723-3.767 6.172-5.426 9.939-3.703l76.679 34.861c3.768 1.722 5.425 6.172 3.703 9.939-1.26 2.756-3.981 4.384-6.826 4.384z" fill="#60b7ff"/></g><g><path d="m161.791 117.682c-4.143 0-7.5-3.358-7.5-7.5v-66.154c0-4.142 3.357-7.5 7.5-7.5s7.5 3.358 7.5 7.5v66.154c0 4.142-3.357 7.5-7.5 7.5z" fill="#60b7ff"/></g><g><path d="m84.362 244.178c-1.919 0-3.839-.732-5.304-2.197-2.929-2.929-2.929-7.678 0-10.606l36.672-37.359c2.93-2.929 7.678-2.929 10.607 0s2.929 7.678 0 10.606l-36.672 37.359c-1.464 1.465-3.384 2.197-5.303 2.197z" fill="#60b7ff"/></g><path d="m148.101 95.549-6.758-10.664c-2.573-4.06-8.865-1.77-8.227 2.994l1.678 12.513c1.579 11.78-9.641 21.196-20.969 17.595l-12.031-3.825c-4.581-1.456-7.929 4.342-4.377 7.582l9.328 8.507c8.782 8.009 6.239 22.434-4.753 26.957l-11.675 4.803c-4.446 1.829-3.283 8.423 1.52 8.622l12.614.521c11.876.49 19.2 13.175 13.686 23.705l-5.856 11.184c-2.23 4.259 2.9 8.563 6.706 5.627l9.997-7.709c9.412-7.258 23.177-2.248 25.722 9.362l2.703 12.332c1.029 4.696 7.725 4.696 8.755 0l2.703-12.332c2.545-11.61 16.309-16.62 25.722-9.362l9.997 7.709c3.807 2.935 8.936-1.369 6.706-5.627l-5.856-11.184c-5.513-10.53 1.81-23.215 13.686-23.705l12.614-.521c4.803-.198 5.966-6.793 1.52-8.622l-11.675-4.803c-10.992-4.522-13.535-18.947-4.753-26.957l9.328-8.507c3.552-3.239.204-9.038-4.377-7.582l-12.031 3.825c-11.327 3.601-22.548-5.814-20.969-17.595l1.678-12.513c.639-4.764-5.653-7.055-8.227-2.994l-6.758 10.664c-6.36 10.04-21.008 10.04-27.371 0z" fill="#ffead9"/><g fill="#fedba6"><path d="m188.553 117.987 6.947-2.209c-4.657-3.297-7.577-8.99-6.719-15.386l1.678-12.513c.639-4.764-5.653-7.055-8.227-2.994l-6.758 10.664c-2.017 3.182-4.867 5.352-8.021 6.517-.363 10.977 10.315 19.35 21.1 15.921z"/><path d="m233.258 162.011-11.675-4.803c-10.992-4.522-13.536-18.948-4.753-26.957l9.328-8.507c3.552-3.239.204-9.038-4.377-7.582l-12.031 3.825c-1.112.353-2.222.577-3.319.69-.047 1.08-.486 2.171-1.468 3.067l-9.328 8.507c-8.782 8.009-6.239 22.434 4.753 26.957l11.675 4.803c4.446 1.829 3.283 8.423-1.52 8.622l-12.614.521c-11.876.49-19.2 13.175-13.686 23.705l3.109 5.938c2.519.415 5.002 1.44 7.239 3.164l9.997 7.709c3.807 2.935 8.936-1.369 6.706-5.627l-5.856-11.184c-5.513-10.53 1.81-23.215 13.686-23.705l12.614-.521c4.803-.199 5.965-6.793 1.52-8.622z"/></g><circle cx="161.788" cy="155.982" fill="#ffd15b" r="21.266"/><path d="m161.788 134.716c-3.7 0-7.178.948-10.208 2.61 6.589 3.613 11.058 10.611 11.058 18.656s-4.469 15.043-11.058 18.656c3.031 1.662 6.508 2.61 10.208 2.61 11.745 0 21.266-9.521 21.266-21.266s-9.521-21.266-21.266-21.266z" fill="#ffc344"/><path d="m321.654 274.883-6.758-10.664c-2.573-4.06-8.865-1.77-8.227 2.994l1.678 12.513c1.579 11.78-9.641 21.196-20.969 17.595l-12.031-3.825c-4.581-1.456-7.929 4.342-4.377 7.582l9.328 8.507c8.782 8.009 6.239 22.434-4.753 26.957l-11.675 4.803c-4.446 1.829-3.283 8.423 1.52 8.622l12.614.521c11.876.49 19.2 13.175 13.686 23.705l-5.856 11.184c-2.23 4.259 2.9 8.563 6.706 5.627l9.997-7.709c9.412-7.258 23.177-2.248 25.722 9.362l2.703 12.332c1.029 4.696 7.725 4.696 8.755 0l2.703-12.332c2.545-11.61 16.309-16.62 25.722-9.362l9.997 7.709c3.807 2.935 8.936-1.369 6.706-5.627l-5.856-11.184c-5.513-10.53 1.81-23.215 13.686-23.705l12.614-.521c4.803-.198 5.966-6.793 1.52-8.622l-11.675-4.803c-10.992-4.522-13.535-18.947-4.753-26.957l9.328-8.507c3.552-3.239.204-9.038-4.377-7.582l-12.031 3.825c-11.327 3.601-22.548-5.814-20.969-17.595l1.678-12.513c.639-4.764-5.653-7.055-8.227-2.994l-6.758 10.664c-6.361 10.04-21.009 10.04-27.371 0z" fill="#ffead9"/><g fill="#fedba6"><path d="m362.105 297.321 6.947-2.209c-4.657-3.297-7.577-8.99-6.719-15.386l1.678-12.513c.639-4.764-5.653-7.055-8.227-2.994l-6.758 10.664c-2.017 3.182-4.867 5.352-8.021 6.517-.363 10.977 10.316 19.349 21.1 15.921z"/><path d="m406.81 341.345-11.675-4.803c-10.992-4.522-13.536-18.947-4.753-26.957l9.328-8.507c3.552-3.239.204-9.038-4.377-7.582l-12.031 3.825c-1.112.353-2.222.577-3.319.69-.047 1.08-.486 2.171-1.468 3.067l-9.328 8.507c-8.782 8.009-6.239 22.434 4.753 26.957l11.675 4.803c4.446 1.829 3.283 8.423-1.52 8.622l-12.614.521c-11.876.49-19.2 13.175-13.686 23.705l3.109 5.938c2.52.415 5.003 1.44 7.24 3.164l9.997 7.709c3.807 2.935 8.936-1.369 6.707-5.627l-5.856-11.184c-5.513-10.53 1.81-23.215 13.686-23.705l12.614-.521c4.801-.199 5.964-6.793 1.518-8.622z"/></g><circle cx="335.34" cy="335.316" fill="#ffd15b" r="21.266"/><path d="m335.34 314.05c-3.7 0-7.178.948-10.208 2.61 6.589 3.613 11.058 10.611 11.058 18.656s-4.469 15.043-11.058 18.656c3.031 1.662 6.508 2.61 10.208 2.61 11.745 0 21.266-9.521 21.266-21.266s-9.521-21.266-21.266-21.266z" fill="#ffc344"/></g></svg>