<svg id="Capa_1" enable-background="new 0 0 503.967 503.967" height="512" viewBox="0 0 503.967 503.967" width="512" xmlns="http://www.w3.org/2000/svg"><g><path d="m281.063 233.778-29.08 31.018-29.08-31.018c-18.685-19.93-29.083-46.224-29.083-73.543v-10.148c0-22.409 5.006-44.536 14.653-64.763l28.708-60.194c5.939-12.453 23.664-12.453 29.603 0l28.708 60.194c9.647 20.227 14.653 42.353 14.653 64.763v10.148c.001 27.319-10.398 53.613-29.082 73.543z" fill="#d691c6"/><path d="m295.493 85.325-28.708-60.195c-4.783-10.029-17.207-11.974-24.966-5.849 1.875 1.48 3.481 3.426 4.637 5.849l28.708 60.194c9.647 20.227 14.653 42.353 14.653 64.763v10.148c0 27.319-10.398 53.613-29.083 73.543l-18.915 20.176 10.164 10.842 29.08-31.018c18.685-19.93 29.083-46.224 29.083-73.543v-10.148c0-22.409-5.007-44.535-14.653-64.762z" fill="#cd7cbb"/><path d="m263.305 132.473c-.503 0-1.013-.051-1.525-.157-4.056-.838-6.666-4.806-5.827-8.862 11.783-57.034 45.055-98.641 46.285-99.942 2.846-3.01 7.593-3.142 10.603-.295 3.009 2.847 3.141 7.594.295 10.603-.059.062-6.919 7.432-15.032 21.225-7.461 12.686-21.787 43.977-27.461 71.445-.733 3.543-3.855 5.983-7.338 5.983z" fill="#ffd15b"/><g><path d="m255.462 274.72-15.856 39.45-38.347-18.365c-24.639-11.8-43.862-32.536-53.766-57.996l-2.099-5.396c-9.165-23.559-12.95-48.867-11.081-74.077l4.61-62.161c1.02-13.758 17.539-20.184 27.589-10.732l48.578 45.691c16.323 15.353 29.011 34.16 37.135 55.045l3.679 9.457c9.904 25.461 9.746 53.737-.442 79.084z" fill="#ffceec"/><path d="m255.904 195.637-3.679-9.457c-8.124-20.885-20.812-39.691-37.135-55.044l-48.578-45.691c-7.908-7.438-19.818-5.04-25.033 3.023 4.075-.142 8.272 1.231 11.712 4.466l41.571 38.202c16.323 15.353 29.011 34.16 37.135 55.044l3.679 9.457c9.904 25.46 9.746 53.736-.442 79.083l-12.575 31.286 17.047 8.164 15.856-39.45c10.188-25.347 10.346-53.623.442-79.083z" fill="#ffbee6"/><path d="m248.505 274.72 15.856 39.45 38.347-18.365c24.639-11.8 43.862-32.536 53.767-57.996l2.099-5.396c9.165-23.559 12.95-48.867 11.081-74.077l-4.61-62.161c-1.02-13.758-17.539-20.184-27.589-10.732l-48.578 45.691c-16.323 15.353-29.011 34.16-37.135 55.045l-3.679 9.457c-9.905 25.461-9.747 53.737.441 79.084z" fill="#ffceec"/><path d="m369.654 158.337-4.61-62.161c-.985-13.278-16.402-19.722-26.511-11.66 3.399 2.653 5.812 6.671 6.182 11.66l4.932 66.507c1.657 22.348-1.699 44.784-9.823 65.669l-3.679 9.458c-9.904 25.46-29.128 46.196-53.766 57.996l-21.3 10.201 3.281 8.164 38.347-18.365c24.639-11.8 43.863-32.536 53.767-57.997l2.099-5.396c9.164-23.558 12.95-48.867 11.081-74.076z" fill="#ffbee6"/></g><path d="m240.661 131.088c-3.483 0-6.605-2.439-7.337-5.984-5.675-27.467-20-57.374-27.461-70.06-8.112-13.792-14.973-21.162-15.042-21.235-2.831-3.016-2.69-7.76.32-10.597 3.01-2.836 7.744-2.707 10.587.299 1.23 1.3 34.502 41.523 46.285 98.557.838 4.057-1.771 8.024-5.827 8.862-.511.107-1.022.158-1.525.158z" fill="#ffd15b"/><path d="m432.211 151.671-52.027 13.436c-6.244 1.613-11.257 6.242-13.38 12.332-5.295 15.193-17.333 46.077-36.976 76.947-5.776 9.077-19.73 4.943-19.684-5.816.001-.155.001-.31.001-.465v-10.148c0-22.41-5.006-44.536-14.653-64.763l-28.707-60.194c-5.939-12.453-23.664-12.453-29.603 0l-28.708 60.194c-9.647 20.227-14.653 42.353-14.653 64.762v10.148c0 .155 0 .31.001.465.047 10.758-13.908 14.892-19.684 5.816-19.643-30.87-31.681-61.754-36.976-76.947-2.122-6.09-7.135-10.719-13.38-12.332l-52.027-13.436c-8.45-2.182-16.688 4.198-16.688 12.926 0 28.989 13.574 56.306 36.679 73.815l72.137 54.664c22.656 17.169 40.702 39.688 52.52 65.542 11.931 26.1 18.107 54.463 18.107 83.161v50.926l17.473 11.262 17.473-11.262v-50.926c0-28.698 6.175-57.061 18.107-83.161 11.819-25.854 29.864-48.373 52.521-65.542l72.137-54.664c23.105-17.509 36.679-44.825 36.679-73.815-.001-8.727-8.239-15.108-16.689-12.925z" fill="#c365af"/><g fill="#b2529f"><path d="m246.456 113 28.708 60.194c9.647 20.227 14.653 42.353 14.653 64.763v10.148c0 .155 0 .31-.001.465-.047 10.758 13.908 14.892 19.684 5.816.428-.673.853-1.346 1.274-2.019-.408-1.148-.635-2.417-.629-3.796.001-.155.001-.31.001-.465v-10.148c0-22.409-5.006-44.536-14.653-64.763l-28.708-60.195c-4.783-10.029-17.207-11.974-24.966-5.849 1.875 1.48 3.481 3.425 4.637 5.849z"/><path d="m102.961 164.98c6.533 1.687 11.792 6.515 14.021 12.883 5.369 15.338 17.366 45.937 36.828 76.523 5.035 7.913 16.283 5.784 19.054-2.019-18.907-30.216-30.542-60.116-35.715-74.965-2.117-6.078-7.135-10.685-13.366-12.294l-52.027-13.436c-4.182-1.08-8.308-.058-11.413 2.303z"/><path d="m432.211 151.671-8.916 2.303c3.169 2.41 5.275 6.214 5.275 10.623 0 28.989-13.574 56.306-36.679 73.815l-72.137 54.664c-22.657 17.169-40.702 39.688-52.521 65.542-11.932 26.101-18.107 54.463-18.107 83.161v60.347l2.856 1.841 17.473-11.262v-50.926c0-28.698 6.175-57.061 18.107-83.161 11.819-25.854 29.864-48.373 52.521-65.542l72.137-54.664c23.105-17.509 36.679-44.826 36.679-73.815 0-8.728-8.238-15.109-16.688-12.926z"/></g><path d="m251.983 503.967-29.689-51.333c-25.927-44.829-66.463-79.395-114.825-97.915l-26.172-10.022c-5.222-2-9.297 4.765-5.088 8.446l63.608 55.631c4.905 4.29 9.272 9.158 13.005 14.499l53.024 75.848c2.123 3.037 5.596 4.846 9.301 4.846z" fill="#bbf49b"/><path d="m222.295 452.634c-25.927-44.829-66.463-79.395-114.825-97.915l-26.172-10.022c-4.259-1.631-7.751 2.568-6.612 6.169.961-.281 2.046-.283 3.193.158 87.123 26.134 113.773 74.876 153.776 152.943h20.329z" fill="#9be69d"/><path d="m251.983 503.967 29.689-51.333c25.927-44.829 66.463-79.395 114.825-97.915l26.172-10.022c5.222-2 9.297 4.765 5.088 8.446l-63.608 55.631c-4.905 4.29-9.272 9.158-13.005 14.499l-53.023 75.848c-2.123 3.037-5.596 4.846-9.301 4.846z" fill="#bbf49b"/><path d="m422.669 344.697-13.523 5.178c-.104 1.159-.63 2.316-1.718 3.268l-63.608 55.631c-10.504 7.107-60.647 84.051-69.417 95.193h14.415c3.706 0 7.178-1.809 9.301-4.846l53.024-75.848c3.733-5.34 8.1-10.209 13.005-14.498l63.608-55.631c4.21-3.682.135-10.447-5.087-8.447z" fill="#9be69d"/><g fill="#ffc344"><circle cx="336.304" cy="7.791" r="7.789"/><circle cx="251.983" cy="56.273" r="7.789"/><circle cx="167.663" cy="7.791" r="7.789"/></g><path d="m251.983 346.309c-4.142 0-7.5-3.358-7.5-7.5v-70.979c0-4.142 3.358-7.5 7.5-7.5s7.5 3.358 7.5 7.5v70.979c0 4.142-3.358 7.5-7.5 7.5z" fill="#b2529f"/><path d="m251.983 239.299c-4.142 0-7.5-3.358-7.5-7.5v-21.651c0-4.142 3.358-7.5 7.5-7.5s7.5 3.358 7.5 7.5v21.651c0 4.142-3.358 7.5-7.5 7.5z" fill="#b2529f"/></g></svg>