<svg id="Capa_1" enable-background="new 0 0 497 497" height="512" viewBox="0 0 497 497" width="512" xmlns="http://www.w3.org/2000/svg"><g><path d="m237.736 422.246v12.19c0 6.04-5.62 10.5-11.5 9.14l-47.12-10.91-2.66-.62c-10.11-2.34-20.62-2.34-30.73 0l-28.29 6.55-21.5 4.98c-5.88 1.36-11.5-3.1-11.5-9.14v-12.19c0-5.3.92-10.52 2.67-15.44s4.34-9.54 7.69-13.65c5.68-6.96 8.78-15.68 8.78-24.67v-24.81c0-16.6 12.06-30.39 27.9-33.08 1.84-.31 3.72-.47 5.65-.47h2.09l7.27-1.84 14.6-3.71 14.6 3.71 7.27 1.84h2.09c1.93 0 3.81.16 5.65.47 15.84 2.69 27.9 16.48 27.9 33.08v24.81c0 4.5.78 8.92 2.26 13.1 1.48 4.17 3.68 8.09 6.52 11.57 6.7 8.21 10.36 18.49 10.36 29.09z" fill="#8ac9fe"/><path d="m135.258 374.689-5.012 60.937-12.826 2.974 5.343-64.939c.268-3.252 2.985-5.755 6.248-5.755 3.664 0 6.547 3.131 6.247 6.783z" fill="#60b7ff"/><path d="m227.379 393.157c-5.681-6.966-8.784-15.678-8.784-24.667v-24.813c0-18.527-15.019-33.547-33.546-33.547h-2.092l-8.978-2.28-7.223 2.28c18.527 0 33.546 15.019 33.546 33.547v24.813c0 8.988 3.103 17.701 8.784 24.667 6.699 8.214 10.358 18.489 10.358 29.089v12.19c0 2.755-1.178 5.175-3.01 6.871l9.804 2.27c5.881 1.362 11.499-3.104 11.499-9.141v-12.19c0-10.6-3.659-20.875-10.358-29.089z" fill="#60b7ff"/><path d="m183.416 455.866-11.8 7.83c-6.38 4.24-14.68 4.24-21.06 0l-11.8-7.83c-5.95-3.95-9.29-10.83-8.7-17.95l.19-2.29 5.57-67.72h50.54l5.76 70.01c.59 7.12-2.75 14-8.7 17.95z" fill="#8ac9fe"/><path d="m192.117 437.916-5.142-62.523c-.348-4.23-3.882-7.485-8.126-7.485h-2.976c-4.204 0-7.511 3.59-7.166 7.78l5.117 62.229c.586 7.122-2.748 13.998-8.702 17.95l-11.801 7.832c-.45.299-.912.571-1.381.828 6.163 3.379 13.745 3.107 19.674-.828l11.801-7.832c5.954-3.953 9.288-10.83 8.702-17.951z" fill="#60b7ff"/><g><path d="m146.985 310.131-4.529 22.325c-.7 3.57-3.84 6.05-7.35 6.05-.48 0-.97-.05-1.46-.14-4.06-.8-6.7-4.75-5.9-8.81l3.73-18.96c1.84-.31 3.72-.47 5.65-.47h2.09l7.27-1.84c.499 1.845.499 1.845.499 1.845z" fill="#60b7ff"/></g><g><path d="m188.526 338.366c-.49.09-.98.14-1.46.14-3.51 0-6.65-2.48-7.35-6.05l-4.12-20.87c-.22-1.13-.18-2.25.09-3.3l7.27 1.84h2.09c1.93 0 3.81.16 5.65.47l3.74 18.96c.8 4.06-1.85 8.01-5.91 8.81z" fill="#60b7ff"/></g><path d="m161.087 291.027c-4.142 0-7.5-3.358-7.5-7.5v-38.989c0-14.204-11.56-25.759-25.769-25.759h-49.06c-4.142 0-7.5-3.358-7.5-7.5s3.358-7.5 7.5-7.5h49.061c22.48 0 40.769 18.284 40.769 40.759v38.989c-.001 4.142-3.359 7.5-7.501 7.5z" fill="#6fd7a3"/><path d="m398.745 302.52v12.19c0 6.04-5.62 10.5-11.5 9.14l-47.12-10.91-2.66-.62c-10.11-2.34-20.62-2.34-30.73 0l-28.29 6.55-21.5 4.98c-5.88 1.36-11.5-3.1-11.5-9.14v-12.19c0-5.3.92-10.52 2.67-15.44s4.34-9.54 7.69-13.65c5.68-6.96 8.78-15.68 8.78-24.67v-24.81c0-16.6 12.06-30.39 27.9-33.08 1.84-.31 3.72-.47 5.65-.47h2.09l7.27-1.84 14.6-3.71 14.6 3.71 7.27 1.84h2.09c1.93 0 3.81.16 5.65.47 15.84 2.69 27.9 16.48 27.9 33.08v24.81c0 4.5.78 8.92 2.26 13.1 1.48 4.17 3.68 8.09 6.52 11.57 6.7 8.21 10.36 18.49 10.36 29.09z" fill="#8ac9fe"/><path d="m296.267 254.963-5.012 60.937-12.826 2.974 5.343-64.939c.268-3.252 2.985-5.755 6.248-5.755 3.664 0 6.548 3.13 6.247 6.783z" fill="#60b7ff"/><path d="m388.389 273.431c-5.681-6.966-8.784-15.678-8.784-24.667v-24.813c0-18.527-15.019-33.547-33.546-33.547h-2.092l-8.978-2.28-7.223 2.28c18.527 0 33.546 15.019 33.546 33.547v24.813c0 8.988 3.103 17.701 8.784 24.667 6.699 8.214 10.358 18.489 10.358 29.089v12.19c0 2.755-1.178 5.175-3.01 6.871l9.804 2.27c5.881 1.362 11.499-3.104 11.499-9.141v-12.19c0-10.6-3.659-20.875-10.358-29.089z" fill="#60b7ff"/><path d="m344.425 336.14-11.8 7.83c-6.38 4.24-14.68 4.24-21.06 0l-11.8-7.83c-5.95-3.95-9.29-10.83-8.7-17.95l.19-2.29 5.57-67.72h50.54l5.76 70.01c.59 7.12-2.75 14-8.7 17.95z" fill="#8ac9fe"/><path d="m353.127 318.189-5.142-62.523c-.348-4.23-3.882-7.485-8.126-7.485h-2.976c-4.204 0-7.511 3.59-7.166 7.78l5.117 62.229c.586 7.122-2.748 13.998-8.702 17.95l-11.801 7.832c-.45.299-.912.571-1.381.828 6.163 3.379 13.745 3.107 19.674-.828l11.801-7.832c5.953-3.952 9.287-10.829 8.702-17.951z" fill="#60b7ff"/><g><path d="m307.994 190.405-4.529 22.325c-.7 3.57-3.84 6.05-7.35 6.05-.48 0-.97-.05-1.46-.14-4.06-.8-6.7-4.75-5.9-8.81l3.73-18.96c1.84-.31 3.72-.47 5.65-.47h2.09l7.27-1.84c.499 1.845.499 1.845.499 1.845z" fill="#60b7ff"/></g><g><path d="m349.535 218.64c-.49.09-.98.14-1.46.14-3.51 0-6.65-2.48-7.35-6.05l-4.12-20.87c-.22-1.13-.18-2.25.09-3.3l7.27 1.84h2.09c1.93 0 3.81.16 5.65.47l3.74 18.96c.8 4.06-1.85 8.01-5.91 8.81z" fill="#60b7ff"/></g><g><path d="m382.412 134.083c-2.62 0-5.163-1.375-6.541-3.819-2.034-3.608-.757-8.182 2.852-10.216l25.136-14.379 1.909-.981c3.609-2.034 8.183-.757 10.216 2.852 2.034 3.608.757 8.182-2.852 10.216l-27.046 15.36c-1.162.655-2.427.967-3.674.967z" fill="#60b7ff"/></g><g><path d="m469.048 133.801c-1.247 0-2.511-.312-3.675-.968l-27.046-15.043c-3.608-2.033-4.885-6.607-2.852-10.216 2.034-3.609 6.607-4.885 10.216-2.852l1.91.945 25.137 14.098c3.608 2.033 4.885 6.607 2.852 10.216-1.379 2.446-3.923 3.82-6.542 3.82z" fill="#60b7ff"/></g><path d="m447.601 105.668-21.871-7.89-21.871 7.89v61.855c0 13.055 3.332 25.895 9.681 37.303l6.4 11.499c2.526 4.538 9.054 4.538 11.58 0l6.4-11.499c6.349-11.408 9.681-24.247 9.681-37.303z" fill="#8ac9fe"/><path d="m428.745 105.669c0 31.715.226 70.383-7.905 84.736-1.976 3.317-4.631 9.729-8.043 13.033.246.464.488.929.744 1.389l6.4 11.499c2.526 4.538 9.054 4.538 11.58 0l6.4-11.499c6.349-11.408 9.681-24.247 9.681-37.302v-61.855l-11.637-4.198z" fill="#60b7ff"/><path d="m322.093 168.621c-4.142 0-7.5-3.358-7.5-7.5v-20.25c0-14.204-11.555-25.759-25.758-25.759h-104.445c-4.142 0-7.5-3.358-7.5-7.5s3.358-7.5 7.5-7.5h104.445c22.474 0 40.758 18.284 40.758 40.759v20.25c0 4.142-3.358 7.5-7.5 7.5z" fill="#6fd7a3"/><path d="m182.957 310.132h-43.741v-15.467c0-9.701 7.864-17.565 17.565-17.565h8.611c9.701 0 17.565 7.864 17.565 17.565z" fill="#bbf49b"/><path d="m165.392 277.099h-8.611c-1.783 0-3.501.27-5.122.764 7.201 2.193 12.443 8.883 12.443 16.801v15.467h18.856v-15.467c-.001-9.7-7.865-17.565-17.566-17.565z" fill="#9be69d"/><path d="m343.967 190.405h-43.741v-15.467c0-9.701 7.864-17.565 17.565-17.565h8.611c9.701 0 17.565 7.864 17.565 17.565z" fill="#bbf49b"/><path d="m326.402 157.372h-8.611c-1.783 0-3.501.27-5.122.764 7.201 2.193 12.443 8.883 12.443 16.801v15.467h18.856v-15.467c-.001-9.7-7.866-17.565-17.566-17.565z" fill="#9be69d"/><g><path d="m439.695 55.451v28.52h-29.927v-28.52c0-8.611-6.981-15.592-15.592-15.592l-9.88-4.587-11.075 4.587h-79.639c-18.044 0-35.349 7.168-48.108 19.927l-47.987 47.987-15.351 5.773-15.873 25.451-86.478 86.478c-.01.02-16.843 6.889-16.843 6.889l-14.7 27.447c-6.344 10.494-9.736 22.555-9.736 35.134v195.418c0 3.666-2.972 6.637-6.637 6.637h-16.651c-3.666 0-6.637-2.972-6.637-6.637v-195.426c0-25.979 10.32-50.894 28.69-69.263l187.052-187.052c18.505-18.505 43.105-28.69 69.26-28.69h100.594c25.139 0 45.518 20.379 45.518 45.519z" fill="#6fd7a3"/></g><g fill="#3ec3a4"><path d="m226.62 59.786-47.987 47.987-117.702 117.702c-.01.02-.02.03-.02.03l-21.338 21.328c-3.96 3.96-7.362 8.31-10.185 12.978-6.344 10.494-9.736 22.555-9.736 35.134v194.873c0 3.04-1.716 5.82-4.434 7.182h16.652c3.666 0 6.637-2.972 6.637-6.637v-195.418c0-12.579 3.392-24.64 9.736-35.134l14.7-27.447 16.823-6.859s.01-.01.02-.03l86.478-86.478 15.873-25.451 15.351-5.773 47.993-47.993c12.849-12.849 29.937-19.921 48.102-19.921h-18.855c-18.044 0-35.349 7.168-48.108 19.927z"/><path d="m394.177 9.932h-18.856c25.099 0 45.519 20.42 45.519 45.519v28.52h18.855v-28.52c0-25.099-20.42-45.519-45.518-45.519z"/></g><path d="m99.478 163.466c-5.526 35.433-19.163 61.021-19.692 62.008-.01.02-.02.03-.02.03l-21.338 21.328c-3.96 3.96-7.362 8.31-10.185 12.978v-45.11c14.683-14.683 33.637-65.053 43.507-93.384 1.765-5.065 9.21-4.069 9.595 1.281 1.037 14.425.096 28.268-1.867 40.869z" fill="#bbf49b"/><path d="m101.345 122.599c-.385-5.35-7.83-6.347-9.595-1.281-2.556 7.337-5.725 16.157-9.268 25.448-.392 5.754-1.025 11.345-1.86 16.701-3.396 22.003-10.298 40.956-14.968 51.938-2.614 6.149-6.379 11.734-11.104 16.457l-6.307 6.304v21.645c2.823-4.669 6.225-9.018 10.185-12.978l21.338-21.328s.01-.01.02-.03c.529-.988 14.165-26.575 19.692-62.008 1.963-12.602 2.904-26.445 1.867-40.868z" fill="#9be69d"/><path d="m447.601 105.668h-43.741v-15.467c0-9.701 7.864-17.565 17.565-17.565h8.611c9.701 0 17.565 7.864 17.565 17.565z" fill="#bbf49b"/><path d="m430.036 72.636h-8.611c-1.783 0-3.501.27-5.122.764 7.201 2.193 12.443 8.883 12.443 16.801v15.467h18.856v-15.467c-.001-9.701-7.865-17.565-17.566-17.565z" fill="#9be69d"/><path d="m217.35 45.465c-.01.05-.02.11-.03.16-5.536 35.353-19.133 60.861-19.662 61.849-.01.02-.02.03-.02.03l-.15.269-31.224 31.224v-42.317c14.684-14.684 33.488-65.041 43.354-93.371 1.766-5.058 9.207-4.07 9.597 1.287 1.038 14.424.1 28.26-1.865 40.869z" fill="#bbf49b"/><path d="m219.215 4.595c-.389-5.357-7.831-6.344-9.596-1.287-2.562 7.357-5.73 16.203-9.269 25.521-.392 5.73-1.024 11.298-1.856 16.636-3.577 22.747-10.581 41.778-15.251 52.619-2.55 5.92-6.213 11.291-10.771 15.849l-6.207 6.207v18.856l31.224-31.224.15-.269s.01-.01.02-.03c.529-.988 14.125-26.495 19.662-61.849.01-.05.02-.11.03-.16 1.964-12.608 2.902-26.444 1.864-40.869z" fill="#9be69d"/><path d="m394.177 9.932h91.499c2.338 0 3.609 2.752 2.07 4.512-7.309 8.36-30.008 25.414-93.569 25.414h-20.954z" fill="#bbf49b"/><path d="m487.745 14.44c-7.31 8.36-30.01 25.42-93.57 25.42h-15.39c63.56 0 86.26-17.06 93.57-25.42 1.54-1.76.27-4.51-2.07-4.51h15.39c2.34 0 3.61 2.75 2.07 4.51z" fill="#9be69d"/></g></svg>