<svg id="Capa_1" enable-background="new 0 0 504.5 504.5" height="512" viewBox="0 0 504.5 504.5" width="512" xmlns="http://www.w3.org/2000/svg"><g><path d="m441.559 479.28-5.68-1.18c-4.2-.87-8.3-2.1-12.25-3.67-4.69-1.86-9.17-4.2-13.38-6.98-4.13-2.72-7.99-5.86-11.52-9.39l-38.33-38.33 17.4-30.07 20.88-11.27 6.68-3.61 11.96 11.96 26.37 26.37c10.16 10.16 17.12 23.07 20.03 37.15l1.18 5.68c2.879 13.91-9.431 26.21-23.34 23.34z" fill="#fe646f"/><path d="m464.897 455.936-1.175-5.679c-2.911-14.072-9.877-26.985-20.038-37.146l-38.331-38.331-13.267 7.165 31.283 31.166c10.161 10.161 17.127 23.074 20.038 37.146l1.175 5.679c1.932 9.338-2.984 17.946-10.63 21.731.64.15 1.279.302 1.924.435l5.679 1.175c13.912 2.878 26.22-9.431 23.342-23.341z" fill="#fd4755"/><g><path d="m423.628 474.43c-4.69-1.86-9.17-4.2-13.38-6.98 2.5-3.51 7.97-15.95.38-48.7-4.32-18.66-10.41-36.07-11.95-40.36l6.68-3.61 11.96 11.96c2.47 7.78 5.45 17.94 7.93 28.62 6.42 27.69 5.01 48.01-1.62 59.07z" fill="#fd4755"/></g><g><path d="m258.234 504.5c-4.143 0-7.5-3.358-7.5-7.5v-108.882c0-10.604 4.129-20.573 11.627-28.072l18.418-18.417c15.252-15.252 40.25-15.435 55.725-.412l20.234 19.869c2.972 2.885 3.042 7.633.156 10.605-2.885 2.971-7.631 3.043-10.605.157l-20.234-19.869c-9.627-9.348-25.181-9.233-34.668.256l-18.418 18.417c-4.665 4.665-7.234 10.868-7.234 17.465v108.883c-.001 4.142-3.359 7.5-7.501 7.5z" fill="#3ec3a4"/></g><g><path d="m200.327 504.5c-4.143 0-7.5-3.358-7.5-7.5v-203.256c0-4.142 3.357-7.5 7.5-7.5s7.5 3.358 7.5 7.5v203.256c0 4.142-3.358 7.5-7.5 7.5z" fill="#3ec3a4"/></g><g><path d="m141.267 504.5c-4.143 0-7.5-3.358-7.5-7.5v-84.21c0-4.142 3.357-7.5 7.5-7.5s7.5 3.358 7.5 7.5v84.21c0 4.142-3.357 7.5-7.5 7.5z" fill="#3ec3a4"/></g><path d="m219.867 122.26-54.07 54.07-52.57-14.82c-18.4-5.19-35.16-15.02-48.68-28.54-8.58-8.58-12.87-19.82-12.87-31.07 0-11.24 4.29-22.48 12.87-31.06l49.83-49.83c17.15-17.16 44.97-17.16 62.13 0 6.76 6.76 12.6 14.33 17.39 22.51 4.8 8.18 8.55 16.97 11.15 26.17z" fill="#fe646f"/><path d="m219.867 122.26-23.93 23.93h-54.16l-26.69-47.65c-9.34-16.68-14.25-35.48-14.25-54.61 0-3.69.45-7.27 1.31-10.69l12.23-12.23c17.15-17.16 44.97-17.16 62.13 0 6.76 6.76 12.6 14.33 17.39 22.51 4.8 8.18 8.55 16.97 11.15 26.17z" fill="#fd4755"/><path d="m279.498 43.93c0 9.57-1.23 19.05-3.62 28.22-2.4 9.18-5.96 18.05-10.63 26.39l-26.69 47.65h-76.47l-3.69-6.58-7.16-12.78-15.84-28.29c-9.34-16.68-14.25-35.48-14.25-54.61 0-12.13 4.92-23.11 12.87-31.06s18.93-12.87 31.071-12.87h70.47c21.37 0 39.18 15.25 43.12 35.46.539 2.74.819 5.57.819 8.47z" fill="#fe646f"/><g fill="#fd4755"><path d="m220.178 146.19h-58.09l-3.69-6.58-7.16-12.78c7.47-7.17 17.61-11.58 28.78-11.58 19.28 0 35.48 13.13 40.16 30.94z"/><path d="m279.498 43.93c0 9.57-1.23 19.05-3.62 28.22-2.4 9.18-5.96 18.05-10.63 26.39l-26.69 47.65h-76.47l-3.69-6.58 44.98-66.22c5.6-7.75 12.15-14.71 19.47-20.75 7.32-6.03 15.4-11.13 24.07-15.15 10.38-4.81 21.66-5.23 31.76-2.03.54 2.74.82 5.57.82 8.47z"/><path d="m235.56 0h-20.314c24.265 0 43.935 19.67 43.935 43.935 0 19.121-4.906 37.922-14.25 54.605l-26.689 47.654h20.314l26.689-47.654c9.343-16.683 14.25-35.484 14.25-54.605 0-24.265-19.67-43.935-43.935-43.935z"/></g><path d="m206.798 195.93-32 44.26c-11.21 15.49-26.2 27.86-43.54 35.9-5.98 2.78-12.27 4.09-18.46 4.09-2.33 0-4.66-.19-6.94-.56-13.94-2.23-26.56-11.13-32.94-24.9l-29.65-63.94c-10.21-22.01-.64-48.13 21.37-58.34 14.76-6.84 30.81-10.37 47-10.37 2.84 0 5.69.11 8.53.33l33.19 2.54 21.27 1.62 18.93 40.82 10.72 23.12z" fill="#fe646f"/><path d="m206.798 195.93-32 44.26c-11.21 15.49-26.2 27.86-43.54 35.9-5.98 2.78-12.27 4.09-18.46 4.09-2.33 0-4.66-.19-6.94-.56-.74-3.21-1.13-6.55-1.13-9.98 0-19.12 4.9-37.92 14.25-54.6l15.83-28.28 10.85-19.38h47.9l10.72 23.12z" fill="#fd4755"/><path d="m204.277 190.5c-6.82 4.92-15.21 7.82-24.27 7.82-22.94 0-41.53-18.59-41.53-41.53 0-12.8 5.78-24.24 14.88-31.85l21.27 1.62z" fill="#fd4755"/><path d="m279.497 269.64c0 3.69-.46 7.28-1.32 10.71-4.78 19.09-22.05 33.23-42.62 33.23h-70.47c-12.13 0-23.11-4.92-31.06-12.87s-12.87-18.94-12.87-31.07c0-19.12 4.9-37.92 14.25-54.6l15.83-28.28 10.85-19.38h76.47l26.69 47.66c4.67 8.34 8.23 17.21 10.63 26.38 2.39 9.18 3.62 18.66 3.62 28.22z" fill="#fe646f"/><path d="m220.177 167.38c-4.68 17.81-20.89 30.94-40.17 30.94-11.17 0-21.3-4.41-28.77-11.56l10.85-19.38z" fill="#fd4755"/><path d="m279.497 269.64c0 3.69-.46 7.28-1.32 10.71l-12.22 12.22c-8.58 8.58-19.82 12.87-31.07 12.87-11.24 0-22.48-4.29-31.06-12.87-13.52-13.52-23.35-30.29-28.54-48.69l-14.82-52.57 23.93-23.93h54.16l26.69 47.66c4.67 8.34 8.23 17.21 10.63 26.38 2.39 9.18 3.62 18.66 3.62 28.22z" fill="#fd4755"/><path d="m234.85 137.245-54.069 54.069 14.824 52.568c5.19 18.403 15.015 35.167 28.535 48.687 17.158 17.158 44.976 17.158 62.133 0l49.832-49.832c17.158-17.158 17.158-44.976 0-62.133-13.521-13.521-30.284-23.346-48.687-28.535z" fill="#fe646f"/><path d="m336.105 180.604c-13.521-13.521-30.284-23.346-48.687-28.535l-52.568-14.824-4.469 4.469 36.722 10.356c18.403 5.19 35.167 15.015 48.687 28.535 17.158 17.158 17.158 44.976 0 62.133l-49.832 49.832c-5.976 5.976-13.247 9.865-20.909 11.678 14.335 3.392 30.043-.496 41.224-11.678l49.832-49.832c17.158-17.158 17.158-44.976 0-62.134z" fill="#fd4755"/><path d="m193.85 117.646 32.17 69.368 54.46 4.164c19.065 1.458 38.186-2.001 55.532-10.046 22.013-10.208 31.582-36.329 21.373-58.341l-29.649-63.932c-10.208-22.013-36.329-31.582-58.341-21.373-17.346 8.044-32.338 20.405-43.542 35.9z" fill="#fe646f"/><path d="m357.385 122.791-29.649-63.932c-8.95-19.299-30.13-29.03-50.05-24.258 12.646 3.004 23.843 11.552 29.736 24.258l29.649 63.932c10.208 22.013.639 48.133-21.373 58.341-11.707 5.429-24.223 8.761-36.984 9.911l1.766.135c19.065 1.458 38.186-2.001 55.532-10.046 22.012-10.208 31.581-36.329 21.373-58.341z" fill="#fd4755"/><path d="m405.354 374.78-44.953 44.953-22.604-22.604c-8.944-8.944-8.944-23.445 0-32.389l12.564-12.564c8.944-8.944 23.445-8.944 32.389 0z" fill="#bbf49b"/><path d="m382.75 352.176c-7.131-7.131-17.788-8.557-26.352-4.317 2.177 1.078 4.224 2.504 6.037 4.317l16.371 16.371c3.442 3.442 3.442 9.023 0 12.466l-28.563 28.563 10.157 10.157 44.953-44.953z" fill="#9be69d"/><circle cx="200.324" cy="156.788" fill="#8379c1" r="41.537"/><path d="m200.324 115.251c-3.505 0-6.906.439-10.157 1.256 18.029 4.532 31.38 20.845 31.38 40.281 0 19.435-13.35 35.748-31.38 40.281 3.251.817 6.652 1.256 10.157 1.256 22.94 0 41.537-18.597 41.537-41.537s-18.597-41.537-41.537-41.537z" fill="#6e61b6"/><path d="m153.59 417.25h-22.75c-7.074 0-12.809-5.735-12.809-12.809v-20.612c0-13.356 10.828-24.184 24.184-24.184 13.356 0 24.184 10.828 24.184 24.184v20.612c0 7.075-5.735 12.809-12.809 12.809z" fill="#bbf49b"/><path d="m142.215 359.645c-3.629 0-7.068.805-10.157 2.237 8.281 3.839 14.027 12.22 14.027 21.947v20.612c0 7.074-5.735 12.809-12.809 12.809h20.315c7.074 0 12.809-5.735 12.809-12.809v-20.612c-.001-13.356-10.828-24.184-24.185-24.184z" fill="#9be69d"/></g></svg>