<svg id="Capa_1" enable-background="new 0 0 497 497" height="512" viewBox="0 0 497 497" width="512" xmlns="http://www.w3.org/2000/svg"><g><path d="m251.273 267.358h42.859v229.642h-42.859z" fill="#9be69d"/><path d="m272.932 267.358h21.2v229.642h-21.2z" fill="#6fd7a3"/><path d="m251.273 497-135.089-247.376c-4.076-7.463-15.434-4.329-15.107 4.168l2.226 57.708c2.315 59.993 26.762 117.003 68.626 160.036l15.584 16.019c5.874 6.038 13.94 9.444 22.365 9.444h41.395z" fill="#bbf49b"/><path d="m116.184 249.624c-4.075-7.463-15.434-4.329-15.107 4.168l.823 21.319c3.212-.718 6.841.418 8.796 3.998l119.377 217.891h21.2z" fill="#9be69d"/><path d="m294.132 497 78.105-113.842c4.305-6.275 14.133-3.228 14.133 4.382v42.06c0 37.224-30.176 67.4-67.4 67.4z" fill="#bbf49b"/><path d="m372.237 383.158-10.076 14.686c1.778 1.34 3.009 3.456 3.009 6.146v25.61c0 37.224-30.176 67.4-67.4 67.4h21.2c37.224 0 67.4-30.176 67.4-67.4v-42.06c0-7.611-9.828-10.658-14.133-4.382z" fill="#9be69d"/><g><path d="m206.452 70.248 3.809-23.552c2.199-13.594 15.65-22.322 28.96-18.791l16.625 4.41c7.89 2.093 16.303.567 22.955-4.164l32.978-23.451c4.299-3.057 9.443-4.7 14.718-4.7 14.026 0 25.397 11.371 25.397 25.397v111.431h-145.442z" fill="#fe646f"/><g><path d="m326.497 0c-3.672 0-7.274.813-10.579 2.328 8.72 4.022 14.776 12.835 14.776 23.069v111.431h21.2v-111.431c0-14.026-11.37-25.397-25.397-25.397z" fill="#fd4755"/></g><path d="m289.605 303.319c62.544 0 111.575-53.725 105.873-116.008l-8.628-94.238c-2.211-24.147-22.462-42.629-46.71-42.629-15.304 0-29.645 7.466-38.423 20.002l-60.011 85.704c-15.489 22.12-23.797 48.47-23.797 75.474 0 39.596 32.1 71.695 71.696 71.695z" fill="#fc8b96"/><path d="m395.478 187.311-8.628-94.238c-2.211-24.147-22.462-42.629-46.71-42.629-3.597 0-7.136.427-10.567 1.221 19.303 4.481 34.2 20.898 36.077 41.408l8.627 94.238c5.34 58.328-37.323 109.148-94.132 115.368 3.097.409 6.25.641 9.459.641 62.545-.001 111.576-53.726 105.874-116.009z" fill="#fe646f"/><path d="m255.8 303.319c-62.544 0-111.575-53.725-105.873-116.008l8.627-94.238c2.211-24.147 22.462-42.629 46.71-42.629 15.304 0 29.645 7.466 38.423 20.002l60.011 85.704c15.489 22.12 23.797 48.47 23.797 75.474 0 39.596-32.099 71.695-71.695 71.695z" fill="#fc8b96"/><path d="m303.698 156.149-60.011-85.704c-8.778-12.536-23.119-20.002-38.423-20.002-3.652 0-7.21.426-10.633 1.221 11.166 2.583 21.141 9.191 27.855 18.781l60.011 85.704c15.489 22.12 23.797 48.47 23.797 75.474 0 36.387-27.114 66.422-62.236 71.055 3.852.422 7.769.641 11.74.641 39.596 0 71.696-32.099 71.696-71.695.001-27.004-8.307-53.355-23.796-75.475z" fill="#fd4755"/></g></g></svg>