<svg id="Capa_1" enable-background="new 0 0 512 512" height="512" viewBox="0 0 512 512" width="512" xmlns="http://www.w3.org/2000/svg"><g><path d="m266.662 33.116c-4.603 8.988-17.448 8.988-22.052 0-6.363-12.425-19.147-20.24-33.106-20.24-20.543 0-37.196 16.653-37.196 37.196v49.523c0 27.786 7.27 55.088 21.087 79.194l27.485 47.954c14.505 25.307 51.007 25.307 65.512 0l27.485-47.954c13.817-24.106 21.087-51.409 21.087-79.194v-49.524c0-20.543-16.653-37.196-37.196-37.196-13.959 0-26.743 7.816-33.106 20.241z" fill="#ffceec"/><g><path d="m299.768 12.875c-3.732 0-7.375.575-10.839 1.632 15.215 4.665 26.279 18.821 26.279 35.564v49.523c0 27.785-7.27 55.088-21.087 79.194l-27.485 47.954c-5.164 9.011-13.122 14.795-21.878 17.389 15.836 4.691 34.294-1.093 43.634-17.389l27.485-47.954c13.817-24.106 21.087-51.409 21.087-79.194v-49.523c0-20.543-16.653-37.196-37.196-37.196z" fill="#ffbee6"/></g><path d="m478.285 194.526c-10.054-.948-14.81-12.88-8.165-20.484 9.185-10.512 11.712-25.281 6.543-38.248-7.607-19.082-29.243-28.385-48.325-20.779l-46.003 18.338c-25.81 10.288-48.48 27.151-65.756 48.912l-34.368 43.288c-18.137 22.845-4.621 56.753 24.259 60.856l54.722 7.775c27.509 3.909 55.563.551 81.373-9.737l46.003-18.338c19.082-7.607 28.385-29.243 20.779-48.325-5.17-12.966-17.165-21.948-31.062-23.258z" fill="#ffceec"/><path d="m509.345 217.784c-5.169-12.967-17.163-21.948-31.061-23.258-10.054-.948-14.81-12.88-8.165-20.484 9.185-10.512 11.711-25.281 6.543-38.248-7.224-18.122-27.099-27.412-45.425-21.787 10.405 3.191 19.326 10.891 23.669 21.787 5.168 12.967 2.642 27.737-6.543 38.248-6.645 7.604-1.888 19.536 8.165 20.484 13.897 1.31 25.892 10.292 31.061 23.258 7.607 19.082-1.696 40.718-20.779 48.325l-46.003 18.338c-15.441 6.155-31.687 9.809-48.138 10.931 23.775 1.635 47.666-2.071 69.894-10.931l46.003-18.338c19.084-7.607 28.386-29.243 20.779-48.325z" fill="#ffbee6"/><path d="m205.531 286.41-31.843 4.522-22.88 3.255c-27.506 3.904-55.568.546-81.374-9.745l-45.998-18.337c-19.089-7.603-28.392-29.237-20.779-48.326 2.575-6.48 6.871-11.971 12.259-15.999 5.378-4.028 11.847-6.603 18.801-7.252 10.055-.948 14.804-12.877 8.159-20.49-6.027-6.892-9.189-15.628-9.189-24.477 0-4.636.865-9.313 2.648-13.763 5.81-14.567 19.79-23.437 34.563-23.437 4.584 0 9.241.855 13.763 2.658l46.008 18.337c25.806 10.281 48.48 27.145 65.756 48.913l14.639 18.44 19.728 24.848c18.131 22.839 4.615 56.753-24.261 60.853z" fill="#ffceec"/><g fill="#ffbee6"><path d="m300.957 262.911c0 36.85-29.865 66.725-66.715 66.725-26.847 0-49.974-15.854-60.554-38.704l31.843-4.522c28.876-4.1 42.392-38.014 24.261-60.853l-19.728-24.848c7.5-2.915 15.648-4.512 24.178-4.512 36.85 0 66.715 29.875 66.715 66.714z"/><path d="m205.531 286.41-31.843 4.522c-3.956-8.52-6.16-18.008-6.16-28.021 0-28.309 17.637-52.519 42.536-62.202l19.728 24.848c18.131 22.839 4.615 56.753-24.261 60.853z"/><path d="m229.788 225.554-34.368-43.288c-17.277-21.762-39.946-38.624-65.756-48.912l-46.003-18.338c-8.186-3.263-16.838-3.407-24.655-1.01.971.298 1.939.626 2.899 1.01l46.003 18.338c25.81 10.288 48.48 27.151 65.756 48.912l34.368 43.288c18.137 22.845 4.621 56.753-24.259 60.856l-54.722 7.775c-3.818.543-7.647.93-11.479 1.194 11.046.753 22.184.376 33.235-1.194l54.722-7.775c28.88-4.103 42.396-38.011 24.259-60.856z"/></g><path d="m393.059 454.341c-2.059-9.886 7.94-17.95 17.165-13.844 12.753 5.676 27.611 3.735 38.476-5.028 15.99-12.896 18.499-36.313 5.602-52.303l-31.089-38.548c-17.443-21.629-40.241-38.317-66.129-48.407l-51.499-20.073c-27.178-10.593-55.592 12.322-50.995 41.127l8.71 54.581c4.378 27.439 15.86 53.254 33.303 74.882l31.089 38.548c12.896 15.99 36.313 18.499 52.303 5.602 10.866-8.762 15.911-22.871 13.064-36.537z" fill="#ffceec"/><g><path d="m396.481 443.01c-2.723-.531-5.413-1.355-8.012-2.512-9.225-4.106-19.224 3.958-17.165 13.844 2.846 13.665-2.197 27.775-13.064 36.538-3.817 3.078-8.058 5.268-12.477 6.617 11.397 3.476 24.259 1.426 34.232-6.617 10.865-8.763 15.91-22.872 13.064-36.538-.931-4.471.608-8.564 3.422-11.332z" fill="#ffceec"/><path d="m454.303 383.167-31.089-38.548c-17.443-21.629-40.241-38.317-66.129-48.407l-51.499-20.073c-8.444-3.291-17.006-3.344-24.663-.994.969.294 1.939.617 2.906.994l51.499 20.073c25.888 10.091 48.686 26.779 66.129 48.407l31.089 38.548c12.896 15.99 10.387 39.408-5.602 52.303-3.763 3.035-8.012 5.231-12.48 6.597 11.707 3.587 24.554 1.21 34.236-6.597 15.991-12.897 18.498-36.314 5.603-52.303z" fill="#ffbee6"/></g><path d="m258.534 317.264-1.329 8.314-7.386 46.265c-4.378 27.444-15.854 53.26-33.295 74.884l-31.091 38.549c-12.898 15.988-36.314 18.502-52.302 5.604-8.86-7.139-13.846-17.832-13.846-28.938 0-2.524.258-5.069.783-7.603 2.06-9.89-7.943-17.946-17.173-13.846-4.852 2.163-10.003 3.214-15.123 3.214-8.355 0-16.617-2.812-23.344-8.241-9.117-7.345-13.856-18.111-13.856-28.969 0-8.2 2.699-16.452 8.252-23.334l31.081-38.549c17.451-21.624 40.249-38.312 66.138-48.408l17.029-6.634 34.47-13.434c27.174-10.589 55.587 12.322 50.992 41.126z" fill="#ffceec"/><path d="m258.534 317.264-1.329 8.314c-7.16 2.627-14.896 4.059-22.963 4.059-27.372 0-50.891-16.483-61.172-40.064l34.47-13.434c27.176-10.59 55.589 12.321 50.994 41.125z" fill="#ffbee6"/><g><path d="m210.443 275.144c16.984 5.213 29.5 22.265 26.332 42.121l-8.71 54.581c-4.378 27.439-15.86 53.254-33.303 74.882l-31.089 38.548c-4.852 6.017-11.195 10.124-18.07 12.22 14.095 4.303 30.008-.046 39.827-12.22l31.089-38.548c17.443-21.629 28.924-47.444 33.303-74.882l8.71-54.581c4.432-27.779-21.836-50.069-48.089-42.121z" fill="#ffbee6"/></g><g><g><path d="m238.693 212.805c-.371.052-.742.072-1.102.072-3.781 0-7.088-2.781-7.634-6.645l-1.113-9.838-3.904-34.563c-.598-4.224 2.349-8.138 6.573-8.736s8.128 2.339 8.736 6.562l4.203 37.323.804 7.088c.597 4.224-2.339 8.129-6.563 8.737z" fill="#ffbee6"/></g><g><path d="m227.45 132.259c-3.787 0-7.094-2.786-7.641-6.644l-2.589-18.267c-.599-4.225 2.341-8.135 6.566-8.734 4.224-.601 8.134 2.341 8.734 6.566l2.589 18.267c.599 4.225-2.341 8.135-6.566 8.734-.367.052-.733.078-1.093.078z" fill="#ffbee6"/></g><g><path d="m294.776 107.345-13.454 99.083c-.35 2.483-1.844 4.522-3.873 5.656-1.123.639-2.421.989-3.77.989-.361 0-.731-.021-1.092-.072-4.224-.608-7.17-4.512-6.573-8.736v-.021l13.464-99.062c.597-4.224 4.512-7.16 8.736-6.573 4.224.608 7.16 4.512 6.562 8.736z" fill="#ffbee6"/></g><g><path d="m305.998 235.903c-2.883 0-5.65-1.622-6.976-4.398-1.839-3.85-.209-8.463 3.641-10.302l89.519-42.938c3.848-1.84 8.462-.211 10.303 3.641 1.839 3.85.209 8.463-3.641 10.302l-89.519 42.938c-1.076.513-2.21.757-3.327.757z" fill="#ffbee6"/></g><g><path d="m317.336 270.21c-3.71 0-6.983-2.678-7.613-6.458-.702-4.209 2.143-8.19 6.352-8.89l96.859-17.86c4.21-.699 8.19 2.143 8.892 6.352s-2.143 8.19-6.352 8.89l-96.859 17.86c-.43.072-.858.106-1.279.106z" fill="#ffbee6"/></g><g><path d="m377.987 374.18c-1.933 0-3.868-.721-5.368-2.17l-71.997-70.319c-3.069-2.965-3.152-7.856-.188-10.925 2.965-3.069 7.855-3.154 10.925-.188l71.997 70.319c3.069 2.965 3.152 7.856.188 10.925-1.516 1.569-3.535 2.358-5.557 2.358z" fill="#ffbee6"/></g><g><path d="m332.718 411.413c-1.205.69-2.534 1.03-3.843 1.03-2.668 0-5.275-1.391-6.706-3.884l-50.778-85.68c-.701-1.226-1.03-2.565-1.03-3.873.01-2.668 1.401-5.264 3.874-6.676 1.793-1.03 3.822-1.267 5.687-.804 1.988.484 3.77 1.741 4.862 3.647l50.788 85.69c2.121 3.699.844 8.418-2.854 10.55z" fill="#ffbee6"/></g><g><path d="m212.186 231.616c-1.319 2.781-4.09 4.399-6.974 4.399-1.113 0-2.246-.237-3.327-.752l-22.118-10.642-67.343-32.409c-3.843-1.844-5.481-6.459-3.637-10.302 1.834-3.853 6.449-5.481 10.302-3.647l71.35 34.336 18.111 8.715c3.853 1.844 5.48 6.459 3.636 10.302z" fill="#ffbee6"/></g><g><path d="m201.483 263.871c-.628 3.781-3.894 6.459-7.603 6.459-.422 0-.855-.041-1.288-.113l-24.972-4.636-71.823-13.341c-4.213-.701-7.057-4.677-6.356-8.89.701-4.203 4.687-7.046 8.89-6.346l70.567 13.104 26.239 4.873c4.213.7 7.057 4.676 6.346 8.89z" fill="#ffbee6"/></g><g><path d="m210.95 300.432-16.256 16.091-56.042 55.486c-1.504 1.453-3.441 2.174-5.367 2.174-2.029 0-4.049-.793-5.563-2.359-2.967-3.07-2.874-7.963.185-10.93l55.465-54.909 16.843-16.668c3.07-2.967 7.963-2.885 10.93.185 2.958 3.069 2.875 7.963-.195 10.93z" fill="#ffbee6"/></g><g><path d="m240.187 321.612-4.749 8.087-46.338 78.861c-1.432 2.483-4.038 3.884-6.706 3.884-1.308 0-2.637-.34-3.843-1.03-3.698-2.133-4.976-6.851-2.854-10.549l42.907-73.009 8.19-13.938c2.122-3.709 6.851-4.976 10.549-2.854 3.699 2.132 4.966 6.85 2.844 10.548z" fill="#ffbee6"/></g><g fill="#feaee1"><path d="m192.592 270.216-24.972-4.636c-.185-5.233.258-10.425 1.277-15.473l26.239 4.873c4.213.701 7.057 4.677 6.346 8.89-.628 3.781-3.894 6.459-7.603 6.459-.421.001-.854-.04-1.287-.113z"/><path d="m211.146 289.501c2.957 3.07 2.874 7.963-.196 10.93l-16.256 16.091c-4.162-3.08-7.974-6.624-11.322-10.539l16.843-16.668c3.071-2.966 7.964-2.883 10.931.186z"/><path d="m201.885 235.262-22.118-10.642c3.049-4.399 6.634-8.447 10.673-12.022l18.111 8.715c3.853 1.844 5.481 6.459 3.637 10.302-1.319 2.781-4.09 4.399-6.974 4.399-1.115 0-2.248-.236-3.329-.752z"/><path d="m240.187 321.612-4.749 8.087c-5.728.165-11.384-.484-16.833-1.844l8.19-13.938c2.122-3.709 6.851-4.976 10.549-2.854 3.698 2.133 4.965 6.851 2.843 10.549z"/><path d="m245.255 204.069c.598 4.224-2.339 8.128-6.562 8.736-.371.052-.742.072-1.102.072-3.781 0-7.088-2.781-7.634-6.645l-1.113-9.838c1.772-.134 3.575-.196 5.398-.196 3.472 0 6.882.268 10.209.783z"/></g></g><circle cx="255.636" cy="262.917" fill="#ffd15b" r="66.717"/><path d="m255.636 196.2c-3.642 0-7.212.303-10.696.864 31.759 5.12 56.02 32.647 56.02 65.852s-24.261 60.732-56.02 65.852c3.484.561 7.054.864 10.696.864 36.846 0 66.717-29.87 66.717-66.717s-29.87-66.715-66.717-66.715z" fill="#ffc344"/><circle cx="255.636" cy="262.917" fill="#ffead9" r="32.757"/><path d="m255.636 230.16c-3.747 0-7.343.638-10.696 1.796 12.836 4.435 22.06 16.617 22.06 30.96 0 14.344-9.223 26.526-22.06 30.96 3.353 1.158 6.95 1.796 10.696 1.796 18.091 0 32.756-14.666 32.756-32.757s-14.666-32.755-32.756-32.755z" fill="#fedba6"/></g></svg>