<svg id="Capa_1" enable-background="new 0 0 496.999 496.999" height="512" viewBox="0 0 496.999 496.999" width="512" xmlns="http://www.w3.org/2000/svg"><g><path d="m294.645 251.633-46.146-12.179-46.146 12.179c-17.799 23.667-27.424 52.479-27.424 82.092v1.962c0 21.768 5.203 43.221 15.175 62.57l40.832 79.227c7.357 14.275 27.768 14.275 35.125 0l40.832-79.227c9.972-19.349 15.175-40.802 15.175-62.57v-1.962c.001-29.614-9.624-58.425-27.423-82.092z" fill="#ffd15b"/><path d="m294.645 251.633-11.88-3.135-7.849 3.135c17.799 23.667 27.424 52.479 27.424 82.092v1.962c0 21.768-5.203 43.221-15.176 62.57l-40.832 79.227c-1.867 3.622-4.576 6.321-7.698 8.105 9.179 5.246 21.937 2.547 27.427-8.105l40.832-79.227c9.972-19.349 15.176-40.802 15.176-62.57v-1.962c0-29.614-9.625-58.425-27.424-82.092z" fill="#ffc344"/><g><path d="m248.498 330.613c-4.143 0-7.5-3.358-7.5-7.5v-71.48c0-4.142 3.357-7.5 7.5-7.5s7.5 3.358 7.5 7.5v71.48c0 4.142-3.357 7.5-7.5 7.5z" fill="#ffc344"/></g><g><path d="m248.498 385.366c-4.143 0-7.5-3.358-7.5-7.5v-20c0-4.142 3.357-7.5 7.5-7.5s7.5 3.358 7.5 7.5v20c0 4.142-3.357 7.5-7.5 7.5z" fill="#ffc344"/></g><path d="m202.349 192.598v59.04l-69.39 23.79c-23.92 8.19-49.93 7.9-73.65-.85l-51.97-19.15c-9.26-3.41-9.92-16.27-1.05-20.61l72.58-35.53c8.99-4.4 18.87-6.69 28.88-6.69z" fill="#ffd15b"/><path d="m202.353 192.594h-19.729v.003h-30.375l1.1 8.64c1.21 9.48 4.91 18.48 10.71 26.07l8.576 11.236c4.915 6.439 2.077 15.8-5.585 18.427l-53.82 18.452c-8.417 2.885-17.095 4.695-25.839 5.478 15.301 1.388 30.832-.427 45.568-5.478 0 0 69.381-23.785 69.381-23.785h.01v-.003s.004-.001.004-.001-.001-59.039-.001-59.039z" fill="#ffc344"/><g><path d="m82.048 246.4c-3.62 0-6.806-2.626-7.396-6.314-.655-4.09 2.129-7.937 6.219-8.592l91.774-15.34c4.095-.651 7.937 2.13 8.592 6.219.655 4.09-2.129 7.937-6.219 8.592l-91.774 15.34c-.402.064-.802.095-1.196.095z" fill="#ffc344"/></g><path d="m202.349 150.768v100.87l-40.25-27.07-5.5-3.7c-24.1-16.21-44.1-37.79-58.45-63.04l-38.97-68.6c-2.81-4.95 1.19-11.01 6.85-10.36l30.89 3.52c15.51 1.77 30.32 7.17 43.25 15.69 3.62 2.37 7.09 5 10.39 7.85z" fill="#ffd15b"/><path d="m202.349 150.768v100.87l-40.25-27.07c-4.68-6.98-7.68-14.97-8.75-23.33l-13.18-103.16c3.62 2.37 7.09 5 10.39 7.85z" fill="#ffc344"/><path d="m294.645 251.633 69.395 23.79c23.916 8.199 49.927 7.902 73.649-.841l51.967-19.153c9.266-3.415 9.923-16.27 1.054-20.612l-72.581-35.531c-8.992-4.402-18.872-6.69-28.883-6.69h-94.6v59.037z" fill="#ffd15b"/><path d="m490.709 234.816-72.581-35.531c-8.992-4.402-18.872-6.69-28.883-6.69h-19.729c10.012 0 19.891 2.288 28.883 6.69l72.581 35.531c8.87 4.342 8.213 17.197-1.054 20.612l-51.967 19.153c-9.106 3.356-18.549 5.456-28.082 6.32 16.103 1.442 32.437-.654 47.81-6.32l51.967-19.153c9.268-3.415 9.925-16.27 1.055-20.612z" fill="#ffc344"/><g><path d="m414.95 246.4c-.394 0-.793-.031-1.195-.095l-96.155-15.34c-4.09-.655-6.874-4.502-6.219-8.592.655-4.089 4.485-6.871 8.592-6.219l96.155 15.34c4.09.655 6.874 4.502 6.219 8.592-.592 3.688-3.777 6.314-7.397 6.314z" fill="#ffc344"/></g><path d="m294.645 251.633 45.751-30.768c24.098-16.207 44.107-37.784 58.451-63.036l38.97-68.602c2.814-4.953-1.185-11.006-6.845-10.36l-30.897 3.522c-19.843 2.262-38.54 10.467-53.64 23.539l-51.791 44.838v100.867z" fill="#ffd15b"/><g><path d="m178.211 187.883c-1.812 0-3.629-.652-5.069-1.975l-47.184-42.575c-3.052-2.801-3.255-7.545-.454-10.597 2.799-3.052 7.545-3.256 10.597-.454l47.184 42.575c3.052 2.801 3.255 7.545.454 10.597-1.479 1.612-3.501 2.429-5.528 2.429z" fill="#ffc344"/></g><g><path d="m316.571 189.997c-2.027 0-4.048-.817-5.527-2.429-2.801-3.051-2.598-7.796.454-10.597l49.4-44.69c3.053-2.801 7.795-2.598 10.597.454 2.801 3.051 2.598 7.796-.454 10.597l-49.4 44.69c-1.441 1.322-3.258 1.975-5.07 1.975z" fill="#ffc344"/></g><path d="m430.972 78.867-14.395 1.641c2.349 2.043 3.284 5.598 1.511 8.719l-38.97 68.602c-14.344 25.251-34.353 46.829-58.451 63.036l-26.022 17.5v13.268l45.751-30.768c24.098-16.206 44.107-37.784 58.451-63.036l38.97-68.602c2.814-4.953-1.185-11.005-6.845-10.36z" fill="#ffc344"/><path d="m342.979 52.018-19.06 149.22c-1.21 9.48-4.91 18.48-10.71 26.07l-18.56 24.33-46.151-12.183-46.149 12.183-18.57-24.33c-5.8-7.59-9.49-16.59-10.7-26.07l-19.06-149.22c-1.5-11.74 4.13-23.24 14.33-29.25l16.74-9.86c.34-.2.68-.39 1.02-.57 4.53-2.44 9.56-3.62 14.59-3.52 4.1.08 8.2 1.01 12.02 2.81l23.17 10.9c7.99 3.76 17.23 3.76 25.22 0l23.16-10.9c3.82-1.8 7.92-2.73 12.03-2.81 5.02-.1 10.05 1.08 14.59 3.52.34.18.68.37 1.02.57l16.74 9.86c10.2 6.01 15.83 17.51 14.33 29.25z" fill="#fea95c"/><g><path d="m192.995 11.624 23.169 10.907c7.085 3.335 15.162 3.704 22.471 1.119-.927-.328-1.843-.696-2.742-1.119l-23.169-10.907c-7.121-3.352-15.203-3.693-22.481-1.117.929.329 1.85.692 2.752 1.117z" fill="#fea95c"/><path d="m328.65 22.769-16.744-9.866c-7.574-4.463-16.686-5.291-24.88-2.396 1.773.628 3.5 1.422 5.151 2.396l16.744 9.866c10.196 6.008 15.833 17.512 14.333 29.251l-19.064 149.218c-1.211 9.482-4.904 18.475-10.704 26.073l-15.262 19.99 16.422 4.332 18.569-24.322c5.8-7.597 9.493-16.591 10.704-26.073l19.064-149.218c1.5-11.739-4.137-23.243-14.333-29.251z" fill="#fe9738"/></g><path d="m294.645 251.633h-92.292v-55.426c0-8.646 9.83-13.62 16.796-8.5l18.551 13.635c6.425 4.722 15.173 4.722 21.598 0l18.551-13.635c6.966-5.12 16.796-.146 16.796 8.5z" fill="#ffead9"/><g><path d="m277.849 187.707-4.345 3.194c.887 1.523 1.413 3.315 1.413 5.306v55.426h19.729v-55.426c-.001-8.646-9.831-13.62-16.797-8.5z" fill="#fedba6"/></g><g><g><path d="m213.739 112.548c-.49.1-.99.15-1.47.15-3.51 0-6.64-2.47-7.35-6.04l-18.81-94.32c4.53-2.44 9.56-3.62 14.59-3.52l18.93 94.91c.81 4.06-1.83 8.01-5.89 8.82z" fill="#fe9738"/></g><g><path d="m310.889 12.338-18.81 94.32c-.71 3.57-3.84 6.04-7.35 6.04-.48 0-.98-.05-1.47-.15-4.06-.81-6.7-4.76-5.89-8.82l18.93-94.91c5.02-.1 10.05 1.08 14.59 3.52z" fill="#fe9738"/></g></g></g></svg>