<svg id="Capa_1" enable-background="new 0 0 497 497" height="512" viewBox="0 0 497 497" width="512" xmlns="http://www.w3.org/2000/svg"><g><path d="m45.53 201.621 17.416 11.671c9.64 6.46 75.488 36.346 114.347 53.794 16.798 7.542 26.414 25.439 23.434 43.61-7.13 43.463-19.198 101.465-19.198 113.174v20.964c0 28.811 23.356 52.167 52.167 52.167h29.61c28.811 0 52.167-23.356 52.167-52.167v-20.964c0-11.751-11.04-68.457-17.508-110.791-2.69-17.608 6.406-34.908 22.438-42.672 38.055-18.429 103.924-50.595 113.652-57.115l17.416-11.671c23.934-16.039 30.334-48.443 14.295-72.376l-16.484-24.598c-16.039-23.934-48.443-30.334-72.377-14.296l-17.416 11.671c-8.921 5.978-51.869 47.782-81.139 76.611-15.597 15.362-40.56 15.587-56.442.52-30.404-28.844-75.423-71.117-84.398-77.131l-17.416-11.671c-23.934-16.039-56.338-9.638-72.377 14.296l-16.484 24.598c-16.037 23.933-9.637 56.337 14.297 72.376z" fill="#c2bce0"/><g fill="#aca6d6"><path d="m121.683 102.018c74.669 64.601 93.419 95.117 119.649 87.376-7.065-1.512-13.812-4.917-19.423-10.241-30.404-28.844-75.423-71.117-84.398-77.131l-17.416-11.671c-11.784-7.897-25.62-10.343-38.547-7.946 13.932 2.117 27.966 9.327 40.135 19.613z"/><path d="m465.766 129.244-16.484-24.598c-11.428-17.054-31.166-25.196-50.227-22.671 19.412 3.457 35.548 20.3 50.886 47.271 42.807 76.282-78.608 102.428-145.365 141.16-16.032 7.764-25.128 25.063-22.438 42.672 6.467 42.334 17.508 99.04 17.505 110.791 4.049 36.727-10.863 71.997-52.164 73.129-.012.001-.023.002-.035.003h15.861c28.811 0 52.167-23.356 52.167-52.167v-20.964c0-11.751-11.04-68.457-17.508-110.791-2.69-17.608 6.406-34.908 22.438-42.672 38.055-18.429 103.924-50.595 113.652-57.115l17.416-11.671c23.934-16.039 30.334-48.443 14.296-72.377z"/></g><path d="m446.83 163.1c-1.29 6.52-5.04 12.15-10.55 15.85l-17.42 11.67c-1.76 1.14-15.54 9.3-110.36 55.22-26.96 13.06-42.04 41.74-37.52 71.36 16.04 105.02 17.14 104.4 17.2 106.73v20.9c0 13.72-11.16 24.87-24.87 24.87h-29.62c-13.71 0-24.87-11.15-24.87-24.87v-20.86c.08-2.45 1.37-2.37 18.84-108.86 4.98-30.34-11.13-60.33-39.19-72.93-93.75-42.09-108.38-50.35-110.42-51.62l-17.32-11.61c-11.4-7.64-14.45-23.12-6.82-34.51l4.37-6.53 8.35-12.46 3.76-5.61c4.63-6.91 12.37-11.03 20.71-11.03 4.91 0 9.68 1.46 13.8 4.22l17.33 11.61c1.84 1.31 14.03 10.88 80.89 74.32 12.68 12.02 29.28 18.64 46.74 18.64 17.94 0 34.86-6.93 47.64-19.52 63.23-62.28 75.41-72.07 77.31-73.47l17.29-11.58c4.12-2.76 8.89-4.22 13.8-4.22 8.34 0 16.08 4.12 20.71 11.03l3.76 5.61 8.35 12.46 4.37 6.53c3.7 5.52 5.03 12.15 3.74 18.66z" fill="#8379c1"/><g fill="#6e61b6"><path d="m84.072 113.027c35.837 24.814 10.663 4.619 98.225 85.928 15.017 14.806 36.585 20.714 56.853 17.789-13.459-2.134-25.979-8.255-36.028-17.789-66.862-63.432-79.057-73.001-80.89-74.313l-17.333-11.615c-4.116-2.758-8.887-4.216-13.798-4.216-3.677 0-7.237.804-10.465 2.293 1.185.548 2.335 1.185 3.436 1.923z"/><path d="m443.09 144.44-16.483-24.598c-4.629-6.907-12.37-11.03-20.708-11.03-3.692 0-7.304.825-10.618 2.405 3.579 1.783 7.053 4.622 10.499 8.623 5.52 11.129 24.886 29.236 20.221 43.265-1.176 12.951-18.901 20.835-27.969 27.512-1.758 1.143-15.534 9.305-110.354 55.224-26.969 13.059-42.049 41.737-37.524 71.36 16.043 105.018 17.142 104.405 17.195 106.731v20.903c-.628 18.756-13.468 23.744-28.098 24.871h24.054c13.714 0 24.871-11.157 24.871-24.871v-20.905c-.053-2.325-1.152-1.713-17.195-106.731-4.526-29.623 10.554-58.301 37.523-71.36 94.82-45.919 108.596-54.081 110.354-55.224l17.416-11.671c5.518-3.698 9.266-9.323 10.554-15.841 1.288-6.516-.039-13.145-3.738-18.663z"/></g><path d="m451.47 295.379-17.416-11.671c-9.64-6.46-75.488-36.346-114.347-53.794-16.798-7.542-26.414-25.439-23.434-43.61 7.13-43.463 19.198-101.465 19.198-113.174v-20.963c.001-28.811-23.355-52.167-52.166-52.167h-29.61c-28.811 0-52.167 23.356-52.167 52.167v20.964c0 11.751 11.04 68.457 17.508 110.791 2.69 17.608-6.406 34.908-22.438 42.672-38.055 18.429-103.924 50.595-113.652 57.115l-17.416 11.67c-23.934 16.039-30.334 48.443-14.295 72.376l16.484 24.598c16.039 23.934 48.443 30.334 72.377 14.296l17.416-11.671c8.921-5.978 51.869-47.782 81.139-76.611 15.597-15.362 40.56-15.587 56.442-.52 30.404 28.844 75.423 71.117 84.398 77.131l17.416 11.671c23.934 16.039 56.338 9.638 72.377-14.296l16.484-24.598c16.036-23.933 9.636-56.337-14.298-72.376z" fill="#c2bce0"/><g fill="#aca6d6"><path d="m121.684 394.977c-14.386 11.206-27.197 17.64-38.838 19.842 12.551 2.003 25.858-.537 37.249-8.17l17.416-11.671c8.921-5.978 51.869-47.782 81.139-76.611 5.858-5.77 13.038-9.404 20.561-10.894-24.872-7.001-45.011 20.911-117.527 87.504z"/><path d="m451.47 295.379-17.416-11.671c-9.64-6.46-75.487-36.346-114.347-53.794-16.798-7.542-26.414-25.439-23.434-43.61 7.13-43.463 19.198-101.465 19.198-113.174v-20.963c.001-28.811-23.355-52.167-52.166-52.167h-16.977c28.416 2.928 51.691 16.274 53.316 52.167 1.987 34.253-9.482 72.917-19.198 134.138-2.981 18.171 6.636 36.068 23.435 43.61 54.8 25.33 105.357 45.509 131.762 65.465 38.253 27.953 22.512 66.177-2.188 96.972-9.91 14.055-22.285 20.965-35.379 22.534 19.362 2.941 39.581-5.186 51.206-22.532l16.484-24.598c16.038-23.934 9.638-56.338-14.296-72.377z"/></g><path d="m443.09 352.56-4.37 6.53-8.35 12.46-3.76 5.61c-4.63 6.91-12.37 11.03-20.71 11.03-4.91 0-9.68-1.46-13.8-4.22l-8.48-5.68c-5.89-3.95-11.48-8.34-16.7-13.14l-73.04-67.11c-12.68-12.02-29.28-18.64-46.74-18.64-17.94 0-34.86 6.93-47.64 19.52l-68.72 65.31c-5.72 5.43-11.88 10.36-18.43 14.75l-7.45 4.99c-4.12 2.76-8.89 4.22-13.8 4.22-8.34 0-16.08-4.12-20.71-11.03l-3.76-5.61-8.35-12.46-4.37-6.53c-3.86-5.76-5.14-12.74-3.55-19.53 1.46-6.28 5.44-11.68 10.79-15.26l9.66-6.48c4.88-3.27 9.97-6.22 15.22-8.85l102.47-51.28c26.96-13.06 42.04-41.74 37.52-71.36l-15.42-95.72c-1.18-7.33-1.78-14.74-1.78-22.17v-9.74c0-13.74 11.14-24.87 24.88-24.87h29.61c13.73 0 24.87 11.13 24.87 24.87v8.89c0 7.97-.69 15.92-2.05 23.77l-16.79 97.06c-4.98 30.34 11.13 60.33 39.19 72.93l100.74 47.1c6.44 3.01 12.65 6.51 18.56 10.47l8.44 5.66c11.42 7.65 14.47 23.1 6.82 34.51z" fill="#978ecb"/><path d="m230.24 279.4c2.84 0 5.65.17 8.43.52-14.75 1.83-28.42 8.41-39.17 19l-68.72 65.31c-5.72 5.43-11.88 10.36-18.43 14.75l-7.45 4.99c-4.12 2.76-8.89 4.22-13.8 4.22-2.94 0-5.81-.51-8.49-1.48 1.89-.68 3.7-1.6 5.4-2.74l7.45-4.99c6.55-4.39 12.71-9.32 18.42-14.75l68.72-65.31c12.78-12.59 29.7-19.52 47.64-19.52z" fill="#8379c1"/><path d="m443.09 352.56-16.48 24.6c-4.63 6.91-12.37 11.03-20.71 11.03-2.88 0-5.72-.5-8.41-1.48 4.92-1.77 9.22-5.08 12.22-9.55l16.49-24.6c7.64-11.41 4.59-26.86-6.82-34.51l-8.45-5.66c-5.91-3.96-12.11-7.46-18.56-10.47l-100.74-47.1c-28.05-12.6-44.16-42.59-39.19-72.93l16.8-97.06c1.36-7.85 2.04-15.8 2.04-23.77v-8.89c0-13.74-11.13-24.87-24.87-24.87h16.9c13.73 0 24.87 11.13 24.87 24.87v8.89c0 7.97-.69 15.92-2.05 23.77l-16.79 97.06c-4.98 30.34 11.13 60.33 39.19 72.93l100.74 47.1c6.44 3.01 12.65 6.51 18.56 10.47l8.44 5.66c11.42 7.65 14.47 23.1 6.82 34.51z" fill="#8379c1"/><path d="m273 217.3v36.27c0 14.266-11.564 25.83-25.83 25.83h-.03c-14.266 0-25.83-11.564-25.83-25.83v-36.59l8.942 6.218c10.177 7.076 23.666 7.133 33.902.143z" fill="#eaf6ff"/><g><path d="m264.154 223.341c-3.675 2.51-7.772 4.095-11.982 4.79v25.44c0 10.565-6.346 19.643-15.431 23.644 3.182 1.402 6.698 2.186 10.399 2.186h.03c14.266 0 25.83-11.564 25.83-25.83v-36.271z" fill="#c8effe"/></g><g><path d="m255.97 377.64v92.06h-15v-92.06c0-4.14 3.36-7.5 7.5-7.5 4.15 0 7.5 3.36 7.5 7.5z" fill="#6e61b6"/></g><g><path d="m143.4 187.34c-1.45 2.12-3.8 3.26-6.18 3.26-1.47 0-2.95-.43-4.25-1.33l-74.69-51.36 8.35-12.46c.03.01.05.03.08.05l74.76 51.42c3.42 2.34 4.28 7.01 1.93 10.42z" fill="#6e61b6"/></g><g><path d="m438.72 137.91-74.7 51.36c-1.29.9-2.77 1.33-4.24 1.33-2.38 0-4.73-1.14-6.19-3.26-2.34-3.41-1.48-8.08 1.93-10.42l74.77-51.42c.03-.02.05-.04.08-.05z" fill="#6e61b6"/></g><g><path d="m256.03 27.3v92.06c0 4.14-3.36 7.5-7.5 7.5-4.15 0-7.5-3.36-7.5-7.5v-92.06z" fill="#8379c1"/></g><g><path d="m438.72 359.09-8.35 12.46c-.03-.01-.05-.03-.08-.05l-74.76-51.42c-3.42-2.34-4.28-7.01-1.93-10.42 2.34-3.42 7.01-4.28 10.43-1.93z" fill="#8379c1"/></g><g><path d="m141.48 320.08-74.77 51.42c-.03.02-.05.04-.08.05l-8.35-12.46 74.7-51.36c3.41-2.35 8.08-1.49 10.43 1.93 2.34 3.41 1.48 8.08-1.93 10.42z" fill="#8379c1"/></g></g></svg>