<svg id="Capa_1" enable-background="new 0 0 497.001 497.001" height="512" viewBox="0 0 497.001 497.001" width="512" xmlns="http://www.w3.org/2000/svg"><g><path d="m350.196 151.939c11.053-4.53 22.093 6.509 17.563 17.562-4.086 9.969-1.786 21.417 5.832 29.035l9.269 9.269c23.72 23.72 62.177 23.72 85.896 0 22.442-22.442 32.404-54.49 26.639-85.7l-11.527-62.408c-2.24-12.133-11.734-21.627-23.868-23.868l-62.408-11.527c-31.21-5.765-63.258 4.197-85.7 26.639-23.72 23.72-23.72 62.177 0 85.896l9.269 9.269c7.619 7.619 19.066 9.919 29.035 5.833z" fill="#6fd7a3"/><g><path d="m495.396 122.106-11.527-62.408c-2.241-12.134-11.735-21.628-23.869-23.869l-62.408-11.527c-9.497-1.754-19.071-2.044-28.429-.977 2.204.251 4.407.571 6.606.977l62.408 11.527c12.134 2.241 21.627 11.735 23.869 23.869l11.527 62.408c5.765 31.21-4.197 63.258-26.639 85.7-9.072 9.072-20.302 14.662-32.037 16.794 18.946 3.443 39.212-2.147 53.859-16.794 22.443-22.442 32.405-54.49 26.64-85.7z" fill="#3ec3a4"/></g><path d="m456.759 122.611-39.359-9.706 28.471-28.471c2.929-2.93 2.929-7.678 0-10.607-2.929-2.928-7.678-2.928-10.606 0l-28.471 28.472-9.706-39.359c-.991-4.021-5.053-6.476-9.078-5.486-4.021.992-6.478 5.057-5.486 9.078l11.877 48.161-27.567 27.567-24.891-49.093c-1.874-3.694-6.388-5.17-10.081-3.298-3.694 1.873-5.171 6.387-3.298 10.081l27.126 53.501c-9.333 9.893-35.926 46.602-46.103 83.656-1.097 3.994 1.252 8.122 5.246 9.219.665.183 1.333.27 1.991.27 3.293 0 6.313-2.187 7.228-5.516 9.529-34.697 34.552-67.099 43.028-77.357l60.263 22.448c.863.321 1.748.474 2.617.474 3.042 0 5.905-1.865 7.029-4.884 1.446-3.882-.529-8.2-4.41-9.646l-54.198-20.188 26.625-26.625 48.161 11.877c.603.148 1.207.22 1.802.22 3.37 0 6.433-2.288 7.276-5.706.991-4.025-1.465-8.09-5.486-9.082z" fill="#bbf49b"/><g><path d="m360.986 484.349c-2.837 0-5.552-1.618-6.817-4.364-14.706-31.927-27.883-73.675-35.54-106.472-.941-4.034 1.565-8.067 5.599-9.009 4.035-.94 8.067 1.565 9.009 5.599 7.427 31.814 20.273 72.598 34.556 103.607 1.733 3.762.088 8.217-3.674 9.95-1.016.468-2.083.689-3.133.689z" fill="#bbf49b"/></g><path d="m302.253 484.35c-3.138 0-6.062-1.984-7.112-5.124l-39.669-105.04c-1.313-3.929.807-8.178 4.736-9.491s8.177.808 9.491 4.735l39.669 105.04c1.313 3.929-.807 8.178-4.736 9.491-.789.264-1.591.389-2.379.389z" fill="#bbf49b"/><path d="m207.544 208.368c14.612-4.45 25.399-16.855 27.778-31.944l2.823-17.907c3.011-19.1 8.369-37.755 15.952-55.541l10.451-24.514c3.865-9.065 4.409-19.202 1.539-28.628-7.581-24.893-35.788-36.92-58.999-25.157l-35.19 17.834c-8.52 4.318-17.727 7.122-27.208 8.286z" fill="#fc8b96"/><path d="m183.291 297.28c-1.98 4.55-4.89 8.73-8.66 12.25l-46.6 43.46c-5.47 5.1-11.5 9.55-17.95 13.27-4.74 2.74-9.73 5.09-14.88 7.01l-17.23 6.41c-21.25 7.91-44.88-2.9-52.8-24.14l-22.58-60.66c-7.91-21.24 2.9-44.88 24.15-52.79l17.23-6.42c12.17-4.53 25.12-6.61 38.1-6.12l41.64 1.56h.13l21.9.83c14.86.56 27.93 10 33.11 23.94l5.18 13.89c.63 1.69 1.13 3.41 1.5 5.14 1.62 7.58.79 15.4-2.24 22.37z" fill="#fe646f"/><path d="m218.461 269.765 5.172-13.89c5.189-13.937 18.254-23.382 33.115-23.94l63.672-2.391c12.979-.487 25.926 1.595 38.098 6.127l17.231 6.416c21.247 7.911 32.058 31.548 24.147 52.795l-22.583 60.652c-7.911 21.247-31.548 32.058-52.795 24.147l-17.231-6.416c-12.172-4.532-23.328-11.425-32.828-20.282l-46.604-43.451c-10.877-10.141-14.584-25.831-9.394-39.767z" fill="#fe646f"/><path d="m375.749 242.086-17.231-6.416c-12.172-4.532-25.119-6.614-38.098-6.127l-9.16.344c8.679.792 17.234 2.729 25.436 5.783l17.231 6.416c21.247 7.911 32.058 31.548 24.147 52.795l-22.583 60.652c-4.778 12.833-15.297 21.849-27.558 25.242 20.307 5.623 41.891-5.127 49.38-25.242l22.583-60.652c7.911-21.247-2.9-44.884-24.147-52.795z" fill="#fd4755"/><path d="m183.291 297.28c-1.98 4.55-4.89 8.73-8.66 12.25l-46.6 43.46c-5.47 5.1-11.5 9.55-17.95 13.27.98-3.33 2.14-6.61 3.48-9.83l24.46-58.84c1.045-2.52 2.353-4.878 3.883-7.048 1.778-2.523 1.507-5.978-.764-8.068-11.232-10.338-18.269-25.155-18.269-41.623 0-2.31.14-4.58.97-9.74l21.9.83c14.86.56 27.93 10 33.11 23.94l5.18 13.89c.63 1.69 1.13 3.41 1.5 5.14 1.62 7.579.79 15.399-2.24 22.369z" fill="#fd4755"/><path d="m266.087 49.835c-6.726-22.086-29.688-34.029-50.993-28.228 13.343 3.613 24.755 13.733 29.169 28.228 6.701 16.903-5.865 37.904-11.989 53.142-7.583 17.786-12.941 36.441-15.954 55.54-1.253 14.058-4.307 28.858-13.111 38.985l4.335 10.867c14.612-4.45 25.399-16.855 27.778-31.944l2.823-17.907c3.011-19.1 8.369-37.755 15.952-55.541l10.451-24.514c3.865-9.064 4.41-19.201 1.539-28.628z" fill="#fe646f"/><path d="m208.655 274.909h-14.822c-14.871 0-28.282 8.948-33.99 22.68l-24.458 58.836c-4.986 11.993-7.552 24.853-7.552 37.842v18.386c0 22.672 18.379 41.051 41.051 41.051h64.72c22.672 0 41.051-18.379 41.051-41.051v-18.386c0-12.988-2.567-25.848-7.552-37.842l-24.458-58.836c-5.708-13.732-19.119-22.68-33.99-22.68z" fill="#fe646f"/><path d="m267.103 356.425-24.458-58.836c-5.708-13.732-19.119-22.68-33.99-22.68h-14.822c-1.179 0-2.343.076-3.5.186 13.444 1.282 25.234 9.85 30.49 22.494l24.458 58.836c4.986 11.993 7.552 24.853 7.552 37.841v18.386c0 22.672-18.379 41.051-41.051 41.051h21.823c22.672 0 41.051-18.379 41.051-41.051v-18.386c-.001-12.988-2.567-25.848-7.553-37.841z" fill="#fd4755"/><path d="m91.426 62.924-36.897 13.966c-24.337 9.211-34.471 38.152-21.199 60.534 5.026 8.476 12.88 14.908 22.18 18.165l25.151 8.809c18.249 6.391 35.638 15.012 51.774 25.666l15.128 9.988c12.747 8.416 29.181 8.813 42.32 1.022 13.138-7.791 20.673-22.402 19.402-37.624l-1.508-18.065c-1.608-19.269-.831-38.662 2.314-57.74l4.335-26.294c1.603-9.723-.274-19.7-5.3-28.175-13.273-22.382-43.528-27.371-63.284-10.435l-29.952 25.677c-7.253 6.216-15.531 11.125-24.464 14.506z" fill="#fe646f"/><path d="m209.125 33.176c-9.727-16.402-28.571-23.448-45.722-19.386 7.646 2.781 15.571 8.836 23.898 19.387 10.579 14.798 3.219 38.257.967 54.468-3.145 19.078-3.922 38.471-2.314 57.74 0 0 1.508 18.065 1.507 18.064 2.322 19.901-11.842 36.364-29.22 41.555 10.473 3.093 21.952 1.816 31.641-3.93 13.138-7.791 20.673-22.402 19.402-37.624l-1.508-18.065c-1.608-19.269-.831-38.662 2.314-57.74l4.335-26.294c1.603-9.723-.274-19.7-5.3-28.175z" fill="#fd4755"/><circle cx="201.244" cy="240.85" fill="#8379c1" r="56.554"/><path d="m201.244 184.296c-3.734 0-7.38.372-10.911 1.062 26.011 5.086 45.643 27.992 45.643 55.492s-19.632 50.406-45.643 55.492c3.532.691 7.177 1.062 10.911 1.062 31.234 0 56.554-25.32 56.554-56.554s-25.32-56.554-56.554-56.554z" fill="#6e61b6"/><path d="m203.743 222.376 1.802-.835c3.402-1.576 7.396.348 8.285 3.99l.471 1.929c.415 1.699 1.556 3.13 3.12 3.912l1.776.888c3.353 1.677 4.339 5.999 2.046 8.965l-1.214 1.571c-1.07 1.384-1.477 3.168-1.113 4.878l.413 1.942c.779 3.667-1.985 7.133-5.733 7.189l-1.985.03c-1.749.026-3.397.82-4.508 2.171l-1.261 1.534c-2.381 2.896-6.814 2.896-9.195 0l-1.261-1.534c-1.111-1.351-2.76-2.145-4.508-2.171l-1.985-.03c-3.749-.056-6.512-3.522-5.733-7.189l.413-1.942c.363-1.711-.044-3.495-1.113-4.878l-1.214-1.571c-2.293-2.966-1.307-7.288 2.046-8.965l1.776-.888c1.564-.782 2.705-2.213 3.12-3.912l.471-1.929c.889-3.642 4.883-5.565 8.285-3.99l1.802.835c1.58.736 3.41.736 4.997 0z" fill="#c2bce0"/></g></svg>