<svg id="Capa_1" enable-background="new 0 0 493.441 493.441" height="512" viewBox="0 0 493.441 493.441" width="512" xmlns="http://www.w3.org/2000/svg"><g><g><g><path d="m254.535 1.633-.004-.002c-4.98-2.174-10.64-2.174-15.62 0l-.004.002c-22.84 9.972-49.659 39.633-62.29 56.424-10.542 14.013-11.513 33.081-4.854 49.303l23.555 57.379c8.559 20.85 28.865 34.464 51.403 34.464 22.538 0 42.844-13.614 51.403-34.464l23.555-57.379c6.66-16.222 5.688-35.289-4.854-49.303-12.631-16.791-39.45-46.452-62.29-56.424z" fill="#ffd15b"/><path d="m316.825 58.057c-12.631-16.791-39.45-46.452-62.29-56.424l-.004-.002c-4.98-2.174-10.64-2.174-15.62 0l-.004.002c-1.102.481-2.215 1.021-3.334 1.59 22.063 11.227 46.935 38.853 58.957 54.834 10.542 14.013 11.513 33.081 4.854 49.303l-23.555 57.379c-7.118 17.339-22.362 29.665-40.255 33.327 3.623.742 7.353 1.136 11.148 1.136 22.538 0 42.844-13.614 51.403-34.464l23.555-57.379c6.658-16.222 5.687-35.289-4.855-49.302z" fill="#ffc344"/><path d="m254.535 491.809-.004.002c-4.98 2.174-10.64 2.174-15.62 0l-.004-.002c-22.84-9.972-49.659-39.633-62.29-56.424-10.542-14.013-11.513-33.081-4.854-49.303l23.555-57.379c8.559-20.85 28.865-34.464 51.403-34.464 22.538 0 42.844 13.614 51.403 34.464l23.555 57.379c6.66 16.222 5.688 35.289-4.854 49.303-12.631 16.791-39.45 46.452-62.29 56.424z" fill="#ffd15b"/><path d="m321.679 386.082-23.555-57.379c-8.559-20.849-28.865-34.464-51.403-34.464-3.795 0-7.525.395-11.148 1.136 17.893 3.663 33.137 15.989 40.255 33.327l23.555 57.379c6.66 16.222 5.688 35.289-4.854 49.303-12.022 15.981-36.893 43.607-58.957 54.834 1.118.569 2.232 1.109 3.334 1.59l.004.002c4.98 2.174 10.64 2.174 15.62 0l.004-.002c22.84-9.972 49.659-39.633 62.29-56.424 10.543-14.013 11.514-33.08 4.855-49.302z" fill="#ffc344"/></g><g><path d="m491.809 254.535.002-.004c2.174-4.98 2.174-10.64 0-15.62l-.002-.004c-9.972-22.84-39.633-49.659-56.424-62.29-14.013-10.542-33.081-11.513-49.303-4.854l-57.379 23.555c-20.85 8.559-34.464 28.865-34.464 51.403 0 22.538 13.614 42.844 34.464 51.403l57.379 23.555c16.222 6.66 35.289 5.688 49.303-4.854 16.791-12.631 46.452-39.45 56.424-62.29z" fill="#ffd15b"/><path d="m491.809 238.906c-9.972-22.84-39.633-49.659-56.424-62.29-11.274-8.481-25.818-10.757-39.52-7.859 6.166 1.379 12.042 3.961 17.224 7.859 16.791 12.631 46.452 39.45 56.424 62.29l1.143 2.617c1.447 3.314 1.447 7.08 0 10.394l-1.143 2.617c-9.972 22.84-39.633 49.659-56.424 62.29-5.183 3.899-11.059 6.481-17.224 7.859 13.703 2.898 28.246.622 39.52-7.859 16.791-12.631 46.452-39.45 56.424-62.29l.002-.004c2.174-4.98 2.174-10.64 0-15.62z" fill="#ffc344"/><path d="m199.201 246.721c0 11.27-3.4 21.98-9.41 30.94-4.8 7.15-11.26 13.2-18.98 17.52-1.94 1.1-3.97 2.08-6.07 2.94l-57.38 23.56c-16.22 6.66-35.29 5.69-49.3-4.86-16.8-12.63-46.46-39.45-56.43-62.29-2.174-4.98-2.174-10.64 0-15.62 9.97-22.84 39.63-49.66 56.43-62.29 14.01-10.55 33.08-11.52 49.3-4.86l57.38 23.56c2.1.86 4.13 1.84 6.07 2.94 17.38 9.73 28.39 28.19 28.39 48.46z" fill="#ffd15b"/><path d="m199.201 246.721c0 11.27-3.4 21.98-9.41 30.94-4.8 7.15-11.26 13.2-18.98 17.52-8.05-9.25-12.92-21.33-12.92-34.55v-27.82c0-13.22 4.87-25.3 12.92-34.55 17.38 9.73 28.39 28.19 28.39 48.46z" fill="#ffc344"/></g></g><path d="m260.635 313.258h-27.828c-29.063 0-52.624-23.56-52.624-52.624v-27.828c0-29.063 23.56-52.624 52.624-52.624h27.828c29.063 0 52.624 23.56 52.624 52.624v27.828c-.001 29.064-23.561 52.624-52.624 52.624z" fill="#fea95c"/><path d="m260.635 180.183h-22.296c29.063 0 52.624 23.56 52.624 52.624v27.828c0 29.063-23.561 52.624-52.624 52.624h22.296c29.063 0 52.624-23.56 52.624-52.624v-27.828c-.001-29.064-23.561-52.624-52.624-52.624z" fill="#fe9738"/><g><path d="m200.595 83.588c-1.568 0-3.15-.489-4.501-1.505-3.311-2.489-3.978-7.19-1.488-10.502 2.898-3.855 6.147-7.863 9.657-11.912 2.713-3.129 7.451-3.466 10.58-.754 3.13 2.713 3.467 7.45.754 10.58-3.283 3.786-6.312 7.521-9.001 11.1-1.474 1.96-3.724 2.993-6.001 2.993z" fill="#ffc344"/></g><g><path d="m292.862 83.608c-2.277 0-4.526-1.032-6.001-2.993-11.812-15.713-28.284-32.202-40.145-40.424-2.177 1.505-4.528 3.303-7.029 5.374-3.19 2.641-7.917 2.196-10.561-.994-2.642-3.19-2.196-7.919.994-10.561 4.654-3.854 8.966-6.948 12.813-9.198 2.341-1.367 5.233-1.366 7.572 0 15.427 9.021 35.998 30.366 48.345 46.789 2.489 3.311 1.822 8.013-1.488 10.502-1.349 1.015-2.931 1.505-4.5 1.505z" fill="#ffc344"/></g><g><path d="m246.721 469.654c-1.309 0-2.616-.342-3.786-1.025-15.427-9.021-35.998-30.366-48.345-46.789-2.489-3.311-1.822-8.013 1.488-10.502 3.312-2.487 8.013-1.823 10.502 1.488 11.812 15.712 28.281 32.199 40.141 40.422 11.86-8.224 28.323-24.702 40.125-40.401 2.488-3.31 7.19-3.977 10.502-1.488 3.311 2.489 3.978 7.191 1.488 10.502-12.337 16.41-32.899 37.744-48.329 46.769-1.169.683-2.478 1.024-3.786 1.024z" fill="#ffc344"/></g><g><path d="m417.339 300.356c-2.277 0-4.526-1.032-6.001-2.993-2.489-3.311-1.822-8.013 1.488-10.502 15.712-11.812 32.199-28.281 40.422-40.141-8.224-11.86-24.702-28.323-40.401-40.125-3.311-2.489-3.978-7.191-1.488-10.502 2.488-3.31 7.189-3.977 10.502-1.488 16.41 12.337 37.744 32.899 46.769 48.329 1.367 2.339 1.367 5.233 0 7.572-9.021 15.427-30.366 35.998-46.789 48.345-1.352 1.015-2.934 1.505-4.502 1.505z" fill="#ffc344"/></g><g><path d="m76.082 300.341c-1.568.001-3.15-.49-4.501-1.505-16.41-12.337-37.744-32.899-46.769-48.329-1.367-2.339-1.367-5.233 0-7.572 9.021-15.427 30.366-35.998 46.789-48.345 3.312-2.487 8.013-1.823 10.502 1.488s1.822 8.013-1.488 10.502c-15.712 11.812-32.199 28.281-40.422 40.141 8.224 11.86 24.702 28.323 40.401 40.125 3.311 2.489 3.978 7.191 1.488 10.502-1.473 1.96-3.723 2.993-6 2.993z" fill="#ffc344"/></g><path d="m244.803 252.834c-4.143 0-7.5-3.357-7.5-7.5 0-45.789 7.055-91.95 11.26-115.391.73-4.077 4.63-6.795 8.706-6.058 4.077.731 6.789 4.629 6.058 8.706-4.116 22.95-11.023 68.114-11.023 112.742-.001 4.144-3.359 7.501-7.501 7.501z" fill="#eaf6ff"/><path d="m212.969 254.223c-2.722 0-5.348-1.487-6.677-4.074-.287-.558-29.249-56.364-78.911-107.63-2.882-2.976-2.807-7.724.168-10.605 2.977-2.883 7.725-2.807 10.605.168 51.282 52.938 80.271 108.859 81.48 111.214 1.892 3.685.438 8.206-3.246 10.098-1.096.561-2.266.829-3.419.829z" fill="#eaf6ff"/><path d="m276.7 252.819c-.251 0-.504-.013-.76-.039-4.109-.415-7.11-4.06-6.712-8.17.097-.998 2.604-24.742 23.132-52.146 2.483-3.315 7.183-3.99 10.499-1.507 3.315 2.483 3.99 7.185 1.507 10.499-17.844 23.821-20.189 44.426-20.211 44.631-.405 3.853-3.662 6.732-7.455 6.732z" fill="#eaf6ff"/><circle cx="331.546" cy="161.025" fill="#fea95c" r="7.697"/><g fill="#fe9738"><circle cx="246.803" cy="281.567" r="7.697"/><circle cx="276.694" cy="275.801" r="7.697"/><circle cx="216.521" cy="275.801" r="7.697"/></g><circle cx="262.196" cy="98.711" fill="#fea95c" r="7.697"/><circle cx="108.653" cy="112.185" fill="#fea95c" r="7.697"/></g></svg>