<svg id="Capa_1" enable-background="new 0 0 512 512" height="512" viewBox="0 0 512 512" width="512" xmlns="http://www.w3.org/2000/svg"><g><g fill="#ffd15b"><path d="m256 64.684c-4.143 0-7.5-3.357-7.5-7.5v-49.684c0-4.143 3.357-7.5 7.5-7.5s7.5 3.357 7.5 7.5v49.684c0 4.142-3.357 7.5-7.5 7.5z"/><path d="m291.324 102.112c-.395 0-.795-.031-1.197-.096-4.09-.656-6.873-4.504-6.217-8.594l11.062-68.926c.656-4.089 4.502-6.869 8.594-6.217 4.09.656 6.873 4.504 6.217 8.594l-11.062 68.927c-.592 3.687-3.778 6.312-7.397 6.312z"/><path d="m219.001 102.112c-3.619 0-6.805-2.625-7.396-6.312l-11.062-68.926c-.656-4.09 2.127-7.938 6.217-8.594 4.087-.656 7.937 2.127 8.594 6.217l11.062 68.926c.656 4.09-2.127 7.938-6.217 8.594-.403.064-.803.095-1.198.095z"/></g><path d="m358.691 258.756c-2.147 0-4.28-.918-5.764-2.696-2.653-3.181-2.226-7.91.956-10.563l30.154-24.99c3.179-2.653 7.909-2.226 10.563.956 2.653 3.181 2.226 7.91-.956 10.563l-30.154 24.99c-1.402 1.17-3.105 1.74-4.799 1.74z" fill="#9be69d"/><path d="m350.062 459.466c-2.47 0-4.889-1.219-6.32-3.453-2.236-3.487-1.222-8.126 2.266-10.361l36.179-23.601c3.486-2.236 8.126-1.223 10.361 2.266 2.236 3.487 1.222 8.126-2.266 10.361l-36.179 23.601c-1.253.803-2.655 1.187-4.041 1.187z" fill="#9be69d"/><path d="m144.454 300.607c-1.661 0-3.333-.549-4.724-1.678l-32.66-27.724c-3.215-2.611-3.705-7.335-1.094-10.551 2.611-3.213 7.334-3.705 10.551-1.094l32.66 27.724c3.215 2.611 3.705 7.335 1.094 10.551-1.482 1.824-3.645 2.772-5.827 2.772z" fill="#6fd7a3"/><path d="m256 116.31v52.05l-41.83 14.12-37.57-48.93c-13.99-12.96-21.94-31.16-21.94-50.22v-13.62c0-6.85 7.51-11.05 13.35-7.47l35.57 21.86z" fill="#fe646f"/><path d="m203.58 84.1s0 .001-.001.001l-35.574-21.858c-5.836-3.586-13.344.613-13.344 7.463v3.321c2.662-1.689 6.198-1.98 9.278-.087l31.91 19.496c2.156 1.317 3.319 3.814 2.881 6.302-.521 2.956-.791 5.963-.791 8.992v23.64c0 20.415 16.552 36.981 36.974 36.99l-25.08 8.468 4.339 5.65 41.828-14.123v-6.585-45.459-.001z" fill="#fd4755"/><path d="m256 116.311v52.045l41.827 14.123 37.575-48.929c13.987-12.956 21.937-31.158 21.937-50.223v-13.621c0-6.85-7.508-11.049-13.344-7.463z" fill="#fe646f"/><path d="m343.994 62.244-11.388 6.997c2.167 1.546 3.659 4.064 3.659 7.113v6.971c0 19.065-7.95 37.267-21.937 50.223l-33.236 43.279 16.734 5.65 37.575-48.929c13.987-12.956 21.937-31.158 21.937-50.223v-13.619c.001-6.849-7.508-11.048-13.344-7.462z" fill="#fd4755"/><path d="m353.262 504.5h-194.524l-18.697-160.26c-3.307-28.344-2.448-57.02 2.55-85.115l6.438-36.192c5.617-31.576 33.071-54.578 65.143-54.578h83.654c32.072 0 59.526 23.001 65.143 54.578l6.438 36.192c4.998 28.095 5.857 56.771 2.55 85.115z" fill="#9be69d"/><path d="m369.408 259.125-6.438-36.192c-5.617-31.576-33.071-54.578-65.143-54.578h-21.073c32.072 0 59.526 23.001 65.143 54.578l6.438 36.192c4.998 28.095 5.857 56.771 2.55 85.115l-18.696 160.26h21.073l18.697-160.26c3.306-28.344 2.447-57.02-2.551-85.115z" fill="#6fd7a3"/><path d="m222.62 450.68c-1.855 0-3.714-.684-5.165-2.062l-34.904-32.046c-3.003-2.853-3.124-7.601-.271-10.604 2.854-3.003 7.601-3.124 10.604-.271l34.904 32.046c3.003 2.853 3.124 7.601.271 10.604-1.476 1.55-3.456 2.333-5.439 2.333z" fill="#3ec3a4"/><path d="m291.321 361.367c-2.103 0-4.193-.879-5.677-2.595-2.709-3.134-2.365-7.869.769-10.579l36.374-32.184c3.134-2.707 7.87-2.364 10.579.769 2.709 3.134 2.365 7.869-.769 10.579l-36.374 32.184c-1.417 1.225-3.163 1.826-4.902 1.826z" fill="#6fd7a3"/><path d="m294.25 504.5h-76.5l-7.353-160.26c-1.3-28.344-.963-57.02 1.003-85.115l2.532-36.192c2.209-31.576 13.006-54.578 25.619-54.578h32.899c12.613 0 23.41 23.001 25.619 54.578l2.532 36.192c1.965 28.095 2.303 56.771 1.003 85.115z" fill="#6fd7a3"/><path d="m300.6 259.125-2.532-36.192c-2.209-31.576-13.006-54.578-25.619-54.578h-21.073c12.613 0 23.41 23.001 25.619 54.578l2.532 36.192c1.965 28.095 2.303 56.771 1.003 85.115l-7.353 160.26h21.073l7.353-160.26c1.3-28.344.962-57.02-1.003-85.115z" fill="#3ec3a4"/><path d="m292.99 107.73v23.64c0 17.85-12.66 32.76-29.49 36.23-2.42.5-4.93.76-7.5.76s-5.08-.26-7.5-.76c-16.83-3.47-29.49-18.38-29.49-36.23v-23.64c0-10.41 3.11-20.59 8.92-29.23l21.3-31.66c3.24-4.8 10.3-4.8 13.54 0l21.3 31.66c5.81 8.64 8.92 18.82 8.92 29.23z" fill="#fe646f"/><path d="m284.071 78.499-21.304-31.659c-3.233-4.804-10.302-4.804-13.535 0l-6.559 9.747c2.802-.239 5.706.941 7.47 3.562l12.854 18.35c5.814 8.64 8.919 18.817 8.919 29.23v23.637c0 16.767-11.159 30.92-26.453 35.458 3.34.991 6.875 1.531 10.536 1.531 20.429 0 36.99-16.561 36.99-36.99v-23.637c.001-10.413-3.104-20.59-8.918-29.229z" fill="#fd4755"/><path d="m263.5 116.31v51.29c-2.42.5-4.93.76-7.5.76s-5.08-.26-7.5-.76v-51.29c0-4.14 3.36-7.5 7.5-7.5s7.5 3.36 7.5 7.5z" fill="#fd4755"/><path d="m210.649 278.941c-1.965 0-3.927-.768-5.398-2.293-2.876-2.98-2.791-7.729.19-10.604l26.278-25.351c2.98-2.877 7.729-2.79 10.604.19s2.791 7.729-.19 10.604l-26.278 25.351c-1.455 1.405-3.332 2.103-5.206 2.103z" fill="#3ec3a4"/><path d="m158.735 512c-1.748 0-3.504-.607-4.925-1.847l-32.199-28.066c-3.123-2.722-3.447-7.459-.726-10.581 2.721-3.123 7.459-3.449 10.581-.726l32.199 28.066c3.123 2.722 3.447 7.459.726 10.581-1.482 1.702-3.564 2.573-5.656 2.573z" fill="#6fd7a3"/><path d="m412.449 512h-312.898c-4.143 0-7.5-3.357-7.5-7.5s3.357-7.5 7.5-7.5h312.898c4.143 0 7.5 3.357 7.5 7.5s-3.357 7.5-7.5 7.5z" fill="#3ec3a4"/></g></svg>