<svg id="Capa_1" enable-background="new 0 0 496.997 496.997" height="512" viewBox="0 0 496.997 496.997" width="512" xmlns="http://www.w3.org/2000/svg"><g><path d="m156.773 409.169c-25.027 0-54.437-4.39-76.828-20.829-3.339-2.451-4.059-7.146-1.607-10.484s7.145-4.058 10.484-1.607c41.357 30.363 115.143 12.791 115.883 12.611 4.023-.983 8.082 1.479 9.067 5.499.986 4.021-1.472 8.081-5.493 9.068-1.727.425-23.963 5.742-51.506 5.742z" fill="#feaee1"/><path d="m340.224 409.17c25.027 0 54.437-4.39 76.828-20.829 3.339-2.451 4.059-7.146 1.607-10.484s-7.145-4.058-10.484-1.607c-41.357 30.363-115.143 12.791-115.883 12.611-4.023-.983-8.082 1.479-9.067 5.499-.986 4.021 1.472 8.081 5.493 9.068 1.727.425 23.963 5.742 51.506 5.742z" fill="#feaee1"/><g><path d="m217.277 349.938-30.43 31.67-47.01-36.48-122.5-95.07c-11.84-9.18-18.3-23.67-17.22-38.61.78-10.77 5.33-20.49 12.38-27.82 7.04-7.33 16.58-12.27 27.3-13.48 1.68-.19 3.36-.28 5.02-.28 13.13 0 25.69 5.77 34.25 15.94l99.28 117.9z" fill="#eaf6ff"/><path d="m217.28 349.939-134.6-159.841c-9.241-10.973-28.538-19.952-42.884-19.952-2.282.256-4.505.692-6.667 1.273 8.701 2.349 16.627 7.297 22.6 14.39 0 0 106.629 126.625 106.629 126.625 4.542 5.394 4.247 13.326-.624 18.426-.302.316-.608.629-.918.938-5.86 5.87-12.99 10.44-20.98 13.33l47.01 36.48.001-.001.002.002z" fill="#c8effe"/><path d="m279.714 349.938 30.431 31.671 169.517-131.547c11.835-9.184 18.296-23.675 17.219-38.616-1.552-21.528-18.233-38.89-39.683-41.3-14.886-1.673-29.624 4.205-39.273 15.664z" fill="#eaf6ff"/><path d="m496.881 211.446c-1.552-21.529-18.234-38.89-39.683-41.3-5.671-.637-11.318-.172-16.673 1.274 18.156 4.887 31.629 20.788 33.016 40.027 1.077 14.941-5.385 29.432-17.219 38.616l-156.147 121.171 9.969 10.376 169.517-131.547c11.835-9.184 18.297-23.675 17.22-38.617z" fill="#c8effe"/></g><g><path d="m256.862 361.858-56.211-13.868-77.888-267.898c-5.438-18.703-1.168-38.887 11.378-53.785 18.077-21.467 48.891-26.993 73.301-13.146 16.942 9.61 27.959 27.052 29.36 46.48z" fill="#eaf6ff"/><path d="m184.102 13.16c16.942 9.61 27.959 27.052 29.36 46.479l19.672 296.364 23.729 5.854-20.062-302.217c-1.401-19.427-12.418-36.869-29.359-46.479-12.629-7.164-26.97-9.13-40.376-6.398 5.855 1.2 11.604 3.316 17.036 6.397z" fill="#c8effe"/><path d="m248.497 354.148 47.846-6.159 77.889-267.898c5.438-18.703 1.168-38.887-11.378-53.785-18.078-21.467-48.892-26.993-73.302-13.146-16.942 9.61-27.959 27.052-29.36 46.48l-11.695 176.179z" fill="#eaf6ff"/><path d="m362.853 26.306c-14.055-16.69-35.808-23.739-56.265-19.544 12.506 2.549 24.2 9.183 32.925 19.544 12.546 14.899 16.816 35.082 11.378 53.786l-77.889 267.898-24.506 3.154v3.004l47.846-6.159 77.889-267.898c5.438-18.703 1.168-38.886-11.378-53.785z" fill="#c8effe"/></g><path d="m248.501 361.638c-.098 0-.197-.002-.296-.005-4.138-.161-7.362-3.644-7.204-7.781.142-3.691 4.005-91.087 50.445-149.893 2.567-3.251 7.284-3.803 10.534-1.237 3.251 2.567 3.805 7.283 1.238 10.534-43.364 54.911-47.194 140.318-47.228 141.175-.158 4.038-3.482 7.207-7.489 7.207z" fill="#feaee1"/><g><path d="m282.69 399.52-37.57-37.57 9.013-20.852c5.924-13.705 14.388-26.165 24.946-36.723 6.32-6.32 17.086-3.739 19.853 4.76 5.644 17.335 19.236 30.928 36.572 36.572 8.499 2.767 11.08 13.533 4.76 19.853-10.558 10.558-23.018 19.022-36.723 24.946z" fill="#ffceec"/><path d="m335.505 345.708c-17.336-5.644-30.928-19.236-36.572-36.572-2.767-8.499-13.533-11.08-19.853-4.76-1.298 1.298-2.564 2.626-3.798 3.981.104.26.223.508.312.779 5.644 17.335 19.236 30.927 36.572 36.572 8.499 2.767 11.08 13.533 4.76 19.853-10.558 10.558-23.018 19.022-36.723 24.946l-4.556 1.969 7.044 7.044 20.852-9.013c13.705-5.924 26.165-14.388 36.723-24.946 6.319-6.32 3.738-17.086-4.761-19.853z" fill="#ffbee6"/><path d="m251.873 430.337-37.57-37.57-20.852 9.013c-13.705 5.924-26.165 14.388-36.723 24.946-6.32 6.32-3.739 17.086 4.76 19.853 17.335 5.644 30.928 19.236 36.572 36.572 2.767 8.499 13.533 11.08 19.853 4.76 10.558-10.558 19.022-23.018 24.946-36.723z" fill="#ffceec"/><path d="m214.304 392.767-16.296 7.044 20.833 20.833c5.851 5.851 7.537 14.681 4.254 22.276l-3.574 8.269c-5.196 12.02-12.346 23.081-21.148 32.742 3.161 7.858 13.423 10.099 19.542 3.981 10.558-10.558 19.022-23.018 24.946-36.723l9.013-20.852z" fill="#ffbee6"/></g><g><path d="m245.12 430.337 37.57-37.57 20.852 9.013c13.705 5.924 26.165 14.388 36.723 24.946 6.32 6.32 3.739 17.086-4.76 19.853-17.335 5.644-30.928 19.236-36.572 36.572-2.767 8.499-13.533 11.08-19.853 4.76-10.558-10.558-19.022-23.018-24.946-36.723z" fill="#ffceec"/><path d="m340.265 426.726c-10.558-10.558-23.018-19.022-36.723-24.946l-20.852-9.013-7.044 7.044 4.556 1.969c13.705 5.924 26.165 14.389 36.723 24.946 6.32 6.32 3.739 17.086-4.76 19.853-17.335 5.644-30.928 19.236-36.572 36.572-.088.272-.207.52-.312.779 1.234 1.355 2.5 2.682 3.798 3.981 6.32 6.32 17.086 3.739 19.853-4.76 5.644-17.335 19.236-30.928 36.572-36.572 8.5-2.766 11.081-13.532 4.761-19.853z" fill="#ffbee6"/><path d="m214.304 399.52 37.57-37.57-9.013-20.852c-5.924-13.705-14.388-26.165-24.946-36.723-6.32-6.32-17.086-3.739-19.853 4.76-5.644 17.335-19.236 30.928-36.572 36.572-8.499 2.767-11.08 13.533-4.76 19.853 10.558 10.558 23.018 19.022 36.723 24.946z" fill="#ffceec"/><path d="m242.86 341.099c-5.924-13.705-14.388-26.165-24.946-36.723-6.118-6.118-16.38-3.877-19.542 3.981 8.802 9.661 15.952 20.723 21.148 32.742l9.013 20.852-30.526 30.526 16.296 7.044 37.57-37.57z" fill="#ffbee6"/></g><g><g><path d="m226.154 418.486-15.52-15.52c-6.554-6.554-6.554-17.181 0-23.736l20.949-20.949c6.554-6.554 17.181-6.554 23.736 0l15.52 15.52z" fill="#bbf49b"/></g><path d="m255.32 358.281c-6.554-6.554-17.181-6.554-23.736 0l-5.663 5.663c5.566-1.44 11.724.002 16.084 4.362l5.495 5.495-33.015 33.015 11.67 11.67 44.685-44.685z" fill="#9be69d"/><g><path d="m241.674 434.006-15.52-15.52 44.685-44.685 15.52 15.52c6.554 6.554 6.554 17.181 0 23.736l-20.949 20.949c-6.555 6.554-17.181 6.554-23.736 0z" fill="#bbf49b"/></g><path d="m286.359 389.321-15.52-15.52-11.67 11.67 3.85 3.85c6.554 6.554 6.554 17.181 0 23.736l-20.949 20.949c-.064.064-.133.116-.198.179 6.568 6.365 17.047 6.312 23.538-.179l20.949-20.949c6.554-6.555 6.554-17.182 0-23.736z" fill="#9be69d"/></g></g></svg>