<svg id="Capa_1" enable-background="new 0 0 497.002 497.002" height="512" viewBox="0 0 497.002 497.002" width="512" xmlns="http://www.w3.org/2000/svg"><g><path d="m172.361 173.75-6.23 14.34-29.48 67.88-49.07-12.54c-16.57-3.36-33.61-3.59-50.28-.72l-14.97 2.59c-3.82.66-5.88-4.3-2.74-6.55l24.66-17.57c2.96-2.11 2.1-6.73-1.42-7.63l-40.11-10.34c-3.75-.97-3.58-6.38.24-7.09l38.2-7.22c3.88-.73 4.78-5.88 1.39-7.89l-29.35-17.4c-3.39-2.01-1.63-7.21 2.28-6.74l29.76 3.63c3.88.47 6.31-4.06 3.78-7.03l-19.48-22.79c-2.56-3 .8-7.36 4.35-5.64l30.73 14.83c3.55 1.73 7.34-1.87 5.81-5.51l-15.11-35.82c-1.52-3.58 2.89-6.71 5.78-4.11l30.79 27.7c2.7 2.43 7.02.59 7.14-3.04l.16-4.87.85-25.38c.14-3.87 5.41-4.89 6.97-1.35l6.13 13.91c6.8 15.47 16.43 29.54 28.39 41.51z" fill="#c365af"/><path d="m224.071 364.84-23.97 52.58c-6.52 15.59-10.08 32.27-10.5 49.17l-.37 15.19c-.09 3.87-5.37 4.93-6.95 1.41l-12.39-27.49-.05-.11c-1.49-3.32-6.19-3.38-7.76-.09l-17.95 37.31c-1.68 3.51-6.96 2.27-6.92-1.61l.37-38.87c.04-3.95-4.84-5.84-7.47-2.9l-22.79 25.4c-2.62 2.93-7.39.19-6.16-3.56l9.35-28.48c1.22-3.7-2.75-6.98-6.16-5.07l-26.15 14.66c-3.43 1.93-7.05-2.21-4.68-5.36l20.54-27.25c2.38-3.16-.42-7.57-4.28-6.77l-38.07 7.84c-3.81.78-6.03-4.15-2.91-6.47l33.16-24.8c2.92-2.19 1.96-6.78-1.59-7.6l-29.48-6.89c-3.76-.88-3.73-6.26.04-7.1l14.84-3.29c16.51-3.67 32.18-10.37 46.23-19.76l40.56-31.74 56.2 40.59z" fill="#c365af"/><path d="m338.051 52.28-9.37 11.97c-10.41 13.32-18.25 28.47-23.14 44.65l-12.08 44.34h-89.92l-12.08-44.34c-4.89-16.18-12.73-31.33-23.14-44.65l-9.37-11.97c-2.38-3.04 1.01-7.21 4.48-5.5l27.13 13.41c3.27 1.61 6.92-1.32 6.07-4.85l-9.86-40.23c-.92-3.77 3.93-6.17 6.37-3.15l24.41 30.25c2.48 3.07 7.44 1.44 7.61-2.5l1.45-34.1c.17-3.94 5.6-4.83 7.03-1.16l10.87 27.93c1.42 3.63 6.56 3.63 7.98 0l10.87-27.93c1.43-3.67 6.86-2.78 7.03 1.16l1.45 34.1c.17 3.94 5.13 5.57 7.61 2.5l24.41-30.25c2.44-3.02 7.29-.62 6.37 3.15l-9.86 40.23c-.85 3.53 2.8 6.46 6.07 4.85l7.71-3.81 19.42-9.6c3.47-1.71 6.86 2.46 4.48 5.5z" fill="#c365af"/><path d="m445.291 420.84-16.2-3.34-21.87-4.5c-3.86-.8-6.66 3.61-4.28 6.77l20.54 27.25c2.37 3.15-1.25 7.29-4.68 5.36l-26.15-14.66c-3.41-1.91-7.38 1.37-6.16 5.07l9.35 28.48c1.23 3.75-3.54 6.49-6.16 3.56l-22.79-25.4c-2.63-2.94-7.51-1.05-7.47 2.9l.37 38.87c.04 3.88-5.24 5.12-6.92 1.61l-17.95-37.31c-1.57-3.29-6.27-3.23-7.76.09l-12.44 27.6c-1.58 3.52-6.86 2.46-6.95-1.41l-.37-15.19c-.42-16.9-3.98-33.58-10.5-49.17l-23.97-52.58 60.58-43.62 10.78-7.77 40.71 31.48c14.05 9.39 29.72 16.09 46.23 19.76l14.84 3.29c3.77.84 3.8 6.22.04 7.1l-29.48 6.89c-3.55.82-4.51 5.41-1.59 7.6l33.16 24.8c3.12 2.32.9 7.25-2.91 6.47z" fill="#c365af"/><path d="m494.281 203.21-40.11 10.34c-3.52.9-4.38 5.52-1.42 7.63l24.66 17.57c3.14 2.25 1.08 7.21-2.74 6.55l-14.97-2.59c-11.38-1.96-22.93-2.47-34.39-1.53h-.01c-5.32.43-10.62 1.18-15.88 2.25l-49.08 12.78-2.08-4.82-33.62-77.64 30.83-30.84c11.96-11.97 21.59-26.04 28.39-41.51l6.13-13.91c1.56-3.54 6.83-2.52 6.97 1.35l1.01 30.25c.12 3.63 4.44 5.47 7.14 3.04l30.79-27.7c2.89-2.6 7.3.53 5.78 4.11l-15.11 35.82c-1.53 3.64 2.26 7.24 5.81 5.51l30.73-14.83c3.55-1.72 6.91 2.64 4.35 5.64l-19.48 22.79c-2.53 2.97-.1 7.5 3.78 7.03l29.76-3.63c3.91-.47 5.67 4.73 2.28 6.74l-29.35 17.4c-3.39 2.01-2.49 7.16 1.39 7.89l38.2 7.22c3.82.71 3.99 6.12.24 7.09z" fill="#c365af"/><g fill="#b2529f"><path d="m172.361 173.75-6.23 14.34c-16.27-16.28-34.46-34.47-45.17-45.19-8.71-8.37-15.79-18.19-21.77-28.68l.85-25.38c.14-3.87 5.41-4.89 6.97-1.35l6.13 13.91c6.8 15.47 16.43 29.54 28.39 41.51z"/><path d="m338.051 52.28-9.37 11.97c-10.41 13.32-18.25 28.47-23.14 44.65l-12.08 44.34h-20.55c4.61-16.95 9.08-33.36 12.06-44.34 5.47-19.45 16.59-36.82 29.18-52.52l19.42-9.6c3.47-1.71 6.86 2.46 4.48 5.5z"/><path d="m447.667 158.587c-.962-1.479-1.044-3.523.318-5.12l19.472-22.789c2.562-3-.796-7.358-4.347-5.644l-19.546 9.439c-23.285 26.565-23.807 27.72 4.103 24.114z"/><path d="m279.808 55.343c-.857 3.531 2.796 6.46 6.062 4.848 0 0 7.679-3.795 15.151-7.487l9.211-37.59c.919-3.776-3.929-6.174-6.368-3.154l-19.28 23.89c-2.385 9.737-4.776 19.493-4.776 19.493z"/><path d="m406.008 134.363c-1.531 3.633 2.255 7.236 5.807 5.511 0 0 7.81-3.771 15.615-7.541l14.248-33.791c1.521-3.582-2.888-6.715-5.776-4.113l-21.034 18.922c-4.297 10.191-8.86 21.012-8.86 21.012z"/><path d="m377.402 119.085c.122 3.633 4.439 5.47 7.144 3.041 0 0 6.707-6.033 13.13-11.811l-.717-21.479c-.133-3.868-5.409-4.888-6.97-1.347l-6.123 13.91c-1.971 4.48-4.185 8.838-6.617 13.065.039 1.197.153 4.621.153 4.621z"/><path d="m314.354 455.495c-1.553-3.248-6.151-3.22-7.697-.017.394 3.687.647 7.393.74 11.11l.378 15.196c.092 3.868 5.368 4.929 6.95 1.408l6.266-13.905c-3.094-6.427-6.637-13.792-6.637-13.792z"/><path d="m387.698 446.474c-7.512-4.213-15.613-8.757-15.613-8.757-3.409-1.908-7.378 1.368-6.164 5.072 0 0 1.654 5.033 2.883 8.773l20.878 23.271c2.623 2.929 7.389.184 6.164-3.562z"/><path d="m402.939 419.766c-.86-1.14-1.036-2.442-.737-3.605-24.116-5.425-28.415-6.191-4.34 24.478l20.936 11.743c3.429 1.929 7.052-2.215 4.684-5.358z"/><path d="m346.327 449.433c-2.633-2.939-7.511-1.051-7.47 2.898 0 0 .064 6.734.109 11.574l13.905 28.901c1.684 3.51 6.96 2.276 6.919-1.602l-.256-27.049c-6.436-7.175-13.207-14.722-13.207-14.722z"/><path d="m360.341 256.21-2.08-4.82c11.77-3.06 22.5-5.85 30.59-7.96 11.97-2.66 24.23-3.12 36.45-2.25-5.32.43-10.62 1.18-15.88 2.25z"/><path d="m445.291 420.84-16.2-3.34c.09-1.12-.33-2.29-1.46-3.13l-33.15-24.8c-2.92-2.19-1.96-6.78 1.59-7.6l29.47-6.89c3.77-.88 3.74-6.26-.04-7.1-40.04-5.89-63.34-23.94-91.99-46.76l10.78-7.77 40.71 31.48c14.05 9.39 29.72 16.09 46.23 19.76l14.84 3.29c3.77.84 3.8 6.22.04 7.1l-29.48 6.89c-3.55.82-4.51 5.41-1.59 7.6l33.16 24.8c3.12 2.32.9 7.25-2.91 6.47z"/><path d="m224.071 364.84-23.97 52.58c-6.52 15.59-10.08 32.27-10.5 49.17l-.37 15.19c-.09 3.87-5.37 4.93-6.95 1.41l-12.39-27.49c4.2-33.83 22.91-69.14 38.87-101.92z"/><path d="m494.042 196.115-38.199-7.215c-3.878-.735-4.786-5.878-1.388-7.889l29.351-17.4c3.388-2.01 1.623-7.215-2.286-6.746l-16.851 2.057c.724 1.557.416 3.594-1.429 4.688l-29.351 17.4c-3.398 2.01-2.49 7.154 1.388 7.889l38.199 7.215c3.817.715 3.99 6.123.235 7.093l-40.107 10.338c-3.521.908-4.378 5.521-1.419 7.634l24.656 17.574c1.349.964 1.734 2.426 1.439 3.731.474.077.948.147 1.421.229l14.971 2.582c3.817.663 5.878-4.296 2.735-6.542l-24.656-17.574c-2.96-2.113-2.102-6.725 1.419-7.634l40.107-10.338c3.755-.968 3.582-6.377-.235-7.092z"/></g><path d="m299.921 279.14 44.37 34.31c-15.54 25.71-41.14 44.67-71.36 51.39l-20.49-44.93c-.77-1.69-2.36-2.53-3.94-2.53s-3.17.84-3.94 2.53l-20.49 44.93c-6.16-1.37-12.12-3.25-17.85-5.59-.05-.02-.1-.04-.14-.06-22.42-9.18-41.19-25.45-53.52-46l44.26-34.64c2.83-2.21 1.89-6.71-1.6-7.61l-58.57-14.97v-.3c0-27.12 9.66-51.98 25.72-71.34.1-.13.21-.26.32-.39 3.01-3.6 6.24-7 9.67-10.19l38.97 38.98c.84.84 1.84 1.24 2.81 1.28.59.03 1.18-.06 1.73-.27.03-.01.04-.01.04-.01 1.92-.74 3.33-2.77 2.67-5.2l-15.04-55.29c10.77-4.75 22.44-7.84 34.68-8.94.01 0 .03 0 .04-.01 3.37-.31 6.79-.47 10.24-.47 15.99 0 31.21 3.36 44.96 9.42l-15.04 55.29c-.68 2.51.85 4.6 2.87 5.27 1.41.47 3.08.23 4.38-1.07l38.97-38.98c21.96 20.42 35.71 49.56 35.71 81.92 0 .18 0 .36-.01.54l-58.85 15.31c-3.49.9-4.41 5.41-1.57 7.62z" fill="#ffceec"/><g fill="#ffbee6"><path d="m281.291 213.8c-1.24-.05-24.57-1.1-23.43-5.27l12.269-45.105c1.635-6.012-1.747-12.241-7.674-14.162-7.745-2.51-15.859-4.196-24.235-4.963.01 0 .03 0 .04-.01 3.37-.31 6.79-.47 10.24-.47 15.99 0 31.21 3.36 44.96 9.42l-15.04 55.29c-.68 2.51.85 4.6 2.87 5.27z"/><path d="m214.141 214.01c-3.001.453-10.186.363-15.409.22-3.83-.105-7.478-1.646-10.217-4.325l-26.144-25.575c0-.002 0-.003 0-.005 3.101-3.743 6.438-7.271 9.99-10.575l38.97 38.98c.84.84 1.84 1.24 2.81 1.28z"/><path d="m248.501 317.37v.01c-1.58 0-3.17.84-3.94 2.53l-20.49 44.93c-6.16-1.37-12.12-3.25-17.85-5.59-.05-.02-.1-.04-.14-.06l17.91-39.28c1.55-3.38 24.51-2.54 24.51-2.54z"/><path d="m301.487 271.523 58.854-15.318c.003-.004.006-.007.009-.012.148-32.568-13.628-61.918-35.707-82.448l-10.577 10.58c14.252 17.185 23.465 38.702 25.357 62.288.439 5.47-3.078 10.477-8.388 11.86-16.398 4.271-50.114 13.05-50.114 13.05-3.49.898-4.409 5.409-1.561 7.613l37.414 28.936c4.031 3.117 4.882 8.878 1.899 13.009-12.143 16.822-28.856 30.126-48.318 38.106l2.578 5.653c30.218-6.725 55.823-25.677 71.356-51.394l-44.363-34.31c-2.848-2.204-1.929-6.715 1.561-7.613z"/></g><path d="m231.129 287.731c-1.436 0-2.888-.412-4.17-1.271-3.44-2.307-4.359-6.966-2.053-10.406l11.638-17.356-33.249-9.562c-3.98-1.146-6.279-5.3-5.135-9.281 1.145-3.98 5.299-6.281 9.281-5.135l43.132 12.405c2.303.662 4.15 2.385 4.972 4.636s.519 4.759-.815 6.749l-17.365 25.898c-1.447 2.157-3.819 3.323-6.236 3.323z" fill="#ffbee6"/><path d="m265.872 287.731c-2.417 0-4.789-1.166-6.236-3.324l-17.365-25.898c-1.334-1.99-1.637-4.498-.815-6.749.821-2.251 2.669-3.974 4.972-4.636l43.132-12.405c3.983-1.148 8.136 1.154 9.281 5.135s-1.154 8.136-5.135 9.281l-33.249 9.562 11.638 17.356c2.307 3.44 1.388 8.1-2.053 10.406-1.282.86-2.734 1.272-4.17 1.272z" fill="#ffbee6"/><path d="m248.501 261.832c-4.142 0-7.5-3.357-7.5-7.5v-35.388c0-4.143 3.358-7.5 7.5-7.5s7.5 3.357 7.5 7.5v35.388c0 4.142-3.358 7.5-7.5 7.5z" fill="#ffbee6"/><g><path d="m338.258 414.943c-2.596 0-5.12-1.349-6.507-3.76l-14.883-25.863c-2.066-3.591-.831-8.176 2.76-10.242 3.589-2.065 8.174-.831 10.241 2.76l14.883 25.863c2.066 3.591.831 8.176-2.76 10.242-1.179.678-2.465 1-3.734 1z" fill="#b2529f"/></g><g><path d="m371.02 389.887c-1.637 0-3.285-.533-4.666-1.632l-23.347-18.583c-3.241-2.58-3.777-7.298-1.197-10.539 2.58-3.24 7.297-3.776 10.539-1.197l23.347 18.583c3.241 2.58 3.777 7.298 1.197 10.539-1.481 1.861-3.667 2.829-5.873 2.829z" fill="#b2529f"/></g><g><path d="m158.805 414.943c-1.269 0-2.555-.322-3.734-1.001-3.59-2.065-4.826-6.65-2.76-10.241l14.884-25.863c2.066-3.591 6.651-4.826 10.241-2.759 3.59 2.065 4.826 6.65 2.76 10.241l-14.884 25.863c-1.388 2.411-3.912 3.76-6.507 3.76z" fill="#b2529f"/></g><g><path d="m126.042 389.887c-2.207 0-4.392-.969-5.873-2.829-2.58-3.241-2.043-7.959 1.197-10.539l23.347-18.583c3.241-2.58 7.959-2.044 10.539 1.197s2.043 7.959-1.197 10.539l-23.347 18.583c-1.38 1.099-3.029 1.632-4.666 1.632z" fill="#b2529f"/></g><g><path d="m110.833 215.051c-.553 0-1.114-.062-1.675-.189l-28.301-6.458c-4.039-.922-6.565-4.942-5.644-8.981.921-4.038 4.944-6.563 8.98-5.644l28.301 6.458c4.039.922 6.565 4.942 5.644 8.981-.793 3.477-3.884 5.833-7.305 5.833z" fill="#b2529f"/></g><g><path d="m122.42 186.698c-1.479 0-2.971-.437-4.277-1.345l-21.845-15.198c-3.4-2.365-4.239-7.039-1.874-10.439 2.367-3.399 7.041-4.237 10.44-1.873l21.845 15.198c3.4 2.365 4.239 7.039 1.874 10.439-1.457 2.095-3.791 3.218-6.163 3.218z" fill="#b2529f"/></g><g><path d="m384.62 216.051c-3.324 0-6.361-2.226-7.248-5.591-1.056-4.005 1.336-8.108 5.341-9.163l28.301-7.458c4.004-1.059 8.108 1.335 9.164 5.341 1.056 4.005-1.336 8.108-5.341 9.163l-28.301 7.458c-.64.169-1.283.25-1.916.25z" fill="#b2529f"/></g><g><path d="m372.031 188.697c-2.276 0-4.524-1.031-5.998-2.989-2.491-3.31-1.828-8.012 1.481-10.503l22.845-17.198c3.309-2.49 8.012-1.828 10.502 1.481 2.491 3.31 1.828 8.012-1.481 10.503l-22.845 17.198c-1.35 1.017-2.934 1.508-4.504 1.508z" fill="#b2529f"/></g><g><path d="m233.127 119.985c-3.655 0-6.856-2.675-7.409-6.398l-4.202-28.278c-.609-4.098 2.219-7.912 6.316-8.521 4.095-.603 7.912 2.219 8.521 6.316l4.202 28.278c.609 4.098-2.219 7.912-6.316 8.521-.374.055-.745.082-1.112.082z" fill="#b2529f"/></g><g><path d="m265.788 119.985c-.367 0-.738-.027-1.111-.082-4.097-.609-6.925-4.424-6.316-8.521l4.201-28.278c.608-4.098 4.423-6.921 8.521-6.316 4.097.609 6.925 4.424 6.316 8.521l-4.201 28.278c-.554 3.723-3.755 6.398-7.41 6.398z" fill="#b2529f"/></g></g></svg>