<svg id="Capa_1" enable-background="new 0 0 497 497" height="512" viewBox="0 0 497 497" width="512" xmlns="http://www.w3.org/2000/svg"><g><g><path d="m158.12 274.093-47.31-25.071 19.559-51.411c1.427-3.75 3.512-7.215 6.158-10.232 10.291-11.731 27.293-14.855 41.082-7.548l.26.138c13.789 7.307 20.75 23.131 16.82 38.233-1.01 3.883-2.707 7.555-5.009 10.841z" fill="#c8effe"/><path d="m177.869 179.968-.26-.138c-8.4-4.452-17.991-5.025-26.533-2.146 1.698.574 3.368 1.285 4.992 2.146l.26.138c13.789 7.307 20.75 23.131 16.82 38.233-1.01 3.883-2.707 7.554-5.009 10.841l-25.729 36.727 15.709 8.325 31.56-45.051c2.302-3.286 3.999-6.958 5.009-10.841 3.931-15.103-3.031-30.927-16.819-38.234z" fill="#99e6fc"/><g fill="#c8effe"><path d="m131.299 324.703-47.31-25.071-31.56 45.051c-2.302 3.286-3.999 6.958-5.009 10.841-3.93 15.102 3.032 30.926 16.82 38.233l.26.138c13.789 7.307 30.791 4.183 41.082-7.548 2.646-3.016 4.732-6.482 6.158-10.232z"/><path d="m131.299 324.703-47.31-25.071-31.56 45.051c-2.302 3.286-3.999 6.958-5.009 10.841-3.93 15.102 3.032 30.926 16.82 38.233l.26.138c13.789 7.307 30.791 4.183 41.082-7.548 2.646-3.016 4.732-6.482 6.158-10.232z"/><path d="m131.3 324.7-2.91 7.66-1.62 4.26-15.03 39.49c-1.43 3.75-3.51 7.22-6.16 10.24-7.81 8.9-19.48 12.84-30.68 11.03-3.56-.57-7.07-1.72-10.4-3.49l-.26-.13c-11.21-5.94-17.91-17.51-17.91-29.75 0-2.82.36-5.67 1.09-8.49 1.01-3.88 2.71-7.55 5.01-10.84l10.27-14.67 10.01-14.28.16-.23 11.12-15.87 29.95 15.87 13.22 7.01z"/></g><path d="m127.16 322.51-13.22-7.01-29.95-15.87-11.12 15.87h-.13l-.03.23-10.01 14.28c.024.02.047.04.071.06 4.548 3.877 6.949 9.704 6.212 15.634l-3.033 24.386c-.49 3.98-.27 8.02.65 11.92 1.41 5.93 4.33 11.18 8.3 15.37 11.2 1.81 22.87-2.13 30.68-11.03 2.65-3.02 4.73-6.49 6.16-10.24l15.028-39.489s.001 0 .002-.001l1.62-4.26 2.91-7.66z" fill="#99e6fc"/></g><g><path d="m133.824 323.928 25.071-47.31 51.411 19.559c3.75 1.427 7.215 3.512 10.232 6.158 11.731 10.291 14.855 27.293 7.548 41.082l-.138.26c-7.307 13.789-23.131 20.75-38.233 16.82-3.883-1.01-7.555-2.707-10.841-5.009z" fill="#c8effe"/><path d="m220.539 302.335c-3.016-2.646-6.482-4.732-10.232-6.158l-51.411-19.559-3.614 6.82 33.485 12.739c3.75 1.427 7.215 3.512 10.232 6.158 11.731 10.291 14.855 27.293 7.548 41.082l-.138.26c-4.146 7.823-11.034 13.445-18.976 16.131.753.254 1.512.489 2.283.69 15.102 3.93 30.926-3.032 38.233-16.821l.138-.26c7.307-13.789 4.183-30.791-7.548-41.082z" fill="#99e6fc"/><path d="m108.29 249.8-25.08 47.31-40.2-15.3-11.21-4.26c-3.75-1.43-7.21-3.51-10.23-6.16-11.73-10.29-14.85-27.29-7.55-41.08l.14-.26c5.94-11.21 17.51-17.91 29.75-17.91 2.81 0 5.66.36 8.48 1.09 3.89 1.01 7.56 2.7 10.84 5.01l20.26 14.19z" fill="#c8effe"/><path d="m90.314 283.709 17.976-33.909-5.621-3.937-39.156-27.43c-1.82-1.275-3.734-2.423-5.764-3.327-8.168-3.637-16.889-3.801-24.613-1.188 3.039 1.026 5.924 2.474 8.558 4.319l19.805 13.875c4.068 2.85 4.418 8.769.679 12.039-10.699 9.356-17.849 22.668-19.168 37.66l40.2 15.3.002-.004.002.001z" fill="#99e6fc"/></g><path d="m347.454 118.325-47.31-25.071 19.559-51.411c1.427-3.75 3.512-7.215 6.158-10.232 10.291-11.731 27.293-14.855 41.082-7.548l.26.138c13.789 7.307 20.75 23.131 16.82 38.233-1.01 3.883-2.707 7.555-5.009 10.841z" fill="#c8effe"/><path d="m367.203 24.2-.26-.138c-8.4-4.452-17.991-5.025-26.533-2.146 1.698.574 3.368 1.285 4.992 2.146l.26.138c13.789 7.307 20.75 23.13 16.82 38.233-1.01 3.883-2.707 7.555-5.009 10.841l-25.728 36.726 15.709 8.325 31.561-45.051c2.302-3.286 3.999-6.958 5.009-10.841 3.929-15.103-3.033-30.926-16.821-38.233z" fill="#99e6fc"/><path d="m320.63 168.93-2.91 7.66-1.63 4.27-15.02 39.49c-1.42 3.75-3.51 7.21-6.15 10.23-7.8 8.89-19.47 12.84-30.66 11.04-3.57-.57-7.09-1.72-10.43-3.49l-.26-.14c-11.21-5.94-17.91-17.52-17.91-29.75 0-2.81.36-5.66 1.09-8.48 1.01-3.89 2.71-7.56 5.01-10.85l10.28-14.67 10.01-14.3.15-.21 11.12-15.87 29.95 15.87 13.22 7.01z" fill="#c8effe"/><path d="m320.63 168.93-15.207-8.058-2.153-1.142h-.001l-29.949-15.87-11.116 15.87h-.124l-.03.21-.001.011-10.009 14.289c.024.02.047.04.071.06 4.547 3.877 6.948 9.702 6.211 15.632l-3.032 24.388c-.5 3.98-.28 8.02.65 11.92 1.41 5.94 4.33 11.18 8.32 15.38 11.19 1.8 22.86-2.15 30.66-11.04 2.64-3.02 4.73-6.48 6.15-10.23l15.02-39.49 1.63-4.27-.001-.01z" fill="#99e6fc"/><g><path d="m323.158 168.159 25.071-47.31 51.411 19.559c3.75 1.427 7.215 3.512 10.232 6.158 11.731 10.291 14.855 27.293 7.548 41.082l-.138.26c-7.307 13.789-23.131 20.75-38.233 16.82-3.883-1.01-7.555-2.707-10.841-5.009z" fill="#c8effe"/><path d="m409.873 146.567c-3.016-2.646-6.482-4.732-10.232-6.158l-51.411-19.559-3.614 6.82 33.485 12.739c3.75 1.427 7.215 3.512 10.232 6.158 11.731 10.291 14.855 27.293 7.548 41.082l-.138.26c-4.146 7.823-11.034 13.445-18.976 16.131.753.254 1.512.489 2.283.69 15.102 3.93 30.926-3.032 38.233-16.82l.138-.26c7.307-13.79 4.183-30.793-7.548-41.083z" fill="#99e6fc"/><path d="m297.62 94.03-25.07 47.31-40.2-15.3-11.21-4.26c-3.75-1.43-7.22-3.51-10.24-6.16-11.73-10.29-14.85-27.29-7.54-41.08l.13-.26c5.94-11.21 17.51-17.91 29.75-17.91 2.82 0 5.67.36 8.49 1.09 3.88 1.01 7.55 2.71 10.84 5.01l20.25 14.19z" fill="#c8effe"/><path d="m297.62 94.03-25.07 47.31-40.2-15.3c2.07-23.52 18.5-42.92 40.47-49.38z" fill="#99e6fc"/></g><g><path d="m409.401 344.644-52.523-10.399 3.939-54.865c.287-4.002 1.288-7.921 2.954-11.571 6.48-14.196 21.865-22.08 37.173-19.049l.289.057c15.308 3.031 26.528 16.182 27.11 31.776.15 4.01-.419 8.014-1.678 11.824z" fill="#c8effe"/><path d="m428.343 280.594c-.582-15.594-11.802-28.746-27.11-31.777l-.289-.057c-5.91-1.17-11.83-.707-17.246 1.112 13.224 4.353 22.574 16.523 23.104 30.722.15 4.01-.419 8.014-1.678 11.824l-15.94 48.224 20.218 4.003 17.263-52.227c1.259-3.81 1.827-7.815 1.678-11.824z" fill="#99e6fc"/><path d="m398.277 400.831-52.523-10.399-17.264 52.227c-1.259 3.81-1.828 7.814-1.678 11.824.582 15.594 11.802 28.746 27.11 31.776l.289.057c15.308 3.031 30.693-4.853 37.173-19.049 1.666-3.65 2.667-7.569 2.954-11.571z" fill="#c8effe"/><path d="m345.754 390.432-1.323 4.003 32.305 6.396-3.939 54.865c-.287 4.002-1.288 7.921-2.954 11.571-3.978 8.715-11.314 15.045-19.926 17.937 1.3.428 2.636.783 4.006 1.055l.289.057c15.308 3.031 30.693-4.853 37.173-19.049 1.666-3.65 2.667-7.569 2.954-11.571l3.939-54.865z" fill="#99e6fc"/></g><g><path d="m400.472 399.362 10.399-52.523 54.865 3.939c4.002.287 7.921 1.288 11.571 2.954 14.196 6.48 22.08 21.865 19.049 37.173l-.057.289c-3.031 15.308-16.182 26.528-31.776 27.11-4.01.15-8.014-.419-11.824-1.678z" fill="#c8effe"/><path d="m477.307 353.732c-3.65-1.666-7.569-2.667-11.571-2.954l-54.865-3.939-.302 1.525 33.626 2.414c4.002.287 7.921 1.288 11.571 2.954 14.196 6.48 22.08 21.865 19.049 37.173l-.057.289c-2.388 12.063-11.064 21.583-22.265 25.364l.205.068c3.81 1.259 7.814 1.828 11.824 1.678 15.594-.582 28.746-11.802 31.776-27.11l.057-.289c3.032-15.308-4.852-30.693-19.048-37.173z" fill="#99e6fc"/><path d="m354.68 335.71-10.4 52.53-42.15-3.03-12.71-.91c-4-.29-7.92-1.29-11.57-2.96-14.2-6.48-22.08-21.86-19.05-37.17l.06-.29c1.52-7.66 5.56-14.29 11.18-19.08 5.61-4.79 12.8-7.74 20.59-8.03 4.01-.15 8.02.42 11.83 1.68l17.09 5.65z" fill="#c8effe"/><path d="m354.68 335.71-10.4 52.53-42.15-3.03c-2.96-8.96-3.7-18.78-1.74-28.69 2.61-13.19 9.6-24.41 19.16-32.42z" fill="#99e6fc"/></g><g><path d="m147.826 258.224h-53.542l-6.791-54.585c-.495-3.982-.275-8.02.65-11.924 3.599-15.184 17.16-25.906 32.765-25.906h.294c15.605 0 29.166 10.722 32.765 25.906.926 3.904 1.146 7.943.65 11.924z" fill="#eaf6ff"/><path d="m153.967 191.714c-3.599-15.184-17.16-25.906-32.765-25.906h-.294c-3.691 0-7.266.606-10.623 1.724 10.837 3.605 19.394 12.59 22.142 24.182.926 3.904 1.146 7.943.65 11.925l-6.791 54.585h21.541l6.791-54.585c.495-3.982.274-8.021-.651-11.925z" fill="#c8effe"/><path d="m147.826 315.501h-53.542l-6.791 54.585c-.495 3.982-.275 8.02.65 11.924 3.599 15.184 17.16 25.906 32.765 25.906h.294c15.605 0 29.166-10.722 32.765-25.906.926-3.904 1.146-7.943.65-11.924z" fill="#eaf6ff"/><path d="m154.617 370.087-6.791-54.585h-21.541l6.791 54.585c.495 3.982.275 8.02-.65 11.924-2.748 11.593-11.305 20.577-22.142 24.182 3.358 1.117 6.932 1.724 10.623 1.724h.294c15.605 0 29.166-10.722 32.765-25.906.926-3.904 1.147-7.943.651-11.924z" fill="#c8effe"/></g><g><path d="m149.694 313.634v-53.542l54.585-6.791c3.982-.495 8.02-.275 11.924.65 15.184 3.599 25.906 17.16 25.906 32.765v.294c0 15.605-10.722 29.166-25.906 32.765-3.904.926-7.943 1.146-11.924.65z" fill="#eaf6ff"/><path d="m216.203 253.95c-3.904-.926-7.943-1.146-11.924-.65l-8.196 1.02c14.428 4.086 24.486 17.282 24.486 32.396v.294c0 15.114-10.058 28.31-24.486 32.396l8.196 1.02c3.982.495 8.02.275 11.924-.65 15.184-3.599 25.906-17.16 25.906-32.765v-.294c0-15.607-10.721-29.167-25.906-32.767z" fill="#c8effe"/><path d="m92.42 260.09v53.54l-39.93 4.97-14.66 1.83c-1.37.17-2.75.25-4.13.25-2.62 0-5.24-.3-7.79-.91-15.19-3.59-25.91-17.16-25.91-32.76v-.29c0-7.8 2.68-15.1 7.26-20.89s11.06-10.08 18.65-11.88c3.9-.93 7.94-1.15 11.92-.65l14.65 1.82z" fill="#eaf6ff"/><path d="m92.42 260.09v53.54l-39.93 4.97c-6.13-9.06-9.71-19.99-9.71-31.74s3.58-22.68 9.7-31.74z" fill="#c8effe"/></g><g><path d="m337.16 102.455h-53.542l-6.791-54.585c-.495-3.982-.275-8.02.65-11.924 3.599-15.184 17.16-25.906 32.765-25.906h.294c15.605 0 29.166 10.722 32.765 25.906.926 3.904 1.146 7.943.65 11.924z" fill="#eaf6ff"/><path d="m343.301 35.946c-3.599-15.184-17.16-25.906-32.765-25.906h-.294c-3.691 0-7.265.607-10.623 1.724 10.837 3.605 19.394 12.59 22.142 24.183.926 3.904 1.146 7.943.65 11.924l-6.791 54.585h21.541l6.792-54.585c.494-3.983.273-8.021-.652-11.925z" fill="#c8effe"/><path d="m337.16 159.733h-53.542l-6.791 54.585c-.495 3.982-.275 8.02.65 11.924 3.599 15.184 17.16 25.906 32.765 25.906h.294c15.605 0 29.166-10.722 32.765-25.906.926-3.904 1.146-7.943.65-11.924z" fill="#eaf6ff"/><path d="m343.951 214.318-6.792-54.585h-21.541l6.791 54.585c.495 3.982.275 8.02-.65 11.924-2.748 11.593-11.305 20.577-22.142 24.183 3.358 1.117 6.932 1.724 10.623 1.724h.294c15.605 0 29.166-10.722 32.765-25.906.927-3.905 1.148-7.943.652-11.925z" fill="#c8effe"/></g><g><path d="m339.027 157.865v-53.542l54.585-6.791c3.982-.495 8.02-.275 11.924.65 15.184 3.599 25.906 17.16 25.906 32.765v.294c0 15.605-10.722 29.166-25.906 32.765-3.904.926-7.943 1.146-11.924.65z" fill="#eaf6ff"/><path d="m405.537 98.182c-3.904-.926-7.943-1.146-11.924-.65l-8.196 1.02c14.428 4.086 24.486 17.282 24.486 32.396v.294c0 15.114-10.058 28.31-24.486 32.396l8.196 1.02c3.982.495 8.02.275 11.924-.65 15.184-3.599 25.906-17.16 25.906-32.765v-.294c0-15.607-10.722-29.168-25.906-32.767z" fill="#c8effe"/><path d="m281.75 104.32v53.55l-39.92 4.97-14.67 1.82c-1.38.17-2.76.25-4.14.25-2.62 0-5.23-.3-7.78-.9-15.18-3.6-25.91-17.16-25.91-32.77v-.29c0-7.81 2.68-15.1 7.26-20.89s11.06-10.08 18.65-11.88c3.9-.92 7.94-1.14 11.92-.65l14.66 1.82z" fill="#eaf6ff"/><path d="m281.75 104.32v53.55l-39.92 4.97c-6.13-9.06-9.71-19.98-9.71-31.75 0-11.76 3.58-22.68 9.7-31.74z" fill="#c8effe"/></g><circle cx="121.055" cy="286.863" fill="#ffd15b" r="56.729"/><path d="m121.055 230.133c-3.684 0-7.282.363-10.77 1.034 26.178 5.033 45.959 28.048 45.959 55.695 0 27.646-19.781 50.662-45.959 55.695 3.488.671 7.086 1.034 10.77 1.034 31.331 0 56.729-25.399 56.729-56.729s-25.399-56.729-56.729-56.729z" fill="#ffc344"/><g><path d="m416.417 362.211-41.54-33.782 29.171-46.634c2.128-3.402 4.847-6.396 8.028-8.841 12.373-9.509 29.659-9.272 41.765.574l.228.186c12.107 9.846 15.863 26.72 9.075 40.772-1.745 3.613-4.122 6.885-7.019 9.662z" fill="#eaf6ff"/><path d="m454.071 273.714-.228-.186c-9.165-7.454-21.297-9.396-32.02-5.777 3.729 1.258 7.285 3.179 10.479 5.777l.228.186c12.107 9.846 15.863 26.72 9.075 40.772-1.745 3.613-4.122 6.885-7.019 9.662l-29.822 28.586 11.654 9.477 39.709-38.064c2.897-2.777 5.274-6.049 7.019-9.662 6.787-14.051 3.032-30.925-9.075-40.771z" fill="#c8effe"/><path d="m380.28 406.65-9.87 15.78-19.3 30.85c-2.13 3.4-4.85 6.4-8.03 8.84-12.37 9.51-29.66 9.27-41.77-.57l-.23-.19c-8.07-6.56-12.43-16.25-12.43-26.14 0-4.95 1.1-9.95 3.36-14.63 1.75-3.61 4.12-6.88 7.02-9.66l10.86-10.41 28.85-27.65z" fill="#eaf6ff"/><path d="m380.28 406.65-1.15-.935-40.391-32.849-9.887 9.477.002.002-18.964 18.175c7.051 9.805 18.174 18.206 31.241 21.78 3.331.911 4.805 4.814 2.974 7.741l-14.515 23.204c-.788 1.26-1.639 2.484-2.591 3.625-4.234 5.071-9.524 8.538-15.206 10.456 12.202 4.115 26.276 1.053 35.74-9.296 1.383-1.513 2.592-3.177 3.679-4.915l19.194-30.684c.002 0 .003-.001.005-.001z" fill="#c8effe"/></g><g><path d="m382.905 406.378 33.782-41.54 46.634 29.171c3.402 2.128 6.396 4.847 8.841 8.028 9.509 12.373 9.272 29.659-.574 41.765l-.186.228c-9.846 12.107-26.72 15.863-40.772 9.075-3.613-1.745-6.885-4.122-9.662-7.019z" fill="#eaf6ff"/><path d="m472.162 402.038c-2.445-3.182-5.439-5.9-8.841-8.028l-46.634-29.171-7.263 8.931 32.356 20.24c3.402 2.128 6.396 4.847 8.841 8.028 9.509 12.373 9.271 29.658-.574 41.765l-.186.228c-4.127 5.075-9.491 8.676-15.362 10.654 13.173 4.459 27.946.359 36.903-10.654l.186-.228c9.846-12.107 10.084-29.392.574-41.765z" fill="#c8effe"/><path d="m372.25 328.7-33.78 41.54-35.67-22.31-10.97-6.86c-3.4-2.13-6.39-4.85-8.84-8.03-9.51-12.37-9.27-29.66.58-41.77l.18-.22c6.57-8.07 16.25-12.43 26.14-12.43 4.95 0 9.95 1.09 14.63 3.35 3.62 1.75 6.89 4.12 9.67 7.02l20.91 21.82z" fill="#eaf6ff"/><path d="m372.25 328.699s-37.806-39.44-37.806-39.44c-1.575-1.643-3.271-3.175-5.135-4.48-9.248-6.473-20.425-7.68-30.194-4.388 1.308.443 2.6.967 3.869 1.58 1.874 0 3.667.765 4.963 2.118l21.071 21.982c3.588 3.743 2.819 9.907-1.654 12.529-11.088 6.498-19.937 16.715-24.564 29.331l35.67 22.31z" fill="#c8effe"/></g><circle cx="310.389" cy="131.094" fill="#ffd15b" r="56.729"/><path d="m310.389 74.365c-3.684 0-7.282.364-10.77 1.034 26.178 5.033 45.959 28.049 45.959 55.695s-19.781 50.662-45.959 55.695c3.488.671 7.086 1.034 10.77 1.034 31.331 0 56.729-25.399 56.729-56.729s-25.399-56.729-56.729-56.729z" fill="#ffc344"/><circle cx="377.578" cy="367.538" fill="#ffd15b" r="56.729"/><g fill="#ffc344"><path d="m388.596 311.889c-7.431-1.471-14.806-1.406-21.809-.046.09.017.179.028.269.046 30.734 6.085 50.716 35.933 44.631 66.667-4.614 23.304-22.893 40.413-44.858 44.677 30.639 5.916 60.331-14.033 66.398-44.677 6.085-30.734-13.897-60.582-44.631-66.667z"/><g><circle cx="377.618" cy="349.749" r="7.697"/><circle cx="349.921" cy="367.631" r="7.697"/><circle cx="405.234" cy="367.631" r="7.697"/><circle cx="377.618" cy="385.327" r="7.697"/></g><g><circle cx="310.43" cy="113.305" r="7.697"/><circle cx="282.733" cy="131.186" r="7.697"/><circle cx="338.046" cy="131.186" r="7.697"/><circle cx="310.43" cy="148.883" r="7.697"/></g><g><circle cx="121.095" cy="269.071" r="7.697"/><circle cx="93.399" cy="286.952" r="7.697"/><circle cx="148.711" cy="286.952" r="7.697"/><circle cx="121.095" cy="304.649" r="7.697"/></g></g></g></svg>