<svg id="Capa_1" enable-background="new 0 0 497 497" height="512" viewBox="0 0 497 497" width="512" xmlns="http://www.w3.org/2000/svg"><g><g><circle cx="253.556" cy="261.102" fill="#6fd7a3" r="7.654"/><g><path d="m191.791 326.796c-1.919 0-3.839-.732-5.304-2.196-2.929-2.93-2.929-7.678 0-10.607l35.001-35.002c2.93-2.928 7.678-2.928 10.607 0 2.929 2.93 2.929 7.678 0 10.607l-35.001 35.002c-1.465 1.463-3.385 2.196-5.303 2.196z" fill="#9be69d"/></g><circle cx="70.336" cy="261.102" fill="#6fd7a3" r="7.654"/><g><path d="m132.102 326.796c-1.919 0-3.839-.732-5.304-2.196l-35.002-35.002c-2.929-2.93-2.929-7.678 0-10.607 2.93-2.928 7.678-2.928 10.607 0l35.002 35.002c2.929 2.93 2.929 7.678 0 10.607-1.464 1.463-3.384 2.196-5.303 2.196z" fill="#9be69d"/></g><circle cx="253.556" cy="437.177" fill="#6fd7a3" r="7.654"/><g><path d="m226.792 421.485c-1.919 0-3.839-.732-5.304-2.196l-35.001-35.001c-2.929-2.93-2.929-7.678 0-10.607 2.93-2.928 7.678-2.928 10.607 0l35.001 35.001c2.929 2.93 2.929 7.678 0 10.607-1.465 1.464-3.385 2.196-5.303 2.196z" fill="#9be69d"/></g><circle cx="70.336" cy="437.177" fill="#6fd7a3" r="7.654"/><g><path d="m97.1 421.485c-1.92 0-3.839-.732-5.304-2.196-2.929-2.93-2.929-7.678 0-10.607l35.002-35.001c2.931-2.929 7.679-2.927 10.607 0 2.929 2.93 2.929 7.678 0 10.607l-35.002 35.001c-1.464 1.464-3.384 2.196-5.303 2.196z" fill="#9be69d"/></g><path d="m165.981 201.279h-8.07c-19.241 0-34.367 16.454-32.752 35.627l6.942 82.389 29.844 9.112 29.844-9.112 6.942-82.389c1.617-19.173-13.509-35.627-32.75-35.627z" fill="#eaf6ff"/><path d="m165.981 201.279h-8.07c-2.342 0-4.622.248-6.819.711 15.855 3.34 27.351 18.078 25.932 34.917l-6.942 82.389 7.218 4.424 14.49-4.424 6.942-82.389c1.616-19.174-13.51-35.628-32.751-35.628z" fill="#c8effe"/><path d="m165.981 497h-8.07c-19.241 0-34.367-16.454-32.752-35.627l6.942-82.389 29.844-7.499 29.844 7.499 6.942 82.389c1.617 19.173-13.509 35.627-32.75 35.627z" fill="#eaf6ff"/><path d="m198.732 461.373-6.942-82.389-14.205-3.569-7.503 3.569 6.942 82.389c1.419 16.839-10.078 31.577-25.932 34.917 2.198.463 4.477.711 6.819.711h8.07c19.241-.001 34.367-16.455 32.751-35.628z" fill="#c8effe"/><path d="m309.806 353.174v-8.07c0-19.241-16.454-34.367-35.627-32.752l-82.389 6.942-8.6 29.844 8.6 29.844 82.389 6.942c19.173 1.618 35.627-13.509 35.627-32.75z" fill="#eaf6ff"/><path d="m274.179 312.353-10.792.909c14.103 3.61 24.711 16.396 24.711 31.842v8.07c0 15.447-10.608 28.233-24.711 31.842l10.792.909c19.173 1.616 35.627-13.511 35.627-32.752v-8.07c.001-19.239-16.454-34.365-35.627-32.75z" fill="#c8effe"/><path d="m14.086 353.174v-8.07c0-19.241 16.454-34.367 35.627-32.752l82.389 6.942 8.291 29.844-8.291 29.844-82.389 6.942c-19.173 1.618-35.627-13.509-35.627-32.75z" fill="#eaf6ff"/><path d="m97.793 316.409c7.124.6 12.601 6.558 12.601 13.707v38.047c0 7.149-5.477 13.107-12.601 13.707l34.309-2.89 8.291-29.844-8.291-29.844z" fill="#c8effe"/><path d="m132.102 319.295h59.688v59.688h-59.688z" fill="#6fd7a3"/><path d="m170.082 319.295h21.708v59.688h-21.708z" fill="#3ec3a4"/><circle cx="161.946" cy="349.14" fill="#9be69d" r="7.654"/></g><g><circle cx="426.664" cy="59.823" fill="#6fd7a3" r="7.654"/><g><path d="m364.898 125.517c-1.919 0-3.839-.732-5.304-2.196-2.929-2.93-2.929-7.678 0-10.607l35.001-35.002c2.93-2.928 7.678-2.928 10.607 0 2.929 2.93 2.929 7.678 0 10.607l-35.001 35.002c-1.464 1.463-3.384 2.196-5.303 2.196z" fill="#9be69d"/></g><circle cx="243.444" cy="59.823" fill="#6fd7a3" r="7.654"/><g><path d="m305.21 125.517c-1.919 0-3.839-.732-5.304-2.196l-35.002-35.002c-2.929-2.93-2.929-7.678 0-10.607 2.93-2.928 7.678-2.928 10.607 0l35.002 35.002c2.929 2.93 2.929 7.678 0 10.607-1.464 1.463-3.384 2.196-5.303 2.196z" fill="#9be69d"/></g><circle cx="426.664" cy="235.898" fill="#6fd7a3" r="7.654"/><g><path d="m399.899 220.206c-1.919 0-3.839-.732-5.304-2.196l-35.001-35.001c-2.929-2.93-2.929-7.678 0-10.607 2.93-2.928 7.678-2.928 10.607 0l35.001 35.001c2.929 2.93 2.929 7.678 0 10.607-1.464 1.464-3.384 2.196-5.303 2.196z" fill="#9be69d"/></g><circle cx="243.444" cy="235.898" fill="#6fd7a3" r="7.654"/><g><path d="m270.208 220.206c-1.92 0-3.839-.732-5.304-2.196-2.929-2.93-2.929-7.678 0-10.607l35.002-35.001c2.931-2.929 7.679-2.927 10.607 0 2.929 2.93 2.929 7.678 0 10.607l-35.002 35.001c-1.464 1.464-3.384 2.196-5.303 2.196z" fill="#9be69d"/></g><path d="m339.089 0h-8.07c-19.241 0-34.367 16.454-32.752 35.627l6.942 82.389 29.844 9.112 29.844-9.112 6.942-82.389c1.617-19.173-13.509-35.627-32.75-35.627z" fill="#eaf6ff"/><path d="m339.089 0h-8.07c-2.342 0-4.622.248-6.819.711 15.855 3.34 27.351 18.078 25.932 34.917l-6.942 82.389 7.218 4.424 14.49-4.424 6.942-82.389c1.616-19.174-13.51-35.628-32.751-35.628z" fill="#c8effe"/><path d="m339.089 295.721h-8.07c-19.241 0-34.367-16.454-32.752-35.627l6.942-82.389 29.844-7.499 29.844 7.499 6.942 82.389c1.617 19.173-13.509 35.627-32.75 35.627z" fill="#eaf6ff"/><path d="m371.84 260.094-6.942-82.389-14.205-3.569-7.503 3.569 6.942 82.389c1.419 16.839-10.078 31.577-25.932 34.917 2.198.463 4.477.711 6.819.711h8.07c19.241-.001 34.367-16.455 32.751-35.628z" fill="#c8effe"/><path d="m482.914 151.895v-8.07c0-19.241-16.454-34.367-35.627-32.752l-82.389 6.942-8.6 29.844 8.6 29.844 82.389 6.942c19.173 1.617 35.627-13.509 35.627-32.75z" fill="#eaf6ff"/><path d="m447.287 111.074-10.792.909c14.103 3.61 24.711 16.396 24.711 31.842v8.07c0 15.447-10.608 28.233-24.711 31.842l10.792.909c19.173 1.616 35.627-13.511 35.627-32.752v-8.07c.001-19.239-16.454-34.366-35.627-32.75z" fill="#c8effe"/><path d="m187.193 151.895v-8.07c0-19.241 16.454-34.367 35.627-32.752l82.389 6.942 8.291 29.844-8.291 29.844-82.389 6.942c-19.172 1.617-35.627-13.509-35.627-32.75z" fill="#eaf6ff"/><path d="m270.901 115.134c7.124.6 12.601 6.558 12.601 13.707v38.047c0 7.149-5.477 13.107-12.601 13.707l34.309-2.89 8.291-29.844-8.291-29.844z" fill="#c8effe"/><path d="m305.21 118.016h59.688v59.688h-59.688z" fill="#6fd7a3"/><path d="m343.19 118.016h21.708v59.688h-21.708z" fill="#3ec3a4"/><circle cx="335.054" cy="147.86" fill="#9be69d" r="7.654"/></g><g><g><path d="m393.602 439.575-4.106 4.712c-3.545 4.068-9.867 4.068-13.412 0l-4.106-4.712c-12.375-14.202-19.193-32.402-19.193-51.239 0-15.632 12.672-28.304 28.304-28.304h3.402c15.632 0 28.304 12.672 28.304 28.304 0 18.836-6.818 37.037-19.193 51.239z" fill="#9be69d"/><path d="m384.491 360.031h-3.403c-3.204 0-6.281.54-9.153 1.522 11.138 3.806 19.151 14.355 19.151 26.782 0 18.815-6.803 36.995-19.151 51.189.014.017.028.034.042.05l4.106 4.712c3.545 4.068 9.867 4.068 13.412 0l4.106-4.712c12.375-14.202 19.193-32.402 19.193-51.239.001-15.632-12.671-28.304-28.303-28.304z" fill="#6fd7a3"/><path d="m456.174 402.799.428 6.235c.37 5.384-4.1 9.854-9.484 9.484l-6.235-.428c-18.793-1.291-36.483-9.34-49.803-22.66-11.053-11.053-11.053-28.974 0-40.028l2.406-2.406c11.053-11.053 28.974-11.053 40.028 0 13.319 13.32 21.368 31.011 22.66 49.803z" fill="#9be69d"/><path d="m456.602 409.035-.428-6.235c-1.291-18.793-9.34-36.483-22.66-49.803-8.345-8.345-20.604-10.386-30.868-6.129 3.33 1.381 6.452 3.421 9.16 6.129 13.32 13.32 21.369 31.01 22.66 49.803l.428 6.235c.219 3.187-1.266 6.044-3.624 7.776 3.162.618 6.369 1.056 9.613 1.279l6.235.428c5.384.37 9.854-4.1 9.484-9.483z" fill="#6fd7a3"/></g><g><path d="m105.398 57.425 4.106-4.712c3.545-4.068 9.867-4.068 13.412 0l4.106 4.712c12.375 14.202 19.193 32.402 19.193 51.239 0 15.632-12.672 28.304-28.304 28.304h-3.402c-15.632 0-28.304-12.672-28.304-28.304 0-18.836 6.818-37.037 19.193-51.239z" fill="#9be69d"/><path d="m127.022 57.425-4.106-4.712c-3.545-4.068-9.867-4.068-13.412 0l-4.106 4.712c-.014.016-.028.034-.042.05 12.348 14.194 19.151 32.374 19.151 51.189 0 12.427-8.013 22.976-19.151 26.782 2.872.981 5.948 1.522 9.153 1.522h3.402c15.632 0 28.304-12.672 28.304-28.304 0-18.836-6.817-37.037-19.193-51.239z" fill="#6fd7a3"/><path d="m42.826 94.201-.428-6.235c-.37-5.384 4.1-9.854 9.484-9.484l6.235.428c18.793 1.291 36.483 9.34 49.803 22.66 11.053 11.053 11.053 28.974 0 40.028l-2.406 2.406c-11.053 11.053-28.974 11.053-40.028 0-13.319-13.32-21.368-31.011-22.66-49.803z" fill="#9be69d"/><path d="m107.92 101.57c-13.32-13.32-31.01-21.369-49.803-22.66l-6.235-.428c-2.197-.151-4.234.513-5.86 1.708 15.153 2.962 29.169 10.361 40.19 21.381 11.053 11.053 11.053 28.974 0 40.028l-2.406 2.406c-2.708 2.708-5.829 4.748-9.16 6.129 10.264 4.256 22.522 2.216 30.868-6.129l2.406-2.406c11.054-11.054 11.054-28.975 0-40.029z" fill="#6fd7a3"/></g></g></g></svg>