<svg id="Capa_1" enable-background="new 0 0 497 497" height="512" viewBox="0 0 497 497" width="512" xmlns="http://www.w3.org/2000/svg"><g><g><path d="m355.619 150.351v-43.376l87.996 12.033c11.234 1.536 11.234 17.775 0 19.311z" fill="#ffceec"/><path d="m443.615 119.007-87.996-12.032v2.446l70.111 9.587c11.234 1.536 11.234 17.775 0 19.311l-70.111 9.587v2.446l87.996-12.033c11.233-1.537 11.233-17.776 0-19.312z" fill="#ffbee6"/><path d="m301.992 96.421h43.376l-12.033-87.996c-1.536-11.234-17.775-11.234-19.311 0z" fill="#ffceec"/><path d="m333.335 8.425c-1.536-11.234-17.775-11.234-19.311 0l-1.053 7.698c2.244 1.361 3.969 3.684 4.421 6.985l10.091 73.312h17.885z" fill="#ffbee6"/></g><g><path d="m345.091 160.873h-43.376l12.033 87.996c1.536 11.234 17.775 11.234 19.311 0z" fill="#ffceec"/><path d="m327.206 160.873-9.682 72.324c-.485 3.545-2.435 5.969-4.924 7.276l1.148 8.395c1.536 11.234 17.775 11.234 19.311 0l12.033-87.996h-17.886z" fill="#ffbee6"/><path d="m291.159 107.25v43.37l-22.74-3.11-65.25-8.92c-11.24-1.54-11.24-17.78 0-19.31l65.55-8.96z" fill="#ffceec"/><path d="m291.159 107.25v43.37l-22.74-3.11c-4.23-2.65-6.59-7.29-6.59-12.02 0-3.39 1.21-6.83 3.82-9.62 2.47-2.66 3.8-6.12 3.8-9.67 0-1.06-.12-2.13-.36-3.19-.21-.91-.33-1.81-.37-2.69z" fill="#ffbee6"/></g><path d="m272.903 380.502c-5.71-6.751-15.811-7.594-22.561-1.885l-45.855 38.786v-52.655c0-19.679 4.923-39.243 14.236-56.579l44.501-82.831-28.204-15.152-44.501 82.831c-6.502 12.103-11.306 25.064-14.319 38.433l-61.797-96.962-27.008 17.194 81.011 127.109c2.654 4.164 4.064 9 4.064 13.938v97.247c0 3.877 3.143 7.02 7.019 7.02h17.977c3.877 0 7.02-3.143 7.02-7.02v-22.415c0-5.218 2.298-10.171 6.282-13.541l60.25-50.96c6.751-5.707 7.595-15.808 1.885-22.558z" fill="#ffceec"/><g><path d="m245.339 225.339-44.501 82.831c-9.314 17.336-14.236 36.9-14.236 56.579l-.061 61.791c-.002 1.656 1.879 2.612 3.216 1.634l14.73-10.771v-52.655c0-19.679 4.923-39.243 14.236-56.579l44.501-82.831-28.204-15.152-4.006 7.456z" fill="#ffbee6"/><path d="m273.137 380.785c-5.293-6.55-14.622-7.802-21.406-3.214 2.328 1.569 4.343 3.756 5.653 6.734 2.919 6.636.872 14.425-4.663 19.107l-59.837 50.611c-3.984 3.37-6.282 8.323-6.282 13.541v20.159c0 4.344-2.916 8.148-7.112 9.275h17.977c3.877 0 7.02-3.143 7.02-7.02v-22.415c0-5.218 2.298-10.171 6.282-13.541l59.903-50.667c6.7-5.666 7.981-15.745 2.465-22.57z" fill="#ffbee6"/><path d="m176.2 331.451c.104-.265.177-.596.234-.961-.075.322-.162.64-.234.961z" fill="#ffceec"/><path d="m172.308 348.525c.992-5.803 1.657-11.409 3.891-17.073l-61.797-96.962-12.776 8.134 66.974 106.633c.987 1.569 3.396 1.095 3.708-.732z" fill="#ffbee6"/></g><g><path d="m355.604 130.088-33.667-33.667 47.937-58.752c12.249-15.013 29.369-25.261 48.387-28.966l12.818-2.497c8.751-1.705 16.446 5.99 14.741 14.741l-2.497 12.818c-3.705 19.018-13.953 36.138-28.966 48.387z" fill="#8ac9fe"/><path d="m431.078 6.205-8.779 1.71c4.151 2.634 6.688 7.627 5.635 13.031l-2.497 12.818c-3.705 19.018-13.953 36.138-28.966 48.387l-48.903 39.901 8.036 8.036 58.752-47.937c15.013-12.249 25.261-29.369 28.966-48.387l2.497-12.818c1.705-8.751-5.99-16.446-14.741-14.741z" fill="#60b7ff"/><path d="m324.826 160.866-33.667-33.667-58.752 47.937c-15.013 12.249-25.261 29.369-28.966 48.387l-2.497 12.818c-1.705 8.751 5.99 16.446 14.741 14.741l12.818-2.497c19.018-3.705 36.138-13.953 48.387-28.966z" fill="#8ac9fe"/><path d="m291.159 127.198-9.849 8.036 25.632 25.631-47.937 58.752c-12.249 15.013-29.369 25.261-48.387 28.966l-4.039.787c2.571 1.632 5.759 2.362 9.106 1.71l12.818-2.497c19.018-3.705 36.138-13.953 48.387-28.966l47.937-58.752z" fill="#60b7ff"/></g><g><path d="m321.937 160.866 33.667-33.667 58.752 47.937c15.013 12.249 25.261 29.369 28.966 48.387l2.497 12.818c1.705 8.751-5.99 16.446-14.741 14.741l-12.818-2.497c-19.018-3.705-36.138-13.953-48.387-28.966z" fill="#8ac9fe"/><path d="m445.82 236.34-2.497-12.818c-3.705-19.018-13.953-36.138-28.966-48.387l-58.752-47.937-8.036 8.036 48.903 39.901c15.013 12.249 25.261 29.369 28.966 48.387l2.497 12.818c1.053 5.404-1.484 10.397-5.635 13.031l8.779 1.71c8.75 1.705 16.445-5.99 14.741-14.741z" fill="#60b7ff"/><path d="m291.159 130.088 33.667-33.667-47.936-58.753c-12.249-15.013-29.369-25.261-48.387-28.966l-12.818-2.497c-8.751-1.705-16.446 5.99-14.741 14.741l2.497 12.818c3.705 19.018 13.953 36.138 28.966 48.387z" fill="#8ac9fe"/><path d="m276.89 37.668c-12.249-15.013-29.369-25.261-48.387-28.966l-12.818-2.497c-3.347-.652-6.535.079-9.106 1.71l4.039.787c19.018 3.705 36.138 13.953 48.387 28.966l47.937 58.752-25.632 25.631 9.849 8.036 33.667-33.667z" fill="#60b7ff"/></g><g><path d="m324.903 497h-17.977c-3.877 0-7.019-3.143-7.019-7.02v-20.193c0-15.517 5.748-30.388 16.185-41.874l30.155-32.631 23.693 21.534-30.155 32.63c-5.07 5.579-7.862 12.802-7.862 20.341v20.193c0 3.877-3.143 7.02-7.02 7.02z" fill="#ffceec"/></g><path d="m346.246 395.282-8.164 8.835 7.522 6.837c3.554 3.23 3.794 8.737.535 12.264l-24.239 26.228c-5.07 5.579-7.862 12.802-7.862 20.341v19.668c0 3.561-2.417 6.667-5.868 7.543l16.732.002c3.877 0 7.02-3.142 7.02-7.02v-20.193c0-7.538 2.793-14.762 7.862-20.341l30.155-32.63z" fill="#ffbee6"/><path d="m353.229 108.206c10.017 3.059 13.365 15.555 6.22 23.213-3.215 3.445-4.506 8.264-3.444 12.855 2.359 10.204-6.789 19.352-16.993 16.993-4.591-1.061-9.409.23-12.855 3.444-7.658 7.145-20.153 3.797-23.213-6.22-1.376-4.507-4.904-8.034-9.41-9.41-10.017-3.059-13.365-15.555-6.22-23.213 3.215-3.445 4.506-8.264 3.444-12.855-2.359-10.204 6.789-19.352 16.993-16.993 4.591 1.061 9.409-.23 12.855-3.444 7.658-7.145 20.153-3.797 23.213 6.22 1.376 4.506 4.903 8.034 9.41 9.41z" fill="#c365af"/><path d="m353.229 108.206c-4.507-1.376-8.034-4.904-9.41-9.41-3.059-10.017-15.555-13.365-23.213-6.22-.412.384-.846.738-1.295 1.066 1.244 1.435 2.231 3.16 2.84 5.154 1.377 4.507 4.904 8.034 9.41 9.41 10.017 3.06 13.365 15.555 6.22 23.213-3.215 3.445-4.506 8.264-3.444 12.855 2.359 10.204-6.789 19.352-16.993 16.993-4.042-.934-8.258-.042-11.56 2.378 5.006 5.775 14.239 6.789 20.372 1.066 3.445-3.215 8.264-4.506 12.855-3.444 10.204 2.359 19.352-6.789 16.993-16.993-1.061-4.591.23-9.409 3.444-12.855 7.146-7.658 3.797-20.153-6.219-23.213z" fill="#b2529f"/><g><path d="m119.019 255.81-14.99 9.46c-6.85 4.33-15.18 4.43-21.91.99-3.43-1.74-6.45-4.41-8.65-7.9l-8.3-13.15-10.86-17.2c-8.7-13.79-11.48-30.51-7.7-46.37l1.97-8.3c1.2-5.05 6.21-8.22 11.29-7.13l8.35 1.78c13.49 2.89 25.52 10.28 34.17 20.83 1.57 1.92 3.04 3.95 4.38 6.08l4.54 7.19 14.62 23.16c6.53 10.34 3.44 24.03-6.91 30.56z" fill="#c365af"/></g><path d="m125.931 225.246-19.159-30.349c-8.705-13.789-22.605-23.491-38.553-26.902l-8.35-1.788c-3.029-.648-6.03.226-8.218 2.104 15.392 3.654 28.772 13.179 37.236 26.586l19.159 30.349c6.532 10.347 3.439 24.03-6.907 30.562l-14.989 9.463c-.944.596-1.923 1.085-2.915 1.522 6.523 2.882 14.316 2.571 20.8-1.522l14.989-9.463c10.346-6.533 13.439-20.216 6.907-30.562z" fill="#b2529f"/><g><path d="m413.839 386.84-12.96 15.66-9.92 11.99c-2.43 2.94-5.45 5.09-8.75 6.42-7.3 2.95-15.95 1.9-22.45-3.47l-13.65-11.31c-9.43-7.8-10.75-21.76-2.95-31.19l18.2-21.99 4.69-5.66c1.6-1.93 3.31-3.76 5.12-5.47 9.93-9.35 22.8-15.15 36.55-16.28l8.51-.71c5.18-.42 9.75 3.36 10.29 8.52l.9 8.49c1.71 16.21-3.18 32.44-13.58 45z" fill="#c365af"/></g><path d="m427.415 341.836-.894-8.484c-.544-5.163-5.113-8.945-10.287-8.517l-8.51.705c-1.323.109-2.634.278-3.939.472 2.622 1.464 4.512 4.135 4.85 7.34l.894 8.484c1.719 16.218-3.178 32.446-13.575 45.008l-22.883 27.649c-2.272 2.745-5.076 4.781-8.129 6.126 8.844 3.911 19.545 1.691 26.014-6.126l22.883-27.649c10.398-12.563 15.295-28.791 13.576-45.008z" fill="#b2529f"/><g><path d="m106.769 194.9c-1.34-2.13-2.81-4.16-4.38-6.08-.03.02-.06.04-.09.06-1.6 1.18-34.12 25.71-37.13 56.33l8.3 13.15c2.2 3.49 5.22 6.16 8.65 7.9l-1.64-10.93c-3.92-20 14.47-39.94 24.55-49.15l6.28-4.09z" fill="#b2529f"/></g><g><path d="m371.249 341.89c-.03-.02-.05-.05-.08-.07-1.81 1.71-3.52 3.54-5.12 5.47l-4.69 5.66 4.97 5.76c8.82 10.42 24.51 32.55 18.06 51.88-.3 3.35-1.11 6.88-2.18 10.32 3.3-1.33 6.32-3.48 8.75-6.42l9.92-11.99c.91-30.75-28.2-59.23-29.63-60.61z" fill="#b2529f"/></g><circle cx="323.826" cy="127.199" fill="#b2529f" r="7.654"/></g></svg>