<svg id="Capa_1" enable-background="new 0 0 496.999 496.999" height="512" viewBox="0 0 496.999 496.999" width="512" xmlns="http://www.w3.org/2000/svg"><g><path d="m255.679 269.528-30.78 124.84-14.72 16.09-31.96 34.92c-9.09 11.74-22.47 17.57-35.82 17.57-13.96 0-27.89-6.37-36.9-19-5.34-7.48-12.82-13.16-21.46-16.29l-22.65-8.21c-14.68-5.32-25.6-17.83-28.87-33.1l-5.06-23.55c-.96-4.49-2.6-8.78-4.82-12.74-2.24-3.96-5.06-7.58-8.4-10.73-22.1-20.83-17.86-57.07 8.45-72.24l58.09-38.99 16.67-11.19 87.13-2.13 22.85-.56 24.12 27.65 6.68 7.66z" fill="#ffd15b"/><path d="m184.963 213.986-.388.793-87.125 2.13-16.67 11.19c1.07 1.84 2.4 3.58 3.99 5.17l7.473 7.467c2.844 2.841 3.18 7.335.792 10.569l-14.486 19.612c-9.44 12.78-3.746 31.05 11.282 36.205l18.212 6.247c8.679 2.977 14.833 10.731 15.761 19.859l1.935 19.026c1.705 16.762 19.97 26.342 34.729 18.215l30.769-16.944 7.94-81.884z" fill="#ffc344"/><path d="m226.181 389.166 29.498-119.64-17.45-20-6.678-7.656s-24.124-27.655-24.124-27.655l-19.676.481 23.705 27.174s13.324 15.274 13.324 15.274l-2.67 1.512-22.93 12.98-7.94 81.89 8.426 25.365c3.173 9.552.928 20.073-5.867 27.498l-35.679 38.986c-6.796 8.773-15.984 14.229-25.765 16.434 16.371 3.682 34.47-1.729 45.861-16.434 0 0 31.963-34.925 31.963-34.925.001.002.001.003.002.005l14.72-16.09v-.002z" fill="#ffc344"/><path d="m186.249 176.326-10.43 24.19-.12.27-10.31 23.93-78.39 10.78-21.7 2.99-37.79-9.43c-15.68-3.39-25.69-17.2-25.69-31.85 0-5.27 1.29-10.65 4.08-15.69 3.19-5.77 4.55-12.38 3.9-18.94l-1.71-17.21c-1.11-11.16 3.61-22.1 12.49-28.96l13.68-10.57c2.61-2.02 4.88-4.4 6.75-7.07s3.35-5.63 4.35-8.77c6.64-20.76 31.42-29.25 49.4-16.91l32.73 21.62 23.1 15.27z" fill="#fea95c"/><path d="m186.25 176.327-35.66-66.354s-11-7.268-11-7.268l-12.101-8 .001.004-32.732-21.626c-8.819-6.053-19.275-7.083-28.425-4.119 2.871.941 5.676 2.297 8.33 4.119 0 0 47.321 31.266 47.321 31.266 5.445 3.598 9.22 9.228 10.48 15.631l5.246 26.656h-17.25c-14.15 0-25.54 11.64-25.23 25.79l.08 3.83c0 .18.01.35.01.53 0 7.44-3.29 14.51-8.98 19.31-9.663 8.144-11.606 21.845-5.455 32.188 1.381 2.322-.043 5.297-2.719 5.665l-20.008 2.753 7.142 1.782 46.352-6.378 53.737-7.39 5.406-12.547 5.023-11.65s10.432-24.192 10.432-24.192z" fill="#fe9738"/><path d="m490.014 207.84 4.484-23.665c2.908-15.348-2.293-31.111-13.764-41.714l-17.687-16.35c-6.747-6.237-11.439-14.377-13.453-23.342-6.658-29.629-40.003-44.453-66.461-29.546l-70.896 36.654-68.745 95.346 11.499 34.85 11.499 34.85 99.45 36.97 91.326-13.992c30.134-3.765 48.109-35.522 35.828-63.296-3.717-8.404-4.791-17.738-3.08-26.765z" fill="#ffd15b"/><path d="m493.093 234.604c-3.716-8.403-4.79-17.737-3.079-26.765l4.484-23.665c2.908-15.348-2.293-31.111-13.764-41.714l-17.687-16.35c-6.747-6.237-11.439-14.377-13.453-23.342-5.669-25.224-30.678-39.704-54.314-34.257 16.241 3.708 30.169 16.235 34.219 34.257 2.015 8.964 6.706 17.105 13.453 23.342l17.687 16.35c11.471 10.603 16.672 26.367 13.764 41.714l-4.484 23.665c-1.711 9.027-.637 18.361 3.079 26.765 12.282 27.774-5.694 59.531-35.828 63.296l-77.095 11.812 5.865 2.18 91.326-13.992c30.133-3.765 48.109-35.522 35.827-63.296z" fill="#ffc344"/><path d="m262.297 46.507-15.125-8.38c-9.809-5.435-21.726-5.435-31.535 0l-15.125 8.38c-5.77 3.197-12.375 4.564-18.939 3.921-21.697-2.126-39.304 17.273-35.093 38.664l11.33 57.547 47.249 67.346h26.346 26.346l47.249-67.346 11.33-57.547c4.212-21.391-13.396-40.789-35.093-38.664-6.566.644-13.171-.724-18.94-3.921z" fill="#ffd15b"/><path d="m281.236 50.429c-6.565.643-13.17-.724-18.94-3.921l-15.125-8.38c-7.968-4.415-17.325-5.243-25.815-2.486 1.962.637 3.878 1.466 5.72 2.486l15.125 8.38c5.77 3.197 12.375 4.564 18.939 3.921 21.697-2.126 39.304 17.273 35.093 38.664l-9.107 46.257c-1.466 7.444-4.474 14.499-8.832 20.71l-40.64 57.926h20.095l47.249-67.346 11.33-57.547c4.213-21.391-13.394-40.79-35.092-38.664z" fill="#ffc344"/><path d="m345.73 210.362c-3.127 0-6.045-1.972-7.104-5.098-1.328-3.924.777-8.181 4.701-9.509l68.034-23.021c3.922-1.327 8.181.777 9.508 4.7 1.328 3.924-.777 8.181-4.701 9.509l-68.034 23.021c-.796.27-1.607.398-2.404.398z" fill="#ffc344"/><path d="m297.822 419.623 17.291-.158c11.214-.103 21.584-5.973 27.443-15.535l9.034-14.744c3.446-5.624 8.52-10.068 14.55-12.743 19.929-8.839 25.695-34.395 11.492-50.935l-38.21-44.498-74.295-35.33-22.927 12.979-22.927 12.979-7.94 81.884 18.49 55.661c6.873 20.69 31.752 28.897 49.586 16.358 5.396-3.793 11.818-5.857 18.413-5.918z" fill="#ffd15b"/><path d="m377.632 325.508-38.21-44.498-74.295-35.33-9.174 5.193 56.307 26.776c4.66 2.216 8.804 5.383 12.166 9.298l33.112 38.561c14.203 16.54 8.437 42.095-11.492 50.935-6.03 2.674-11.104 7.118-14.55 12.743l-9.034 14.744c-5.859 9.562-16.229 15.433-27.443 15.535l-17.291.158c-6.596.06-13.018 2.124-18.414 5.918-2.74 1.926-5.647 3.358-8.628 4.335 9.266 2.998 19.863 1.894 28.724-4.335 5.396-3.794 11.818-5.858 18.413-5.918l17.291-.158c11.214-.103 21.584-5.973 27.443-15.535l9.034-14.744c3.446-5.624 8.52-10.068 14.55-12.743 19.928-8.84 25.694-34.395 11.491-50.935z" fill="#ffc344"/><path d="m257.75 213.986 7.377 31.695 74.295 35.33 25.634-26.166c7.086-7.233 7.341-18.725.583-26.266l-15.526-17.323c-4.153-4.634-5.805-10.992-4.432-17.061l4.524-19.994c2.468-10.91-4.869-21.613-15.934-23.245l-29.271-4.317z" fill="#fea95c"/><path d="m88.145 370.589c-2.299 0-4.568-1.053-6.039-3.044-2.46-3.332-1.754-8.028 1.578-10.489l52.846-39.03c3.331-2.461 8.027-1.755 10.488 1.577s1.755 8.028-1.577 10.489l-52.846 39.03c-1.34.991-2.902 1.467-4.45 1.467z" fill="#ffc344"/><path d="m365.638 228.579-15.526-17.323c-4.153-4.634-5.805-10.992-4.432-17.062l4.524-19.994c2.468-10.91-4.869-21.613-15.934-23.245l-29.271-4.317-1.884 2.686 11.06 1.631c11.066 1.632 18.403 12.335 15.934 23.245l-4.524 19.994c-1.373 6.069.278 12.428 4.432 17.062l15.526 17.323c6.758 7.541 6.504 19.032-.583 26.266l-19.247 19.647 13.709 6.519 25.633-26.166c7.087-7.234 7.342-18.726.583-26.266z" fill="#fe9738"/><path d="m219.269 271.636-2.17 22.42-5.77 59.47-30.77 16.94c-14.75 8.13-33.02-1.45-34.72-18.21l-1.94-19.03c-.93-9.13-7.08-16.88-15.76-19.86l-18.21-6.25c-15.03-5.15-20.73-23.42-11.29-36.2l18.64-25.24h72.25l15.53-31.69z" fill="#fea95c"/><g fill="#fe9738"><path d="m219.269 271.636-2.17 22.42-5.01-3.67c-5.11-3.74-12.06-3.74-17.17 0l-9.06 6.64c-10.2 7.46-24.4-.74-23.04-13.3l1.22-11.17c.68-6.3-2.79-12.31-8.59-14.87l-10.28-4.53c-3.64-1.61-6.14-4.34-7.48-7.48h51.84l15.53-31.69z"/><path d="m205.058 213.986-13.368 27.287 7.487 30.366-6.835 70.483c-.692 7.135-4.86 13.469-11.139 16.926l-20.736 11.419c-.425.234-.854.45-1.285.655 6.467 3.061 14.322 3.231 21.38-.655l30.769-16.944 7.94-81.884z"/><path d="m113.989 192.628c-1.079 0-2.175-.234-3.214-.729l-44.725-21.257c-3.741-1.777-5.332-6.252-3.554-9.993 1.779-3.74 6.253-5.331 9.994-3.554l44.724 21.258c3.741 1.777 5.332 6.252 3.554 9.993-1.284 2.701-3.975 4.282-6.779 4.282z"/></g><path d="m231.404 199.626c-4.142 0-7.5-3.357-7.5-7.5v-26.258c0-4.143 3.358-7.5 7.5-7.5s7.5 3.357 7.5 7.5v26.258c0 4.143-3.358 7.5-7.5 7.5z" fill="#ffc344"/><path d="m231.404 137.973c-4.142 0-7.5-3.357-7.5-7.5v-29.85c0-4.143 3.358-7.5 7.5-7.5s7.5 3.357 7.5 7.5v29.85c0 4.143-3.358 7.5-7.5 7.5z" fill="#ffc344"/><path d="m205.059 213.986-15.53 31.69h-72.25l-12.42-12.41c-10.47-10.46-9.74-27.63 1.57-37.17 5.7-4.79 8.98-11.85 8.98-19.28 0-.19-.01-.37-.01-.56l-.08-3.83c-.3-14.15 11.09-25.79 25.24-25.79h17.25l23.75 33.86z" fill="#ffead9"/><path d="m290.917 355.084c-2.716 0-5.336-1.479-6.669-4.059l-28.84-55.8c-1.902-3.68-.461-8.204 3.219-10.106 3.682-1.899 8.205-.46 10.106 3.22l28.84 55.8c1.902 3.68.461 8.204-3.219 10.106-1.101.568-2.278.839-3.437.839z" fill="#ffc344"/><path d="m205.059 213.986-3.342-4.762-43.908-62.585h-17.25c-.926 0-1.84.052-2.74.15l22.914 32.66c2.428 3.46 3.159 7.768 2.297 11.906-.303 1.454-.388 3.006-.211 4.631l1.22 11.17c.68 6.29-2.79 12.31-8.59 14.87l-10.28 4.53c-7.92 3.49-10.41 12.29-7.48 19.12h31.749l-.002.004h20.095l12.954-26.442z" fill="#fedba6"/><path d="m239.989 189.32 9.067-6.637c10.195-7.463 24.4.738 23.034 13.299l-1.215 11.17c-.685 6.298 2.789 12.314 8.585 14.87l10.281 4.533c11.561 5.097 11.561 21.5 0 26.598l-10.281 4.533c-5.797 2.556-9.27 8.572-8.585 14.87l1.215 11.17c1.366 12.56-12.84 20.762-23.034 13.299l-9.067-6.637c-5.112-3.742-12.059-3.742-17.17 0l-9.067 6.637c-10.195 7.463-24.4-.738-23.034-13.299l1.215-11.17c.685-6.298-2.789-12.314-8.585-14.87l-10.281-4.533c-11.561-5.097-11.561-21.5 0-26.598l10.281-4.533c5.797-2.556 9.27-8.572 8.585-14.87l-1.215-11.17c-1.366-12.56 12.84-20.762 23.034-13.299l9.067 6.637c5.112 3.742 12.058 3.742 17.17 0z" fill="#fe646f"/><g><path d="m289.742 226.555-10.281-4.533c-5.797-2.556-9.27-8.572-8.585-14.87l1.215-11.17c1.366-12.56-12.84-20.762-23.034-13.299l-6.513 4.768c1.338 2.441 1.997 5.344 1.65 8.531l-1.215 11.17c-.685 6.298 2.789 12.314 8.585 14.87l10.281 4.533c11.561 5.097 11.561 21.5 0 26.598l-10.281 4.533c-5.797 2.556-9.27 8.572-8.585 14.87l1.215 11.17c.346 3.186-.312 6.09-1.65 8.531l6.513 4.768c10.195 7.463 24.4-.738 23.034-13.299l-1.215-11.17c-.685-6.298 2.789-12.314 8.585-14.87l10.281-4.533c11.56-5.098 11.56-21.501 0-26.598z" fill="#fd4755"/></g><circle cx="231.404" cy="237.406" fill="#fd4755" r="7.654"/></g></svg>