<svg id="Capa_1" enable-background="new 0 0 497 497" height="512" viewBox="0 0 497 497" width="512" xmlns="http://www.w3.org/2000/svg"><g><path d="m443.32 186.05-28.91 12.15c-13.77 5.79-15.73 24.49-3.47 33.01l-19.19 2.93-143.25 21.9-162.44-24.83c12.26-8.52 10.3-27.22-3.47-33.01l-28.91-12.15c-8.6-3.61-7.28-16.2 1.88-17.95l30.82-5.88c14.67-2.8 20.47-20.68 10.25-31.56l-21.47-22.86c-6.39-6.81-.06-17.77 9.03-15.64l30.53 7.17c14.54 3.4 27.12-10.56 22.21-24.67l-10.32-29.61c-3.06-8.82 7.17-16.26 14.61-10.61l24.98 18.95c11.89 9.03 29.06 1.39 30.32-13.49l2.13-25.42.49-5.84c.78-9.29 13.16-11.93 17.65-3.74l15.12 27.48c.2.37.41.72.64 1.07l.21.33c.14.22.29.43.45.64.49.68 1.01 1.31 1.57 1.9.16.19.34.37.52.54.12.11.23.22.34.32.37.36.75.68 1.14.98l.01.01c8.71 6.87 22.41 4.93 28.3-5.79l9.85-17.9 5.27-9.58c4.49-8.19 16.87-5.55 17.65 3.74l2.62 31.26c.06.65.14 1.29.26 1.92.04.25.09.5.15.74.15.69.35 1.36.57 2.01.08.23.16.46.25.69.03.08.06.15.09.22.08.21.17.42.26.62.1.21.19.42.3.62.1.22.22.44.34.66.04.09.09.17.13.24.13.24.28.49.43.72.14.23.29.46.44.68.92 1.35 2.01 2.55 3.22 3.59.23.2.47.4.72.59 6.38 4.98 15.79 5.79 23.16.19l16.66-12.64 8.32-6.31c7.44-5.65 17.67 1.79 14.61 10.61l-10.32 29.61c-.83 2.38-1.16 4.75-1.06 7.03 0 .13.01.25.01.37.02.21.03.42.06.62 0 .11.01.21.03.32.02.26.06.52.1.78v.02c.03.19.06.38.1.57.05.3.12.6.19.89.04.17.08.35.13.52.12.42.25.83.39 1.24.12.39.27.77.43 1.14.08.18.16.37.25.55.07.19.16.37.26.55.17.36.36.71.57 1.06.09.17.2.35.31.52.21.34.43.68.67 1 .22.33.47.65.73.96.13.15.25.3.39.46.11.15.25.3.4.45.26.3.54.59.84.86 1.01.98 2.12 1.84 3.32 2.56 3.98 2.42 8.91 3.41 14.09 2.2l16.62-3.9 13.91-3.27c9.09-2.13 15.42 8.83 9.03 15.64l-21.47 22.86c-10.22 10.88-4.42 28.76 10.25 31.56l30.82 5.88c9.16 1.75 10.48 14.34 1.88 17.95z" fill="#ffceec"/><g fill="#ffbee6"><path d="m208.497 32.377c5.898 10.727 19.59 12.652 28.296 5.789-1.912-1.508-3.588-3.432-4.883-5.789l-15.117-27.479c-4.498-8.185-16.87-5.55-17.652 3.747l-.49 5.835z"/><path d="m346.976 45.05-10.318 29.613c-4.909 14.105 7.674 28.07 22.21 24.664l9.346-2.192c-7.202-4.363-11.305-13.385-8.143-22.472l10.318-29.613c3.066-8.816-7.173-16.259-14.606-10.609l-8.323 6.314c.164 1.355.034 2.804-.484 4.295z"/><path d="m277.07 39.9c1.252 14.877 18.423 22.521 30.314 13.494l.256-.194c-3.907-3.046-6.682-7.649-7.158-13.3l-2.625-31.256c-.781-9.297-13.154-11.932-17.652-3.747l-5.271 9.582z"/><path d="m443.32 186.05-28.91 12.15c-13.77 5.79-15.73 24.49-3.47 33.01l-19.19 2.93-4.22-2.93c-12.26-8.52-10.3-27.22 3.46-33.01l28.92-12.15c8.6-3.61 7.28-16.2-1.89-17.95l-30.81-5.88c-14.67-2.8-20.47-20.68-10.25-31.56l21.47-22.86c3.6-3.83 3.16-8.98.47-12.37l13.91-3.27c9.09-2.13 15.42 8.83 9.03 15.64l-21.47 22.86c-10.22 10.88-4.42 28.76 10.25 31.56l30.82 5.88c9.16 1.75 10.48 14.34 1.88 17.95z"/></g><path d="m259.804 497h-22.607c-3.907 0-7.075-3.167-7.075-7.075v-156.768h36.756v156.768c0 3.908-3.167 7.075-7.074 7.075z" fill="#6fd7a3"/><path d="m247.498 333.157v154.854c0 4.224-2.849 7.917-6.935 8.989h19.241c3.907 0 7.075-3.167 7.075-7.075v-156.768z" fill="#3ec3a4"/><path d="m431.118 266.276-31.356-.651c-14.927-.311-24.334 15.969-16.6 28.731l16.249 26.838c4.839 7.984-3.626 17.381-12.082 13.404l-42.446-19.966c-9.417-4.438-20.647-.421-25.135 8.956-.01.03-.03.05-.04.08l-142.435.04c-4.448-9.457-15.728-13.514-25.185-9.066l-42.416 19.956c-8.455 3.977-16.92-5.42-12.082-13.404l16.249-26.838c7.734-12.763-1.673-29.042-16.6-28.731l-31.356.651c-9.327.2-13.244-11.841-5.57-17.161l25.746-17.902 24.414.461c6.912.13 13.685-1.943 19.335-5.931l28.351-19.996c7.694-5.43 9.567-16.049 4.198-23.773l-17.211-24.764c-3.446-4.969.441-11.711 6.472-11.2l30.044 2.524c9.377.791 17.642-6.141 18.493-15.518l2.735-30.024c.541-6.021 7.854-8.685 12.152-4.428l21.388 21.248c6.682 6.642 17.461 6.642 24.143 0l21.388-21.248c4.298-4.258 11.611-1.593 12.152 4.428l2.735 30.024c.852 9.377 9.116 16.309 18.493 15.518l30.044-2.524c6.031-.511 9.918 6.231 6.472 11.2l-17.211 24.764c-5.37 7.724-3.496 18.343 4.197 23.773l28.351 19.996c5.65 3.987 12.422 6.061 19.335 5.931l24.414-.461 25.746 17.902c7.672 5.32 3.755 17.362-5.571 17.161z" fill="#d691c6"/><g fill="#cd7cbb"><path d="m212.537 288.346c-3.583 0-6.753-2.576-7.382-6.227l-14.562-84.468c-.704-4.082 2.035-7.962 6.117-8.665 4.083-.701 7.962 2.035 8.666 6.116l14.562 84.468c.704 4.082-2.035 7.962-6.117 8.665-.432.075-.861.111-1.284.111z"/><path d="m284.463 288.346c-.451 0-.908-.04-1.367-.125-4.074-.75-6.768-4.661-6.018-8.734l15.558-84.468c.751-4.073 4.666-6.772 8.734-6.018 4.074.75 6.768 4.661 6.018 8.734l-15.558 84.468c-.666 3.615-3.819 6.143-7.367 6.143z"/><g><path d="m273.434 133.017c.852 9.377 9.116 16.309 18.493 15.518l15.329-1.288c-5.64-2.382-9.817-7.712-10.409-14.23l-2.735-30.024c-.541-6.021-7.854-8.686-12.152-4.428l-10.697 10.626z"/><path d="m328.442 157.211-17.211 24.764c-5.37 7.724-3.496 18.343 4.198 23.773l28.351 19.996c5.65 3.987 12.422 6.061 19.335 5.931l18.101-.342c-5.024-.734-9.832-2.632-14.022-5.589l-28.351-19.996c-7.694-5.43-9.567-16.049-4.197-23.773l17.211-24.764c3.446-4.969-.441-11.711-6.472-11.2l-18.347 1.542c2.719 2.204 3.716 6.325 1.404 9.658z"/><path d="m213.015 119.814c6.565 6.525 17.075 6.624 23.778.328-.12-.113-.248-.212-.365-.328l-21.388-21.248c-4.298-4.258-11.611-1.593-12.152 4.428l-.565 6.198z"/><path d="m436.688 249.116-25.746-17.902-22.794.43 25.127 17.472c6.76 4.686 4.523 14.583-2.48 16.739l20.323.422c9.326.2 13.243-11.842 5.57-17.161z"/><path d="m383.162 294.357c-6.956-11.479-.042-25.796 12.279-28.335l-19.092-.396c-14.927-.311-24.334 15.969-16.6 28.732l16.249 26.838c1.725 2.846 1.753 5.868.7 8.403l10.631 5.001c8.455 3.977 16.92-5.42 12.082-13.404z"/></g></g><path d="m328.73 265.82-8.98 57.77c-.01.03-.03.05-.04.08l-26.04 55.03c-3.74 7.91-10.38 13.84-18.3 16.78-3.62 1.36-7.5 2.08-11.5 2.08h-30.89c-3.86 0-7.6-.67-11.11-1.93h-.01c-8.11-2.91-14.91-8.93-18.71-16.99l-25.88-54.93-9-57.89c-.93-6.01 6.17-9.9 10.73-5.88l18.98 16.72c9.21 8.11 23.68 4.63 28.19-6.79l16.28-41.23c2.17-5.48 9.93-5.48 12.1 0l16.28 41.23c4.51 11.42 18.98 14.9 28.19 6.79l18.98-16.72c4.56-4.02 11.66-.13 10.73 5.88z" fill="#978ecb"/><g fill="#8379c1"><path d="m247.418 269.871c4.507 11.413 18.968 14.898 28.18 6.798-2.022-1.776-3.684-4.056-4.767-6.798l-16.28-41.227c-2.167-5.488-9.934-5.488-12.101 0l-5.656 14.323z"/><path d="m317.999 259.94-13.638 12.016-7.006 45.073c-.677 4.353-1.976 8.583-3.86 12.566-6.758 14.285-23.236 49.103-23.236 49.103-5.45 11.521-17.051 18.864-29.803 18.864h23.413c12.753 0 24.354-7.343 29.803-18.864l26.037-55.029c.01-.03.03-.05.04-.08l8.979-57.769c.934-6.013-6.163-9.903-10.729-5.88z"/><path d="m169.227 271.957 5.335 4.701c6.999 6.167 17.032 5.631 23.427.012-.005-.004-.009-.008-.014-.012l-18.974-16.717c-4.566-4.023-11.664-.133-10.729 5.88z"/></g><g><path d="m181.877 488.228-33.216-70.521c-6.145-13.047-16.514-23.637-29.428-30.056l-39.472-19.621c-2.937-1.46-5.879 1.968-3.99 4.649l27.513 39.05c4.872 6.915 8.325 14.727 10.161 22.984l12.778 57.472c.626 2.814 3.122 4.816 6.005 4.816h44.084c4.51-.001 7.487-4.693 5.565-8.773z" fill="#6fd7a3"/><path d="m148.661 417.707c-6.145-13.047-16.514-23.637-29.428-30.057l-39.472-19.621c-2.937-1.46-5.879 1.968-3.99 4.649l5.428 7.704 14.621 7.268c12.914 6.419 23.283 17.01 29.428 30.057l33.967 72.117c1.325 2.813-.078 6.153-3.014 7.177h20.111c4.51 0 7.486-4.692 5.565-8.772z" fill="#3ec3a4"/><path d="m315.123 488.228 33.216-70.521c6.145-13.047 16.514-23.637 29.428-30.056l39.472-19.621c2.937-1.46 5.879 1.968 3.99 4.649l-27.513 39.05c-4.872 6.915-8.326 14.727-10.161 22.984l-12.778 57.472c-.626 2.814-3.122 4.816-6.005 4.816h-44.084c-4.51-.001-7.487-4.693-5.565-8.773z" fill="#6fd7a3"/><path d="m417.239 368.029-27.688 13.763c.946 1.006 1.273 2.594.292 3.985l-19.54 25.951c-4.872 6.915-8.326 14.727-10.161 22.984l-11.715 52.689c-1.086 4.883-4.968 8.655-9.881 9.599h26.226c2.883 0 5.379-2.002 6.005-4.816l12.778-57.472c1.836-8.257 5.289-16.069 10.161-22.984l27.513-39.05c1.889-2.681-1.053-6.109-3.99-4.649z" fill="#3ec3a4"/></g><path d="m237.17 397.56h-4.19c-3.86 0-7.6-.67-11.11-1.93h-.01l-7.26-64.44c-.46-4.12 2.5-7.83 6.61-8.29 4.13-.46 7.83 2.49 8.3 6.61z" fill="#8379c1"/><path d="m284.54 331.41-9.17 64.07c-3.62 1.36-7.5 2.08-11.5 2.08h-3.94l9.76-68.27c.58-4.1 4.38-6.94 8.48-6.37 4.1.59 6.95 4.39 6.37 8.49z" fill="#8379c1"/></g></svg>