<svg id="Capa_1" enable-background="new 0 0 496.997 496.997" height="512" viewBox="0 0 496.997 496.997" width="512" xmlns="http://www.w3.org/2000/svg"><g><path d="m325.962 266.546h-152.174l-61.377-93.415c-15.577-23.708-23.876-51.455-23.876-79.822 0-58.565 53.338-102.643 110.854-91.609l32.912 6.314c11.61 2.227 23.538 2.227 35.148 0l32.912-6.314c57.516-11.034 110.854 33.044 110.854 91.609 0 28.367-8.3 56.114-23.876 79.822z" fill="#978ecb"/><g><path d="m307.074.667c45.329 5.47 82.014 44.073 82.014 92.642 0 28.367-8.3 56.114-23.877 79.822l-61.377 93.415h22.128l61.377-93.415c15.577-23.708 23.876-51.455 23.876-79.822 0-56.279-49.256-99.17-104.141-92.642z" fill="#8379c1"/></g><path d="m381.218 93.31c0 11.88-1.82 23.58-5.36 34.75-.01.06-.03.12-.05.18-3.17 9.98-7.71 19.53-13.54 28.42l-52.49 79.89h-119.8l-52.49-79.89c-12.4-18.87-18.95-40.78-18.95-63.35 0-34.91 28.3-63.31 63.08-63.31 4.02 0 8.1.39 12.12 1.16l32.91 6.32c7.64 1.46 15.45 2.2 23.23 2.2 7.77 0 15.59-.74 23.22-2.2l32.92-6.32c.34-.07.68-.13 1.02-.18 3.69-.65 7.41-.98 11.09-.98 34.79 0 63.09 28.4 63.09 63.31z" fill="#8ac9fe"/><path d="m375.858 128.06c-.02.06-.04.12-.06.18h.01c-3.17 9.98-7.71 19.53-13.54 28.42l-52.49 79.89h-85.84l-.85-2.32 50.71-68.6c12.87-17.4 30.54-30.66 50.86-38.15 6.434-2.367 12.948-3.739 19.4-4.214 7.06-.52 12.732-5.989 13.774-12.991.831-5.585 1.256-11.252 1.256-16.965 0-31.13-22.51-57.06-52.04-62.32 0 0 0-.01-.01-.01 3.69-.65 7.41-.98 11.09-.98 34.79 0 63.09 28.4 63.09 63.31 0 11.88-1.82 23.58-5.36 34.75z" fill="#60b7ff"/><g><g><path d="m214.869 206.12c-4.143 0-7.5-3.357-7.5-7.5v-96.28c0-4.143 3.357-7.5 7.5-7.5s7.5 3.357 7.5 7.5v96.28c0 4.143-3.358 7.5-7.5 7.5z" fill="#eaf6ff"/></g><g><path d="m289.628 102.34v96.28c0 4.14-3.36 7.5-7.5 7.5s-7.5-3.36-7.5-7.5v-96.28c0-4.14 3.36-7.5 7.5-7.5s7.5 3.36 7.5 7.5z" fill="#eaf6ff"/></g><path d="m289.628 148.39v50.23c0 4.14-3.36 7.5-7.5 7.5s-7.5-3.36-7.5-7.5v-34.09c4.47-5.89 9.5-11.3 15-16.14z" fill="#c8effe"/></g><path d="m432.674 358.547c-10.163 3.743-20.757 5.955-31.442 6.622s-21.475-.219-32.019-2.673l-83.079-19.304-40.136-108.966 50.704-68.592c12.87-17.406 30.547-30.666 50.864-38.15 37.569-13.838 78.097 6.05 91.354 42.042 1.54 4.181 2.717 8.584 3.474 13.176l4.167 25.23c1.466 8.901 4.611 17.438 9.269 25.163l13.194 21.905c23.074 38.281 5.586 88.1-36.35 103.547z" fill="#8ac9fe"/><path d="m469.024 255-13.194-21.905c-4.658-7.725-7.803-16.263-9.269-25.163l-4.167-25.23c-.757-4.592-1.934-8.995-3.474-13.176-11.594-31.477-44.045-50.635-77.134-45.691 37.606 5.44 60.766 41.585 62.644 84.097 1.469 8.9 4.613 17.438 9.271 25.163 34.169 43.139 32.785 102.729-23.156 125.451-8.079 3.817-17.384 5.709-27.408 6.25 6.023.612 12.075.748 18.094.372 10.685-.667 21.279-2.878 31.442-6.622 41.937-15.446 59.425-65.265 36.351-103.546z" fill="#60b7ff"/><path d="m376.298 332.01s-.828-.195-2.298-.532l-53.534-145.34 1.403-1.896c20.034-30.107 71.438-45.417 87.691-3.889 4.547 14.849 5.118 36.989 11.068 51.421 4.826 14.824 18.784 32.1 24.935 46.324 14.554 42.108-34.474 63.869-69.265 53.912z" fill="#eaf6ff"/><g><path d="m445.563 278.097c-6.151-14.225-20.109-31.5-24.936-46.324-5.95-14.432-6.521-36.572-11.068-51.421-8.874-22.675-28.228-28.403-47.233-24.031 10.595 2.852 19.755 10.361 25.105 24.031 4.547 14.849 5.118 36.989 11.068 51.421 4.826 14.824 18.784 32.1 24.935 46.324 10.747 31.094-13.176 51.089-40.435 55.415 33.996 5.642 76.204-15.95 62.564-55.415z" fill="#c8effe"/></g><path d="m299.826 327.685-13.692 15.507-40.136-108.966 20.479 2.92c9.072 1.295 18.128-2.496 23.586-9.866l30.402-41.143c7.106 3.988 13.096 10.71 17.031 20.759 4.547 14.849 5.118 36.989 11.068 51.421 4.826 14.824 18.784 32.1 24.935 46.324 3.52 10.19 3.322 19.192.5 26.836-7.735-1.799-33.36-7.761-49.836-11.589-8.924-2.072-18.276.917-24.337 7.797z" fill="#978ecb"/><path d="m64.323 358.547c10.163 3.743 20.757 5.955 31.442 6.622s21.475-.219 32.019-2.673l83.079-19.304 40.136-108.966-50.704-68.592c-12.87-17.406-30.547-30.666-50.864-38.15-37.569-13.838-78.097 6.05-91.354 42.042-1.54 4.181-2.717 8.584-3.474 13.176l-4.167 25.23c-1.466 8.901-4.611 17.438-9.269 25.163l-13.194 21.905c-23.074 38.281-5.586 88.1 36.35 103.547z" fill="#8ac9fe"/><path d="m200.295 165.635c-12.87-17.406-30.547-30.667-50.864-38.15-11.923-4.392-24.142-5.376-35.695-3.537 4.53.72 9.069 1.88 13.567 3.537 20.317 7.483 37.994 20.744 50.864 38.15l50.704 68.592-40.136 108.966-83.079 19.304c-4.674 1.088-9.396 1.849-14.136 2.322 1.413.143 2.828.262 4.245.351 10.685.667 21.474-.219 32.019-2.673l83.079-19.304 40.136-108.966z" fill="#60b7ff"/><path d="m176.528 186.14-7.36 19.98-46.17 125.36c-1.47.33-2.3.53-2.3.53-34.79 9.96-83.82-11.8-69.26-53.91 6.15-14.23 20.11-31.5 24.93-46.33 5.95-14.43 6.52-36.57 11.07-51.42 5.35-13.67 14.51-21.18 25.1-24.03 21.59-5.82 49.15 7.72 62.59 27.92z" fill="#eaf6ff"/><g><path d="m176.528 186.14-7.36 19.98-14.77-19.98-1.4-1.9c-9.09-13.67-24.65-24.28-40.46-27.92 21.59-5.82 49.15 7.72 62.59 27.92z" fill="#c8effe"/></g><path d="m250.998 234.23-40.14 108.96-13.69-15.5c-6.06-6.88-15.41-9.87-24.34-7.8-1.34.31-2.75.64-4.2.98-16.34 3.8-38.53 8.96-45.63 10.61-2.82-7.65-3.02-16.65.5-26.84 6.15-14.22 20.11-31.5 24.93-46.32 5.95-14.44 6.52-36.58 11.07-51.42 3.94-10.05 9.93-16.78 17.03-20.76l30.4 41.14c1.57 2.12 3.44 3.95 5.52 5.44 5.15 3.69 11.61 5.35 18.07 4.43z" fill="#978ecb"/><g><path d="m230.518 237.15c-4.257.606-8.511.086-12.393-1.391l.018-.003c-4.392-1.669-8.311-4.562-11.21-8.476 0 0-30.402-41.143-30.402-41.143-4.944 2.774-9.346 6.877-12.893 12.498 0 0 21.167 28.645 21.167 28.645 1.512 2.041 3.301 3.804 5.29 5.26 1.703 1.247 1.467 3.862-.407 4.833-13.395 6.94-22.549 20.927-22.549 37.046v35.36c0 3.84.52 7.56 1.49 11.09 1.45-.34 2.86-.67 4.2-.98 8.93-2.07 18.28.92 24.34 7.8l13.69 15.5 40.14-108.96z" fill="#8379c1"/><path d="m230.52 237.146c-.938.134-1.875.2-2.808.227l-32.529 88.314c.693.627 1.362 1.286 1.989 1.997l13.692 15.507 40.136-108.966z" fill="#978ecb"/></g><g fill="#8ac9fe"><path d="m275.628 428.8c.19 2.2.3 4.43.3 6.68.09 27.42-13.76 58-38.34 61.23-24.58-3.23-38.44-33.8-38.35-61.23 7.4-56.5-17.11-94.51-19.09-95.43l57.44-27.36 57.43 27.36c-.03 1.25-24.87 27.85-19.39 88.75z"/><path d="m284.998 290.1-.07.04c0-.05.03-.07.07-.04z"/><path d="m275.928 435.48c.09 27.42-13.76 58-38.34 61.23-6.58.87-13.93-.22-21.99-3.86-13.6-7.43-29.52-22.91-43.84-29.07-13.83-7.25-35.82-9.84-50.19-15.72-39.07-19.72-18.81-64.07 9.96-85.45l68.14 34.39z"/></g><path d="m275.928 435.48c.09 27.42-13.76 58-38.34 61.23-24.58-3.23-38.44-33.8-38.35-61.23 1.84-14.07 1.71-26.99.43-38.48z" fill="#60b7ff"/><path d="m275.628 428.8c.19 2.2.3 4.43.3 6.68-8.28 3.16-18.06 3-29.2-2.04-13.6-7.43-29.53-22.91-43.85-29.07-.86-.45-1.75-.88-2.66-1.3-13.86-6.28-34.05-8.9-47.53-14.42-12.97-6.54-19.4-15.8-21.16-26.04 1.3-.96 2.62-1.87 3.95-2.74 14.87-9.71 26.38-22.21 34.91-33.94 13.75-18.92 19.78-35.83 19.78-35.83l47.42 22.59 41.59 19.81 15.84 7.55c-.03 1.25-24.87 27.85-19.39 88.75z" fill="#eaf6ff"/><path d="m284.998 290.1-.07.04c0-.05.03-.07.07-.04z" fill="#8ac9fe"/><path d="m295.018 340.05-15.842-7.547c.001-.001.001-.002.002-.003l-41.59-19.81-47.42-22.59s-6.03 16.91-19.78 35.83c2.254 5.373 5.606 10.167 9.768 14.116l-.008.004c.014.006.036.028.052.038.146.139.291.279.44.416 3.107 3.525 17.038 26.905 19.578 62.566.91.42 1.8.85 2.66 1.3 14.32 6.16 30.25 21.64 43.85 29.07 11.14 5.04 20.92 5.2 29.2 2.04 0-2.25-.11-4.48-.3-6.68-5.48-60.9 19.36-87.5 19.39-88.75z" fill="#c8effe"/><path d="m375.728 448.06c-14.37 5.88-36.37 8.47-50.19 15.72-14.32 6.16-30.25 21.64-43.85 29.07-10.76 4.86-20.26 5.18-28.35 2.35-20.59-7.2-32.06-34.76-31.97-59.72l130.53-65.88 13.86-6.99c28.78 21.38 49.04 65.73 9.97 85.45z" fill="#8ac9fe"/><path d="m375.728 448.06c-14.37 5.88-36.37 8.47-50.19 15.72-14.32 6.16-30.25 21.64-43.85 29.07-10.76 4.86-20.26 5.18-28.35 2.35 2.03-.61 4.1-1.39 6.23-2.35 13.6-7.43 29.52-22.91 43.84-29.07 13.83-7.25 35.83-9.84 50.2-15.72 35.19-17.76 22.24-55.51-1.71-78.46l13.86-6.99c28.78 21.38 49.04 65.73 9.97 85.45z" fill="#60b7ff"/><path d="m202.279 340.048c.031 1.248 24.867 27.856 19.392 88.754-.195 2.197-.302 4.427-.305 6.68 8.276 3.16 18.062 2.999 29.203-2.039 13.599-7.434 29.523-22.912 43.847-29.074 13.823-7.251 35.822-9.834 50.192-15.721 12.964-6.542 19.395-15.801 21.154-26.033-1.299-.969-2.612-1.88-3.946-2.748-38.846-25.352-54.693-69.764-54.693-69.764z" fill="#eaf6ff"/><path d="m343.634 362.615c5.603 4.162 10.88 9.197 15.462 14.75 3.618-4.504 5.763-9.497 6.666-14.75-1.299-.969-2.612-1.88-3.946-2.748-38.847-25.352-54.693-69.764-54.693-69.764l-18.46 8.794c7.808 15.652 27.421 48.129 54.971 63.718z" fill="#c8effe"/><path d="m308.028 309.78c0 23.03-18.67 41.71-41.7 41.71h-35.36c-23.03 0-41.7-18.68-41.7-41.71v-35.36l96.64 28.77z" fill="#fea95c"/><path d="m308.028 309.78c0 23.03-18.67 41.71-41.7 41.71h-22.13c23.03 0 41.71-18.68 41.71-41.71v-6.59z" fill="#fe9738"/><path d="m308.032 274.424v35.358c-68.671 3.726-118.769-35.358-118.769-35.358 0-23.027 18.678-41.705 41.705-41.705h35.358c23.028-.001 41.706 18.677 41.706 41.705z" fill="#ffd15b"/><path d="m266.327 232.718h-22.128c23.027 0 41.705 18.678 41.705 41.705v35.127c7.119.529 14.509.645 22.128.231v-35.358c0-23.027-18.678-41.705-41.705-41.705z" fill="#ffc344"/></g></svg>