<svg id="Capa_1" enable-background="new 0 0 504.5 504.5" height="512" viewBox="0 0 504.5 504.5" width="512" xmlns="http://www.w3.org/2000/svg"><g><path d="m252.089 56.494c-4.143 0-7.5-3.357-7.5-7.5v-41.494c0-4.143 3.357-7.5 7.5-7.5s7.5 3.357 7.5 7.5v41.494c0 4.143-3.358 7.5-7.5 7.5z" fill="#978ecb"/><path d="m218.285 86.56c-1.92 0-3.839-.732-5.304-2.197l-24.223-24.224c-2.929-2.929-2.929-7.678.001-10.606 2.929-2.928 7.678-2.929 10.606.001l24.223 24.224c2.929 2.929 2.929 7.678-.001 10.606-1.463 1.463-3.383 2.196-5.302 2.196z" fill="#8379c1"/><path d="m288.284 84.37c-1.919 0-3.839-.732-5.303-2.196-2.93-2.929-2.93-7.678-.001-10.606l22.033-22.034c2.93-2.93 7.679-2.929 10.606-.001 2.93 2.929 2.93 7.678.001 10.606l-22.033 22.034c-1.464 1.465-3.384 2.197-5.303 2.197z" fill="#8379c1"/><g><path d="m146.41 341.874h-62.57c-4.143 0-7.5-3.357-7.5-7.5s3.357-7.5 7.5-7.5h62.57c4.143 0 7.5 3.357 7.5 7.5s-3.357 7.5-7.5 7.5z" fill="#978ecb"/></g><g><path d="m420.66 341.868h-65.525c-4.143 0-7.5-3.357-7.5-7.5s3.357-7.5 7.5-7.5h65.525c4.143 0 7.5 3.357 7.5 7.5s-3.357 7.5-7.5 7.5z" fill="#978ecb"/></g><path d="m267.253 504.5h-30.126c-3.926 0-7.108-3.182-7.108-7.108v-142.58h44.343v142.58c-.001 3.926-3.183 7.108-7.109 7.108z" fill="#6fd7a3"/><path d="m254.01 354.811v137.101c0 5.582-3.44 10.587-8.651 12.587h21.893c3.926 0 7.108-3.182 7.108-7.108v-142.58z" fill="#3ec3a4"/><g><path d="m265.892 80.22-13.803 7.538-13.602-7.538-4.906-8.914c-4.11-7.467-2.391-16.795 4.109-22.308l7.947-6.739c3.774-3.2 9.315-3.182 13.067.043l7.916 6.803c6.368 5.473 8.082 14.634 4.123 22.039z" fill="#c2bce0"/><path d="m266.621 49.106-7.916-6.803c-3.753-3.225-9.293-3.243-13.067-.043l-.345.293 7.626 6.554c6.369 5.473 8.082 14.634 4.123 22.039l-4.852 9.075 7.399 3.442 6.303-3.442 4.852-9.075c3.959-7.406 2.246-16.567-4.123-22.04z" fill="#aca6d6"/><path d="m274.361 106.284-10.278-12.381 1.809-13.683 6.962-7.421c5.831-6.216 15.234-7.464 22.486-2.985l8.865 5.476c4.21 2.6 5.904 7.875 3.997 12.441l-4.024 9.631c-3.237 7.748-11.42 12.209-19.686 10.732z" fill="#c2bce0"/><path d="m304.204 75.29-8.865-5.476c-5.027-3.105-11.086-3.453-16.274-1.306.879.364 1.74.793 2.571 1.306l8.865 5.476c4.21 2.6 5.904 7.875 3.997 12.441l-4.024 9.631c-1.989 4.76-5.847 8.271-10.442 9.935l4.458.797c8.266 1.477 16.449-2.984 19.687-10.732l4.024-9.631c1.908-4.566.213-9.841-3.997-12.441z" fill="#aca6d6"/><path d="m230.019 106.284 10.273-11.489-1.804-14.575-6.962-7.421c-5.831-6.216-15.234-7.464-22.486-2.985l-8.865 5.476c-4.21 2.6-5.904 7.875-3.997 12.441l4.024 9.631c3.237 7.748 11.42 12.209 19.686 10.732z" fill="#c2bce0"/><path d="m231.526 72.799c-5.163-5.504-13.124-7.104-19.914-4.291 2.296.95 4.423 2.384 6.212 4.291l4.469 4.764c1.537 1.639 2.061 3.984 1.367 6.121l-6.202 19.087c-.703 2.162-2.539 3.762-4.777 4.162l-2.036.364c2.884 1.045 6.057 1.366 9.245.797l10.13-1.81 10.273-11.489-1.804-14.575z" fill="#aca6d6"/><path d="m252.19 122.392 7.66-14.019 14.511-2.089 9.209 4.328c7.714 3.625 11.807 12.182 9.787 20.463l-2.468 10.123c-1.172 4.807-5.665 8.049-10.597 7.646l-10.403-.851c-8.369-.684-15.141-7.089-16.29-15.407z" fill="#c2bce0"/><path d="m283.57 110.612-9.209-4.328-4.541.654-.841 3.257.888.417c7.714 3.625 11.806 12.182 9.787 20.463l-2.468 10.123c-.782 3.208-3.047 5.711-5.93 6.907l9.036.739c4.932.403 9.425-2.839 10.597-7.646l2.469-10.123c2.018-8.281-2.074-16.838-9.788-20.463z" fill="#aca6d6"/><path d="m252.19 122.392-6.852-14.017-15.319-2.091-9.209 4.328c-7.714 3.625-11.807 12.182-9.787 20.463l2.468 10.123c1.172 4.807 5.665 8.049 10.597 7.646l10.403-.851c8.369-.684 15.141-7.089 16.29-15.407z" fill="#c2bce0"/><path d="m230.019 106.284-8.32 3.91 13.46 9.779c2.049 1.489 3.112 3.985 2.766 6.495l-.845 6.118c-1.149 8.318-7.921 14.722-16.29 15.406l-1.368.112c1.438.596 3.026.873 4.667.739l10.403-.851c8.369-.684 15.14-7.089 16.29-15.407l1.409-10.193-6.852-14.017z" fill="#aca6d6"/><path d="m252.19 122.392-22.172-16.108 8.469-26.064h27.405l8.469 26.064z" fill="#eaf6ff"/><path d="m265.892 80.22h-13.702l6.582 20.257c1.125 3.463-.107 7.256-3.053 9.397l-10.38 7.542 6.851 4.978 22.172-16.109z" fill="#c8effe"/></g><g><path d="m272.598 184.874-20.509 7.998-20.189-7.998-7.286-13.238c-6.103-11.089-3.551-24.942 6.103-33.129l11.802-10.007c5.605-4.753 13.833-4.725 19.406.064l11.756 10.103c9.458 8.128 12.003 21.733 6.123 32.73z" fill="#978ecb"/><path d="m273.68 138.667-11.756-10.103c-5.573-4.789-13.801-4.817-19.406-.064l-.513.435 11.325 9.732c9.458 8.128 12.003 21.733 6.123 32.73l-7.205 13.477 8.926 4.455 11.425-4.455 7.205-13.477c5.879-10.997 3.334-24.602-6.124-32.73z" fill="#8379c1"/><path d="m285.174 223.581-13.536-17.852.96-20.855 10.339-11.02c8.66-9.231 22.624-11.085 33.393-4.433l13.165 8.132c6.252 3.862 8.769 11.696 5.936 18.476l-5.976 14.303c-4.807 11.506-16.96 18.131-29.236 15.938z" fill="#978ecb"/><path d="m329.494 177.552-13.165-8.132c-7.466-4.611-16.464-5.127-24.169-1.939 1.305.54 2.584 1.177 3.818 1.939l13.165 8.132c6.252 3.862 8.769 11.696 5.936 18.476l-5.976 14.303c-2.953 7.069-8.684 12.283-15.507 14.754l6.622 1.183c12.276 2.194 24.428-4.431 29.236-15.938l5.976-14.303c2.833-6.779.316-14.613-5.936-18.475z" fill="#8379c1"/><path d="m219.323 223.581 12.577-16.913v-21.794l-10.339-11.02c-8.66-9.231-22.624-11.085-33.393-4.433l-13.165 8.132c-6.252 3.862-8.769 11.696-5.936 18.476l5.976 14.303c4.807 11.506 16.96 18.131 29.236 15.938z" fill="#978ecb"/><path d="m221.561 173.854c-7.668-8.174-19.491-10.55-29.575-6.372 3.409 1.411 6.568 3.541 9.224 6.372l4.565 4.866c3.561 3.796 4.774 9.229 3.166 14.179l-7.325 22.545c-1.628 5.009-5.881 8.715-11.066 9.642 4.284 1.552 8.995 2.029 13.729 1.183l15.044-2.688 12.577-16.913v-21.794z" fill="#8379c1"/><path d="m252.249 247.503 11.375-18.874 21.551-5.048 13.676 6.427c11.456 5.384 17.534 18.091 14.535 30.389l-3.666 15.033c-1.741 7.139-8.414 11.954-15.737 11.355l-15.45-1.263c-12.429-1.016-22.485-10.527-24.192-22.88z" fill="#978ecb"/><path d="m298.85 230.008-13.676-6.427-6.846 1.604-1.147 4.204 1.319.62c11.456 5.384 17.534 18.091 14.535 30.389l-3.666 15.033c-1.162 4.764-4.524 8.481-8.806 10.257l13.419 1.097c7.324.599 13.997-4.215 15.737-11.354l3.666-15.033c2.999-12.298-3.079-25.006-14.535-30.39z" fill="#8379c1"/><path d="m252.249 247.503-11.395-18.311-21.531-5.612-13.676 6.427c-11.456 5.384-17.534 18.091-14.535 30.389l3.666 15.033c1.741 7.139 8.414 11.954 15.737 11.355l15.45-1.263c12.429-1.016 22.485-10.527 24.192-22.88z" fill="#978ecb"/><path d="m219.323 223.581-12.357 5.807 19.586 14.23c3.292 2.392 4.999 6.401 4.442 10.432l-1.187 8.592c-1.707 12.353-11.763 21.863-24.192 22.88l-2.03.166c2.135.885 4.494 1.297 6.931 1.097l15.45-1.263c12.429-1.016 22.485-10.527 24.192-22.88l2.092-15.138-11.395-18.311z" fill="#8379c1"/><path d="m252.248 247.503-32.926-23.922 12.577-38.707h40.699l12.577 38.707z" fill="#eaf6ff"/><path d="m272.598 184.874h-20.351l10.679 32.865c1.132 3.483-.108 7.3-3.071 9.452l-17.782 12.919 10.175 7.393 32.926-23.922z" fill="#c8effe"/></g><g><path d="m279.975 319.175-27.725 11.003-27.729-11.003-9.928-18.038c-8.316-15.109-4.839-33.985 8.315-45.139l16.081-13.636c7.637-6.476 18.848-6.438 26.442.087l16.019 13.766c12.886 11.074 16.355 29.612 8.343 44.596z" fill="#c2bce0"/><path d="m281.45 256.216-16.019-13.766c-6.653-5.717-16.081-6.453-23.451-2.194 1.082.625 2.122 1.354 3.1 2.194l16.019 13.766c12.887 11.074 16.355 29.612 8.343 44.596l-9.818 18.363 6.701 5.417 13.65-5.417 9.818-18.363c8.012-14.983 4.544-33.521-8.343-44.596z" fill="#aca6d6"/><path d="m297.112 371.916-18.341-23.342 1.204-29.398 14.087-15.016c11.8-12.578 30.827-15.104 45.5-6.04l17.938 11.08c8.518 5.262 11.948 15.936 8.088 25.174l-8.142 19.489c-6.55 15.678-23.109 24.705-39.835 21.716z" fill="#c2bce0"/><path d="m357.5 309.2-17.938-11.08c-8.994-5.555-19.621-6.749-29.22-3.95 3.062.897 6.047 2.207 8.869 3.95l17.938 11.08c8.519 5.262 11.948 15.936 8.088 25.174l-8.142 19.489c-4.398 10.526-13.31 18.047-23.753 20.953l4.268.763c16.727 2.989 33.285-6.038 39.835-21.716l8.143-19.489c3.859-9.239.43-19.912-8.088-25.174z" fill="#aca6d6"/><path d="m207.385 371.916 18.64-24.656-1.504-28.084-14.087-15.016c-11.8-12.578-30.827-15.104-45.5-6.04l-17.938 11.08c-8.518 5.262-11.948 15.936-8.088 25.174l8.142 19.489c6.55 15.678 23.109 24.705 39.835 21.716z" fill="#c2bce0"/><path d="m210.435 304.16c-9.53-10.158-23.773-13.756-36.631-9.991 6.061 1.767 11.713 5.122 16.28 9.991l9.528 10.156c2.812 2.997 3.77 7.287 2.5 11.196l-12.99 39.978c-1.285 3.955-4.644 6.882-8.738 7.613l-9.579 1.712c5.111 1.422 10.586 1.745 16.082.763l20.498-3.663 18.64-24.656-1.504-28.084z" fill="#aca6d6"/><path d="m252.249 404.511 16.199-23.652 28.665-8.944 18.634 8.757c15.609 7.336 23.891 24.65 19.805 41.406l-4.995 20.484c-2.372 9.728-11.464 16.287-21.443 15.471l-21.051-1.722c-16.935-1.385-30.637-14.344-32.963-31.175z" fill="#c2bce0"/><path d="m315.746 380.673-18.634-8.757-6.217 1.94-1.777 3.868 6.276 2.95c15.609 7.336 23.891 24.651 19.805 41.406l-4.995 20.484c-1.701 6.976-6.866 12.305-13.328 14.47l12.235 1.001c9.979.816 19.071-5.744 21.443-15.471l4.995-20.484c4.087-16.756-4.195-34.071-19.803-41.407z" fill="#aca6d6"/><path d="m252.249 404.511-15.149-23.089-29.714-9.507-18.634 8.757c-15.609 7.336-23.891 24.65-19.805 41.406l4.995 20.484c2.372 9.728 11.464 16.287 21.443 15.471l21.051-1.722c16.935-1.385 30.637-14.344 32.963-31.175z" fill="#c2bce0"/><path d="m207.386 371.916-12.357 5.808 32.192 23.389c2.88 2.092 4.374 5.6 3.886 9.126l-2.059 14.899c-2.326 16.831-16.028 29.79-32.963 31.175l-8.816.721c2.549.854 5.293 1.231 8.115 1.001l21.051-1.722c16.935-1.385 30.637-14.344 32.962-31.175l2.85-20.626-15.147-23.09z" fill="#aca6d6"/><path d="m252.248 404.511-44.864-32.595 17.137-52.741h55.454l17.137 52.741z" fill="#eaf6ff"/><path d="m279.976 319.175h-20.351l13.441 41.368c2.203 6.781-.21 14.21-5.979 18.401l-25.014 18.174 10.175 7.393 44.864-32.595z" fill="#c8effe"/></g><g><path d="m180.113 141.331c-4.869 4.869-12.592 5.379-18.059 1.192l-13.517-10.351c-5.531-4.236-8.852-10.744-9.035-17.708l-.182-6.901c-.103-3.922 3.103-7.128 7.025-7.025l6.901.182c6.964.183 13.472 3.504 17.708 9.035l10.351 13.517c4.187 5.467 3.677 13.19-1.192 18.059z" fill="#978ecb"/><path d="m181.305 123.272-10.351-13.517c-4.236-5.531-10.744-8.851-17.708-9.035l-6.901-.182c-1.491-.039-2.877.402-4.019 1.177 4.565 1.388 8.643 4.171 11.605 8.04l10.351 13.517c4.187 5.467 3.677 13.19-1.192 18.059-.384.384-.791.731-1.208 1.061l.172.132c5.467 4.187 13.19 3.677 18.059-1.193 4.869-4.869 5.379-12.592 1.192-18.059z" fill="#8379c1"/><path d="m133.126 393.956c-4.869-4.869-12.592-5.379-18.059-1.192l-13.517 10.351c-5.531 4.236-8.852 10.744-9.035 17.708l-.182 6.901c-.103 3.922 3.103 7.128 7.025 7.025l6.901-.182c6.964-.184 13.472-3.504 17.708-9.035l10.351-13.517c4.187-5.467 3.677-13.19-1.192-18.059z" fill="#978ecb"/><path d="m133.125 393.956c-4.869-4.869-12.592-5.379-18.059-1.193l-.172.132c.417.33.824.677 1.208 1.061 4.869 4.869 5.379 12.592 1.192 18.059l-10.351 13.517c-2.963 3.869-7.04 6.652-11.606 8.04 1.142.775 2.528 1.216 4.019 1.177l6.901-.182c6.964-.183 13.472-3.504 17.708-9.035l10.351-13.517c4.189-5.467 3.679-13.19-1.191-18.059z" fill="#8379c1"/><path d="m152.602 267.737c-6.721 6.721-17.379 7.424-24.925 1.646l-18.657-14.287c-7.634-5.846-12.217-14.829-12.47-24.44l-.251-9.525c-.143-5.413 4.283-9.839 9.696-9.696l9.525.251c9.612.253 18.594 4.837 24.44 12.47l14.287 18.657c5.779 7.545 5.075 18.204-1.645 24.924z" fill="#c2bce0"/><path d="m154.248 242.812-14.287-18.657c-5.846-7.634-14.829-12.217-24.44-12.47l-9.526-.251c-1.654-.044-3.213.343-4.58 1.05 7.177 1.639 13.64 5.723 18.195 11.671l14.287 18.657c5.779 7.546 5.075 18.205-1.646 24.925-.997.997-2.089 1.845-3.236 2.576 7.427 4.742 17.254 3.757 23.587-2.576 6.72-6.72 7.424-17.379 1.646-24.925z" fill="#aca6d6"/></g><g><path d="m324.387 141.325c4.869 4.869 12.592 5.379 18.059 1.192l13.517-10.351c5.531-4.236 8.852-10.744 9.035-17.708l.182-6.901c.103-3.922-3.103-7.128-7.025-7.025l-6.901.182c-6.964.183-13.472 3.504-17.708 9.035l-10.351 13.517c-4.187 5.468-3.677 13.19 1.192 18.059z" fill="#978ecb"/><path d="m358.155 100.532-6.902.182c-2.092.055-4.141.399-6.102.995 1.861 1.263 3.07 3.417 3.006 5.848l-.182 6.901c-.183 6.964-3.504 13.472-9.035 17.708l-13.345 10.22c4.871 3.85 11.814 3.988 16.85.132l13.517-10.351c5.531-4.235 8.852-10.744 9.035-17.708l.182-6.901c.104-3.922-3.102-7.129-7.024-7.026z" fill="#8379c1"/><path d="m371.374 393.951c4.869-4.869 12.592-5.379 18.059-1.192l13.517 10.351c5.531 4.236 8.852 10.744 9.035 17.708l.182 6.901c.103 3.922-3.103 7.128-7.025 7.025l-6.901-.182c-6.964-.184-13.472-3.504-17.708-9.035l-10.351-13.517c-4.187-5.468-3.677-13.19 1.192-18.059z" fill="#978ecb"/><path d="m411.985 420.817c-.183-6.964-3.504-13.472-9.035-17.708l-13.517-10.351c-5.036-3.856-11.98-3.718-16.85.132l13.345 10.22c5.531 4.236 8.852 10.744 9.035 17.708l.182 6.901c.064 2.431-1.145 4.585-3.006 5.848 1.961.596 4.01.94 6.102.995l6.901.182c3.922.103 7.128-3.103 7.025-7.025z" fill="#8379c1"/><path d="m351.898 267.732c6.721 6.721 17.379 7.424 24.925 1.646l18.657-14.287c7.634-5.846 12.217-14.829 12.47-24.44l.251-9.525c.143-5.413-4.283-9.839-9.696-9.696l-9.526.251c-9.612.253-18.594 4.837-24.44 12.47l-14.287 18.657c-5.778 7.544-5.074 18.203 1.646 24.924z" fill="#c2bce0"/><path d="m398.505 211.428-9.525.251c-2.123.056-4.211.335-6.245.799 3.108 1.607 5.215 4.886 5.116 8.646l-.251 9.525c-.253 9.612-4.837 18.594-12.471 24.44l-18.657 14.287c-.435.333-.883.64-1.338.93 6.586 4.194 15.262 3.991 21.689-.93l18.657-14.287c7.634-5.846 12.217-14.829 12.47-24.44l.251-9.525c.143-5.413-4.283-9.838-9.696-9.696z" fill="#aca6d6"/></g></g></svg>