<svg id="Capa_1" enable-background="new 0 0 496.998 496.998" height="512" viewBox="0 0 496.998 496.998" width="512" xmlns="http://www.w3.org/2000/svg"><g><path d="m260.05 178.312 91.625-79.347c14.119-12.227 35.072 2.996 27.806 20.202l-47.149 111.66c-3.412 8.08-.371 17.44 7.139 21.971l103.777 62.621c15.992 9.65 7.989 34.281-10.621 32.688l-120.765-10.337c-8.739-.748-16.701 5.037-18.69 13.579l-27.488 118.049c-4.236 18.191-30.134 18.191-34.37 0l-27.488-118.048c-1.989-8.542-9.951-14.327-18.69-13.579l-120.765 10.337c-18.61 1.593-26.613-23.038-10.621-32.688l103.777-62.621c7.51-4.532 10.551-13.891 7.139-21.971l-47.149-111.66c-7.266-17.207 13.687-32.429 27.806-20.202l91.625 79.347c6.63 5.741 16.471 5.741 23.102-.001z" fill="#9be69d"/><g fill="#6fd7a3"><path d="m213.82 178.312c6.63 5.742 16.472 5.742 23.102 0l.013-.011-91.612-79.335c-7.536-6.526-17.015-5.229-23.115.011z"/><path d="m443.247 315.42-103.777-62.621c-7.51-4.531-10.551-13.891-7.139-21.971l47.149-111.66c7.266-17.207-13.687-32.429-27.806-20.202l-.013.011c5.329 4.579 8.079 12.168 4.691 20.191l-47.149 111.66c-3.412 8.08-.371 17.44 7.139 21.971l103.777 62.621c13.288 8.018 10 26.366-2.164 31.432l14.671 1.256c18.61 1.593 26.613-23.038 10.621-32.688z"/><path d="m288.734 337.771c-8.739-.748-16.701 5.037-18.69 13.579l-27.487 118.049c-.948 4.073-2.987 7.226-5.621 9.475 9.13 7.796 25.462 4.643 28.749-9.475l27.488-118.049c1.332-5.719 5.346-10.188 10.472-12.303z"/></g><path d="m314.609 92.377-12.92 54.64c-5.25 22.19-23.6 38.51-45.69 41.55-2.46.35-4.96.52-7.5.52s-5.04-.17-7.5-.52c-22.09-3.04-40.44-19.36-45.69-41.55l-12.92-54.64c-5.81-24.56 2.9-50.28 22.43-66.25l22.89-18.71c12.09-9.89 29.49-9.89 41.58 0l22.89 18.71c19.53 15.971 28.24 41.691 22.43 66.25z" fill="#eaf6ff"/><path d="m292.174 26.128-22.882-18.711c-9.266-7.577-21.637-9.344-32.357-5.313 3.275 1.231 6.398 2.998 9.23 5.313l22.882 18.711c19.535 15.975 28.245 41.694 22.437 66.251l-12.923 54.635c-4.923 20.813-21.376 36.467-41.625 40.843 3.741.809 7.612 1.233 11.564 1.233 25.339 0 47.356-17.417 53.189-42.075l12.923-54.635c5.807-24.558-2.903-50.278-22.438-66.252z" fill="#c8effe"/><path d="m229.579 390.098-15.2 54.05c-6.83 24.29-26.92 42.56-51.75 47.06l-29.09 5.26c-15.37 2.79-30.58-5.65-36.37-20.17l-10.93-27.46c-9.34-23.44-4.48-50.16 12.51-68.82l37.8-41.51c16.3-17.91 42.32-22.86 63.94-12.53 1 .47 2 .99 2.98 1.53 3.47 1.92 6.66 4.18 9.55 6.73 15.56 13.639 22.35 35.29 16.56 55.86z" fill="#eaf6ff"/><path d="m203.469 327.509c-11.921-6.611-25.444-8.341-38.052-5.618 5.124 1.111 10.153 2.972 14.924 5.618 22.16 12.29 32.966 38.199 26.107 62.592l-15.197 54.047c-6.831 24.293-26.922 42.561-51.753 47.056l-22.356 4.047c5.139 1.746 10.757 2.24 16.398 1.218l29.085-5.265c24.831-4.495 44.923-22.763 51.753-47.056l15.197-54.047c6.861-24.393-3.946-50.302-26.106-62.592z" fill="#c8effe"/><path d="m410.759 448.837-10.93 27.46c-5.79 14.52-21 22.96-36.37 20.17l-29.09-5.26c-24.83-4.5-44.92-22.77-51.75-47.06l-15.2-54.05c-5.92-21.05 1.32-43.23 17.66-56.8 2.59-2.17 5.42-4.11 8.45-5.79 1.41-.78 2.85-1.5 4.3-2.14 21.35-9.51 46.65-4.41 62.62 13.14l37.8 41.51c16.99 18.66 21.85 45.38 12.51 68.82z" fill="#eaf6ff"/><path d="m398.249 380.019-37.8-41.511c-13.387-14.701-33.325-20.666-51.996-16.617 10.83 2.339 20.986 7.96 28.869 16.617l37.8 41.511c16.99 18.659 21.847 45.375 12.511 68.82l-10.935 27.461c-3.66 9.192-11.102 15.94-19.97 18.952l6.729 1.218c15.377 2.784 30.587-5.651 36.368-20.17l10.935-27.461c9.336-23.445 4.479-50.161-12.511-68.82z" fill="#c8effe"/><path d="m189.599 251.368c-.97 3.81-2.36 7.56-4.2 11.19-.46.91-.95 1.81-1.47 2.69-12.04 20.84-36.47 31.45-60.1 25.74l-54.58-13.16c-24.53-5.92-43.54-25.31-48.96-49.96l-6.35-28.86c-3.35-15.27 4.51-30.78 18.8-37.1l27.03-11.96c23.08-10.2 49.96-6.35 69.24 9.93l42.9 36.22c16.25 13.73 22.8 35.319 17.69 55.27z" fill="#eaf6ff"/><path d="m171.905 196.097-42.897-36.219c-15.182-12.818-35.073-17.927-54.111-14.54 11.216 1.998 21.936 6.9 30.984 14.54l42.897 36.219c19.361 16.347 24.947 43.858 13.496 66.462-7.63 15.06-21.492 25.301-37.179 28.708 24.236 5.247 49.051-6.49 60.307-28.708 11.45-22.603 5.864-50.114-13.497-66.462z" fill="#c8effe"/><path d="m483.059 199.008-6.35 28.86c-5.42 24.65-24.43 44.04-48.96 49.96l-54.58 13.16c-23.21 5.61-47.18-4.52-59.44-24.62-.76-1.23-1.47-2.5-2.13-3.81-1.64-3.23-2.92-6.56-3.87-9.95-5.7-20.29.77-42.5 17.36-56.51l42.9-36.22c19.28-16.28 46.16-20.13 69.24-9.93l27.03 11.96c14.29 6.319 22.15 21.829 18.8 37.1z" fill="#eaf6ff"/><path d="m464.261 161.907-27.032-11.955c-12.249-5.417-25.57-6.873-38.256-4.613 5.141.915 10.221 2.443 15.128 4.613l27.032 11.955c14.292 6.321 22.152 21.836 18.794 37.098l-6.35 28.868c-5.422 24.646-24.428 44.039-48.96 49.956l-54.578 13.163c-.421.102-.843.185-1.264.276 7.858 1.707 16.171 1.706 24.392-.276l54.578-13.163c24.532-5.917 43.538-25.31 48.96-49.956l6.35-28.868c3.358-15.263-4.502-30.777-18.794-37.098z" fill="#c8effe"/><g fill="#6fd7a3"><circle cx="248.499" cy="323.877" r="7.608"/><circle cx="248.499" cy="218.417" r="7.608"/><path d="m207.752 300.828c-2.624 0-5.17-1.378-6.546-3.829-2.028-3.611-.744-8.184 2.867-10.211l23.166-12.913c3.614-2.029 8.184-.746 10.212 2.867 2.028 3.611.744 8.184-2.867 10.211l-23.166 12.913c-1.162.652-2.423.962-3.666.962z"/><path d="m293.113 301.166c-1.167 0-2.35-.273-3.456-.849l-27.409-14.211c-3.674-1.912-5.103-6.441-3.19-10.115s6.442-5.101 10.115-3.191l27.409 14.211c3.674 1.912 5.103 6.441 3.19 10.115-1.336 2.569-3.951 4.04-6.659 4.04z"/></g><path d="m255.999 166.417v22.15c-2.46.35-4.96.52-7.5.52s-5.04-.17-7.5-.52v-22.15c0-4.14 3.36-7.5 7.5-7.5s7.5 3.361 7.5 7.5z" fill="#c8effe"/><path d="m255.999 179.697v8.87c-2.46.35-4.96.52-7.5.52s-5.04-.17-7.5-.52v-1.76c5.37-1.6 10.43-4.009 15-7.11z" fill="#99e6fc"/><path d="m248.499 138.247c-4.142 0-7.5-3.357-7.5-7.5v-40.835c0-4.143 3.358-7.5 7.5-7.5s7.5 3.357 7.5 7.5v40.836c0 4.142-3.358 7.499-7.5 7.499z" fill="#c8effe"/><path d="m189.599 251.368c-.97 3.81-2.36 7.56-4.2 11.19-.46.91-.95 1.81-1.47 2.69l-19.49-7.56-64.91-25.19c-3.86-1.5-5.78-5.84-4.28-9.71 1.5-3.86 5.84-5.77 9.71-4.27l62.98 24.44z" fill="#c8effe"/><path d="m189.599 251.368c-.97 3.81-2.36 7.56-4.2 11.19-.46.91-.95 1.81-1.47 2.69l-19.49-7.56c1.88-4.79 3.04-9.75 3.5-14.73z" fill="#99e6fc"/><path d="m401.019 232.497-87.29 33.87c-.76-1.23-1.47-2.5-2.13-3.81-1.64-3.23-2.92-6.56-3.87-9.95l87.86-34.09c3.87-1.5 8.21.41 9.71 4.27 1.5 3.87-.42 8.21-4.28 9.71z" fill="#c8effe"/><path d="m340.389 414.877c-1.17.67-2.45.99-3.72.99-2.6 0-5.13-1.36-6.51-3.78l-45.08-78.79c2.59-2.17 5.42-4.11 8.45-5.79 1.41-.78 2.85-1.5 4.3-2.14l45.35 79.27c2.05 3.6.81 8.181-2.79 10.24z" fill="#c8effe"/><path d="m213.019 334.237-10.12 17-36.31 60.96c-1.41 2.36-3.9 3.67-6.45 3.67-1.31 0-2.63-.34-3.83-1.06-3.56-2.12-4.73-6.72-2.61-10.28l39.8-66.82 6.99-11.73c1 .47 2 .99 2.98 1.53 3.47 1.92 6.66 4.18 9.55 6.73z" fill="#c8effe"/><path d="m213.019 334.237-10.12 17c-2.41-4.92-5.56-9.49-9.4-13.53l6.99-11.73c1 .47 2 .99 2.98 1.53 3.47 1.92 6.66 4.18 9.55 6.73z" fill="#99e6fc"/><circle cx="248.499" cy="270.442" fill="#ffd15b" r="23.128"/><path d="m248.499 247.314c-3.359 0-6.547.722-9.427 2.009 8.073 3.609 13.701 11.704 13.701 21.118s-5.628 17.509-13.701 21.118c2.88 1.288 6.068 2.009 9.427 2.009 12.773 0 23.128-10.354 23.128-23.128s-10.355-23.126-23.128-23.126z" fill="#ffc344"/></g></svg>