<svg id="Capa_1" enable-background="new 0 0 497 497" height="512" viewBox="0 0 497 497" width="512" xmlns="http://www.w3.org/2000/svg"><g><path d="m332.59 75.526c-.955 0-1.925-.184-2.863-.571-3.828-1.582-5.648-5.969-4.065-9.796 16.245-39.292 44.053-52.124 45.229-52.651 3.78-1.692 8.218-.004 9.912 3.776 1.689 3.769.014 8.191-3.744 9.896-.163.076-6.062 2.864-13.552 9.683-6.95 6.325-16.751 17.537-23.982 35.026-1.196 2.891-3.99 4.637-6.935 4.637z" fill="#b2529f"/><path d="m380.4 80.07c-1.783 0-3.573-.632-5.004-1.916-3.084-2.766-3.342-7.507-.577-10.591l30.652-33.659c2.766-3.084 7.508-3.342 10.591-.577 3.084 2.766 3.342 7.507.577 10.591l-30.652 33.659c-1.482 1.652-3.53 2.493-5.587 2.493z" fill="#c365af"/><path d="m251.899 320.2-49.5 15.97-15.4 4.97-97.32-154.2c-7.84-12.42-14.08-25.77-18.59-39.75l-16.53-51.22c-1.1-3.41-1.62-6.88-1.62-10.28 0-14.15 9.03-27.3 23.22-31.88 4.66-1.51 8.88-3.99 12.4-7.24 3.53-3.25 6.36-7.25 8.24-11.77 8.05-19.33 31.47-26.88 49.29-15.9 5.35 3.3 11.44 4.99 17.58 4.99 3.46 0 6.92-.54 10.28-1.62 4.78-1.54 9.65-1.95 14.32-1.38 12.56 1.53 23.7 10.15 27.84 22.97l16.52 51.22c4.51 13.98 7.25 28.47 8.14 43.13z" fill="#c365af"/><path d="m251.899 320.2-49.5 15.97h-10.26l-45.28-181.62c-3.65-14.23-5.5-28.85-5.5-43.54v-53.82c0-9.25 3.75-17.62 9.81-23.68 6.07-6.06 14.44-9.81 23.69-9.81 4.67 0 9.23-.98 13.41-2.81 12.56 1.53 23.7 10.15 27.84 22.97l16.52 51.22c4.51 13.98 7.25 28.47 8.14 43.13z" fill="#b2529f"/><path d="m262.029 363.14-51.85-26.97-20.73-10.78-45.61-23.73-46.34-68.9c-8.06-12.28-14.54-25.53-19.29-39.42l-17.42-50.92c-1.23-3.59-1.81-7.25-1.81-10.85 0-13.93 8.75-26.93 22.66-31.69 4.64-1.58 8.82-4.15 12.28-7.45 3.46-3.31 6.22-7.35 8.02-11.91 6.39-16.15 23.49-24.38 39.42-20.64 3.28.77 6.51 2.05 9.59 3.87 5.22 3.1 11.12 4.68 17.06 4.68 3.65 0 7.32-.6 10.85-1.81 17.5-5.98 36.55 3.35 42.53 20.85l17.42 50.93c4.76 13.89 7.75 28.33 8.9 42.97l12.2 154.8z" fill="#978ecb"/><path d="m194.93 292.19 19.86 20.81c-.35 1.6-1.21 3.08-2.52 4.17-2.2 1.84-5.26 2.27-7.88 1.09-31.43-14.09-80.01-101.18-85.45-111.06-1.99-3.63-.67-8.19 2.96-10.19s8.19-.67 10.19 2.96c11.27 20.49 40.1 68.55 62.84 92.22z" fill="#8379c1"/><path d="m259.909 336.17h-67.77l-2.69-10.78-42.59-170.84c-3.65-14.23-5.5-28.85-5.5-43.54v-51.13c3.28.77 6.51 2.05 9.59 3.87 5.22 3.1 11.12 4.68 17.06 4.68 3.65 0 7.32-.6 10.85-1.81 17.5-5.98 36.55 3.35 42.53 20.85l17.42 50.93c4.76 13.89 7.75 28.33 8.9 42.97z" fill="#8379c1"/><path d="m344.496 63.751c18.015-10.669 41.3-2.703 49.005 16.765 3.608 9.116 11.028 16.193 20.303 19.366 17.503 5.988 26.839 25.031 20.851 42.535l-17.42 50.921c-4.754 13.896-11.235 27.139-19.291 39.419l-46.342 68.904-118.191 61.482 14.323-181.774c1.154-14.641 4.142-29.079 8.896-42.975l17.42-50.921c5.988-17.503 25.031-26.839 42.535-20.851 9.275 3.174 19.476 2.125 27.911-2.871z" fill="#978ecb"/><path d="m368.02 210.47c-21.46 51.52-72.91 105.76-75.08 108.05-1.46 1.52-3.43 2.32-5.43 2.32-1.24 0-2.48-.3-3.62-.93-2.98-1.64-4.48-5.08-3.66-8.38l22.07-26.52c16.78-20.38 39.77-51.24 51.88-80.3 1.59-3.83 5.98-5.64 9.8-4.04 3.83 1.59 5.64 5.98 4.04 9.8z" fill="#8379c1"/><g><path d="m413.804 99.882c-9.276-3.173-16.696-10.251-20.303-19.366-6.792-17.162-25.691-25.376-42.414-19.775 9.16 3.043 17.034 9.938 20.927 19.775 3.608 9.115 11.028 16.193 20.303 19.366 17.503 5.988 26.839 25.031 20.851 42.535l-17.42 50.92c-4.754 13.896-11.235 27.139-19.291 39.419l-46.342 68.905-95.786 49.827-.918 11.655 118.191-61.482 46.342-68.905c8.056-12.28 14.537-25.523 19.291-39.419l17.42-50.92c5.988-17.503-3.347-36.547-20.851-42.535z" fill="#8379c1"/></g><path d="m273.618 11.945c-13.592-15.926-38.202-15.926-51.793 0-6.364 7.457-15.675 11.752-25.479 11.752-18.499 0-33.496 14.997-33.496 33.496v53.818c0 14.686 1.845 29.315 5.493 43.541l45.286 181.615h68.186l45.285-181.616c3.648-14.226 5.493-28.855 5.493-43.541v-53.818c0-18.499-14.997-33.496-33.496-33.496-9.804 0-19.115-4.294-25.479-11.751z" fill="#c2bce0"/><g fill="#aca6d6"><path d="m248.499 156.265c-4.142 0-7.5-3.357-7.5-7.5v-46.596c0-4.143 3.358-7.5 7.5-7.5s7.5 3.357 7.5 7.5v46.596c0 4.142-3.358 7.5-7.5 7.5z"/><path d="m248.499 295.46c-4.142 0-7.5-3.357-7.5-7.5v-103.757c0-4.143 3.358-7.5 7.5-7.5s7.5 3.357 7.5 7.5v103.757c0 4.143-3.358 7.5-7.5 7.5z"/><path d="m299.097 23.697c-9.804 0-19.115-4.295-25.479-11.752-9.38-10.991-24.008-14.394-36.64-10.213 5.672 1.877 10.942 5.279 15.153 10.213 6.364 7.457 15.675 11.752 25.479 11.752 18.499 0 33.496 14.997 33.496 33.496v53.818c0 14.687-1.845 29.315-5.493 43.541l-45.286 181.615h21.487l45.286-181.616c3.648-14.226 5.493-28.854 5.493-43.541v-53.818c0-18.499-14.997-33.495-33.496-33.495z"/></g><path d="m143.841 301.662h20.692c21.245 4.369 45.388 8.013 63.182 22.668l9.231-34.866c1.222-4.616 9.535-23.577 10.776-18.966l22.522 54.511 1.125-.919c17.75-14.505 39.968-22.429 62.89-22.429h17.344l-16.192 13.845c-19.575 16.737-31.761 40.517-33.916 66.182l-2.948 35.123c-.659 10.091-10.388 15.185-19.671 13.946-26.143.726-4.023 43.524-53.99 64.193.001.001-4.331 1.699-4.331 1.699-4.623 1.812-8.562-3.808-5.282-7.535 7.814-8.88 12.916-19.816 14.699-31.509 2.993-12.513 2.289-25.649-13.506-26.847-7.94 0-14.528-6.142-15.082-14.063l-2.385-31.561c-2.092-27.688-15.85-53.184-37.845-70.132z" fill="#9be69d"/><g fill="#6fd7a3"><path d="m240.524 292.816 5.855 22.899c1.398 5.469 6.326 9.295 11.971 9.295h11.893l-16.985-63.148c-1.24-4.611-7.787-4.598-9.009.018l-7.303 27.585c1.602.308 3.058 1.417 3.578 3.351z"/><path d="m206.228 324.33h21.487c-17.794-14.655-40.13-22.668-63.182-22.668h-20.692l.023.018c22.761.187 44.78 8.169 62.364 22.65z"/><path d="m334.258 301.662c-1.42 0-2.837.031-4.251.092l-16.085 13.753c-19.575 16.737-31.761 40.517-33.916 66.182l-2.948 35.123c-.659 10.091-10.388 15.185-19.671 13.946-23.663.657-7.789 35.781-41.615 57.766-.168.196-.33.396-.501.59-3.28 3.727.659 9.347 5.282 7.535 0 0 4.332-1.698 4.331-1.699 49.967-20.669 27.847-63.467 53.99-64.193 9.283 1.239 19.012-3.855 19.671-13.946l2.948-35.123c2.154-25.665 14.341-49.445 33.916-66.182l16.192-13.844z"/></g><circle cx="436.467" cy="68.025" fill="#b2529f" r="7.594"/><circle cx="432.463" cy="13.831" fill="#b2529f" r="7.594"/></g></svg>