<svg id="Capa_1" enable-background="new 0 0 497 497" height="512" viewBox="0 0 497 497" width="512" xmlns="http://www.w3.org/2000/svg"><g><path d="m79.189 355.77c-2.15 5.91-3.27 12.2-3.27 18.59 0 21.99 13.23 41.82 33.54 50.25l77.89 32.34c12.7 5.27 22.47 15.85 26.72 28.93.29.88.42 1.77.42 2.64 0 4.52-3.66 8.48-8.5 8.48h-10.98c-2.15 0-4.29-.19-6.4-.57h-.01c-2.11-.38-4.18-.95-6.19-1.69l-118.33-43.89c-27.89-10.35-46.4-36.95-46.4-66.7v-43.58c0-11.57 2.82-22.96 8.21-33.19l84.39-158.76 104.99-8.8 120.89-10.13 10.46 121.88-45.51 45.42h-175.95l-18.45 21.42-18.09 21.01c-4.1 4.9-7.28 10.44-9.43 16.35z" fill="#ffd15b"/><path d="m88.619 339.42 18.09-21.01 18.45-21.42h121.229l.58-45.9c.2-15.61-5.89-30.64-16.89-41.71l-10.19-10.26c-18.34-18.46-46.72-22.48-69.48-9.84l-37.29 20.71c-13.34 7.41-20.62 22.35-18.25 37.42l5.239 33.248c1.654 10.497-1.39 21.19-8.324 29.241l-25.424 29.521c-4.1 4.9-7.28 10.44-9.43 16.35s-3.27 12.2-3.27 18.59c0 21.99 13.23 41.82 33.54 50.25l77.89 32.34c12.7 5.27 22.47 15.85 26.72 28.93l.54 1.61c1.2 3.57-.51 7.37-3.74 8.94 2.11.38 4.25.57 6.4.57h10.98c4.84 0 8.5-3.96 8.5-8.48 0-.87-.13-1.76-.42-2.64-4.25-13.08-14.02-23.66-26.72-28.93l-77.89-32.34c-20.31-8.43-33.54-28.26-33.54-50.25 0-6.39 1.12-12.68 3.27-18.59s5.33-11.45 9.43-16.35z" fill="#ffc344"/><path d="m346.618 251.57-10.42 10.4-35.09 35.02h-98.92v-115.02l13.08-42.15 95.6-8.01 25.29-2.12z" fill="#fe646f"/><path d="m346.618 251.57-10.42 10.4-28.37-24.36c-11.84-10.17-19.09-24.67-20.13-40.25l-.97-14.42c-1.36-20.44 8.1-39.63 24.14-51.13l25.29-2.12z" fill="#fd4755"/><path d="m242.361 199.125 10.19 10.256c11.001 11.072 17.088 26.103 16.892 41.71l-.78 61.971c-.203 16.172-11.072 30.263-26.662 34.567l-50.869 14.044c-11.141 3.076-23.074-.094-31.22-8.293l-23.449-23.601c-4.744-4.775-7.862-10.924-8.91-17.573l-10.213-64.793c-2.375-15.067 4.914-30.014 18.249-37.421l37.296-20.716c22.752-12.637 51.132-8.614 69.476 9.849z" fill="#fea95c"/><path d="m252.55 209.38-10.19-10.256c-13.98-14.071-33.786-19.743-52.49-16.058 11.108 2.185 21.617 7.602 30.019 16.058l10.19 10.256c11.001 11.073 17.088 26.103 16.892 41.71l-.779 61.971c-.203 16.172-11.072 30.263-26.662 34.567l-47.919 13.229c6.163 2.258 12.976 2.622 19.521.815l50.868-14.044c15.59-4.304 26.458-18.395 26.662-34.567l.779-61.971c.197-15.607-5.89-30.637-16.891-41.71z" fill="#fe9738"/><path d="m308.995 182.94.962 14.425c1.039 15.574 8.296 30.075 20.138 40.243l47.022 40.372c12.271 10.536 30.029 11.692 43.562 2.837l44.16-28.894c9.671-6.328 15.179-17.378 14.41-28.91l-2.214-33.196c-.448-6.716-3.002-13.12-7.3-18.301l-41.875-50.486c-9.738-11.741-25.772-16.149-40.144-11.037l-40.196 14.298c-24.521 8.723-40.258 32.68-38.525 58.649z" fill="#fea95c"/><path d="m479.249 223.013-2.215-33.196c-.448-6.716-3.002-13.12-7.3-18.301l-41.875-50.486c-9.503-11.457-24.997-15.905-39.096-11.364 6.434 2.072 12.315 5.917 16.833 11.364l41.875 50.486c4.297 5.181 6.852 11.585 7.3 18.301l2.214 33.196c.769 11.532-4.739 22.582-14.41 28.91l-44.16 28.894c-2.772 1.814-5.723 3.2-8.765 4.179 10.214 3.285 21.637 1.965 31.028-4.179l44.16-28.894c9.673-6.328 15.181-17.379 14.411-28.91z" fill="#fe9738"/><path d="m225.159 155.435 97.229-20.768c19.458-4.156 35.04-18.699 40.528-37.824l5.171-18.023c5.026-17.516-3.104-36.132-19.368-44.351l-60.135-30.388c-14.744-7.451-32.615-4.51-44.195 7.271l-19.23 19.565-8.06 60.279z" fill="#fea95c"/><path d="m348.72 34.469-60.136-30.388c-8.966-4.531-19.086-5.212-28.247-2.406 2.035.625 4.037 1.422 5.984 2.406l60.135 30.387c16.264 8.219 24.394 26.835 19.368 44.351l-5.171 18.023c-5.487 19.125-21.07 33.668-40.528 37.824l-74.967 16.013v4.755l97.229-20.768c19.458-4.156 35.041-18.699 40.528-37.824l5.171-18.023c5.028-17.515-3.102-36.131-19.366-44.35z" fill="#fe9738"/><path d="m225.159 155.435-22.967 26.539-53.982-11.545c-23.635-5.055-43.113-21.716-51.768-44.283l-4.878-12.718c-5.546-14.459-2.755-30.791 7.278-42.588l36.248-42.623c11.317-13.308 29.646-18.297 46.148-12.563l43.922 15.264v124.517z" fill="#fea95c"/><path d="m181.238 15.654c-8.257-2.869-16.972-3.053-25.037-.854.929.253 1.855.534 2.774.854l30.207 10.498c8.211 2.853 13.715 10.593 13.715 19.286v98.166c0 7.632-2.749 15.008-7.742 20.778l-11.747 13.575 18.786 4.018 22.967-26.539v-124.518z" fill="#fe9738"/><path d="m307.83 237.201h14.457c15.608 0 30.561 6.276 41.494 17.415l43.412 44.231c11.329 11.543 13.665 29.184 5.73 43.277l-25.89 45.985c-5.67 10.071-16.33 16.302-27.887 16.302h-33.27c-6.731 0-13.291-2.122-18.746-6.065l-53.161-38.422c-12.363-8.935-17.828-24.64-13.684-39.32l11.591-41.058c7.072-25.048 29.928-42.345 55.954-42.345z" fill="#fea95c"/><path d="m407.194 298.847-43.412-44.231c-10.933-11.139-25.886-17.415-41.494-17.415h-14.458c-1.323 0-2.636.056-3.941.145 14.193.945 27.603 7.055 37.63 17.27l43.412 44.231c11.329 11.543 13.665 29.184 5.73 43.277l-25.89 45.985c-5.67 10.071-16.33 16.302-27.887 16.302h22.262c11.557 0 22.217-6.231 27.887-16.302l25.89-45.985c7.936-14.093 5.6-31.735-5.729-43.277z" fill="#fe9738"/><path d="m263.15 176.911c-.451 0-.907-.04-1.366-.125-4.073-.749-6.769-4.659-6.019-8.733l14.253-77.459c.75-4.073 4.665-6.772 8.733-6.019 4.073.749 6.769 4.659 6.019 8.733l-14.253 77.459c-.665 3.615-3.819 6.144-7.367 6.144z" fill="#ffd15b"/><path d="m277.403 201.219c-2.731 0-5.365-1.496-6.689-4.096-1.88-3.689-.416-8.203 3.272-10.085 1.954-.997 48.42-24.409 95.781-23.125 4.141.111 7.406 3.559 7.295 7.699s-3.521 7.406-7.699 7.295c-43.446-1.159-88.119 21.268-88.564 21.494-1.09.555-2.252.818-3.396.818z" fill="#ffd15b"/><path d="m365.393 220.292c-.648 0-1.307-.085-1.962-.262-17.951-4.853-42.18-1.383-49.177-.205-4.091.692-7.954-2.065-8.642-6.149-.688-4.085 2.065-7.954 6.149-8.642 7.759-1.307 34.691-5.132 55.583.516 3.999 1.081 6.364 5.198 5.283 9.197-.902 3.343-3.929 5.545-7.234 5.545z" fill="#ffd15b"/><g fill="#ffc344"><circle cx="284.987" cy="57.907" r="7.594"/><circle cx="405.686" cy="171.363" r="7.594"/><circle cx="401.687" cy="217.63" r="7.594"/><circle cx="320.602" cy="272.35" r="7.594"/></g></g></svg>