<svg id="Capa_1" enable-background="new 0 0 497.001 497.001" height="512" viewBox="0 0 497.001 497.001" width="512" xmlns="http://www.w3.org/2000/svg"><g><g><path d="m101.245 340.204h-49.318c-4.143 0-7.5-3.357-7.5-7.5s3.357-7.5 7.5-7.5h49.318c4.143 0 7.5 3.357 7.5 7.5s-3.357 7.5-7.5 7.5z" fill="#3ec3a4"/></g><g><path d="m148.021 389.127h-66.663c-4.143 0-7.5-3.357-7.5-7.5s3.357-7.5 7.5-7.5h66.663c4.143 0 7.5 3.357 7.5 7.5s-3.358 7.5-7.5 7.5z" fill="#3ec3a4"/></g><g><path d="m189.637 430.743h-82.311c-4.143 0-7.5-3.357-7.5-7.5s3.357-7.5 7.5-7.5h82.311c4.143 0 7.5 3.357 7.5 7.5s-3.358 7.5-7.5 7.5z" fill="#3ec3a4"/></g><g><path d="m112.518 327.746c-4.143 0-7.5-3.357-7.5-7.5v-48.119c0-4.143 3.357-7.5 7.5-7.5s7.5 3.357 7.5 7.5v48.119c0 4.143-3.357 7.5-7.5 7.5z" fill="#3ec3a4"/></g><g><path d="m161.441 374.521c-4.143 0-7.5-3.357-7.5-7.5v-47.296c0-4.143 3.357-7.5 7.5-7.5s7.5 3.357 7.5 7.5v47.296c0 4.143-3.358 7.5-7.5 7.5z" fill="#3ec3a4"/></g><g><path d="m445.074 361.745h-51.068c-4.143 0-7.5-3.357-7.5-7.5s3.357-7.5 7.5-7.5h51.068c4.143 0 7.5 3.357 7.5 7.5s-3.358 7.5-7.5 7.5z" fill="#3ec3a4"/></g><g><path d="m415.643 410.668h-68.413c-4.143 0-7.5-3.357-7.5-7.5s3.357-7.5 7.5-7.5h68.413c4.143 0 7.5 3.357 7.5 7.5s-3.357 7.5-7.5 7.5z" fill="#3ec3a4"/></g><g><path d="m389.675 452.284h-84.061c-4.143 0-7.5-3.357-7.5-7.5s3.357-7.5 7.5-7.5h84.061c4.143 0 7.5 3.357 7.5 7.5s-3.357 7.5-7.5 7.5z" fill="#3ec3a4"/></g><g><path d="m384.483 349.453c-4.143 0-7.5-3.357-7.5-7.5v-48.284c0-4.143 3.357-7.5 7.5-7.5s7.5 3.357 7.5 7.5v48.284c0 4.143-3.358 7.5-7.5 7.5z" fill="#3ec3a4"/></g><g><path d="m338.56 393.256c-4.143 0-7.5-3.357-7.5-7.5v-53.486c0-4.143 3.357-7.5 7.5-7.5s7.5 3.357 7.5 7.5v53.485c0 4.143-3.357 7.501-7.5 7.501z" fill="#3ec3a4"/></g><path d="m294.532 437.284c-4.143 0-7.5-3.357-7.5-7.5v-71.615c0-4.143 3.357-7.5 7.5-7.5s7.5 3.357 7.5 7.5v71.615c0 4.143-3.358 7.5-7.5 7.5z" fill="#3ec3a4"/><path d="m349.75 145.441-45.75 92.11h-110.64l-54.32-91.96c-.04-2.78.04-6.27.43-9.92h-.01l4.37-41.1c2.92-27.46 18.69-51.9 42.5-65.88l39.08-22.94c3.43-2.02 7.08-3.5 10.84-4.45 10.67-2.73 22.16-1.16 31.87 4.68l36.29 21.81c24.13 14.51 39.76 39.8 41.94 67.87l3.35 43.03c.12 2.45.11 4.77.05 6.75z" fill="#ffead9"/><path d="m349.75 145.441-45.75 92.11h-20.62l24.67-49.47 16.86-33.82c3.05-6.1 4.38-12.92 3.85-19.73l-3.02-38.87c-2.19-28.07-17.81-53.36-41.95-67.87l-36.29-21.81c-3.55-2.14-7.35-3.68-11.25-4.67v-.01c10.67-2.73 22.16-1.16 31.87 4.68l36.29 21.81c24.13 14.51 39.76 39.8 41.94 67.87l3.35 43.03c.12 2.45.11 4.77.05 6.75z" fill="#fedba6"/><g><path d="m255.26 453.371-12.05 12.05-10.04 10.04-28.95-28.95-95.5-95.5c-9.91-9.91-18.73-20.85-26.32-32.63l-21.17-32.88c-1.71-2.66 1.41-5.78 4.07-4.07l32.88 21.17c11.78 7.59 22.72 16.41 32.63 26.32z" fill="#6fd7a3"/></g><path d="m243.21 441.321v24.1l-10.04 10.04-28.95-28.95v-44.18z" fill="#3ec3a4"/><g><path d="m435.77 307.041-21.17 32.88c-7.59 11.78-16.41 22.72-26.32 32.63l-116.5 116.5c-2.4 2.4-5.24 4.09-7.95 5.26-.65.29-1.29.54-1.92.77l-20.17-20.17 1.47-1.47 20.62-20.62 102.36-102.36c9.91-9.91 20.85-18.73 32.63-26.32l7.63-4.91 25.25-16.26c2.66-1.71 5.78 1.41 4.07 4.07z" fill="#6fd7a3"/></g><path d="m435.77 307.041-21.17 32.88c-7.59 11.78-16.41 22.72-26.32 32.63l-116.5 116.5c-2.4 2.4-5.24 4.09-7.95 5.26-.65.29-1.29.54-1.92.77l-8.39-8.39 10.31-10.31 103.84-103.83c9.9-9.91 18.72-20.85 26.31-32.63l12.25-17.92c.61-.94.6-1.95.22-2.77l25.25-16.26c2.66-1.71 5.78 1.41 4.07 4.07z" fill="#3ec3a4"/><path d="m349.75 145.441c-.01.13-.01.26-.02.39-.09 2.8-.29 4.86-.37 5.58-.02.18-.03.27-.03.27l-8.6 68.34c-3.32 26.4-14.92 51.07-33.12 70.48l-35.69 38.04c-5.2 5.54-8.09 12.85-8.09 20.45v145.32c-.65.29-1.29.54-1.92.77-4.59 1.66-8.39 1.92-8.39 1.92h-18.94c-5.38 0-9.75-4.36-9.75-9.75v-138.26c0-7.6-2.89-14.91-8.08-20.45l-35.69-38.04c-18.21-19.41-29.8-44.08-33.13-70.48l-5.84-46.44-2.76-21.9s0 0 0-.01c-.02-.17-.23-2.44-.29-5.8v-.28l28.96 34.24v.01l4.28 5.06c4.98 5.89 14.57 3.45 16.13-4.11l3.36-16.22 2.46-11.91c1.38-6.65 10.56-7.43 13.04-1.11l4.68 11.9v.01l2.19 5.57c3.41 8.69 16.07 7.44 17.73-1.74l2.15-11.94v-.01l3.59-19.91c1.35-7.48 12.09-7.48 13.44 0l5.75 31.86c1.65 9.18 14.31 10.43 17.73 1.74l1.75-4.46 5.11-13.02c2.48-6.32 11.67-5.54 13.04 1.11l5.62 27.17.2.96c.86 4.18 4.17 6.79 7.8 7.29 2.95.42 6.11-.54 8.34-3.18l9.57-11.32z" fill="#6fd7a3"/><g fill="#3ec3a4"><path d="m236.179 167.289c1.656 9.183 14.32 10.427 17.731 1.741l2.193-5.584-5.052-28.014c-1.35-7.487-12.086-7.487-13.436 0l-3.59 19.91z"/><path d="m279.634 180.794c1.564 7.561 11.152 9.999 16.138 4.103l4.281-5.062-5.621-27.175c-1.375-6.648-10.557-7.431-13.039-1.112l-5.114 13.022z"/><path d="m168 179.831v.01l-.2.95c-.58 2.82-2.28 4.92-4.43 6.14-3.63 2.08-8.58 1.67-11.71-2.03l-9.57-11.32-2.76-21.9s0 0 0-.01c-.02-.17-.23-2.44-.29-5.8v-.28z"/><path d="m193.523 169.03c3.411 8.686 16.075 7.442 17.731-1.741l.693-3.843-4.673-11.898c-2.481-6.319-11.663-5.536-13.039 1.112l-2.464 11.91z"/><path d="m349.75 145.441c-.01.13-.01.26-.02.39-.09 2.8-.29 4.86-.37 5.58-.02.18-.03.27-.03.27l-8.6 68.34c-3.32 26.4-14.92 51.07-33.12 70.48l-35.69 38.04c-5.2 5.54-8.09 12.85-8.09 20.45v145.32c-.65.29-1.29.54-1.92.77-4.59 1.66-8.39 1.92-8.39 1.92h-10.31v-148.01c0-7.6 2.9-14.91 8.09-20.45l35.69-38.04c18.21-19.41 29.8-44.08 33.12-70.48l2.49-19.78 3.36-26.66z"/></g><g fill="#fedba6"><circle cx="174.851" cy="119.284" r="7.697"/><circle cx="209.092" cy="101.173" r="7.697"/><circle cx="245.333" cy="101.173" r="7.697"/><circle cx="281.574" cy="101.173" r="7.697"/><circle cx="315.815" cy="119.284" r="7.697"/></g><g fill="#fedba6"><circle cx="174.851" cy="83.062" r="7.697"/><circle cx="209.092" cy="64.95" r="7.697"/><circle cx="245.333" cy="64.95" r="7.697"/><circle cx="281.574" cy="64.95" r="7.697"/><circle cx="315.815" cy="83.062" r="7.697"/></g><g><circle cx="245.333" cy="28.727" fill="#fedba6" r="7.697"/></g><path d="m246.5 260.393c-4.143 0-7.5-3.357-7.5-7.5v-39.473c0-4.143 3.357-7.5 7.5-7.5s7.5 3.357 7.5 7.5v39.473c0 4.143-3.357 7.5-7.5 7.5z" fill="#3ec3a4"/><g><path d="m211.871 279.629c-3.087 0-5.979-1.92-7.068-4.995l-17.837-50.295c-1.385-3.904.657-8.191 4.562-9.575 3.906-1.383 8.191.657 9.575 4.562l17.837 50.295c1.385 3.904-.657 8.191-4.562 9.575-.83.293-1.675.433-2.507.433z" fill="#3ec3a4"/></g><g><path d="m281.13 279.629c-.832 0-1.678-.14-2.507-.434-3.904-1.384-5.946-5.671-4.562-9.575l17.837-50.295c1.384-3.904 5.671-5.944 9.575-4.562 3.904 1.384 5.946 5.671 4.562 9.575l-17.837 50.295c-1.089 3.076-3.982 4.996-7.068 4.996z" fill="#3ec3a4"/></g></g></svg>