<svg id="Capa_1" enable-background="new 0 0 497 497" height="512" viewBox="0 0 497 497" width="512" xmlns="http://www.w3.org/2000/svg"><g><path d="m236.13 128.758c-2.11 10.09-7.14 19.52-14.73 26.99-2 1.98-4.19 3.82-6.54 5.49l-26.58 18.91c-21.07 14.98-49.85 12.68-68.28-5.45l-.89-.88-29.25-28.79c-23.62-23.25-20.51-62.2 6.5-81.41l38.6-27.45c7.71-5.48 16.3-8.6 24.98-9.56 21.7-2.39 43.9 8.74 54.05 30.14l18.13 38.22c5.16 10.861 6.34 22.71 4.01 33.79z" fill="#fe646f"/><path d="m334.619 177.818-27.513-17.526c-21.803-13.889-30.496-41.422-20.619-65.312l16.159-39.086c12.665-30.635 49.926-42.398 77.885-24.588l39.946 25.445c27.959 17.81 33.049 56.551 10.639 80.978l-28.592 31.166c-17.475 19.05-46.102 22.812-67.905 8.923z" fill="#fe646f"/><path d="m236.13 128.758c-2.11 10.09-7.14 19.52-14.73 26.99-2 1.98-4.19 3.82-6.54 5.49l-26.58 18.91c-21.07 14.98-49.85 12.68-68.28-5.45l-.89-.88c4.93-7.45 12.79-12.93 22.26-14.59 5.11-.9 9.88-2.95 13.97-5.93 4.1-2.97 7.52-6.87 9.96-11.46.008-.015.016-.031.024-.046 1.432-2.694 1.234-5.923-.54-8.405-4.491-6.282-7.667-13.617-9.084-21.649l-7.37-41.64c-2.89-16.3 1.93-31.93 11.61-43.49 21.7-2.39 43.9 8.74 54.05 30.14l18.13 38.22c5.16 10.861 6.34 22.71 4.01 33.79z" fill="#fd4755"/><path d="m264.939 155.753h-32.621c-25.851 0-47.975-18.552-52.48-44.007l-7.371-41.648c-5.777-32.642 19.33-62.583 52.48-62.583h47.362c33.149 0 58.256 29.94 52.479 62.583l-7.371 41.648c-4.504 25.455-26.627 44.007-52.478 44.007z" fill="#fe99a0"/><path d="m316.23 466.102c-9.72 14.31-26.27 23.78-45.24 23.37l-47.35-1c-33.14-.7-57.61-31.17-51.14-63.68l8.25-41.48c5.04-25.36 27.56-43.44 53.4-42.89l26.76.57 5.85.12c25.85.55 47.58 19.57 51.54 45.11l6.48 41.8c2.18 14.01-1.28 27.4-8.55 38.08z" fill="#fe646f"/><path d="m420.477 56.751-39.946-25.445c-12.165-7.749-26.091-9.895-38.986-7.327 6.272 1.249 12.448 3.647 18.226 7.327l39.946 25.445c27.959 17.81 33.049 56.551 10.639 80.978l-28.592 31.167c-7.907 8.619-18.1 14.097-28.909 16.237 17.814 3.538 36.776-2.183 49.669-16.237l28.592-31.167c22.41-24.427 17.32-63.168-10.639-80.978z" fill="#fd4755"/><path d="m316.23 466.102c-17.71-1.51-34.43-11.82-43.15-29.24l-18.94-37.82c-9.67-19.31-6.59-42.09 6.77-58.05l5.85.12c25.85.55 47.58 19.57 51.54 45.11l6.48 41.8c2.18 14.01-1.28 27.4-8.55 38.08z" fill="#fd4755"/><path d="m164.76 321.838c-1.62 7.93-5.04 15.39-9.96 21.78-5.37 7.01-12.54 12.75-21.11 16.45l-38.82 16.78c-19.41 8.39-40.64 4.29-55.47-8.14-8.41-7.06-14.76-16.81-17.53-28.49l-10.92-46.09c-7.65-32.25 15.69-63.59 48.79-65.49l42.22-2.44c.65-.04 1.29-.06 1.93-.08 25.03-.53 47.19 16.47 53 41l7.52 31.74c1.84 7.761 1.88 15.58.35 22.98z" fill="#fe646f"/><path d="m164.76 321.838c-1.62 7.93-5.04 15.39-9.96 21.78-5.37 7.01-12.54 12.75-21.11 16.45l-38.82 16.78c-19.41 8.39-40.64 4.29-55.47-8.14 2.62-8.36 7.36-16.22 14.27-22.74l30.77-29.02c6.18-5.83 13.44-9.92 21.14-12.24 5.51-1.67 9.01-7.14 8.34-12.86-.87-7.53-4.09-14.17-9.21-19.79-6.31-6.52-9.47-14.97-9.47-23.41 0-8.07 2.89-16.14 8.65-22.53 25.03-.53 47.19 16.47 53 41l7.52 31.74c1.84 7.761 1.88 15.58.35 22.98z" fill="#fd4755"/><path d="m340.933 288.371 10.052-31.033c7.966-24.593 32.433-39.923 58.038-36.365l41.892 5.822c32.834 4.563 53.58 37.674 43.365 69.211l-14.595 45.057c-10.215 31.536-46.435 46.195-75.709 30.641l-37.35-19.846c-22.827-12.13-33.659-38.894-25.693-63.487z" fill="#fe646f"/><path d="m450.915 226.795-41.892-5.822c-6.409-.891-12.747-.597-18.773.728l36.654 5.094c32.834 4.563 53.58 37.674 43.365 69.211l-14.595 45.057c-6.053 18.687-21.238 31.445-38.697 35.506 26.18 6.091 53.965-8.518 62.707-35.506l14.595-45.057c10.217-31.537-10.53-64.648-43.364-69.211z" fill="#fd4755"/><path d="m272.309 7.516h-24.01c33.149 0 58.256 29.94 52.48 62.582l-7.371 41.648c-4.505 25.456-26.628 44.007-52.48 44.007h24.01c25.851 0 47.975-18.552 52.48-44.007l7.37-41.648c5.778-32.642-19.329-62.582-52.479-62.582z" fill="#fd4755"/><path d="m218.85 399.038-18.94 37.82c-11.42 22.81-36.57 33.43-59.68 28.09-6.91-1.6-13.65-4.62-19.77-9.18l-38.01-28.26c-26.6-19.78-28.88-58.79-4.77-81.54l30.77-29.02c1.86-1.75 3.81-3.35 5.85-4.79 18.57-13.12 43.82-13.11 62.52.79l26.17 19.47c11.43 8.5 18.6 20.85 20.78 34.09 1.79 10.78.27 22.16-4.92 32.53z" fill="#fe99a0"/><path d="m218.85 399.038-18.94 37.82c-11.42 22.81-36.57 33.43-59.68 28.09-.01-.01-.01-.01-.02-.02 14.83-3.42 28.21-13.12 35.69-28.06l18.94-37.82c3.23-6.46 5.03-13.3 5.5-20.15.21-3.03-2.18-5.55-5.23-5.55h-.05c-12.08 0-23.73-6.53-29.76-17.89-2.44-4.59-5.86-8.49-9.96-11.46-4.09-2.98-8.86-5.03-13.97-5.93-13.81-2.42-24.22-12.96-27.07-25.91 18.57-13.12 43.82-13.11 62.52.79l26.17 19.47c11.43 8.5 18.6 20.85 20.78 34.09 1.79 10.78.27 22.16-4.92 32.53z" fill="#fe646f"/><path d="m156.33 208.432-12.26 30.23c-7.09 17.47-22.57 29.39-40.23 32.46-6.57 1.16-13.43 1.08-20.28-.38l-41.36-8.82c-32.42-6.92-50.73-41.45-38.26-72.16l17.8-43.89c12.47-30.72 49.65-42.72 77.73-25.1l35.82 22.49c5.74 3.61 10.59 8.16 14.43 13.35 10.84 14.57 13.78 34.16 6.61 51.82z" fill="#fe99a0"/><path d="m156.33 208.432-12.26 30.23c-7.09 17.47-22.57 29.39-40.23 32.46-5.73-6.38-8.6-14.43-8.6-22.47 0-8.44 3.16-16.89 9.47-23.41 6.12-6.33 9.47-14.75 9.47-23.42 0-1.57-.11-3.14-.33-4.71-.23-1.6-.34-3.19-.34-4.76 0-16.09 11.56-30.26 27.86-33.12 2.92-.51 5.72-1.4 8.35-2.62 10.84 14.57 13.78 34.16 6.61 51.82z" fill="#fe646f"/><path d="m294.006 332.417 26.177-19.465c20.745-15.425 49.568-13.739 68.372 4l30.766 29.023c24.113 22.747 21.831 61.755-4.77 81.535l-38.006 28.261c-26.601 19.78-64.614 10.735-79.456-18.906l-18.936-37.819c-11.576-23.115-4.892-51.203 15.853-66.629z" fill="#fe99a0"/><path d="m419.32 345.976-30.766-29.023c-13.309-12.555-31.634-17.057-48.564-13.155 8.961 2.07 17.469 6.472 24.554 13.155l30.766 29.023c24.113 22.747 21.831 61.754-4.77 81.535l-38.006 28.261c-6.121 4.552-12.849 7.559-19.757 9.158 14.585 3.362 30.578.65 43.768-9.158l38.006-28.261c26.6-19.781 28.883-58.788 4.769-81.535z" fill="#fd4755"/><path d="m352.93 238.663-12.265-30.227c-9.719-23.954-.846-51.43 21.048-65.175l35.821-22.488c28.075-17.626 65.258-5.618 77.722 25.1l17.807 43.887c12.463 30.717-5.841 65.239-38.26 72.158l-41.363 8.829c-25.282 5.396-50.79-8.129-60.51-32.084z" fill="#fe99a0"/><g fill="#fe646f"><path d="m493.063 189.76-17.807-43.887c-10.164-25.051-36.77-37.652-61.468-31.89 16.216 3.739 30.591 14.966 37.457 31.89l17.807 43.887c12.463 30.717-5.841 65.239-38.26 72.158l-40.469 8.638c7.409 1.715 15.273 1.865 23.117.191l41.363-8.829c32.419-6.919 50.723-41.441 38.26-72.158z"/><path d="m361.291 221.348c-3.005 0-5.84-1.818-6.993-4.787-1.5-3.861.415-8.207 4.276-9.706l55.585-21.584c3.862-1.502 8.207.416 9.706 4.276 1.5 3.861-.415 8.207-4.276 9.706l-55.585 21.584c-.892.347-1.81.511-2.713.511z"/><path d="m142.94 216.608c-1.17 2.94-3.99 4.74-6.97 4.74-.92 0-1.86-.17-2.77-.53-6.12-2.43-13.48-5.33-20.81-8.21-15.32-6.02-30.46-11.9-33.69-12.98-1.76-.34-3.41-1.32-4.58-2.87-2.01-2.68-2-6.4.04-9.06 3.4-4.45 8.17-2.72 11.01-1.69 1.58.57 3.81 1.41 6.49 2.44 4.66 1.78 11.13 4.29 19.24 7.46.98.38 1.96.77 2.94 1.15 12.88 5.06 24.89 9.82 24.89 9.82 3.85 1.52 5.74 5.88 4.21 9.73z"/></g><path d="m142.94 216.608c-1.17 2.94-3.99 4.74-6.97 4.74-.92 0-1.86-.17-2.77-.53-6.12-2.43-13.48-5.33-20.81-8.21 1.18-3.46 1.79-7.1 1.79-10.79 0-1.57-.11-3.14-.33-4.71 0-.02 0-.03-.01-.05 12.88 5.06 24.89 9.82 24.89 9.82 3.85 1.52 5.74 5.88 4.21 9.73z" fill="#fd4755"/><path d="m184.19 347.458-12.01 16.93-23.34 32.89c-1.46 2.06-3.77 3.16-6.12 3.16-1.5 0-3.02-.45-4.34-1.39-3.37-2.4-4.17-7.08-1.77-10.46l26.27-37.02 9.08-12.79c2.4-3.37 7.08-4.17 10.46-1.77s4.17 7.08 1.77 10.45z" fill="#fe646f"/><path d="m184.19 347.458-12.01 16.93c-2.71-2.5-5.05-5.49-6.88-8.93-.72-1.36-1.53-2.66-2.42-3.89l9.08-12.79c2.4-3.37 7.08-4.17 10.46-1.77s4.17 7.08 1.77 10.45z" fill="#fd4755"/><path d="m247.722 138.272c-4.142 0-7.5-3.357-7.5-7.5v-61.521c0-4.143 3.358-7.5 7.5-7.5s7.5 3.357 7.5 7.5v61.521c0 4.142-3.358 7.5-7.5 7.5z" fill="#fe646f"/><path d="m354.284 395.264c-2.195 0-4.371-.959-5.852-2.804l-35.589-44.307c-2.594-3.229-2.079-7.949 1.15-10.544s7.95-2.078 10.544 1.151l35.589 44.307c2.594 3.229 2.079 7.949-1.15 10.544-1.384 1.113-3.044 1.653-4.692 1.653z" fill="#fe646f"/><path d="m263.416 127.377c16.317-7.976 36.02-1.575 44.532 14.469 4.868 9.175 13.697 15.59 23.927 17.384 17.889 3.138 30.066 19.898 27.523 37.882-1.455 10.284 1.918 20.663 9.139 28.128 12.628 13.054 12.628 33.77 0 46.824-7.221 7.465-10.594 17.844-9.139 28.128 2.544 17.983-9.633 34.743-27.523 37.882-10.23 1.794-19.059 8.209-23.927 17.384-8.513 16.044-28.215 22.446-44.532 14.469-9.331-4.561-20.245-4.561-29.575 0-16.317 7.976-36.02 1.575-44.532-14.469-4.868-9.175-13.697-15.59-23.927-17.384-17.889-3.138-30.066-19.898-27.523-37.882 1.455-10.284-1.918-20.663-9.139-28.128-12.628-13.054-12.628-33.77 0-46.824 7.221-7.465 10.594-17.844 9.139-28.128-2.544-17.983 9.633-34.744 27.523-37.882 10.23-1.794 19.059-8.209 23.927-17.384 8.512-16.044 28.215-22.446 44.532-14.469 9.331 4.561 20.244 4.561 29.575 0z" fill="#978ecb"/><g><path d="m368.538 225.24c-7.221-7.465-10.594-17.844-9.139-28.128 2.544-17.983-9.633-34.744-27.523-37.882-10.23-1.794-19.059-8.209-23.927-17.384-8.033-15.141-26.032-21.688-41.747-15.674 7.36 2.808 13.766 8.191 17.736 15.674 4.868 9.175 13.697 15.59 23.927 17.384 17.889 3.138 30.066 19.898 27.523 37.882-1.455 10.284 1.918 20.663 9.139 28.128 12.628 13.054 12.628 33.771 0 46.824-7.221 7.465-10.594 17.844-9.139 28.128 2.544 17.983-9.633 34.743-27.523 37.881-10.23 1.794-19.059 8.209-23.927 17.384-3.97 7.483-10.376 12.866-17.736 15.674 15.715 6.014 33.713-.533 41.747-15.674 4.868-9.175 13.697-15.59 23.927-17.384 17.889-3.138 30.066-19.898 27.523-37.881-1.455-10.284 1.918-20.663 9.139-28.128 12.628-13.054 12.628-33.77 0-46.824z" fill="#8379c1"/></g><circle cx="248.628" cy="248.652" fill="#eaf6ff" r="84.451"/><path d="m248.628 164.201c-4.077 0-8.082.306-12.005.864 40.952 5.831 72.446 41.023 72.446 83.587 0 42.563-31.493 77.756-72.446 83.587 3.923.559 7.928.864 12.005.864 46.641 0 84.451-37.81 84.451-84.451s-37.81-84.451-84.451-84.451z" fill="#c8effe"/><path d="m248.629 298.686c-27.589 0-50.035-22.445-50.035-50.034s22.446-50.035 50.035-50.035 50.034 22.446 50.034 50.035-22.445 50.034-50.034 50.034z" fill="#c2bce0"/><path d="m248.629 198.618c-4.138 0-8.157.514-12.005 1.466 21.809 5.393 38.029 25.118 38.029 48.569s-16.221 43.176-38.029 48.568c3.848.951 7.867 1.466 12.005 1.466 27.589 0 50.035-22.445 50.035-50.034s-22.446-50.035-50.035-50.035z" fill="#aca6d6"/></g></svg>