<svg id="Capa_1" enable-background="new 0 0 492.055 492.055" height="512" viewBox="0 0 492.055 492.055" width="512" xmlns="http://www.w3.org/2000/svg"><g><path d="m129.613 492.055h-34.202c-5.908 0-9.697-6.282-6.942-11.507l53.983-102.38h51.945l-57.843 109.7c-1.358 2.575-4.03 4.187-6.941 4.187z" fill="#6fd7a3"/><path d="m167.826 378.167-55.124 104.545c-2.273 4.312-6.053 7.637-10.619 9.342h27.53c2.911 0 5.584-1.612 6.942-4.187l57.843-109.7z" fill="#3ec3a4"/><path d="m488.563 29.65-22.16 22.61c-11.44 11.68-17.86 27.36-17.89 43.71l-.13 81.52c-.11 73.53-34.3 142.85-92.57 187.71l-47.19 36.32c-33.63 25.89-74.88 39.93-117.31 39.93h-32.74c-36.73.07-57.21-30.92-47.95-64.97.47-1.72-1.23-3.25-2.9-2.61l-7.42 2.81-28.69 10.87c-3.69 1.4-7.92 2.02-12.36 2.02-12.61 0-27.04-4.96-36.44-11.07-18.43-11.98-26.24-35.03-18.91-55.75l11.64-32.86c22.67-64.05 70.07-116.35 131.59-145.19l254.19-119.19c25.71-12.2 55.68-15.3 83.2-9.4 6.2 1.33 8.49 9.01 4.04 13.54z" fill="#fe646f"/><path d="m246.407 294.108c-1.949 0-3.896-.755-5.366-2.259-2.895-2.963-2.839-7.712.124-10.606l76.519-75.667c7.637-7.46 13.403-16.774 16.676-26.936l26.414-82.019c1.27-3.944 5.501-6.109 9.438-4.84 3.943 1.27 6.109 5.495 4.84 9.438l-26.414 82.019c-4.018 12.475-11.096 23.91-20.471 33.068l-76.519 75.667c-1.46 1.425-3.351 2.135-5.241 2.135z" fill="#fd4755"/><path d="m488.563 29.65-22.16 22.61c-11.44 11.68-17.86 27.36-17.89 43.71l-.13 81.52c-.11 73.53-34.3 142.85-92.57 187.71l-47.19 36.32c-33.63 25.89-74.88 39.93-117.31 39.93h-27.5c42.43 0 83.68-14.04 117.31-39.93l47.19-36.32c58.27-44.86 92.46-114.18 92.57-187.71l.13-81.52c.03-16.35 6.45-32.03 17.89-43.71l22.16-22.61c4.45-4.53 2.16-12.21-4.04-13.54-4.55-.98-9.17-1.71-13.83-2.19 13.84-1.43 27.88-.69 41.33 2.19 6.2 1.33 8.49 9.01 4.04 13.54z" fill="#fd4755"/><path d="m261.693 72.37-5.97 7.5 5.97 7.5v39.09l-5.97 7.5 5.97 7.5v39.1l-5.97 7.5 5.97 7.5v39.1l-5.97 7.5 5.97 7.5v21.83c0 13.78-11.17 24.95-24.95 24.95h-31.44v-73.83l7.18-7.5-7.18-7.5v-39.1l7.18-7.5-7.18-7.5v-39.09l7.18-7.5-7.18-7.5v-39.1l7.18-7.5-7.18-7.5v-17.12c0-7.79 3.15-14.83 8.26-19.94 2.26-2.26 4.9-4.13 7.81-5.52 3.67-1.76 7.78-2.74 12.12-2.74 15.57 0 28.2 12.63 28.2 28.2z" fill="#ffd15b"/><path d="m261.693 72.37-5.97 7.5 5.97 7.5v39.09l-5.97 7.5 5.97 7.5v39.1l-5.97 7.5 5.97 7.5v39.1l-5.97 7.5 5.97 7.5v21.83c0 13.78-11.17 24.95-24.95 24.95h-24.26c13.78 0 24.95-11.17 24.95-24.95v-243.29c0-11.23-6.57-20.92-16.06-25.46 3.67-1.76 7.78-2.74 12.12-2.74 15.57 0 28.2 12.63 28.2 28.2z" fill="#ffc344"/><g fill="#fd4755"><path d="m186.628 355.42c-.55 0-1.109-.062-1.668-.188l-50.637-11.502c-3.415-.775-5.839-3.812-5.839-7.313v-71.933c0-25.929 9.893-50.506 27.855-69.204l7.729-8.045c2.869-2.987 7.617-3.082 10.604-.214 2.987 2.87 3.083 7.618.213 10.604l-7.729 8.046c-15.266 15.891-23.672 36.777-23.672 58.812v65.945l44.798 10.176c4.04.917 6.57 4.936 5.652 8.975-.789 3.48-3.882 5.841-7.306 5.841z"/><path d="m224.986 361.321c-1.127 0-2.253-.017-3.379-.049-4.141-.119-7.4-3.572-7.281-7.713.12-4.141 3.582-7.395 7.713-7.281 7.592.219 15.224-.408 22.68-1.864l48.359-9.44c4.069-.793 8.004 1.86 8.798 5.925.793 4.064-1.859 8.004-5.924 8.798l-48.359 9.44c-7.437 1.451-15.027 2.184-22.607 2.184z"/><path d="m360.713 272.64-28.54 16.09c-17.64 9.95-37.67 15.21-57.93 15.21h-67.79c-56.58 17.76-95.83 72.54-95.83 72.54.47-1.72-1.23-3.25-2.9-2.61l-7.42 2.81-25.18-100.52c-1-4.01 1.43-8.09 5.45-9.1s8.09 1.43 9.1 5.45l19.9 79.21c15.52-17.2 48.69-48.72 93.45-62.42.02-.01.05-.02.08-.03.01 0 .02-.01.03-.01.23-.07.46-.13.7-.17.12-.03.24-.04.36-.06s.24-.04.36-.05c.24-.03.48-.04.72-.04h68.97c17.68 0 35.16-4.59 50.56-13.27l28.55-16.1c3.6-2.03 8.18-.76 10.21 2.85 2.04 3.61.76 8.18-2.85 10.22z"/></g><g><g><g fill="#ffead9"><path d="m233.913 52.82c0 4.14-3.36 7.5-7.5 7.5h-21.11v-15h21.11c4.14 0 7.5 3.35 7.5 7.5z"/><path d="m233.913 106.92c0 4.14-3.36 7.5-7.5 7.5h-21.11v-15h21.11c4.14 0 7.5 3.35 7.5 7.5z"/><path d="m233.913 161.01c0 4.15-3.36 7.5-7.5 7.5h-21.11v-15h21.11c4.14 0 7.5 3.36 7.5 7.5z"/><path d="m233.913 215.11c0 4.14-3.36 7.5-7.5 7.5h-21.11v-15h21.11c4.14 0 7.5 3.36 7.5 7.5z"/><path d="m261.693 72.37v15h-21.12c-1.12 0-2.19-.25-3.14-.7-2.58-1.18-4.36-3.78-4.36-6.8s1.78-5.62 4.36-6.81c.95-.44 2.02-.69 3.14-.69z"/><path d="m261.693 126.46v15h-21.12c-1.12 0-2.19-.25-3.14-.69-2.58-1.19-4.36-3.79-4.36-6.81s1.78-5.62 4.36-6.8c.95-.45 2.02-.7 3.14-.7z"/><path d="m261.693 180.56v15h-21.12c-1.12 0-2.19-.25-3.14-.69-2.58-1.19-4.36-3.79-4.36-6.81s1.78-5.62 4.36-6.8c.95-.45 2.02-.7 3.14-.7z"/><path d="m261.693 234.66v15h-21.12c-1.12 0-2.19-.25-3.14-.7-2.58-1.18-4.36-3.78-4.36-6.8s1.78-5.62 4.36-6.8c.95-.45 2.02-.7 3.14-.7z"/></g><path d="m261.693 72.37v15h-21.12c-1.12 0-2.19-.25-3.14-.7v-13.61c.95-.44 2.02-.69 3.14-.69z" fill="#fedba6"/><path d="m240.573 126.46h21.12v15h-21.12c-1.12 0-2.19-.25-3.14-.69v-13.61c.95-.45 2.02-.7 3.14-.7z" fill="#fedba6"/><path d="m240.573 180.56h21.12v15h-21.12c-1.12 0-2.19-.25-3.14-.69v-13.61c.95-.45 2.02-.7 3.14-.7z" fill="#fedba6"/><path d="m240.573 234.66h21.12v15h-21.12c-1.12 0-2.19-.25-3.14-.7v-13.6c.95-.45 2.02-.7 3.14-.7z" fill="#fedba6"/></g></g></g></svg>