<svg id="Capa_1" enable-background="new 0 0 496.996 496.996" height="512" viewBox="0 0 496.996 496.996" width="512" xmlns="http://www.w3.org/2000/svg"><g><g fill="#6fd7a3"><path d="m376.83 378.828c-.804 0-1.621-.13-2.424-.404-3.92-1.338-6.013-5.6-4.675-9.521l32.942-95.545c1.338-3.92 5.604-6.012 9.521-4.675 3.92 1.338 6.013 5.6 4.675 9.521l-32.942 95.545c-1.063 3.117-3.978 5.079-7.097 5.079z"/><path d="m436.543 374.008c-.826 0-1.667-.138-2.49-.428-3.907-1.375-5.96-5.657-4.584-9.564l30.784-93.299c1.375-3.906 5.659-5.962 9.564-4.584 3.907 1.375 5.96 5.657 4.584 9.564l-30.784 93.299c-1.084 3.083-3.981 5.012-7.074 5.012z"/><path d="m262.825 409.438c-.83 0-1.675-.139-2.502-.432-3.905-1.382-5.95-5.668-4.568-9.572l18.215-50.941c1.382-3.905 5.667-5.953 9.572-4.568 3.905 1.382 5.95 5.668 4.568 9.572l-18.215 50.941c-1.089 3.078-3.982 5-7.07 5z"/><path d="m319.841 385.132c-.959 0-1.933-.185-2.873-.575-3.826-1.589-5.639-5.978-4.051-9.803l27.697-63.974c1.589-3.825 5.978-5.64 9.803-4.051 3.826 1.589 5.639 5.978 4.051 9.803l-27.697 63.974c-1.199 2.885-3.99 4.626-6.93 4.626z"/></g><path d="m199.845 491.635h-29.033c-4.075 0-7.378-3.303-7.378-7.378v-145.873h43.789v145.874c0 4.074-3.303 7.377-7.378 7.377z" fill="#9be69d"/><path d="m182.839 338.384v142.245c0 4.834-2.929 9.186-7.407 11.006h24.413c4.075 0 7.378-3.303 7.378-7.378v-145.873z" fill="#6fd7a3"/><path d="m409.673 285.898h-.044c-7.858 0-14.228-6.37-14.228-14.228v-37.627c0-7.858 6.37-14.228 14.228-14.228h.044c7.858 0 14.228 6.37 14.228 14.228v37.627c0 7.858-6.37 14.228-14.228 14.228z" fill="#978ecb"/><path d="m467.564 278.203h-.044c-7.858 0-14.228-6.37-14.228-14.228v-37.627c0-7.858 6.37-14.228 14.228-14.228h.044c7.858 0 14.228 6.37 14.228 14.228v37.627c0 7.858-6.37 14.228-14.228 14.228z" fill="#978ecb"/><path d="m203.346 181.3c-2.15 6.43-5.34 12.62-9.6 18.32l-17.79 23.81c-13.09 17.53-33.53 26.75-54.17 26.19-10.59-.28-21.22-3.14-30.95-8.77l-11.83-6.84c-25.12-14.53-44.07-37.7-53.28-65.16l-24.69-73.63c-2.77-8.26.24-16.67 6.33-21.59 3.5-2.84 8.03-4.52 13.06-4.36l77.83 2.49c7.66.25 15.23 1.23 22.6 2.9 20.59 4.67 39.71 14.73 55.29 29.33l9.96 9.34c18.98 17.779 25.08 44.48 17.24 67.97z" fill="#c2bce0"/><path d="m203.346 181.3c-2.15 6.43-5.34 12.62-9.6 18.32l-17.79 23.81c-13.09 17.53-33.53 26.75-54.17 26.19v-.01c11.53-4.23 21.97-11.71 29.79-22.18l17.79-23.81c4.62-6.19 7.98-12.97 10.11-20h-15.13c-26.3 0-48.41-19.66-51.41-45.7l-1.24-10.73c-1.239-10.752-.6-21.544 1.801-31.926 1.421-6.145-2.043-12.339-8.068-14.205-10.157-3.146-20.762-4.948-31.553-5.299l-66.51-2.13c3.5-2.84 8.03-4.52 13.06-4.36l77.83 2.49c7.66.25 15.23 1.23 22.6 2.9 20.59 4.67 39.71 14.73 55.29 29.33l9.96 9.34c18.98 17.779 25.08 44.48 17.24 67.97z" fill="#aca6d6"/><path d="m171.662 199.622 17.788 23.81c19.815 26.522 56.43 34.016 85.124 17.421l11.824-6.839c25.126-14.532 44.072-37.703 53.283-65.167l24.694-73.626c4.367-13.022-5.623-26.394-19.389-25.953l-77.834 2.497c-29.034.932-56.729 12.39-77.893 32.227l-9.959 9.335c-24.167 22.653-27.452 59.772-7.638 86.295z" fill="#c2bce0"/><path d="m344.987 69.267-18.827.604c10.734 2.722 17.585 14.16 13.833 25.349l-24.694 73.626c-9.211 27.464-28.157 50.635-53.283 65.167l-11.824 6.839c-6.532 3.778-13.477 6.294-20.539 7.635 14.94 2.825 30.879.488 44.923-7.635l11.824-6.839c25.126-14.532 44.072-37.703 53.283-65.167l24.694-73.626c4.366-13.022-5.624-26.395-19.39-25.953z" fill="#aca6d6"/><path d="m252.766 314.74c-2.01 3.65-4.22 7.2-6.62 10.64l-44.49 63.72c-6.69 9.6-19.81 11.02-28.42 4.27-1.5-1.17-2.87-2.59-4.04-4.27l-44.48-63.72c-16.59-23.77-23.92-52.76-20.6-81.53l1.56-13.54c3.79-32.85 31.69-57.65 64.86-57.65h29.78c13.35 0 25.85 4.02 36.26 10.96 15.47 10.3 26.34 27.06 28.6 46.69l1.56 13.54c2.84 24.6-2.1 49.37-13.97 70.89z" fill="#c2bce0"/><path d="m252.766 314.74c-2.01 3.65-4.22 7.2-6.62 10.64l-44.49 63.72c-6.69 9.6-19.81 11.02-28.42 4.27 1.5-1.18 2.87-2.6 4.04-4.27l44.48-63.72c1.83-2.63 3.55-5.31 5.15-8.06 2.99-5.11 1.37-11.68-3.61-14.9-6.11-3.95-11.76-8.66-16.8-14.06l-6.99-7.49c-16.96-18.19-17.55-46.17-1.36-65.05l14.53-16.94c2.6-3.04 5.51-5.68 8.64-7.92-11.8-11.38-27.85-18.3-45.38-18.3h24.38c13.35 0 25.85 4.02 36.26 10.96 15.47 10.3 26.34 27.06 28.6 46.69l1.56 13.54c2.84 24.6-2.1 49.37-13.97 70.89z" fill="#aca6d6"/><path d="m199.52 174.249h-22.364c-24.912 0-45.864-18.623-48.709-43.296l-1.172-10.167c-2.491-21.605 3.009-43.374 15.47-61.225l33.405-47.853c5.908-8.463 18.469-8.463 24.377 0l33.405 47.853c12.461 17.85 17.961 39.619 15.47 61.225l-1.172 10.167c-2.846 24.673-23.798 43.296-48.71 43.296z" fill="#c2bce0"/><path d="m233.932 59.561-33.405-47.853c-5.908-8.463-18.469-8.463-24.377 0l-.003.005 33.402 47.848c12.461 17.85 17.961 39.619 15.47 61.225l-1.172 10.167c-2.806 24.337-23.234 42.776-47.699 43.272.337.007.672.023 1.01.023h22.364c24.912 0 45.864-18.624 48.709-43.296l1.172-10.167c2.49-21.604-3.01-43.373-15.471-61.224z" fill="#aca6d6"/><path d="m219.963 215.823 14.532-16.947c16.187-18.878 44.001-22.654 64.662-8.778l8.514 5.718c18.093 12.15 31.117 30.464 36.631 51.505l14.782 56.407c2.614 9.976-5.547 19.494-15.839 18.472l-58.193-5.78c-21.707-2.156-41.88-12.133-56.735-28.059l-6.991-7.495c-16.964-18.187-17.55-46.165-1.363-65.043z" fill="#c2bce0"/><path d="m359.084 303.728-14.782-56.407c-5.514-21.041-18.539-39.354-36.631-51.505l-8.514-5.718c-12.004-8.062-26.421-10.154-39.571-6.798 5.288 1.354 10.429 3.602 15.187 6.798l8.514 5.718c18.093 12.151 31.117 30.464 36.631 51.505l14.782 56.407c1.843 7.032-1.672 13.832-7.511 16.877l16.055 1.595c10.293 1.022 18.454-8.496 15.84-18.472z" fill="#aca6d6"/><path d="m156.714 215.823-14.532-16.947c-16.187-18.878-44.001-22.654-64.662-8.778l-8.514 5.718c-18.093 12.15-31.117 30.464-36.631 51.505l-14.782 56.407c-2.614 9.976 5.547 19.494 15.839 18.472l58.193-5.78c21.707-2.156 41.88-12.133 56.735-28.059l6.991-7.495c16.964-18.187 17.55-46.165 1.363-65.043z" fill="#c2bce0"/><path d="m156.714 215.823-14.532-16.947c-12.459-14.53-31.803-20.101-49.475-15.576 9.483 2.42 18.309 7.667 25.091 15.576l14.532 16.947c16.187 18.878 15.601 46.855-1.363 65.043l-6.991 7.495c-14.855 15.927-35.028 25.903-56.735 28.059l-42.138 4.185c2.444 1.275 5.292 1.896 8.329 1.595l58.193-5.78c21.707-2.156 41.88-12.133 56.735-28.059l6.991-7.495c16.964-18.187 17.55-46.165 1.363-65.043z" fill="#aca6d6"/><path d="m196.415 150.525.02.069c1.8 6.091 9.175 8.48 14.223 4.607l.057-.044c7.163-5.496 17.098 1.7 14.068 10.189l-.024.067c-2.135 5.983 2.423 12.237 8.79 12.061l.072-.002c9.035-.249 12.83 11.394 5.373 16.487l-.059.04c-5.255 3.589-5.255 11.32 0 14.909l.059.04c7.456 5.093 3.662 16.736-5.373 16.487l-.072-.002c-6.367-.176-10.925 6.079-8.79 12.061l.024.067c3.03 8.489-6.905 15.685-14.068 10.189l-.057-.044c-5.048-3.873-12.423-1.484-14.223 4.607l-.02.069c-2.554 8.643-14.835 8.643-17.389 0l-.02-.069c-1.8-6.091-9.175-8.48-14.223-4.607l-.057.044c-7.162 5.496-17.098-1.7-14.068-10.189l.024-.067c2.135-5.983-2.423-12.237-8.79-12.061l-.072.002c-9.035.249-12.83-11.394-5.373-16.487l.059-.04c5.255-3.589 5.255-11.32 0-14.909l-.059-.04c-7.456-5.093-3.662-16.736 5.373-16.487l.072.002c6.367.176 10.925-6.079 8.79-12.061l-.024-.067c-3.03-8.489 6.905-15.685 14.068-10.189l.057.044c5.048 3.873 12.423 1.484 14.223-4.607l.02-.069c2.554-8.643 14.834-8.643 17.389 0z" fill="#eaf6ff"/><path d="m238.994 208.949-.059-.04c-5.255-3.589-5.255-11.32 0-14.909l.059-.041c7.456-5.093 3.661-16.736-5.374-16.487l-.072.002c-6.367.176-10.925-6.079-8.79-12.061l.024-.067c3.03-8.489-6.905-15.685-14.068-10.189l-.057.044c-5.048 3.873-12.423 1.484-14.223-4.607l-.02-.069c-2.554-8.643-14.835-8.643-17.389 0l-.02.069c-.607 2.054-1.856 3.674-3.428 4.788 3.089 2.189 7.449 2.386 10.795-.181l.057-.044c7.163-5.496 17.098 1.7 14.068 10.189l-.024.067c-2.135 5.983 2.423 12.237 8.79 12.061l.072-.002c9.035-.249 12.83 11.394 5.373 16.487l-.059.041c-5.255 3.589-5.255 11.32 0 14.909l.059.04c7.456 5.093 3.662 16.736-5.373 16.487l-.072-.002c-6.367-.176-10.925 6.079-8.79 12.062l.024.067c3.03 8.489-6.905 15.685-14.068 10.189l-.057-.044c-3.345-2.567-7.705-2.37-10.795-.181 1.572 1.114 2.821 2.734 3.428 4.788l.02.069c2.554 8.643 14.835 8.643 17.389 0l.02-.069c1.8-6.091 9.175-8.48 14.223-4.607l.057.044c7.163 5.496 17.098-1.7 14.068-10.189l-.024-.067c-2.135-5.983 2.423-12.237 8.79-12.062l.072.002c9.036.25 12.831-11.394 5.374-16.487z" fill="#c8effe"/><g><path d="m207.223 446.264-8.562-14.514 8.562-16.74 105.535-45.182c15.144-6.403 31.161-9.65 47.608-9.65h49.35c10.538 0 20.913-1.789 30.839-5.316l42.962-16.419c5.46-1.941 11.433 1.092 13.069 6.636 1.239 4.198-.387 8.713-4.022 11.167 0 0-30.725 21.394-41.902 26.875-12.554 6.155-26.954 7.059-40.945 7.059h-49.35c-12.388 0-24.452 2.445-35.857 7.269z" fill="#9be69d"/></g><g fill="#6fd7a3"><path d="m300.125 397.446-92.902 38.668-3.617 4.018 3.617 6.132 117.286-48.818c11.405-4.823 23.469-7.269 35.857-7.269h-24.384c-12.387 0-24.451 2.445-35.857 7.269z"/><path d="m496.586 345.077c-1.636-5.543-7.609-8.577-13.069-6.636l-12.146 4.642c.34.621.622 1.286.83 1.994 1.239 4.198-.387 8.713-4.021 11.167 0 0-30.725 21.394-41.902 26.875-12.554 6.155-26.954 7.059-40.945 7.059h24.384c13.992 0 28.391-.903 40.945-7.059 11.178-5.48 41.902-26.875 41.902-26.875 3.634-2.454 5.26-6.969 4.022-11.167z"/></g><path d="m158.738 115.353c-2.112 0-4.211-.887-5.694-2.615-2.698-3.143-2.338-7.878.806-10.575l23.354-20.048c3.143-2.7 7.878-2.337 10.575.806 2.698 3.143 2.338 7.878-.806 10.575l-23.354 20.048c-1.414 1.214-3.152 1.809-4.881 1.809z" fill="#8379c1"/><path d="m216.704 138.453c-1.713 0-3.435-.583-4.844-1.777l-20.146-17.065c-3.16-2.677-3.553-7.409-.875-10.57 2.677-3.16 7.41-3.554 10.57-.875l20.146 17.065c3.16 2.677 3.553 7.409.875 10.57-1.483 1.75-3.597 2.652-5.726 2.652z" fill="#8379c1"/><path d="m187.103 216.013c-1.847 0-3.696-.678-5.146-2.044l-9.511-8.971c-13.48-12.714-21.212-30.619-21.212-49.124v-65.409c0-4.143 3.357-7.5 7.5-7.5s7.5 3.357 7.5 7.5v65.409c0 14.392 6.016 28.319 16.504 38.212l9.512 8.971c3.013 2.842 3.151 7.589.31 10.603-1.476 1.563-3.465 2.353-5.457 2.353z" fill="#978ecb"/><path d="m188.338 225.931c-4.143 0-7.5-3.357-7.5-7.5v-9.918c0-2.065.852-4.039 2.354-5.456l9.511-8.971c10.49-9.893 16.506-23.82 16.506-38.212v-62.371c0-4.143 3.357-7.5 7.5-7.5s7.5 3.357 7.5 7.5v62.372c0 18.504-7.732 36.409-21.214 49.124l-7.156 6.75v6.683c-.001 4.142-3.358 7.499-7.501 7.499z" fill="#978ecb"/></g></svg>