<svg id="Capa_1" enable-background="new 0 0 503.942 503.942" height="512" viewBox="0 0 503.942 503.942" width="512" xmlns="http://www.w3.org/2000/svg"><g><path d="m318.789 35.151c-1.12 0-2.257-.252-3.328-.784-3.71-1.841-5.226-6.341-3.385-10.052l9.998-20.147c1.843-3.71 6.343-5.225 10.053-3.385 3.71 1.842 5.226 6.342 3.385 10.053l-9.998 20.147c-1.311 2.638-3.966 4.168-6.725 4.168z" fill="#3ec3a4"/><g><path d="m300.317 243.494c-10.102-4.856-14.367-16.996-9.527-27.121l7.368-15.416c2.7-5.65 9.461-8.034 15.098-5.325l16.198 7.786c5.631 2.707 8.009 9.474 5.311 15.119l-7.363 15.405c-4.845 10.134-16.973 14.412-27.085 9.552z" fill="#9be69d"/><path d="m329.447 203.415-16.198-7.786c-4.465-2.146-9.627-1.084-12.925 2.257l11.501 5.528c5.634 2.708 8.012 9.483 5.312 15.133l-7.358 15.396c-2.074 4.339-5.487 7.594-9.499 9.529.017.008.032.019.049.027 10.107 4.858 22.227.58 27.071-9.556l7.358-15.396c2.701-5.649.323-12.425-5.311-15.132z" fill="#6fd7a3"/><path d="m359.024 120.691c-12.575-6.044-27.59.297-32.065 13.542l-17.372 51.419c-2.377 7.941 1.366 16.435 8.821 20.019 7.456 3.584 16.403 1.189 21.086-5.644l29.087-45.788c7.494-11.794 3.018-27.503-9.557-33.548z" fill="#c365af"/><path d="m359.024 120.691c-6.211-2.985-13.015-2.945-18.852-.548.413.17.823.352 1.231.548 12.575 6.044 17.051 21.754 9.559 33.548l-29.087 45.788c-1.36 1.984-3.087 3.581-5.025 4.779.502.31 1.018.604 1.56.865 7.455 3.584 16.403 1.189 21.086-5.643l29.087-45.788c7.492-11.795 3.016-27.505-9.559-33.549z" fill="#b2529f"/></g><g><path d="m209.733 188.742c10.102-4.856 14.367-16.996 9.527-27.121l-7.368-15.416c-2.7-5.65-9.461-8.034-15.098-5.325l-16.198 7.786c-5.631 2.707-8.009 9.474-5.311 15.119l7.363 15.405c4.845 10.134 16.973 14.412 27.085 9.552z" fill="#9be69d"/><path d="m219.25 161.599-7.358-15.396c-2.7-5.65-9.457-8.035-15.091-5.327l-4.697 2.257c.863.875 1.606 1.897 2.166 3.07l7.358 15.396c4.836 10.118.59 22.247-9.48 27.121 5.359 2.584 11.792 2.805 17.572.027 10.108-4.858 14.374-17.012 9.53-27.148z" fill="#6fd7a3"/><path d="m151.026 65.939c12.575-6.044 27.59.297 32.065 13.542l17.372 51.419c2.377 7.941-1.366 16.435-8.821 20.019-7.456 3.584-16.403 1.189-21.086-5.644l-29.087-45.788c-7.494-11.794-3.018-27.504 9.557-33.548z" fill="#c365af"/><path d="m200.463 130.9-17.372-51.42c-4.33-12.815-18.527-19.166-30.834-14.09 5.982 2.456 10.948 7.386 13.212 14.09l17.372 51.42c2.204 7.364-.86 15.196-7.261 19.154 4.736 2.927 10.771 3.407 16.061.865 7.456-3.583 11.199-12.078 8.822-20.019z" fill="#b2529f"/></g><g><path d="m243.667 259.136-24.538-99.825c-3.089-12.569-.517-25.788 7.058-36.269l30.045-41.577c2.301-3.184 3.139-7.203 2.307-11.043l-10.864-44.882c-1.954-8.074 2.988-16.207 11.039-18.167 8.051-1.96 16.161 2.997 18.115 11.07l10.898 45.027c.02.081.038.163.057.244 2.761 12.295.114 25.199-7.26 35.405l-30.046 41.577c-2.383 3.298-3.192 7.46-2.22 11.415l24.538 99.825z" fill="#6fd7a3"/></g><path d="m280.523 99.119c7.374-10.206 10.021-23.11 7.26-35.405-.019-.081-.037-.163-.057-.244l-10.897-45.027c-1.954-8.074-10.064-13.03-18.115-11.07-2.042.497-3.882 1.394-5.462 2.584 2.69 2.021 4.722 4.955 5.577 8.486l10.898 45.027c.02.081.038.163.057.244 2.761 12.295.114 25.199-7.26 35.405l-30.046 41.577c-2.383 3.298-3.192 7.46-2.22 11.415l24.538 99.825-12.16 3.006 1.031 4.194 29.129-7.2-24.538-99.825c-.973-3.956-.163-8.117 2.22-11.415z" fill="#3ec3a4"/><path d="m297.326 71.486c-10.102-4.856-14.367-16.996-9.527-27.121l7.368-15.416c2.7-5.65 9.461-8.034 15.098-5.325l16.198 7.786c5.631 2.707 8.009 9.474 5.311 15.119l-7.363 15.405c-4.845 10.134-16.974 14.412-27.085 9.552z" fill="#9be69d"/><path d="m326.455 31.406-16.198-7.786c-4.465-2.146-9.628-1.084-12.925 2.257l11.501 5.528c5.634 2.708 8.012 9.483 5.312 15.133l-7.358 15.396c-2.074 4.339-5.487 7.594-9.499 9.529.017.008.032.019.049.027 10.107 4.858 22.227.58 27.071-9.556l7.358-15.396c2.701-5.649.323-12.424-5.311-15.132z" fill="#6fd7a3"/><path d="m251.971 368.525-52.268-38.738v-68.368c0-9.983 4.948-19.313 13.201-24.894l22.316-15.09c10.122-6.845 23.375-6.84 33.493.012l22.262 15.076c8.243 5.583 13.184 14.907 13.184 24.882v69.163z" fill="#d691c6"/><path d="m251.971 339.036c-4.143 0-7.5-3.357-7.5-7.5v-61.709c0-4.143 3.357-7.5 7.5-7.5s7.5 3.357 7.5 7.5v61.709c0 4.142-3.358 7.5-7.5 7.5z" fill="#cd7cbb"/><path d="m290.975 236.524-22.262-15.076c-7.634-5.17-17.052-6.436-25.565-3.809 2.775.857 5.455 2.123 7.944 3.809l22.262 15.076c8.243 5.583 13.184 14.907 13.184 24.882v69.163l-43.295 31.488 8.728 6.468 52.188-37.957v-69.163c0-9.975-4.94-19.299-13.184-24.881z" fill="#cd7cbb"/><path d="m376.871 447.742-23.2 13.58c-8.59 5.03-19.11 5.45-28.08 1.13l-62.14-29.99-9.82-54.4-1.66-9.22 8.15-4.31 49.32-26.13 61.43 29.65c8.97 4.33 15.21 12.84 16.65 22.72l3.88 26.71c1.76 12.12-3.99 24.09-14.53 30.26z" fill="#d691c6"/><path d="m340.451 413.132c-1.85 3.7-6.36 5.2-10.06 3.35l-76.76-38.42-1.66-9.22 8.15-4.31 76.98 38.53c3.71 1.86 5.21 6.36 3.35 10.07z" fill="#cd7cbb"/><path d="m391.401 417.483-3.883-26.709c-1.436-9.879-7.674-18.395-16.644-22.724l-61.432-29.645-8.401 4.449 52.212 25.195c8.97 4.329 15.208 12.845 16.644 22.724l3.883 26.709c1.761 12.115-3.99 24.089-14.533 30.261l-23.199 13.58c-2.001 1.172-4.11 2.082-6.277 2.752 7.937 2.451 16.611 1.514 23.899-2.752l23.199-13.58c10.543-6.171 16.293-18.145 14.532-30.26z" fill="#cd7cbb"/><path d="m251.971 368.841-57.471-30.436-61.432 29.645c-8.97 4.329-15.208 12.845-16.644 22.724l-3.883 26.709c-1.761 12.115 3.99 24.089 14.533 30.261l23.2 13.58c8.591 5.029 19.111 5.45 28.074 1.125l62.146-29.989z" fill="#dfa8d2"/><path d="m251.971 368.832-1.66 9.23-.33 1.82-9.49 52.57-38.48 18.58-23.66 11.42c-8.97 4.32-19.49 3.9-28.08-1.12l-23.2-13.59c-10.54-6.17-16.29-18.14-14.53-30.26l3.88-26.71c1.44-9.88 7.68-18.4 16.65-22.72l24.72-11.93 36.71-17.72 39.94 21.15 9.39 4.97z" fill="#d691c6"/><g fill="#cd7cbb"><path d="m251.971 368.832-1.66 9.23-76.8 38.42c-1.08.54-2.22.79-3.35.79-2.75 0-5.4-1.52-6.71-4.15-1.86-3.7-.35-8.21 3.35-10.06l77.03-38.54z"/><path d="m249.981 379.878-9.49 52.579-38.48 18.573-5.92-22.363c-4.29-16.246 1.8-33.455 15.34-43.343l23.01-16.798z"/><path d="m234.441 359.55v8.975l-26.12 8.544c-15.92 5.215-33.4.07-44-12.937l-6.53-8.013 36.71-17.72z"/></g><path d="m274.975 385.32-23.005-16.795-23.005 16.795c-13.544 9.888-19.637 27.105-15.34 43.342l15.196 57.422c6.301 23.81 39.997 23.81 46.298 0l15.196-57.422c4.298-16.237-1.796-33.454-15.34-43.342z" fill="#c365af"/><path d="m274.976 385.32-23.005-16.795-8.811 6.432 14.194 10.362c13.544 9.888 19.637 27.105 15.34 43.342l-15.196 57.422c-2.205 8.333-7.77 13.739-14.338 16.239 12.198 4.643 27.864-.763 31.959-16.239l15.196-57.422c4.297-16.236-1.796-33.453-15.339-43.341z" fill="#b2529f"/><path d="m332.457 280.515-55.305 21.3c-13.058 5.026-22.417 16.344-25.182 29.721l-3.512 19.028 3.512 17.961 26.116 8.541c15.926 5.215 33.406.076 44.007-12.933l37.495-45.995c15.543-19.074-4.201-46.456-27.131-37.623z" fill="#c365af"/><path d="m332.457 280.515-.069.027c13.574 5.61 20.838 23.778 9.579 37.596l-37.495 45.995c-5.891 7.229-13.908 12.023-22.6 13.965 14.85 3.317 30.455-1.981 40.222-13.965l37.495-45.995c15.542-19.074-4.202-46.456-27.132-37.623z" fill="#b2529f"/><path d="m171.484 280.515 55.305 21.3c13.058 5.026 22.417 16.344 25.182 29.721v36.989l-26.116 8.541c-15.926 5.215-33.406.076-44.007-12.933l-37.495-45.995c-15.542-19.074 4.201-46.456 27.131-37.623z" fill="#c365af"/><path d="m226.789 301.815-55.305-21.3c-6.318-2.434-12.39-2.108-17.553.027l55.236 21.273c13.058 5.025 22.417 16.344 25.182 29.721v27.627c0 5.585-3.591 10.537-8.899 12.273l-17.217 5.63c-1.253.41-2.517.749-3.786 1.033 6.95 1.553 14.331 1.284 21.407-1.033l26.116-8.541v-36.989c-2.764-13.377-12.123-24.696-25.181-29.721z" fill="#b2529f"/></g></svg>